<svg width="16" height="16" viewBox="0 0 16 16" fill="none" xmlns="http://www.w3.org/2000/svg">
<g clip-path="url(#clip0_657_431)">
<rect width="16" height="16" rx="4" fill="url(#paint0_linear_657_431)"/>
<g filter="url(#filter0_ii_657_431)">
<circle cx="7" cy="7" r="4.25" fill="url(#paint1_linear_657_431)" stroke="white" stroke-width="1.5" stroke-linecap="round"/>
<g filter="url(#filter1_dd_657_431)">
<path fill-rule="evenodd" clip-rule="evenodd" d="M10.5 7C10.5 8.933 8.933 10.5 7 10.5C5.067 10.5 3.5 8.933 3.5 7C3.5 5.067 5.067 3.5 7 3.5C8.933 3.5 10.5 5.067 10.5 7ZM9.75739 11.1716C8.96696 11.6951 8.01908 12 7 12C4.23858 12 2 9.76142 2 7C2 4.23858 4.23858 2 7 2C9.76142 2 12 4.23858 12 7C12 8.01908 11.6951 8.96696 11.1716 9.75739L13.2071 11.7929C13.5976 12.1834 13.5976 12.8166 13.2071 13.2071C12.8166 13.5976 12.1834 13.5976 11.7929 13.2071L9.75739 11.1716Z" fill="white"/>
</g>
</g>
</g>
<defs>
<filter id="filter0_ii_657_431" x="2" y="1" width="11.5" height="12.5" filterUnits="userSpaceOnUse" color-interpolation-filters="sRGB">
<feFlood flood-opacity="0" result="BackgroundImageFix"/>
<feBlend mode="normal" in="SourceGraphic" in2="BackgroundImageFix" result="shape"/>
<feColorMatrix in="SourceAlpha" type="matrix" values="0 0 0 0 0 0 0 0 0 0 0 0 0 0 0 0 0 0 127 0" result="hardAlpha"/>
<feOffset dy="-1"/>
<feGaussianBlur stdDeviation="0.75"/>
<feComposite in2="hardAlpha" operator="arithmetic" k2="-1" k3="1"/>
<feColorMatrix type="matrix" values="0 0 0 0 0 0 0 0 0 0 0 0 0 0 0 0 0 0 0.25 0"/>
<feBlend mode="normal" in2="shape" result="effect1_innerShadow_657_431"/>
<feColorMatrix in="SourceAlpha" type="matrix" values="0 0 0 0 0 0 0 0 0 0 0 0 0 0 0 0 0 0 127 0" result="hardAlpha"/>
<feOffset dy="-0.5"/>
<feGaussianBlur stdDeviation="0.5"/>
<feComposite in2="hardAlpha" operator="arithmetic" k2="-1" k3="1"/>
<feColorMatrix type="matrix" values="0 0 0 0 0 0 0 0 0 0.866667 0 0 0 0 1 0 0 0 0.5 0"/>
<feBlend mode="normal" in2="effect1_innerShadow_657_431" result="effect2_innerShadow_657_431"/>
</filter>
<filter id="filter1_dd_657_431" x="-2" y="1" width="19.5" height="20.5" filterUnits="userSpaceOnUse" color-interpolation-filters="sRGB">
<feFlood flood-opacity="0" result="BackgroundImageFix"/>
<feColorMatrix in="SourceAlpha" type="matrix" values="0 0 0 0 0 0 0 0 0 0 0 0 0 0 0 0 0 0 127 0" result="hardAlpha"/>
<feOffset dy="4"/>
<feGaussianBlur stdDeviation="2"/>
<feComposite in2="hardAlpha" operator="out"/>
<feColorMatrix type="matrix" values="0 0 0 0 0 0 0 0 0 0 0 0 0 0 0 0 0 0 0.1 0"/>
<feBlend mode="normal" in2="BackgroundImageFix" result="effect1_dropShadow_657_431"/>
<feColorMatrix in="SourceAlpha" type="matrix" values="0 0 0 0 0 0 0 0 0 0 0 0 0 0 0 0 0 0 127 0" result="hardAlpha"/>
<feOffset dy="1"/>
<feGaussianBlur stdDeviation="1"/>
<feComposite in2="hardAlpha" operator="out"/>
<feColorMatrix type="matrix" values="0 0 0 0 0 0 0 0 0 0 0 0 0 0 0 0 0 0 0.25 0"/>
<feBlend mode="normal" in2="effect1_dropShadow_657_431" result="effect2_dropShadow_657_431"/>
<feBlend mode="normal" in="SourceGraphic" in2="effect2_dropShadow_657_431" result="shape"/>
</filter>
<linearGradient id="paint0_linear_657_431" x1="8" y1="0" x2="8" y2="16" gradientUnits="userSpaceOnUse">
<stop stop-color="#00A0E8"/>
<stop offset="1" stop-color="#0061E0"/>
</linearGradient>
<linearGradient id="paint1_linear_657_431" x1="7" y1="2" x2="7" y2="12" gradientUnits="userSpaceOnUse">
<stop stop-color="#0061E0"/>
<stop offset="1" stop-color="#40A060"/>
</linearGradient>
<clipPath id="clip0_657_431">
<rect width="16" height="16" rx="4" fill="white"/>
</clipPath>
</defs>
</svg>
