<svg width="16" height="16" viewBox="0 0 16 16" fill="none" xmlns="http://www.w3.org/2000/svg">
<g clip-path="url(#clip0_91_1359)">
<g filter="url(#filter0_i_91_1359)">
<rect width="16" height="16" rx="8" fill="url(#paint0_radial_91_1359)"/>
</g>
<rect x="4" y="4" width="2" height="3" rx="1" fill="url(#paint1_linear_91_1359)"/>
<rect x="10" y="4" width="2" height="3" rx="1" fill="url(#paint2_linear_91_1359)"/>
<path d="M4 9.44444C4 9.19898 4.19898 9 4.44444 9H11.5556C11.801 9 12 9.19898 12 9.44444C12 11.4081 10.4081 13 8.44444 13H7.55556C5.59188 13 4 11.4081 4 9.44444Z" fill="#800010"/>
<mask id="mask0_91_1359" style="mask-type:alpha" maskUnits="userSpaceOnUse" x="4" y="9" width="8" height="4">
<path d="M4 9.44444C4 9.19898 4.19898 9 4.44444 9H11.5556C11.801 9 12 9.19898 12 9.44444C12 11.4081 10.4081 13 8.44444 13H7.55556C5.59188 13 4 11.4081 4 9.44444Z" fill="#800010"/>
</mask>
<g mask="url(#mask0_91_1359)">
<ellipse cx="8" cy="12" rx="4" ry="1" fill="url(#paint3_linear_91_1359)"/>
<g filter="url(#filter1_i_91_1359)">
<rect x="3" y="9" width="10" height="1.5" fill="url(#paint4_radial_91_1359)"/>
</g>
</g>
</g>
<defs>
<filter id="filter0_i_91_1359" x="0" y="-2" width="16" height="18" filterUnits="userSpaceOnUse" color-interpolation-filters="sRGB">
<feFlood flood-opacity="0" result="BackgroundImageFix"/>
<feBlend mode="normal" in="SourceGraphic" in2="BackgroundImageFix" result="shape"/>
<feColorMatrix in="SourceAlpha" type="matrix" values="0 0 0 0 0 0 0 0 0 0 0 0 0 0 0 0 0 0 127 0" result="hardAlpha"/>
<feOffset dy="-2"/>
<feGaussianBlur stdDeviation="2"/>
<feComposite in2="hardAlpha" operator="arithmetic" k2="-1" k3="1"/>
<feColorMatrix type="matrix" values="0 0 0 0 0.71 0 0 0 0 0 0 0 0 0 0.5964 0 0 0 0.5 0"/>
<feBlend mode="normal" in2="shape" result="effect1_innerShadow_91_1359"/>
</filter>
<filter id="filter1_i_91_1359" x="3" y="9" width="10" height="2" filterUnits="userSpaceOnUse" color-interpolation-filters="sRGB">
<feFlood flood-opacity="0" result="BackgroundImageFix"/>
<feBlend mode="normal" in="SourceGraphic" in2="BackgroundImageFix" result="shape"/>
<feColorMatrix in="SourceAlpha" type="matrix" values="0 0 0 0 0 0 0 0 0 0 0 0 0 0 0 0 0 0 127 0" result="hardAlpha"/>
<feOffset dy="0.5"/>
<feGaussianBlur stdDeviation="0.25"/>
<feComposite in2="hardAlpha" operator="arithmetic" k2="-1" k3="1"/>
<feColorMatrix type="matrix" values="0 0 0 0 0 0 0 0 0 0 0 0 0 0 0 0 0 0 0.1 0"/>
<feBlend mode="normal" in2="shape" result="effect1_innerShadow_91_1359"/>
</filter>
<radialGradient id="paint0_radial_91_1359" cx="0" cy="0" r="1" gradientUnits="userSpaceOnUse" gradientTransform="translate(8) rotate(90) scale(16)">
<stop offset="0.244977" stop-color="#FFC000"/>
<stop offset="1" stop-color="#FF6040"/>
</radialGradient>
<linearGradient id="paint1_linear_91_1359" x1="5" y1="4" x2="5" y2="7" gradientUnits="userSpaceOnUse">
<stop/>
<stop offset="1" stop-opacity="0.75"/>
</linearGradient>
<linearGradient id="paint2_linear_91_1359" x1="11" y1="4" x2="11" y2="7" gradientUnits="userSpaceOnUse">
<stop/>
<stop offset="1" stop-opacity="0.75"/>
</linearGradient>
<linearGradient id="paint3_linear_91_1359" x1="8" y1="11" x2="8" y2="13" gradientUnits="userSpaceOnUse">
<stop stop-color="#C00040"/>
<stop offset="1" stop-color="#C00040" stop-opacity="0"/>
</linearGradient>
<radialGradient id="paint4_radial_91_1359" cx="0" cy="0" r="1" gradientUnits="userSpaceOnUse" gradientTransform="translate(8 9.75) rotate(90) scale(4.5 4.99825)">
<stop stop-color="#F0F6FF"/>
<stop offset="1" stop-color="#B0DDFF"/>
</radialGradient>
<clipPath id="clip0_91_1359">
<rect width="16" height="16" fill="white"/>
</clipPath>
</defs>
</svg>
