<svg width="16" height="16" viewBox="0 0 16 16" fill="none" xmlns="http://www.w3.org/2000/svg">
<g clip-path="url(#clip0_91_1572)">
<g filter="url(#filter0_i_91_1572)">
<rect width="16" height="16" rx="8" fill="url(#paint0_radial_91_1572)"/>
</g>
<g filter="url(#filter1_di_91_1572)">
<path d="M4 11.5C4 10.9477 4.44772 10.5 5 10.5H11C11.5523 10.5 12 10.9477 12 11.5V12.5H4V11.5Z" fill="url(#paint1_radial_91_1572)"/>
</g>
<rect x="4" y="5.5" width="2" height="3" rx="1" fill="url(#paint2_linear_91_1572)"/>
<rect x="10" y="5.5" width="2" height="3" rx="1" fill="url(#paint3_linear_91_1572)"/>
<g filter="url(#filter2_di_91_1572)">
<path d="M3.5 3.5L3.75192 3.33205C4.56573 2.78951 5.52192 2.5 6.5 2.5V2.5M9.5 2.5V2.5C10.4781 2.5 11.4343 2.78951 12.2481 3.33205L12.5 3.5" stroke="#803000" stroke-linecap="round" stroke-linejoin="round"/>
</g>
<g filter="url(#filter3_b_91_1572)">
<path d="M14 5.5L13.0195 7.78784C12.7043 8.52321 11.9813 9 11.1812 9H11.0086C10.1156 9 9.33087 8.40805 9.08556 7.54944L8.5 5.5H7.5L6.91445 7.54944C6.66913 8.40804 5.88436 9 4.9914 9H4.81879C4.01874 9 3.29566 8.52321 2.9805 7.78784L2 5.5H7.5H8.5H14Z" fill="url(#paint4_linear_91_1572)"/>
</g>
<g filter="url(#filter4_di_91_1572)">
<path d="M0.5 5.5H2M15.5 5.5H14M14 5.5L13.0195 7.78784C12.7043 8.5232 11.9813 9 11.1812 9H11.0086C10.1156 9 9.33087 8.40804 9.08555 7.54944L8.5 5.5M14 5.5C12.5 5 10.5 5 8.5 5.5M8.5 5.5H7.5M7.5 5.5L6.91445 7.54944C6.66913 8.40804 5.88436 9 4.9914 9H4.81879C4.01874 9 3.29566 8.52321 2.9805 7.78784L2 5.5M7.5 5.5C5.5 5 3.5 5 2 5.5" stroke="url(#paint5_linear_91_1572)" stroke-linecap="round" shape-rendering="crispEdges"/>
</g>
<mask id="mask0_91_1572" style="mask-type:alpha" maskUnits="userSpaceOnUse" x="4" y="10" width="8" height="3">
<path d="M4 11.5C4 10.9477 4.44772 10.5 5 10.5H11C11.5523 10.5 12 10.9477 12 11.5V12.5H4V11.5Z" fill="url(#paint6_radial_91_1572)"/>
</mask>
<g mask="url(#mask0_91_1572)">
<path d="M8 10.5V12.5M10 10.5V12.5M6 10.5V12.5" stroke="black" stroke-opacity="0.1" stroke-width="0.25"/>
</g>
</g>
<defs>
<filter id="filter0_i_91_1572" x="0" y="-2" width="16" height="18" filterUnits="userSpaceOnUse" color-interpolation-filters="sRGB">
<feFlood flood-opacity="0" result="BackgroundImageFix"/>
<feBlend mode="normal" in="SourceGraphic" in2="BackgroundImageFix" result="shape"/>
<feColorMatrix in="SourceAlpha" type="matrix" values="0 0 0 0 0 0 0 0 0 0 0 0 0 0 0 0 0 0 127 0" result="hardAlpha"/>
<feOffset dy="-2"/>
<feGaussianBlur stdDeviation="2"/>
<feComposite in2="hardAlpha" operator="arithmetic" k2="-1" k3="1"/>
<feColorMatrix type="matrix" values="0 0 0 0 0.71 0 0 0 0 0 0 0 0 0 0.5964 0 0 0 0.5 0"/>
<feBlend mode="normal" in2="shape" result="effect1_innerShadow_91_1572"/>
</filter>
<filter id="filter1_di_91_1572" x="2.5" y="10" width="11" height="5" filterUnits="userSpaceOnUse" color-interpolation-filters="sRGB">
<feFlood flood-opacity="0" result="BackgroundImageFix"/>
<feColorMatrix in="SourceAlpha" type="matrix" values="0 0 0 0 0 0 0 0 0 0 0 0 0 0 0 0 0 0 127 0" result="hardAlpha"/>
<feMorphology radius="0.5" operator="erode" in="SourceAlpha" result="effect1_dropShadow_91_1572"/>
<feOffset dy="1"/>
<feGaussianBlur stdDeviation="1"/>
<feComposite in2="hardAlpha" operator="out"/>
<feColorMatrix type="matrix" values="0 0 0 0 0 0 0 0 0 0 0 0 0 0 0 0 0 0 0.25 0"/>
<feBlend mode="normal" in2="BackgroundImageFix" result="effect1_dropShadow_91_1572"/>
<feBlend mode="normal" in="SourceGraphic" in2="effect1_dropShadow_91_1572" result="shape"/>
<feColorMatrix in="SourceAlpha" type="matrix" values="0 0 0 0 0 0 0 0 0 0 0 0 0 0 0 0 0 0 127 0" result="hardAlpha"/>
<feOffset dy="0.5"/>
<feGaussianBlur stdDeviation="0.25"/>
<feComposite in2="hardAlpha" operator="arithmetic" k2="-1" k3="1"/>
<feColorMatrix type="matrix" values="0 0 0 0 0 0 0 0 0 0 0 0 0 0 0 0 0 0 0.1 0"/>
<feBlend mode="normal" in2="shape" result="effect2_innerShadow_91_1572"/>
</filter>
<filter id="filter2_di_91_1572" x="1.99994" y="1.5" width="12.0001" height="4.50006" filterUnits="userSpaceOnUse" color-interpolation-filters="sRGB">
<feFlood flood-opacity="0" result="BackgroundImageFix"/>
<feColorMatrix in="SourceAlpha" type="matrix" values="0 0 0 0 0 0 0 0 0 0 0 0 0 0 0 0 0 0 127 0" result="hardAlpha"/>
<feOffset dy="1"/>
<feGaussianBlur stdDeviation="0.5"/>
<feComposite in2="hardAlpha" operator="out"/>
<feColorMatrix type="matrix" values="0 0 0 0 0 0 0 0 0 0 0 0 0 0 0 0 0 0 0.1 0"/>
<feBlend mode="normal" in2="BackgroundImageFix" result="effect1_dropShadow_91_1572"/>
<feBlend mode="normal" in="SourceGraphic" in2="effect1_dropShadow_91_1572" result="shape"/>
<feColorMatrix in="SourceAlpha" type="matrix" values="0 0 0 0 0 0 0 0 0 0 0 0 0 0 0 0 0 0 127 0" result="hardAlpha"/>
<feOffset dy="-0.5"/>
<feGaussianBlur stdDeviation="0.5"/>
<feComposite in2="hardAlpha" operator="arithmetic" k2="-1" k3="1"/>
<feColorMatrix type="matrix" values="0 0 0 0 0.71 0 0 0 0 0 0 0 0 0 0.5964 0 0 0 0.5 0"/>
<feBlend mode="normal" in2="shape" result="effect2_innerShadow_91_1572"/>
</filter>
<filter id="filter3_b_91_1572" x="1.5" y="5" width="13" height="4.5" filterUnits="userSpaceOnUse" color-interpolation-filters="sRGB">
<feFlood flood-opacity="0" result="BackgroundImageFix"/>
<feGaussianBlur in="BackgroundImageFix" stdDeviation="0.25"/>
<feComposite in2="SourceAlpha" operator="in" result="effect1_backgroundBlur_91_1572"/>
<feBlend mode="normal" in="SourceGraphic" in2="effect1_backgroundBlur_91_1572" result="shape"/>
</filter>
<filter id="filter4_di_91_1572" x="-1" y="4.375" width="18" height="7.125" filterUnits="userSpaceOnUse" color-interpolation-filters="sRGB">
<feFlood flood-opacity="0" result="BackgroundImageFix"/>
<feColorMatrix in="SourceAlpha" type="matrix" values="0 0 0 0 0 0 0 0 0 0 0 0 0 0 0 0 0 0 127 0" result="hardAlpha"/>
<feOffset dy="1"/>
<feGaussianBlur stdDeviation="0.5"/>
<feComposite in2="hardAlpha" operator="out"/>
<feColorMatrix type="matrix" values="0 0 0 0 0 0 0 0 0 0 0 0 0 0 0 0 0 0 0.1 0"/>
<feBlend mode="normal" in2="BackgroundImageFix" result="effect1_dropShadow_91_1572"/>
<feBlend mode="normal" in="SourceGraphic" in2="effect1_dropShadow_91_1572" result="shape"/>
<feColorMatrix in="SourceAlpha" type="matrix" values="0 0 0 0 0 0 0 0 0 0 0 0 0 0 0 0 0 0 127 0" result="hardAlpha"/>
<feOffset dy="-0.25"/>
<feGaussianBlur stdDeviation="0.36"/>
<feComposite in2="hardAlpha" operator="arithmetic" k2="-1" k3="1"/>
<feColorMatrix type="matrix" values="0 0 0 0 0.71 0 0 0 0 0 0 0 0 0 0.5964 0 0 0 0.5 0"/>
<feBlend mode="normal" in2="shape" result="effect2_innerShadow_91_1572"/>
</filter>
<radialGradient id="paint0_radial_91_1572" cx="0" cy="0" r="1" gradientUnits="userSpaceOnUse" gradientTransform="translate(8) rotate(90) scale(16)">
<stop offset="0.244977" stop-color="#FFC000"/>
<stop offset="1" stop-color="#FF6040"/>
</radialGradient>
<radialGradient id="paint1_radial_91_1572" cx="0" cy="0" r="1" gradientUnits="userSpaceOnUse" gradientTransform="translate(8 11.5) rotate(90) scale(6 3.9986)">
<stop stop-color="#F0F6FF"/>
<stop offset="1" stop-color="#B0DDFF"/>
</radialGradient>
<linearGradient id="paint2_linear_91_1572" x1="5" y1="5.5" x2="5" y2="8.5" gradientUnits="userSpaceOnUse">
<stop/>
<stop offset="1" stop-opacity="0.75"/>
</linearGradient>
<linearGradient id="paint3_linear_91_1572" x1="11" y1="5.5" x2="11" y2="8.5" gradientUnits="userSpaceOnUse">
<stop/>
<stop offset="1" stop-opacity="0.75"/>
</linearGradient>
<linearGradient id="paint4_linear_91_1572" x1="8" y1="5.5" x2="8" y2="9" gradientUnits="userSpaceOnUse">
<stop stop-color="#0061E0" stop-opacity="0.25"/>
<stop offset="1" stop-color="#00DDFF" stop-opacity="0.5"/>
</linearGradient>
<linearGradient id="paint5_linear_91_1572" x1="8" y1="5.125" x2="8" y2="9" gradientUnits="userSpaceOnUse">
<stop stop-color="#454545"/>
<stop offset="1"/>
</linearGradient>
<radialGradient id="paint6_radial_91_1572" cx="0" cy="0" r="1" gradientUnits="userSpaceOnUse" gradientTransform="translate(8 11.5) rotate(90) scale(6 3.9986)">
<stop stop-color="#F0F6FF"/>
<stop offset="1" stop-color="#B0DDFF"/>
</radialGradient>
<clipPath id="clip0_91_1572">
<rect width="16" height="16" fill="white"/>
</clipPath>
</defs>
</svg>
