<svg width="16" height="16" viewBox="0 0 16 16" fill="none" xmlns="http://www.w3.org/2000/svg">
<g clip-path="url(#clip0_91_1353)">
<g filter="url(#filter0_i_91_1353)">
<path d="M0 6V13.6978C0 14.1665 0.325532 14.5723 0.78307 14.674L3.28307 15.2296C3.90758 15.3684 4.5 14.8931 4.5 14.2534V6C4.5 5.44772 4.05228 5 3.5 5H1C0.447715 5 0 5.44772 0 6Z" fill="url(#paint0_linear_91_1353)"/>
</g>
<g filter="url(#filter1_i_91_1353)">
<path d="M9.58579 0.414214L4.93934 5.06066C4.65804 5.34196 4.5 5.7235 4.5 6.12132V13C4.5 13.8284 5.17157 14.5 6 14.5H12.7967C13.4998 14.5 14.1085 14.0117 14.261 13.3254L15.5944 7.3254C15.8025 6.38863 15.0897 5.5 14.1301 5.5H10.8616C10.4777 5.5 10.237 5.08526 10.4275 4.75193L11.8024 2.34586C11.9319 2.11922 12 1.86269 12 1.60165V1.41421C12 0.633165 11.3668 0 10.5858 0C10.2107 0 9.851 0.148997 9.58579 0.414214Z" fill="url(#paint1_linear_91_1353)"/>
</g>
</g>
<defs>
<filter id="filter0_i_91_1353" x="0" y="3" width="4.5" height="12.2538" filterUnits="userSpaceOnUse" color-interpolation-filters="sRGB">
<feFlood flood-opacity="0" result="BackgroundImageFix"/>
<feBlend mode="normal" in="SourceGraphic" in2="BackgroundImageFix" result="shape"/>
<feColorMatrix in="SourceAlpha" type="matrix" values="0 0 0 0 0 0 0 0 0 0 0 0 0 0 0 0 0 0 127 0" result="hardAlpha"/>
<feOffset dy="-2"/>
<feGaussianBlur stdDeviation="2"/>
<feComposite in2="hardAlpha" operator="arithmetic" k2="-1" k3="1"/>
<feColorMatrix type="matrix" values="0 0 0 0 0.71 0 0 0 0 0 0 0 0 0 0.5964 0 0 0 0.5 0"/>
<feBlend mode="normal" in2="shape" result="effect1_innerShadow_91_1353"/>
</filter>
<filter id="filter1_i_91_1353" x="4.5" y="-2" width="11.1307" height="16.5" filterUnits="userSpaceOnUse" color-interpolation-filters="sRGB">
<feFlood flood-opacity="0" result="BackgroundImageFix"/>
<feBlend mode="normal" in="SourceGraphic" in2="BackgroundImageFix" result="shape"/>
<feColorMatrix in="SourceAlpha" type="matrix" values="0 0 0 0 0 0 0 0 0 0 0 0 0 0 0 0 0 0 127 0" result="hardAlpha"/>
<feOffset dy="-2"/>
<feGaussianBlur stdDeviation="2"/>
<feComposite in2="hardAlpha" operator="arithmetic" k2="-1" k3="1"/>
<feColorMatrix type="matrix" values="0 0 0 0 0.71 0 0 0 0 0 0 0 0 0 0.5964 0 0 0 0.5 0"/>
<feBlend mode="normal" in2="shape" result="effect1_innerShadow_91_1353"/>
</filter>
<linearGradient id="paint0_linear_91_1353" x1="2.5" y1="6" x2="2.5" y2="16" gradientUnits="userSpaceOnUse">
<stop stop-color="#00DDFF"/>
<stop offset="1" stop-color="#0061E0"/>
</linearGradient>
<linearGradient id="paint1_linear_91_1353" x1="10" y1="0.5" x2="10" y2="14.5" gradientUnits="userSpaceOnUse">
<stop stop-color="#F0F6FF"/>
<stop offset="1" stop-color="#B0DDFF"/>
</linearGradient>
<clipPath id="clip0_91_1353">
<rect width="16" height="16" fill="white"/>
</clipPath>
</defs>
</svg>
