<svg width="72" height="72" viewBox="0 0 72 72" fill="none" xmlns="http://www.w3.org/2000/svg">
<g filter="url(#filter0_d_200_2)">
<rect x="4" y="4" width="64" height="64" rx="16" fill="url(#paint0_linear_200_2)"/>
<path d="M48.012 17.7379C43.5573 17.1787 38.582 15.7252 34.2825 13.3771C32.8653 12.6032 31.1347 12.6032 29.7175 13.3771C25.418 15.7252 20.4427 17.1787 15.988 17.7379C13.7961 18.013 12 19.7909 12 22V34.1213C12 45.92 19.7392 56.3218 31.0403 59.7121C31.6663 59.8999 32.3337 59.8999 32.9597 59.7121C44.2608 56.3218 52 45.92 52 34.1213V22C52 19.7909 50.2039 18.013 48.012 17.7379Z" fill="url(#paint1_linear_200_2)"/>
<mask id="mask0_200_2" style="mask-type:alpha" maskUnits="userSpaceOnUse" x="32" y="12" width="20" height="48">
<rect x="32" y="12" width="20" height="48" fill="#D9D9D9"/>
</mask>
<g mask="url(#mask0_200_2)">
<path d="M48.012 17.7379C43.5573 17.1787 38.582 15.7252 34.2825 13.3771C32.8653 12.6032 31.1347 12.6032 29.7175 13.3771C25.418 15.7252 20.4427 17.1787 15.988 17.7379C13.7961 18.013 12 19.7909 12 22V34.1213C12 45.92 19.7392 56.3218 31.0403 59.7121C31.6663 59.8999 32.3337 59.8999 32.9597 59.7121C44.2608 56.3218 52 45.92 52 34.1213V22C52 19.7909 50.2039 18.013 48.012 17.7379Z" fill="#FFCDC3"/>
</g>
<path fill-rule="evenodd" clip-rule="evenodd" d="M52 36C48.6863 36 46 38.6863 46 42C46 45.3137 48.6863 48 52 48C55.3137 48 58 45.3137 58 42C58 38.6863 55.3137 36 52 36ZM48 42C48 39.7909 49.7909 38 52 38C54.2091 38 56 39.7909 56 42C56 44.2091 54.2091 46 52 46C49.7909 46 48 44.2091 48 42ZM46 58C46 54.6863 48.6863 52 52 52C55.3137 52 58 54.6863 58 58V59C58 59.5523 58.4477 60 59 60C59.5523 60 60 59.5523 60 59V58C60 53.5817 56.4183 50 52 50C47.5817 50 44 53.5817 44 58V59C44 59.5523 44.4477 60 45 60C45.5523 60 46 59.5523 46 59V58Z" fill="white"/>
<path fill-rule="evenodd" clip-rule="evenodd" d="M42 28C37.5817 28 34 31.5817 34 36C34 40.4183 37.5817 44 42 44C42.1666 44 42.3321 43.9949 42.4962 43.9849C43.4567 43.9261 44 42.9623 44 42C44 41.8354 43.8379 41.7157 43.6799 41.7617C43.1468 41.9168 42.5831 42 42 42C38.6863 42 36 39.3137 36 36C36 32.6863 38.6863 30 42 30C44.5715 30 46.7652 31.6177 47.6189 33.891C47.8305 34.4545 48.5001 34.7789 49.0598 34.5576C49.4762 34.393 49.75 33.9578 49.612 33.5319C48.5718 30.3214 45.557 28 42 28ZM43 46C43.5509 46 44.0902 46.0495 44.6138 46.1443C45.0195 46.2177 45.3579 46.4794 45.606 46.8087C46.0884 47.4492 46.6649 48.0149 47.3148 48.4852C47.5562 48.6599 47.533 49.0457 47.2706 49.1869C47.1441 49.2549 46.9907 49.2464 46.8711 49.1669C45.7624 48.4296 44.4314 48 43 48H41C37.134 48 34 51.134 34 55V63C34 63.5523 33.5523 64 33 64C32.4477 64 32 63.5523 32 63V55C32 50.0294 36.0294 46 41 46H43ZM51 60C50.4477 60 50 60.4477 50 61V63C50 63.5523 50.4477 64 51 64C51.5523 64 52 63.5523 52 63V61C52 60.4477 51.5523 60 51 60Z" fill="#FF6040"/>
<mask id="mask1_200_2" style="mask-type:alpha" maskUnits="userSpaceOnUse" x="32" y="12" width="20" height="48">
<mask id="mask2_200_2" style="mask-type:alpha" maskUnits="userSpaceOnUse" x="32" y="12" width="20" height="48">
<rect x="32" y="12" width="20" height="48" fill="#D9D9D9"/>
</mask>
<g mask="url(#mask2_200_2)">
<path d="M48.012 17.7379C43.5573 17.1787 38.582 15.7252 34.2825 13.3771C32.8653 12.6032 31.1347 12.6032 29.7175 13.3771C25.418 15.7252 20.4427 17.1787 15.988 17.7379C13.7961 18.013 12 19.7909 12 22V34.1213C12 45.92 19.7392 56.3218 31.0403 59.7121C31.6663 59.8999 32.3337 59.8999 32.9597 59.7121C44.2608 56.3218 52 45.92 52 34.1213V22C52 19.7909 50.2039 18.013 48.012 17.7379Z" fill="#B0DDFF"/>
</g>
</mask>
<g mask="url(#mask1_200_2)">
<path fill-rule="evenodd" clip-rule="evenodd" d="M52 36C48.6863 36 46 38.6863 46 42C46 45.3137 48.6863 48 52 48C55.3137 48 58 45.3137 58 42C58 38.6863 55.3137 36 52 36ZM48 42C48 39.7909 49.7909 38 52 38C54.2091 38 56 39.7909 56 42C56 44.2091 54.2091 46 52 46C49.7909 46 48 44.2091 48 42ZM46 58C46 54.6863 48.6863 52 52 52C55.3137 52 58 54.6863 58 58V59C58 59.5523 58.4477 60 59 60C59.5523 60 60 59.5523 60 59V58C60 53.5817 56.4183 50 52 50C47.5817 50 44 53.5817 44 58V59C44 59.5523 44.4477 60 45 60C45.5523 60 46 59.5523 46 59V58Z" fill="#FF6040"/>
</g>
</g>
<defs>
<filter id="filter0_d_200_2" x="0" y="0" width="72" height="72" filterUnits="userSpaceOnUse" color-interpolation-filters="sRGB">
<feFlood flood-opacity="0" result="BackgroundImageFix"/>
<feColorMatrix in="SourceAlpha" type="matrix" values="0 0 0 0 0 0 0 0 0 0 0 0 0 0 0 0 0 0 127 0" result="hardAlpha"/>
<feOffset/>
<feGaussianBlur stdDeviation="2"/>
<feComposite in2="hardAlpha" operator="out"/>
<feColorMatrix type="matrix" values="0 0 0 0 0 0 0 0 0 0 0 0 0 0 0 0 0 0 0.1 0"/>
<feBlend mode="normal" in2="BackgroundImageFix" result="effect1_dropShadow_200_2"/>
<feBlend mode="normal" in="SourceGraphic" in2="effect1_dropShadow_200_2" result="shape"/>
</filter>
<linearGradient id="paint0_linear_200_2" x1="36" y1="4" x2="36" y2="68" gradientUnits="userSpaceOnUse">
<stop stop-color="#FFC000"/>
<stop offset="1" stop-color="#FF6040"/>
</linearGradient>
<linearGradient id="paint1_linear_200_2" x1="32" y1="12" x2="32" y2="60" gradientUnits="userSpaceOnUse">
<stop stop-color="white"/>
<stop offset="1" stop-color="#FFCDC3"/>
</linearGradient>
</defs>
</svg>
