<svg width="48" height="16" viewBox="0 0 48 16" fill="none" xmlns="http://www.w3.org/2000/svg">
<g clip-path="url(#clip0_725_2)">
<rect x="18" y="7.5" width="3" height="1" rx="0.5" fill="#858585"/>
<rect x="23" y="7.5" width="3" height="1" rx="0.5" fill="#858585"/>
<rect x="28" y="7.5" width="3" height="1" rx="0.5" fill="#858585"/>
<rect x="1" y="2" width="14" height="10" rx="1" fill="url(#paint0_linear_725_2)"/>
<rect y="12" width="16" height="2" rx="1" fill="#00DDFF"/>
<rect x="7.5" y="4" width="6" height="12" rx="1" fill="url(#paint1_linear_725_2)"/>
<rect x="9.5" y="4.5" width="2" height="1" rx="0.5" fill="black" fill-opacity="0.2"/>
<circle cx="41" cy="9" r="7" fill="url(#paint2_linear_725_2)"/>
<ellipse cx="41" cy="9" rx="3" ry="7" fill="url(#paint3_linear_725_2)"/>
<rect x="32" width="8" height="8" rx="2" fill="url(#paint4_linear_725_2)"/>
</g>
<defs>
<linearGradient id="paint0_linear_725_2" x1="8" y1="2" x2="8" y2="12" gradientUnits="userSpaceOnUse">
<stop stop-color="#00DDFF"/>
<stop offset="1" stop-color="#0061E0"/>
</linearGradient>
<linearGradient id="paint1_linear_725_2" x1="10.5" y1="4" x2="10.5" y2="16" gradientUnits="userSpaceOnUse">
<stop stop-color="#FF60C0"/>
<stop offset="1" stop-color="#5E06D4"/>
</linearGradient>
<linearGradient id="paint2_linear_725_2" x1="41" y1="2" x2="41" y2="16" gradientUnits="userSpaceOnUse">
<stop stop-color="#0061E0"/>
<stop offset="1" stop-color="#5E06D4"/>
</linearGradient>
<linearGradient id="paint3_linear_725_2" x1="41" y1="2" x2="41" y2="16" gradientUnits="userSpaceOnUse">
<stop stop-color="#00DDFF"/>
<stop offset="1" stop-color="#0061E0"/>
</linearGradient>
<linearGradient id="paint4_linear_725_2" x1="36" y1="0" x2="36" y2="8" gradientUnits="userSpaceOnUse">
<stop stop-color="#60FF80"/>
<stop offset="1" stop-color="#00882D"/>
</linearGradient>
<clipPath id="clip0_725_2">
<rect width="48" height="16" fill="white"/>
</clipPath>
</defs>
</svg>
