<svg width="65" height="280" viewBox="0 0 65 280" fill="none" xmlns="http://www.w3.org/2000/svg">
<path fill-rule="evenodd" clip-rule="evenodd" d="M65 0H0V156C0 150.399 0 147.599 1.08993 145.46C2.04867 143.578 3.57847 142.049 5.46009 141.09C7.59921 140 10.3995 140 16 140H49C54.6005 140 57.4008 140 59.5399 141.09C61.4215 142.049 62.9513 143.578 63.9101 145.46C65 147.599 65 150.399 65 156V0Z" fill="black" fill-opacity="0.6"/>
<path d="M0 160C0 150.572 0 145.858 2.92893 142.929C5.85786 140 10.5719 140 20 140H45C54.4281 140 59.1421 140 62.0711 142.929C65 145.858 65 150.572 65 160V280H0V160Z" fill="white" fill-opacity="0.6"/>
</svg>
