<svg width="16" height="16" viewBox="0 0 16 16" fill="none" xmlns="http://www.w3.org/2000/svg">
<g clip-path="url(#clip0_2508_287)">
<path d="M11.5 7.5H12C13.933 7.5 15.5 5.933 15.5 4V4C15.5 2.067 13.933 0.5 12 0.5H11.5M11.5 7.5V0.5M11.5 7.5V8C11.5 9.933 9.933 11.5 8 11.5V11.5M11.5 0.5H4.5M4.5 7.5H4C2.067 7.5 0.5 5.933 0.5 4V4C0.5 2.067 2.067 0.5 4 0.5H4.5M4.5 7.5V0.5M4.5 7.5V8C4.5 9.933 6.067 11.5 8 11.5V11.5M8 11.5V15.5M8 15.5H4.5M8 15.5H11.5" stroke="white" stroke-linecap="round" stroke-linejoin="round"/>
<path d="M11.5 1.5V7.5V8C11.5 9.933 9.933 11.5 8 11.5C6.067 11.5 4.5 9.933 4.5 8V7.5V1.5C4.5 0.947715 4.94772 0.5 5.5 0.5H10.5C11.0523 0.5 11.5 0.947715 11.5 1.5Z" fill="white"/>
<path d="M8 11.5V11.5C6.067 11.5 4.5 9.933 4.5 8V7.5V1.5C4.5 0.947715 4.94772 0.5 5.5 0.5H10.5C11.0523 0.5 11.5 0.947715 11.5 1.5V7.5V8C11.5 9.933 9.933 11.5 8 11.5V11.5ZM8 11.5V15.5M8 15.5H4.5M8 15.5H11.5" stroke="white" stroke-linecap="round" stroke-linejoin="round"/>
</g>
<defs>
<clipPath id="clip0_2508_287">
<rect width="16" height="16" fill="white"/>
</clipPath>
</defs>
</svg>
