<svg width="16" height="16" viewBox="0 0 16 16" fill="none" xmlns="http://www.w3.org/2000/svg">
<path d="M3 5H2C1.17157 5 0.5 5.67157 0.5 6.5V7.23479C0.5 8.32429 1.08217 9.35134 2.09311 9.75756C5.80099 11.2475 10.199 11.2475 13.9069 9.75756C14.9178 9.35134 15.5 8.32429 15.5 7.23479V6.5C15.5 5.67157 14.8284 5 14 5H13C12.1716 5 11.5 5.67157 11.5 6.5V7.07295C11.5 7.64111 11.1825 8.1729 10.6425 8.34959C9.01087 8.88347 6.98913 8.88347 5.3575 8.34959C4.81751 8.1729 4.5 7.64111 4.5 7.07295V6.5C4.5 5.67157 3.82843 5 3 5Z" fill="white" stroke="white"/>
</svg>
