<svg width="16" height="16" viewBox="0 0 16 16" fill="none" xmlns="http://www.w3.org/2000/svg">
<g clip-path="url(#clip0_2508_291)">
<path d="M0.792893 6.79289L1.29289 7.29289C1.68342 7.68342 1.68342 8.31658 1.29289 8.70711L0.792893 9.20711C0.605357 9.39464 0.5 9.649 0.5 9.91421V10C0.5 10.5523 0.947715 11 1.5 11H1.58579C1.851 11 2.10536 10.8946 2.29289 10.7071L3.20711 9.79289C3.39464 9.60536 3.649 9.5 3.91421 9.5H4.69075C5.35012 9.5 5.82901 10.127 5.65551 10.7631L4.84449 13.7369C4.67099 14.373 5.14988 15 5.80925 15H6.97934C7.30566 15 7.61145 14.8408 7.79858 14.5735L10.7771 10.3184C10.9205 10.1136 11.1354 9.96992 11.3794 9.91569L14.7169 9.17402C15.1745 9.07234 15.5 8.66653 15.5 8.19783V7.80217C15.5 7.33347 15.1745 6.92766 14.7169 6.82598L11.3794 6.08431C11.1354 6.03008 10.9205 5.8864 10.7771 5.68159L7.79858 1.42654C7.61145 1.15921 7.30566 1 6.97934 1H5.80925C5.14988 1 4.67099 1.62698 4.84449 2.26312L5.65551 5.23688C5.82901 5.87302 5.35012 6.5 4.69075 6.5H3.91421C3.649 6.5 3.39464 6.39464 3.20711 6.20711L2.29289 5.29289C2.10536 5.10536 1.851 5 1.58579 5H1.5C0.947715 5 0.5 5.44772 0.5 6V6.08579C0.5 6.351 0.605357 6.60536 0.792893 6.79289Z" fill="white" stroke="white" stroke-linecap="round" stroke-linejoin="round"/>
</g>
<defs>
<clipPath id="clip0_2508_291">
<rect width="16" height="16" fill="white"/>
</clipPath>
</defs>
</svg>
