<svg width="16" height="16" viewBox="0 0 16 16" fill="none" xmlns="http://www.w3.org/2000/svg">
<g clip-path="url(#clip0_1579_27)">
<path fill-rule="evenodd" clip-rule="evenodd" d="M2.5 1.5C1.39543 1.5 0.5 2.39543 0.5 3.5V6C0.5 7.10457 1.39543 8 2.5 8H5C6.10457 8 7 7.10457 7 6V3.5C7 2.39543 6.10457 1.5 5 1.5H2.5ZM2.5 9C1.39543 9 0.5 9.89543 0.5 11V13.5C0.5 14.6046 1.39543 15.5 2.5 15.5H5C6.10457 15.5 7 14.6046 7 13.5V11C7 9.89543 6.10457 9 5 9H2.5ZM10 9C8.89543 9 8 9.89543 8 11V13.5C8 14.6046 8.89543 15.5 10 15.5H12.5C13.6046 15.5 14.5 14.6046 14.5 13.5V11C14.5 9.89543 13.6046 9 12.5 9H10Z" fill="white"/>
<path fill-rule="evenodd" clip-rule="evenodd" d="M13.4142 0.707094C12.6332 -0.0739535 11.3669 -0.073956 10.5858 0.707093L8.70713 2.58577C7.92608 3.36682 7.92607 4.63315 8.70712 5.4142L10.5858 7.29288C11.3669 8.07393 12.6332 8.07393 13.4142 7.29288L15.2929 5.4142C16.074 4.63315 16.074 3.36682 15.2929 2.58578L13.4142 0.707094Z" fill="white" fill-opacity="0.5"/>
</g>
<defs>
<clipPath id="clip0_1579_27">
<rect width="16" height="16" fill="white"/>
</clipPath>
</defs>
</svg>
