<svg width="16" height="16" viewBox="0 0 16 16" fill="none" xmlns="http://www.w3.org/2000/svg">
<g clip-path="url(#clip0_2508_180)">
<path d="M0.5 10V6C0.5 5.17157 1.17157 4.5 2 4.5H2.5V11.5H2C1.17157 11.5 0.5 10.8284 0.5 10Z" fill="white"/>
<path d="M4.5 4.12132V11.8787C4.5 12.2765 4.65803 12.658 4.93934 12.9393L6.68934 14.6893C6.88825 14.8883 7.15804 15 7.43934 15C8.02513 15 8.5 14.5251 8.5 13.9393V2.06066C8.5 1.47487 8.02513 1 7.43934 1C7.15804 1 6.88825 1.11175 6.68934 1.31066L4.93934 3.06066C4.65804 3.34196 4.5 3.7235 4.5 4.12132Z" fill="white"/>
<path d="M0.5 10V6C0.5 5.17157 1.17157 4.5 2 4.5H2.5V11.5H2C1.17157 11.5 0.5 10.8284 0.5 10Z" stroke="white" stroke-linecap="round" stroke-linejoin="round"/>
<path d="M4.5 4.12132V11.8787C4.5 12.2765 4.65803 12.658 4.93934 12.9393L6.68934 14.6893C6.88825 14.8883 7.15804 15 7.43934 15C8.02513 15 8.5 14.5251 8.5 13.9393V2.06066C8.5 1.47487 8.02513 1 7.43934 1C7.15804 1 6.88825 1.11175 6.68934 1.31066L4.93934 3.06066C4.65804 3.34196 4.5 3.7235 4.5 4.12132Z" stroke="white" stroke-linecap="round" stroke-linejoin="round"/>
<path fill-rule="evenodd" clip-rule="evenodd" d="M12 13.9834C12 14.3879 12.4358 14.6351 12.7607 14.394C14.7261 12.9358 16 10.5973 16 7.96114C16 5.325 14.7261 2.98652 12.7607 1.52824C12.4358 1.2872 12 1.53441 12 1.93892C12 2.11055 12.0847 2.2703 12.2215 2.37394C13.9094 3.65258 15 5.6793 15 7.96114C15 10.243 13.9094 12.2697 12.2215 13.5483C12.0847 13.652 12 13.8117 12 13.9834Z" fill="white"/>
<path fill-rule="evenodd" clip-rule="evenodd" d="M11 12.2681C11 12.6809 11.444 12.931 11.7652 12.6718C13.1282 11.5719 14 9.88775 14 7.99999C14 6.11223 13.1282 4.42809 11.7652 3.32822C11.444 3.069 11 3.3191 11 3.73188C11 3.90044 11.0805 4.05778 11.2097 4.16606C12.3041 5.08325 13 6.46035 13 7.99999C13 9.53962 12.3041 10.9167 11.2097 11.8339C11.0805 11.9422 11 12.0995 11 12.2681Z" fill="white"/>
<path fill-rule="evenodd" clip-rule="evenodd" d="M10 10.488C10 10.9219 10.4658 11.1794 10.778 10.878C11.5314 10.1506 12 9.13 12 7.99999C12 6.86999 11.5314 5.84943 10.778 5.12201C10.4658 4.82059 10 5.07805 10 5.51201C10 5.67229 10.0704 5.82303 10.1805 5.9395C10.6885 6.47693 11 7.20208 11 7.99999C11 8.79791 10.6885 9.52306 10.1805 10.0605C10.0704 10.177 10 10.3277 10 10.488Z" fill="white"/>
</g>
<defs>
<clipPath id="clip0_2508_180">
<rect width="16" height="16" fill="white"/>
</clipPath>
</defs>
</svg>
