<svg width="16" height="16" viewBox="0 0 16 16" fill="none" xmlns="http://www.w3.org/2000/svg">
<g clip-path="url(#clip0_2705_5)">
<path d="M0.5 15.5L15.5 0.5" stroke="white" stroke-linecap="round" stroke-linejoin="round"/>
<mask id="mask0_2705_5" style="mask-type:alpha" maskUnits="userSpaceOnUse" x="0" y="-1" width="16" height="18">
<path fill-rule="evenodd" clip-rule="evenodd" d="M7.5 0C7.22386 0 7 0.223858 7 0.5C7 0.776142 7.22386 1 7.5 1H8.5C8.77614 1 9 0.776142 9 0.5C9 0.223858 8.77614 0 8.5 0H7.5ZM8 2C5.72656 2 3.76916 3.60468 3.3233 5.83398L2.0901 12H1C0.723858 12 0.5 12.2239 0.5 12.5C0.5 12.7761 0.723858 13 1 13H2.5H13.5H15C15.2761 13 15.5 12.7761 15.5 12.5C15.5 12.2239 15.2761 12 15 12H13.9099L12.6767 5.83397C12.2308 3.60468 10.2734 2 8 2ZM6.5 14C6.22386 14 6 14.2239 6 14.5C6 15.3284 6.67157 16 7.5 16H8.5C9.32843 16 10 15.3284 10 14.5H9.5V14H6.5Z" fill="#D9D9D9"/>
<path d="M3.3233 5.83398L2.83301 5.73592L3.3233 5.83398ZM2.0901 12V12.5C2.32844 12.5 2.53365 12.3318 2.58039 12.0981L2.0901 12ZM13.9099 12L13.4196 12.0981C13.4664 12.3318 13.6716 12.5 13.9099 12.5V12ZM12.6767 5.83397L12.1864 5.93203V5.93203L12.6767 5.83397ZM10 14.5H10.5C10.5 14.2239 10.2761 14 10 14V14.5ZM9.5 14.5H9C9 14.7761 9.22386 15 9.5 15V14.5ZM9.5 14H10C10 13.7239 9.77614 13.5 9.5 13.5V14ZM7.5 0.5V-0.5C6.94771 -0.5 6.5 -0.0522846 6.5 0.5H7.5ZM7.5 0.5H6.5C6.5 1.05228 6.94771 1.5 7.5 1.5V0.5ZM8.5 0.5H7.5V1.5H8.5V0.5ZM8.5 0.5V1.5C9.05228 1.5 9.5 1.05228 9.5 0.5H8.5ZM8.5 0.5H9.5C9.5 -0.0522849 9.05228 -0.5 8.5 -0.5V0.5ZM7.5 0.5H8.5V-0.5H7.5V0.5ZM3.81359 5.93203C4.21271 3.93645 5.9649 2.5 8 2.5V1.5C5.48822 1.5 3.32561 3.27291 2.83301 5.73592L3.81359 5.93203ZM2.58039 12.0981L3.81359 5.93203L2.83301 5.73592L1.59981 11.9019L2.58039 12.0981ZM1 12.5H2.0901V11.5H1V12.5ZM1 12.5V11.5C0.447715 11.5 0 11.9477 0 12.5H1ZM1 12.5H0C0 13.0523 0.447715 13.5 1 13.5V12.5ZM2.5 12.5H1V13.5H2.5V12.5ZM13.5 12.5H2.5V13.5H13.5V12.5ZM15 12.5H13.5V13.5H15V12.5ZM15 12.5V13.5C15.5523 13.5 16 13.0523 16 12.5H15ZM15 12.5H16C16 11.9477 15.5523 11.5 15 11.5V12.5ZM13.9099 12.5H15V11.5H13.9099V12.5ZM12.1864 5.93203L13.4196 12.0981L14.4002 11.9019L13.167 5.73592L12.1864 5.93203ZM8 2.5C10.0351 2.5 11.7873 3.93645 12.1864 5.93203L13.167 5.73592C12.6744 3.27291 10.5118 1.5 8 1.5V2.5ZM6.5 14.5V13.5C5.94771 13.5 5.5 13.9477 5.5 14.5H6.5ZM7.5 15.5C6.94772 15.5 6.5 15.0523 6.5 14.5H5.5C5.5 15.6046 6.39543 16.5 7.5 16.5V15.5ZM8.5 15.5H7.5V16.5H8.5V15.5ZM9.5 14.5C9.5 15.0523 9.05229 15.5 8.5 15.5V16.5C9.60457 16.5 10.5 15.6046 10.5 14.5H9.5ZM9.5 15H10V14H9.5V15ZM9 14V14.5H10V14H9ZM6.5 14.5H9.5V13.5H6.5V14.5Z" fill="white"/>
</mask>
<g mask="url(#mask0_2705_5)">
<path fill-rule="evenodd" clip-rule="evenodd" d="M11.4429 4.14291C11.6217 3.96414 11.6408 3.67788 11.4671 3.49416C10.5902 2.5666 9.35091 2 8 2C5.72656 2 3.76916 3.60468 3.3233 5.83398L2.17049 11.5981C2.12374 11.8318 1.91854 12 1.6802 12H1C0.723858 12 0.5 12.2239 0.5 12.5C0.5 12.7761 0.723858 13 1 13H2.5V13C2.55493 13 2.60761 12.9782 2.64645 12.9393L11.4429 4.14291ZM6.26777 12.1464C5.95279 12.4614 6.17587 13 6.62132 13H13.5H15C15.2761 13 15.5 12.7761 15.5 12.5C15.5 12.2239 15.2761 12 15 12H14.3198C14.0815 12 13.8763 11.8318 13.8295 11.5981L12.6767 5.83397V5.83397C12.6698 5.79944 12.6273 5.78692 12.6024 5.81182L6.26777 12.1464ZM7 0.5C7 0.223858 7.22386 0 7.5 0H8.5C8.77614 0 9 0.223858 9 0.5C9 0.776142 8.77614 1 8.5 1H7.5C7.22386 1 7 0.776142 7 0.5ZM6 14.5C6 14.2239 6.22386 14 6.5 14H9.25C9.38807 14 9.5 14.1119 9.5 14.25V14.25C9.5 14.3881 9.61193 14.5 9.75 14.5V14.5C9.88807 14.5 10.0022 14.6128 9.97944 14.749C9.86085 15.4589 9.24361 16 8.5 16H7.5C6.67157 16 6 15.3284 6 14.5Z" fill="white"/>
</g>
</g>
<defs>
<clipPath id="clip0_2705_5">
<rect width="16" height="16" fill="white"/>
</clipPath>
</defs>
</svg>
