<svg width="16" height="16" viewBox="0 0 16 16" fill="none" xmlns="http://www.w3.org/2000/svg">
<g clip-path="url(#clip0_2705_3)">
<path d="M13.5 12.5L12.1864 5.93203C11.7873 3.93645 10.0351 2.5 8 2.5C5.9649 2.5 4.21271 3.93645 3.81359 5.93203L2.5 12.5H13.5Z" fill="white"/>
<path d="M9.5 14.5H6.5C6.5 15.0523 6.94772 15.5 7.5 15.5H8.5C9.05228 15.5 9.5 15.0523 9.5 14.5Z" fill="white"/>
<path d="M7.5 0.5H8.5M13.5 12.5L12.1864 5.93203C11.7873 3.93645 10.0351 2.5 8 2.5V2.5C5.9649 2.5 4.21271 3.93645 3.81359 5.93203L2.5 12.5M13.5 12.5H15M13.5 12.5H2.5M1 12.5H2.5M6.5 14.5H9.5V14.5C9.5 15.0523 9.05228 15.5 8.5 15.5H7.5C6.94772 15.5 6.5 15.0523 6.5 14.5V14.5Z" stroke="white" stroke-linecap="round" stroke-linejoin="round"/>
</g>
<defs>
<clipPath id="clip0_2705_3">
<rect width="16" height="16" fill="white"/>
</clipPath>
</defs>
</svg>
