<svg width="16" height="16" viewBox="0 0 16 16" fill="none" xmlns="http://www.w3.org/2000/svg">
<g clip-path="url(#clip0_2508_318)">
<path fill-rule="evenodd" clip-rule="evenodd" d="M15.3945 6.42583L14.9 6.5L15.3989 6.46674L15.7989 12.4667L15.877 13.6379C15.961 14.8986 14.8695 15.9204 13.6171 15.7534L6.44926 14.7977C2.75728 14.3054 0 11.1561 0 7.43142C0 3.32716 3.32716 0 7.43142 0H7.93288C11.6677 0 14.8404 2.73237 15.3945 6.42583Z" fill="white" fill-opacity="0.5"/>
<path d="M7.93288 0.5H7.43142C3.6033 0.5 0.5 3.6033 0.5 7.43142C0.5 10.9055 3.07176 13.8429 6.51534 14.302L13.6832 15.2578C14.6225 15.383 15.4411 14.6167 15.3781 13.6711L15.3 12.5L8.29193 10.7031C7.79826 10.5765 7.40263 10.2079 7.24147 9.72441L6.69863 8.0959C6.36359 7.09076 7.14795 6.06449 8.2058 6.12392L14.9 6.5C14.3827 3.0513 11.4202 0.5 7.93288 0.5Z" fill="white" stroke="white" stroke-linecap="round" stroke-linejoin="round"/>
</g>
<defs>
<clipPath id="clip0_2508_318">
<rect width="16" height="16" fill="white"/>
</clipPath>
</defs>
</svg>
