<svg width="16" height="16" viewBox="0 0 16 16" fill="none" xmlns="http://www.w3.org/2000/svg">
<g clip-path="url(#clip0_2508_365)">
<path fill-rule="evenodd" clip-rule="evenodd" d="M8 0C8.27614 0 8.5 0.223858 8.5 0.5V1.5C8.5 1.77614 8.27614 2 8 2C7.72386 2 7.5 1.77614 7.5 1.5V0.5C7.5 0.223858 7.72386 0 8 0ZM3 8C3 5.23858 5.23858 3 8 3C10.7614 3 13 5.23858 13 8C13 10.7614 10.7614 13 8 13C5.23858 13 3 10.7614 3 8ZM0 8C0 7.72386 0.223858 7.5 0.5 7.5H1.5C1.77614 7.5 2 7.72386 2 8C2 8.27614 1.77614 8.5 1.5 8.5H0.5C0.223858 8.5 0 8.27614 0 8ZM14 8C14 7.72386 14.2239 7.5 14.5 7.5H15.5C15.7761 7.5 16 7.72386 16 8C16 8.27614 15.7761 8.5 15.5 8.5H14.5C14.2239 8.5 14 8.27614 14 8ZM8 14C8.27614 14 8.5 14.2239 8.5 14.5V15.5C8.5 15.7761 8.27614 16 8 16C7.72386 16 7.5 15.7761 7.5 15.5V14.5C7.5 14.2239 7.72386 14 8 14ZM2.85355 2.14645C2.65829 1.95118 2.34171 1.95118 2.14645 2.14645C1.95118 2.34171 1.95118 2.65829 2.14645 2.85355L3.14645 3.85355C3.34171 4.04882 3.65829 4.04882 3.85355 3.85355C4.04882 3.65829 4.04882 3.34171 3.85355 3.14645L2.85355 2.14645ZM13.8536 2.85355C14.0488 2.65829 14.0488 2.34171 13.8536 2.14645C13.6583 1.95118 13.3417 1.95118 13.1464 2.14645L12.1464 3.14645C11.9512 3.34171 11.9512 3.65829 12.1464 3.85355C12.3417 4.04882 12.6583 4.04882 12.8536 3.85355L13.8536 2.85355ZM3.85355 12.8536C4.04882 12.6583 4.04882 12.3417 3.85355 12.1464C3.65829 11.9512 3.34171 11.9512 3.14645 12.1464L2.14645 13.1464C1.95118 13.3417 1.95118 13.6583 2.14645 13.8536C2.34171 14.0488 2.65829 14.0488 2.85355 13.8536L3.85355 12.8536ZM12.8536 12.1464C12.6583 11.9512 12.3417 11.9512 12.1464 12.1464C11.9512 12.3417 11.9512 12.6583 12.1464 12.8536L13.1464 13.8536C13.3417 14.0488 13.6583 14.0488 13.8536 13.8536C14.0488 13.6583 14.0488 13.3417 13.8536 13.1464L12.8536 12.1464Z" fill="white" fill-opacity="0.5"/>
</g>
<defs>
<clipPath id="clip0_2508_365">
<rect width="16" height="16" fill="white"/>
</clipPath>
</defs>
</svg>
