<svg width="16" height="16" viewBox="0 0 16 16" fill="none" xmlns="http://www.w3.org/2000/svg">
<circle cx="13" cy="6" r="1" fill="white" fill-opacity="0.5"/>
<path fill-rule="evenodd" clip-rule="evenodd" d="M6.30278 1.5C5.63407 1.5 5.00961 1.8342 4.63868 2.3906L4.52927 2.5547C4.34381 2.8329 4.03158 3 3.69722 3H2C0.895431 3 0 3.89543 0 5V12C0 13.1046 0.895431 14 2 14H14C15.1046 14 16 13.1046 16 12V5C16 3.89543 15.1046 3 14 3H12.3028C11.9684 3 11.6562 2.8329 11.4707 2.5547L11.3613 2.3906C10.9904 1.8342 10.3659 1.5 9.69722 1.5H6.30278ZM14 6C14 6.55228 13.5523 7 13 7C12.4477 7 12 6.55228 12 6C12 5.44772 12.4477 5 13 5C13.5523 5 14 5.44772 14 6ZM8 5C6.067 5 4.5 6.567 4.5 8.5C4.5 10.433 6.067 12 8 12C9.933 12 11.5 10.433 11.5 8.5C11.5 6.567 9.933 5 8 5ZM5.5 8.5C5.5 7.11929 6.61929 6 8 6C9.38071 6 10.5 7.11929 10.5 8.5C10.5 9.88071 9.38071 11 8 11C6.61929 11 5.5 9.88071 5.5 8.5Z" fill="white"/>
</svg>
