<svg width="16" height="16" viewBox="0 0 16 16" fill="none" xmlns="http://www.w3.org/2000/svg">
<path d="M1.31602 7.78787L0.674045 12.2817C0.582186 12.9247 1.08114 13.5 1.73068 13.5C2.19011 13.5 2.598 13.206 2.74328 12.7702L3.15811 11.5257C3.36228 10.9131 3.93549 10.5 4.58114 10.5H6.41886C7.06451 10.5 7.63771 10.9131 7.84189 11.5257L8.25672 12.7702C8.402 13.206 8.80989 13.5 9.26931 13.5C9.91886 13.5 10.4178 12.9247 10.326 12.2817L9.68398 7.78787C9.57841 7.04889 8.94553 6.5 8.19906 6.5H2.80094C2.05447 6.5 1.42159 7.04889 1.31602 7.78787Z" fill="white" stroke="white" stroke-linecap="round" stroke-linejoin="round"/>
<path fill-rule="evenodd" clip-rule="evenodd" d="M7.80087 2C6.80557 2 5.96173 2.73186 5.82097 3.71716L5.71924 4.42929C5.6762 4.73051 5.90993 5 6.21421 5H8.19904C9.36781 5 10.3973 5.6728 10.8906 6.67409C10.9843 6.86427 11.1696 7 11.3816 7H11.4188C11.8492 7 12.2314 7.27543 12.3675 7.68377L12.7823 8.92828C12.9956 9.5683 13.5946 10 14.2692 10C15.2231 10 15.9557 9.15521 15.8209 8.21097L15.1789 3.71716C15.0381 2.73186 14.1943 2 13.199 2H7.80087Z" fill="white" fill-opacity="0.5"/>
</svg>
