<svg width="16" height="16" viewBox="0 0 16 16" fill="none" xmlns="http://www.w3.org/2000/svg">
<path fill-rule="evenodd" clip-rule="evenodd" d="M5 0.5C5 0.223858 5.22386 0 5.5 0H10.5C10.7761 0 11 0.223858 11 0.5C11 0.776142 10.7761 1 10.5 1H5.5C5.22386 1 5 0.776142 5 0.5ZM1 2.5C1 2.22386 1.22386 2 1.5 2H2.5H13.5H14.5C14.7761 2 15 2.22386 15 2.5C15 2.77614 14.7761 3 14.5 3H13.963L13.1051 14.1534C13.0249 15.1954 12.156 16 11.111 16H4.88905C3.84397 16 2.97509 15.1954 2.89494 14.1534L2.03698 3H1.5C1.22386 3 1 2.77614 1 2.5ZM5.99968 5.48215C5.98983 5.20619 5.75812 4.99046 5.48215 5.00032C5.20619 5.01017 4.99046 5.24188 5.00032 5.51785L5.25032 12.5178C5.26017 12.7938 5.49188 13.0095 5.76785 12.9997C6.04381 12.9898 6.25954 12.7581 6.24968 12.4822L5.99968 5.48215ZM10.9997 5.51785C11.0095 5.24188 10.7938 5.01017 10.5178 5.00032C10.2419 4.99046 10.0102 5.20619 10.0003 5.48215L9.75032 12.4822C9.74046 12.7581 9.95619 12.9898 10.2322 12.9997C10.5081 13.0095 10.7398 12.7938 10.7497 12.5178L10.9997 5.51785ZM8.5 5.5C8.5 5.22386 8.27614 5 8 5C7.72386 5 7.5 5.22386 7.5 5.5V12.5C7.5 12.7761 7.72386 13 8 13C8.27614 13 8.5 12.7761 8.5 12.5V5.5Z" fill="white"/>
</svg>
