<svg width="16" height="16" viewBox="0 0 16 16" fill="none" xmlns="http://www.w3.org/2000/svg">
<path d="M15.5 9.5L15.5 2.5C15.5 1.94771 15.0523 1.5 14.5 1.5C13.9477 1.5 13.5 1.94771 13.5 2.5L13.5 9.5C13.5 10.0523 13.9477 10.5 14.5 10.5C15.0523 10.5 15.5 10.0523 15.5 9.5Z" fill="white"/>
<path d="M6.91421 15.0858L11.0607 10.9393C11.342 10.658 11.5 10.2765 11.5 9.87868L11.5 3C11.5 2.17157 10.8284 1.5 10 1.5L3.70326 1.5C3.00021 1.5 2.39149 1.9883 2.23898 2.6746L0.905643 8.6746C0.697473 9.61137 1.4103 10.5 2.36992 10.5L5.56574 10.5C5.96509 10.5 6.20329 10.9451 5.98177 11.2773L4.75192 13.1221C4.58766 13.3685 4.5 13.658 4.5 13.9542V14.0858C4.5 14.8668 5.13317 15.5 5.91421 15.5C6.28929 15.5 6.649 15.351 6.91421 15.0858Z" fill="white"/>
<path d="M15.5 9.5L15.5 2.5C15.5 1.94771 15.0523 1.5 14.5 1.5C13.9477 1.5 13.5 1.94771 13.5 2.5L13.5 9.5C13.5 10.0523 13.9477 10.5 14.5 10.5C15.0523 10.5 15.5 10.0523 15.5 9.5Z" stroke="white" stroke-linejoin="round"/>
<path d="M6.91421 15.0858L11.0607 10.9393C11.342 10.658 11.5 10.2765 11.5 9.87868L11.5 3C11.5 2.17157 10.8284 1.5 10 1.5L3.70326 1.5C3.00021 1.5 2.39149 1.9883 2.23898 2.6746L0.905643 8.6746C0.697473 9.61137 1.4103 10.5 2.36992 10.5L5.56574 10.5C5.96509 10.5 6.20329 10.9451 5.98177 11.2773L4.75192 13.1221C4.58766 13.3685 4.5 13.658 4.5 13.9542V14.0858C4.5 14.8668 5.13317 15.5 5.91421 15.5C6.28929 15.5 6.649 15.351 6.91421 15.0858Z" stroke="white" stroke-linejoin="round"/>
</svg>
