<svg width="16" height="16" viewBox="0 0 16 16" fill="none" xmlns="http://www.w3.org/2000/svg">
<g clip-path="url(#clip0_2508_305)">
<path d="M14.7929 2.29289L13.7071 1.20711C13.3166 0.816583 12.6834 0.816583 12.2929 1.20711L5.7266 7.7734C5.57923 7.92077 5.48158 8.11052 5.44732 8.3161L5.23016 9.61905C5.11736 10.2959 5.70413 10.8826 6.38095 10.7698L7.6839 10.5527C7.88948 10.5184 8.07923 10.4208 8.2266 10.2734L14.7929 3.70711C15.1834 3.31658 15.1834 2.68342 14.7929 2.29289Z" fill="white" stroke="white"/>
<path fill-rule="evenodd" clip-rule="evenodd" d="M2.5 3H7.17157C7.61702 3 7.84011 3.53857 7.52513 3.85355L4.66594 6.71274C4.2975 7.08118 4.05339 7.55554 3.96773 8.06951L3.75057 9.37245C3.46856 11.0645 4.9355 12.5314 6.62755 12.2494L7.93049 12.0323C8.44446 11.9466 8.91882 11.7025 9.28726 11.3341L12.1464 8.47487C12.4614 8.15989 13 8.38298 13 8.82843V13.5C13 14.8807 11.8807 16 10.5 16H2.5C1.11929 16 0 14.8807 0 13.5V5.5C0 4.11929 1.11929 3 2.5 3Z" fill="white" fill-opacity="0.5"/>
</g>
<defs>
<clipPath id="clip0_2508_305">
<rect width="16" height="16" fill="white"/>
</clipPath>
</defs>
</svg>
