<svg width="16" height="16" viewBox="0 0 16 16" fill="none" xmlns="http://www.w3.org/2000/svg">
<path fill-rule="evenodd" clip-rule="evenodd" d="M4 2C4 0.895431 4.89543 0 6 0H10C11.1046 0 12 0.89543 12 2V3C12 3.55228 11.5523 4 11 4H5C4.44772 4 4 3.55228 4 3V2ZM5 5C4.62831 5 4.38656 5.39116 4.55279 5.72361C4.63748 5.893 4.81061 6 5 6H11C11.1894 6 11.3625 5.893 11.4472 5.72361C11.6134 5.39116 11.3717 5 11 5H5ZM11 8C11 7.44772 10.5523 7 10 7H6C5.44772 7 5 7.44772 5 8V14C5 15.1046 5.89543 16 7 16H9C10.1046 16 11 15.1046 11 14V8ZM8.5 9C8.5 8.72386 8.27614 8.5 8 8.5C7.72386 8.5 7.5 8.72386 7.5 9V10C7.5 10.2761 7.72386 10.5 8 10.5C8.27614 10.5 8.5 10.2761 8.5 10V9Z" fill="white"/>
</svg>
