<svg width="16" height="16" viewBox="0 0 16 16" fill="none" xmlns="http://www.w3.org/2000/svg">
<mask id="path-1-inside-1_2508_311" fill="white">
<path fill-rule="evenodd" clip-rule="evenodd" d="M15 8C15 7.48394 14.362 7.2695 13.9087 7.51611C13.3414 7.82469 12.6912 8 12 8C9.79086 8 8 6.20914 8 4C8 3.30881 8.17531 2.65857 8.48389 2.09131C8.7305 1.63799 8.51606 1 8 1C4.13401 1 1 4.13401 1 8C1 11.866 4.13401 15 8 15C11.866 15 15 11.866 15 8Z"/>
</mask>
<path fill-rule="evenodd" clip-rule="evenodd" d="M15 8C15 7.48394 14.362 7.2695 13.9087 7.51611C13.3414 7.82469 12.6912 8 12 8C9.79086 8 8 6.20914 8 4C8 3.30881 8.17531 2.65857 8.48389 2.09131C8.7305 1.63799 8.51606 1 8 1C4.13401 1 1 4.13401 1 8C1 11.866 4.13401 15 8 15C11.866 15 15 11.866 15 8Z" fill="white"/>
<path d="M13.9087 7.51611L14.3865 8.39454L13.9087 7.51611ZM13.4308 6.63767C13.0065 6.86848 12.5201 7 12 7V9C12.8623 9 13.6763 8.7809 14.3865 8.39454L13.4308 6.63767ZM12 7C10.3431 7 9 5.65685 9 4H7C7 6.76142 9.23858 9 12 9V7ZM9 4C9 3.47988 9.13152 2.99346 9.36233 2.56917L7.60546 1.61345C7.2191 2.32368 7 3.13775 7 4H9ZM2 8C2 4.68629 4.68629 2 8 2V0C3.58172 0 0 3.58172 0 8H2ZM8 14C4.68629 14 2 11.3137 2 8H0C0 12.4183 3.58172 16 8 16V14ZM14 8C14 11.3137 11.3137 14 8 14V16C12.4183 16 16 12.4183 16 8H14ZM9.36233 2.56917C9.63164 2.0741 9.65187 1.48824 9.45519 1.00121C9.24775 0.487525 8.74612 0 8 0V2C7.91167 2 7.81073 1.96908 7.7264 1.90556C7.64951 1.84766 7.61468 1.78473 7.6007 1.7501C7.57861 1.69541 7.58275 1.6552 7.60546 1.61345L9.36233 2.56917ZM14.3865 8.39454C14.3448 8.41725 14.3046 8.42139 14.2499 8.3993C14.2153 8.38532 14.1523 8.35049 14.0944 8.2736C14.0309 8.18927 14 8.08833 14 8H16C16 7.25388 15.5125 6.75225 14.9988 6.54481C14.5118 6.34813 13.9259 6.36836 13.4308 6.63767L14.3865 8.39454Z" fill="white" mask="url(#path-1-inside-1_2508_311)"/>
</svg>
