<svg width="16" height="16" viewBox="0 0 16 16" fill="none" xmlns="http://www.w3.org/2000/svg">
<path d="M6.57295 1.5H2C1.17157 1.5 0.5 2.17157 0.5 3V8.5H15.5V5C15.5 4.17157 14.8284 3.5 14 3.5H9.42705C8.85889 3.5 8.3395 3.179 8.08541 2.67082L7.91459 2.32918C7.6605 1.821 7.14111 1.5 6.57295 1.5Z" fill="white"/>
<path d="M2 13.5H14C14.8284 13.5 15.5 12.8284 15.5 12V10.5H0.5V12C0.5 12.8284 1.17157 13.5 2 13.5Z" fill="white"/>
<path d="M6.57295 1.5H2C1.17157 1.5 0.5 2.17157 0.5 3V8.5H15.5V5C15.5 4.17157 14.8284 3.5 14 3.5H9.42705C8.85889 3.5 8.3395 3.179 8.08541 2.67082L7.91459 2.32918C7.6605 1.821 7.14111 1.5 6.57295 1.5Z" stroke="white" stroke-linecap="round" stroke-linejoin="round"/>
<path d="M2 13.5H14C14.8284 13.5 15.5 12.8284 15.5 12V10.5H0.5V12C0.5 12.8284 1.17157 13.5 2 13.5Z" stroke="white" stroke-linecap="round" stroke-linejoin="round"/>
</svg>
