<svg width="16" height="16" viewBox="0 0 16 16" fill="none" xmlns="http://www.w3.org/2000/svg">
<path d="M13.5607 6.06066L9.06066 1.56066C8.47487 0.974874 7.52513 0.974874 6.93934 1.56066L2.43934 6.06066C2.15804 6.34196 2 6.7235 2 7.12132V14C2 14.8284 2.67157 15.5 3.5 15.5H4.5C5.32843 15.5 6 14.8284 6 14V11C6 10.1716 6.67157 9.5 7.5 9.5H8.5C9.32843 9.5 10 10.1716 10 11V14C10 14.8284 10.6716 15.5 11.5 15.5H12.5C13.3284 15.5 14 14.8284 14 14V7.12132C14 6.7235 13.842 6.34196 13.5607 6.06066Z" fill="white" stroke="white" stroke-linecap="round" stroke-linejoin="round"/>
</svg>
