<svg width="16" height="16" viewBox="0 0 16 16" fill="none" xmlns="http://www.w3.org/2000/svg">
<path d="M4.5 7.5V7.5C3.39543 7.5 2.5 8.39543 2.5 9.5V13.5C2.5 14.6046 3.39543 15.5 4.5 15.5H11.5C12.6046 15.5 13.5 14.6046 13.5 13.5V9.5C13.5 8.39543 12.6046 7.5 11.5 7.5V7.5M4.5 7.5V4C4.5 2.067 6.067 0.5 8 0.5V0.5C9.933 0.5 11.5 2.067 11.5 4V7.5M4.5 7.5H11.5" stroke="white" stroke-linecap="round" stroke-linejoin="round"/>
<path d="M11.5 15.5H4.5C3.39543 15.5 2.5 14.6046 2.5 13.5V9.5C2.5 8.39543 3.39543 7.5 4.5 7.5H11.5C12.6046 7.5 13.5 8.39543 13.5 9.5V13.5C13.5 14.6046 12.6046 15.5 11.5 15.5Z" fill="white" stroke="white" stroke-linecap="round" stroke-linejoin="round"/>
</svg>
