<svg width="16" height="16" viewBox="0 0 16 16" fill="none" xmlns="http://www.w3.org/2000/svg">
<g clip-path="url(#clip0_1579_6)">
<path fill-rule="evenodd" clip-rule="evenodd" d="M7.12498 0.210832C5.62164 -0.0542482 4.17338 0.682747 3.46546 1.942C3.45081 1.96806 3.47008 1.99999 3.49997 1.99999H9.49997C11.9853 1.99999 14 4.01471 14 6.49999V12.5C14 12.6465 14.1801 12.7202 14.2635 12.5997C14.5422 12.1973 14.7404 11.7298 14.831 11.2162L15.8729 5.30732C16.2085 3.40369 14.9375 1.58838 13.0338 1.25272L7.12498 0.210832Z" fill="white" fill-opacity="0.5"/>
<path fill-rule="evenodd" clip-rule="evenodd" d="M3.5 3C1.567 3 0 4.567 0 6.5V12C0 11.8674 0.0526784 11.7402 0.146447 11.6464L1.14645 10.6464C1.89399 9.89889 3.10601 9.89889 3.85355 10.6464C4.21058 11.0035 4.78942 11.0035 5.14645 10.6464L7.08579 8.7071C7.86684 7.92605 9.13317 7.92605 9.91421 8.7071L12.8536 11.6464C12.9473 11.7402 13 11.8674 13 12V6.5C13 4.567 11.433 3 9.5 3H3.5ZM0.0711076 13.2054C0.0244835 12.9775 0 12.7416 0 12.5V12.5C0 12.7416 0.0244844 12.9775 0.0711076 13.2054ZM5 7C5 7.55228 4.55228 8 4 8C3.44772 8 3 7.55228 3 7C3 6.44772 3.44772 6 4 6C4.55228 6 5 6.44772 5 7Z" fill="white"/>
<path fill-rule="evenodd" clip-rule="evenodd" d="M4 8C4.55228 8 5 7.55228 5 7C5 6.44772 4.55228 6 4 6C3.44772 6 3 6.44772 3 7C3 7.55228 3.44772 8 4 8ZM7.08579 8.7071C7.86684 7.92605 9.13317 7.92605 9.91421 8.7071L12.8536 11.6464C12.9473 11.7402 13 11.8674 13 12V12.5C13 14.433 11.433 16 9.5 16H3.5C1.567 16 0 14.433 0 12.5V12C0 11.8674 0.0526784 11.7402 0.146447 11.6464L1.14645 10.6464C1.89399 9.89889 3.10601 9.89889 3.85355 10.6464C4.21058 11.0035 4.78942 11.0035 5.14645 10.6464L7.08579 8.7071Z" fill="white" fill-opacity="0.5"/>
</g>
<defs>
<clipPath id="clip0_1579_6">
<rect width="16" height="16" fill="white"/>
</clipPath>
</defs>
</svg>
