<svg width="16" height="16" viewBox="0 0 16 16" fill="none" xmlns="http://www.w3.org/2000/svg">
<path d="M1.5 7.5L4.33225 8.06645C5.5927 8.31854 6.5 9.42526 6.5 10.7107V10.9505C6.5 12.5281 5.05669 13.7113 3.50971 13.4019C2.34115 13.1682 1.5 12.1422 1.5 10.9505V7.5V2.42116C1.5 1.44531 2.41708 0.729271 3.3638 0.965951L8.3638 2.21595C9.03155 2.38289 9.5 2.98286 9.5 3.67116V9.5L12.5293 10.1059C13.6752 10.335 14.5 11.3411 14.5 12.5097C14.5 14.0567 13.0847 15.2169 11.5678 14.9136L11.5097 14.9019C10.3411 14.6682 9.5 13.6422 9.5 12.4505V9.5V3.67116C9.5 2.98286 9.03155 2.38289 8.3638 2.21595L3.3638 0.965951C2.41708 0.729271 1.5 1.44531 1.5 2.42116V7.5Z" fill="white"/>
<path d="M1.5 7.5L4.33225 8.06645C5.5927 8.31854 6.5 9.42526 6.5 10.7107V10.9505C6.5 12.5281 5.05669 13.7113 3.50971 13.4019V13.4019C2.34115 13.1682 1.5 12.1422 1.5 10.9505V2.42116C1.5 1.44531 2.41708 0.729271 3.3638 0.965951L8.3638 2.21595C9.03155 2.38289 9.5 2.98286 9.5 3.67116V9.5M9.5 9.5V12.4505C9.5 13.6422 10.3411 14.6682 11.5097 14.9019L11.5678 14.9136C13.0847 15.2169 14.5 14.0567 14.5 12.5097V12.5097C14.5 11.3411 13.6752 10.335 12.5293 10.1059L9.5 9.5Z" stroke="white" stroke-linecap="round" stroke-linejoin="round"/>
</svg>
