<svg width="16" height="16" viewBox="0 0 16 16" fill="none" xmlns="http://www.w3.org/2000/svg">
<path d="M4.24716 1.3906L3.5 5.5H12.5L11.7528 1.3906C11.6294 0.711774 10.8719 0.358928 10.2728 0.701241L8.99228 1.43298C8.37741 1.78434 7.62259 1.78434 7.00772 1.43298L5.72717 0.701242C5.12812 0.358929 4.37059 0.711775 4.24716 1.3906Z" fill="white"/>
<path d="M11.5 12.5H4.5C3.94772 12.5 3.5 12.9477 3.5 13.5V14.5C3.5 15.0523 3.94772 15.5 4.5 15.5H11.5C12.0523 15.5 12.5 15.0523 12.5 14.5V13.5C12.5 12.9477 12.0523 12.5 11.5 12.5Z" fill="white"/>
<path d="M1.5 5.5H3.5M14.5 5.5H12.5M3.5 5.5L4.24716 1.3906C4.37059 0.711775 5.12812 0.358929 5.72717 0.701242L7.00772 1.43298C7.62259 1.78434 8.37741 1.78434 8.99228 1.43298L10.2728 0.701241C10.8719 0.358928 11.6294 0.711774 11.7528 1.3906L12.5 5.5M3.5 5.5H12.5M4.5 15.5H11.5C12.0523 15.5 12.5 15.0523 12.5 14.5V13.5C12.5 12.9477 12.0523 12.5 11.5 12.5H4.5C3.94772 12.5 3.5 12.9477 3.5 13.5V14.5C3.5 15.0523 3.94772 15.5 4.5 15.5Z" stroke="white" stroke-linecap="round" stroke-linejoin="round"/>
<path d="M9 7.5H11.5C12.3284 7.5 13 8.17157 13 9V9C13 9.82843 12.3284 10.5 11.5 10.5H11C9.89543 10.5 9 9.60457 9 8.5V7.5ZM9 7.5H7M7 7.5H4.5C3.67157 7.5 3 8.17157 3 9V9C3 9.82843 3.67157 10.5 4.5 10.5H5C6.10457 10.5 7 9.60457 7 8.5V7.5Z" stroke="white" stroke-opacity="0.5" stroke-linecap="round" stroke-linejoin="round"/>
</svg>
