<svg width="16" height="16" viewBox="0 0 16 16" fill="none" xmlns="http://www.w3.org/2000/svg">
<g clip-path="url(#clip0_2508_289)">
<path fill-rule="evenodd" clip-rule="evenodd" d="M2 0C0.89543 0 0 0.895431 0 2V14C0 15.1046 0.895431 16 2 16H14C15.1046 16 16 15.1046 16 14V4.62132C16 4.09089 15.7893 3.58218 15.4142 3.20711L12.7929 0.585786C12.4178 0.210714 11.9091 0 11.3787 0H2Z" fill="white" fill-opacity="0.5"/>
<path fill-rule="evenodd" clip-rule="evenodd" d="M0 2C0 0.895431 0.89543 0 2 0H4.5C3.67157 0 3 0.671573 3 1.5V2C3 3.10457 3.89543 4 5 4H9C10.1046 4 11 3.10457 11 2V1.5C11 0.671573 10.3284 0 9.5 0H11.3787C11.9091 0 12.4178 0.210714 12.7929 0.585786L15.4142 3.20711C15.7893 3.58218 16 4.09089 16 4.62132V14C16 15.1046 15.1046 16 14 16H2C0.895431 16 0 15.1046 0 14V2ZM2.5 8C2.5 6.89543 3.39543 6 4.5 6H11.5C12.6046 6 13.5 6.89543 13.5 8V12C13.5 13.1046 12.6046 14 11.5 14H4.5C3.39543 14 2.5 13.1046 2.5 12V8Z" fill="white"/>
</g>
<defs>
<clipPath id="clip0_2508_289">
<rect width="16" height="16" fill="white"/>
</clipPath>
</defs>
</svg>
