<svg width="16" height="16" viewBox="0 0 16 16" fill="none" xmlns="http://www.w3.org/2000/svg">
<path fill-rule="evenodd" clip-rule="evenodd" d="M1 4.25C1 2.45507 2.45507 1 4.25 1H11.75C13.5449 1 15 2.45507 15 4.25C15 6.04493 13.5449 7.5 11.75 7.5H4.25C2.45507 7.5 1 6.04493 1 4.25ZM10.5 4.25C10.5 3.55964 11.0596 3 11.75 3C12.4404 3 13 3.55964 13 4.25C13 4.94036 12.4404 5.5 11.75 5.5C11.0596 5.5 10.5 4.94036 10.5 4.25Z" fill="white"/>
<path fill-rule="evenodd" clip-rule="evenodd" d="M1 11.75C1 9.95507 2.45507 8.5 4.25 8.5H11.75C13.5449 8.5 15 9.95507 15 11.75C15 13.5449 13.5449 15 11.75 15H4.25C2.45507 15 1 13.5449 1 11.75ZM3 11.75C3 11.0596 3.55964 10.5 4.25 10.5C4.94036 10.5 5.5 11.0596 5.5 11.75C5.5 12.4404 4.94036 13 4.25 13C3.55964 13 3 12.4404 3 11.75Z" fill="white" fill-opacity="0.5"/>
</svg>
