<svg width="16" height="16" viewBox="0 0 16 16" fill="none" xmlns="http://www.w3.org/2000/svg">
<path fill-rule="evenodd" clip-rule="evenodd" d="M6.66795 0.596679C7.21677 -0.226558 8.5 0.161971 8.5 1.15138V4.83854C8.5 5.30023 9.07227 5.51525 9.37629 5.1678L10.6333 3.73123C11.1013 3.1963 11.9624 3.30676 12.2803 3.94252L13.8493 7.08064C14.2772 7.93642 14.5 8.88008 14.5 9.83687C14.5 13.2407 11.7407 16 8.33688 16H7.37314C4.1295 16 1.5 13.3705 1.5 10.1268C1.5 8.96734 1.84322 7.83378 2.48639 6.86901L6.66795 0.596679ZM6.2732 7.43882C6.79049 6.66287 8 7.02909 8 7.96165V8.15686C8 8.57609 8.50686 8.78603 8.8033 8.4896L9.01534 8.27756C9.28301 8.00989 9.71699 8.00989 9.98466 8.27756L10.2322 8.52513C10.7238 9.01672 11 9.68347 11 10.3787C11 11.8264 9.8264 13 8.37868 13H7.80278C6.25485 13 5 11.7452 5 10.1972C5 9.64389 5.16379 9.10293 5.47073 8.64253L6.2732 7.43882Z" fill="white"/>
<path fill-rule="evenodd" clip-rule="evenodd" d="M8 7.96165C8 7.02909 6.79049 6.66287 6.2732 7.43882L5.47073 8.64253C5.16379 9.10293 5 9.64389 5 10.1972C5 11.7452 6.25485 13 7.80278 13H8.37868C9.82639 13 11 11.8264 11 10.3787C11 9.68347 10.7238 9.01672 10.2322 8.52513L9.98466 8.27756C9.71699 8.00989 9.28301 8.00989 9.01534 8.27756L8.8033 8.4896C8.50686 8.78603 8 8.57608 8 8.15686V7.96165Z" fill="white" fill-opacity="0.5"/>
</svg>
