<svg width="16" height="16" viewBox="0 0 16 16" fill="none" xmlns="http://www.w3.org/2000/svg">
<g clip-path="url(#clip0_2508_282)">
<path d="M13.5 15.5H6.5C5.39543 15.5 4.5 14.6046 4.5 13.5V9.5C4.5 8.39543 5.39543 7.5 6.5 7.5H7.5H13.5C14.6046 7.5 15.5 8.39543 15.5 9.5V13.5C15.5 14.6046 14.6046 15.5 13.5 15.5Z" fill="white"/>
<path d="M7.5 7.5H6.5C5.39543 7.5 4.5 8.39543 4.5 9.5V13.5C4.5 14.6046 5.39543 15.5 6.5 15.5H13.5C14.6046 15.5 15.5 14.6046 15.5 13.5V9.5C15.5 8.39543 14.6046 7.5 13.5 7.5H7.5ZM7.5 7.5V4C7.5 2.067 5.933 0.5 4 0.5V0.5C2.067 0.5 0.5 2.067 0.5 4V7.5" stroke="white" stroke-linecap="round" stroke-linejoin="round"/>
</g>
<defs>
<clipPath id="clip0_2508_282">
<rect width="16" height="16" fill="white"/>
</clipPath>
</defs>
</svg>
