<svg width="16" height="16" viewBox="0 0 16 16" fill="none" xmlns="http://www.w3.org/2000/svg">
<path fill-rule="evenodd" clip-rule="evenodd" d="M6 0C3.79086 0 2 1.79086 2 4C2 6.20914 3.79086 8 6 8C8.20914 8 10 6.20914 10 4C10 1.79086 8.20914 0 6 0ZM5.5 9C3.01472 9 1 11.0147 1 13.5C1 14.8807 2.11929 16 3.5 16H8.5C9.88071 16 11 14.8807 11 13.5C11 11.0147 8.98528 9 6.5 9H5.5Z" fill="white"/>
<path fill-rule="evenodd" clip-rule="evenodd" d="M11.7855 14.7092C11.5896 15.2413 11.9329 16 12.5 16C13.8807 16 15 14.8807 15 13.5C15 11.0147 12.9853 9 10.5 9C10.2412 9 10.1216 9.35255 10.3083 9.53179C11.351 10.5327 12 11.9406 12 13.5C12 13.925 11.9242 14.3323 11.7855 14.7092ZM7.5 16C6.11929 16 5 14.8807 5 13.5C5 11.6657 6.09753 10.0877 7.67173 9.38691C7.88066 9.2939 8.11934 9.2939 8.32827 9.38691C9.90247 10.0877 11 11.6657 11 13.5C11 14.8807 9.88071 16 8.5 16H7.5ZM9.76132 7.29441C9.52697 7.56176 9.64448 8 10 8C12.2091 8 14 6.20914 14 4C14 1.79086 12.2091 0 10 0C9.64448 0 9.52697 0.43824 9.76132 0.705591C10.5325 1.58539 11 2.7381 11 4C11 5.2619 10.5325 6.41461 9.76132 7.29441ZM8.47813 7.14009C8.19736 7.36198 7.80264 7.36198 7.52187 7.14009C6.59488 6.40753 6 5.27323 6 4C6 2.72677 6.59488 1.59247 7.52187 0.859906C7.80264 0.63802 8.19736 0.63802 8.47813 0.859906C9.40512 1.59247 10 2.72677 10 4C10 5.27323 9.40512 6.40753 8.47813 7.14009Z" fill="white" fill-opacity="0.5"/>
</svg>
