<svg width="16" height="16" viewBox="0 0 16 16" fill="none" xmlns="http://www.w3.org/2000/svg">
<path fill-rule="evenodd" clip-rule="evenodd" d="M2 3C0.895431 3 0 3.89543 0 5V11C0 12.1046 0.89543 13 2 13H10C11.0292 13 11.8768 12.2226 11.9877 11.223C11.988 11.22 11.9911 11.2181 11.9938 11.2192C11.9968 11.2203 12 11.2181 12 11.2149V4.78507C12 4.78189 11.9968 4.77969 11.9938 4.78081C11.9911 4.78185 11.988 4.77997 11.9877 4.77701C11.8768 3.77739 11.0292 3 10 3H2ZM13.6489 4.16017C13.2586 4.30653 13 4.67966 13 5.0965V10.9035C13 11.3203 13.2586 11.6935 13.6489 11.8398L13.9733 11.9615C14.9539 12.3292 16 11.6043 16 10.557V5.443C16 4.39569 14.9539 3.67077 13.9733 4.03851L13.6489 4.16017ZM4 6C4 6.55228 3.55228 7 3 7C2.44772 7 2 6.55228 2 6C2 5.44772 2.44772 5 3 5C3.55228 5 4 5.44772 4 6Z" fill="white"/>
<circle cx="3" cy="6" r="1" fill="white" fill-opacity="0.5"/>
</svg>
