<svg width="16" height="16" viewBox="0 0 16 16" fill="none" xmlns="http://www.w3.org/2000/svg">
<path fill-rule="evenodd" clip-rule="evenodd" d="M5.87558 11.6815C5.71828 11.9344 5.79692 12.2549 6.01026 12.4627L7.47532 13.8901C7.76655 14.1738 8.23084 14.1738 8.52207 13.8901L9.98878 12.4611C10.2023 12.2531 10.2809 11.9324 10.1232 11.6794C9.68178 10.9713 8.89594 10.5 8.00003 10.5C7.10324 10.5 6.31674 10.9722 5.87558 11.6815ZM4.17593 10.6756C4.53537 11.0258 5.1352 10.9257 5.48434 10.5652C6.12058 9.90833 7.01195 9.5 7.99869 9.5C8.98543 9.5 9.8768 9.90833 10.513 10.5652C10.8622 10.9257 11.462 11.0258 11.8215 10.6756L12.8385 9.68463C13.1034 9.42658 13.1441 9.01061 12.9011 8.73182C11.7095 7.36427 9.95502 6.5 7.99869 6.5C6.04236 6.5 4.28789 7.36427 3.09626 8.73181C2.85333 9.01061 2.89398 9.42658 3.15884 9.68463L4.17593 10.6756ZM1.36085 7.93288C1.6859 8.24957 2.21397 8.20472 2.52423 7.87353C3.89271 6.41276 5.83911 5.5 7.99869 5.5C10.1583 5.5 12.1047 6.41276 13.4732 7.87354C13.7834 8.20473 14.3115 8.24958 14.6365 7.93288L15.6966 6.90006C15.9736 6.63025 16.0021 6.19199 15.7408 5.90697C13.8213 3.81292 11.0633 2.5 7.99869 2.5C4.93408 2.5 2.17612 3.81292 0.256589 5.90696C-0.00467855 6.19199 0.0238185 6.63024 0.300759 6.90006L1.36085 7.93288Z" fill="white" fill-opacity="0.5"/>
</svg>
