<svg width="16" height="16" viewBox="0 0 16 16" fill="none" xmlns="http://www.w3.org/2000/svg">
<g clip-path="url(#clip0_1579_102)">
<path fill-rule="evenodd" clip-rule="evenodd" d="M4.70263 0.708991C5.70806 0.253567 6.82442 0 8 0C9.17558 0 10.2919 0.253567 11.2974 0.708991C11.2814 0.713983 11.2655 0.719185 11.2496 0.724598C10.1108 1.11294 8.92358 1.56459 8 2.3259C7.07642 1.56459 5.88915 1.11294 4.75039 0.724598C4.73451 0.719185 4.71859 0.713983 4.70263 0.708991ZM2.77158 1.94478C1.07414 3.41174 0 5.58043 0 8C0 9.82973 0.614268 11.516 1.64784 12.8638C2.60934 9.25432 4.00193 6.43676 5.8522 4.45131C4.92646 3.22682 3.65525 2.38664 2.77639 1.94721C2.77478 1.94641 2.77318 1.9456 2.77158 1.94478ZM2.95443 14.2086C4.33093 15.3286 6.08706 16 8 16C9.91294 16 11.6691 15.3286 13.0456 14.2086C13.0381 14.1922 13.0314 14.1754 13.0257 14.1581C12.5377 12.6944 11.8055 11.1087 10.8937 9.71063C10.0466 8.41174 9.06233 7.30207 8 6.5919C6.93767 7.30207 5.95341 8.41174 5.10631 9.71063C4.19451 11.1087 3.46226 12.6944 2.97434 14.1581C2.96858 14.1754 2.96192 14.1922 2.95443 14.2086ZM14.3522 12.8638C15.3857 11.516 16 9.82973 16 8C16 5.58043 14.9259 3.41174 13.2284 1.94477C13.2268 1.94559 13.2252 1.94641 13.2236 1.94721C12.3448 2.38664 11.0735 3.22682 10.1478 4.45131C11.9981 6.43676 13.3907 9.25432 14.3522 12.8638ZM4.21797 1.62479L4.27118 1.65964C4.29347 1.65438 4.31585 1.64962 4.33833 1.64536C4.2986 1.63596 4.2584 1.62911 4.21797 1.62479ZM11.782 1.62479L11.7288 1.65964C11.7065 1.65438 11.6841 1.64962 11.6617 1.64536C11.7014 1.63596 11.7416 1.62911 11.782 1.62479Z" fill="white"/>
<mask id="mask0_1579_102" style="mask-type:alpha" maskUnits="userSpaceOnUse" x="0" y="0" width="16" height="16">
<path fill-rule="evenodd" clip-rule="evenodd" d="M8 0C3.58172 0 0 3.58172 0 8C0 12.4183 3.58172 16 8 16C12.4183 16 16 12.4183 16 8C16 3.58172 12.4183 0 8 0Z" fill="white"/>
</mask>
<g mask="url(#mask0_1579_102)">
<path fill-rule="evenodd" clip-rule="evenodd" d="M4.7504 0.724589C4.24492 0.552211 3.69399 0.593984 3.22068 0.83064L2.7764 1.05278C2.60701 1.13747 2.50001 1.3106 2.50001 1.49999C2.50001 1.68938 2.60701 1.86251 2.7764 1.9472C3.65526 2.38663 4.92647 3.22681 5.85221 4.4513C3.91485 6.5302 2.47927 9.52139 1.51494 13.3787C1.47234 13.5491 1.52227 13.7294 1.64646 13.8535L2.14646 14.3535C2.26899 14.4761 2.44623 14.5264 2.61489 14.4866C2.78354 14.4468 2.91955 14.3225 2.97435 14.1581C3.46227 12.6944 4.19452 11.1087 5.10632 9.71062C5.95342 8.41173 6.93768 7.30206 8.00001 6.59189C9.06234 7.30206 10.0466 8.41173 10.8937 9.71062C11.8055 11.1087 12.5378 12.6944 13.0257 14.1581C13.0805 14.3225 13.2165 14.4468 13.3851 14.4866C13.5538 14.5264 13.731 14.4761 13.8536 14.3535L14.3536 13.8535C14.4778 13.7294 14.5277 13.5491 14.4851 13.3787C13.5207 9.52139 12.0852 6.53021 10.1478 4.4513C11.0736 3.22681 12.3448 2.38663 13.2236 1.9472C13.393 1.86251 13.5 1.68938 13.5 1.49999C13.5 1.3106 13.393 1.13747 13.2236 1.05278L12.7793 0.83064C12.306 0.593984 11.7551 0.552211 11.2496 0.724589C10.1109 1.11293 8.92359 1.56458 8.00001 2.32589C7.07643 1.56458 5.88916 1.11293 4.7504 0.724589ZM4.27119 1.65963C4.25341 1.64791 4.23567 1.63629 4.21798 1.62478C4.25841 1.6291 4.29861 1.63595 4.33834 1.64535C4.31587 1.64961 4.29348 1.65437 4.27119 1.65963ZM11.7288 1.65963C11.7466 1.64791 11.7643 1.63629 11.782 1.62478C11.7416 1.6291 11.7014 1.63595 11.6617 1.64535C11.6842 1.64961 11.7065 1.65437 11.7288 1.65963Z" fill="white" fill-opacity="0.5"/>
</g>
</g>
<defs>
<clipPath id="clip0_1579_102">
<rect width="16" height="16" fill="white"/>
</clipPath>
</defs>
</svg>
