<svg width="100" height="100" viewBox="0 0 100 100" fill="none" xmlns="http://www.w3.org/2000/svg">
<path d="M45.2527 8.11009C47.3771 4.49920 52.6229 4.49920 54.7473 8.11009V8.11009C56.3837 10.9056 60.0693 11.689 62.7013 9.80075V9.80075C66.1182 7.34933 70.9104 9.48298 71.3751 13.6626V13.6626C71.7329 16.882 74.7813 19.0967 77.9537 18.4422V18.4422C82.0723 17.5925 85.5824 21.4909 84.3069 25.4981V25.4981C83.3243 28.5848 85.2083 31.8479 88.3727 32.5403V32.5403C92.4808 33.4393 94.1018 38.4283 91.3067 41.5703V41.5703C89.1537 43.9904 89.5475 47.7377 92.1567 49.6574V49.6574C95.544 52.1495 94.9957 57.3666 91.1642 59.1V59.1C88.213 60.4352 87.0486 64.0187 88.6514 66.8337V66.8337C90.7322 70.4881 88.1093 75.0311 83.9041 75.0563V75.0563C80.6649 75.0757 78.1436 77.8758 78.4629 81.0992V81.0992C78.8775 85.2841 74.6335 88.3675 70.7816 86.6801V86.6801C67.8146 85.3803 64.3724 86.9128 63.353 89.9875V89.9875C62.0295 93.9792 56.8984 95.0698 54.0658 91.9615V91.9615C51.884 89.5673 48.116 89.5673 45.9342 91.9615V91.9615C43.1016 95.0698 37.9705 93.9792 36.647 89.9875V89.9875C35.6276 86.9128 32.1854 85.3803 29.2184 86.6801V86.6801C25.3665 88.3675 21.1225 85.2841 21.5371 81.0992V81.0992C21.8564 77.8758 19.3351 75.0757 16.0959 75.0563V75.0563C11.8907 75.0311 9.26778 70.4881 11.3486 66.8337V66.8337C12.9514 64.0187 11.787 60.4352 8.83579 59.1V59.1C5.00434 57.3666 4.45601 52.1495 7.84333 49.6574V49.6574C10.4525 47.7377 10.8463 43.9904 8.69332 41.5703V41.5703C5.89816 38.4283 7.5192 33.4393 11.6273 32.5403V32.5403C14.7917 31.8479 16.6757 28.5848 15.6931 25.4981V25.4981C14.4176 21.4909 17.9277 17.5925 22.0463 18.4422V18.4422C25.2187 19.0967 28.2671 16.882 28.6249 13.6626V13.6626C29.0895 9.48298 33.8818 7.34933 37.2987 9.80075V9.80075C39.9307 11.689 43.6163 10.9056 45.2527 8.11009V8.11009Z" fill="white"/>
</svg>
