<svg width="72" height="72" viewBox="0 0 72 72" fill="none" xmlns="http://www.w3.org/2000/svg">
<g clip-path="url(#clip0_592_4)">
<g filter="url(#filter0_d_592_4)">
<rect x="4" y="4" width="64" height="64" rx="16" fill="url(#paint0_linear_592_4)"/>
</g>
<mask id="mask0_592_4" style="mask-type:alpha" maskUnits="userSpaceOnUse" x="4" y="4" width="64" height="64">
<rect x="4" y="4" width="64" height="64" rx="16" fill="white"/>
</mask>
<g mask="url(#mask0_592_4)">
<path d="M4 24H29.5279C32.2687 24 34.7743 25.5485 36 28C37.2257 30.4515 39.7313 32 42.4721 32H68V64C68 66.2091 66.2091 68 64 68H8C5.79086 68 4 66.2091 4 64V24Z" fill="url(#paint1_linear_592_4)"/>
<rect opacity="0.5" x="14" y="12" width="44" height="28" rx="2" fill="url(#paint2_linear_592_4)"/>
<path d="M12 18C12 16.8954 12.8954 16 14 16H58C59.1046 16 60 16.8954 60 18V66C60 67.1046 59.1046 68 58 68H14C12.8954 68 12 67.1046 12 66V18Z" fill="url(#paint3_linear_592_4)"/>
<g filter="url(#filter1_b_592_4)">
<path d="M4 24H29.5279C32.2687 24 34.7743 25.5485 36 28C37.2257 30.4515 39.7313 32 42.4721 32H68V64C68 66.2091 66.2091 68 64 68H8C5.79086 68 4 66.2091 4 64V24Z" fill="url(#paint4_linear_592_4)"/>
</g>
<rect x="4" y="54" width="64" height="2" fill="#C00040" fill-opacity="0.05"/>
<rect x="4" y="56" width="64" height="12" fill="url(#paint5_linear_592_4)" fill-opacity="0.1"/>
</g>
</g>
<defs>
<filter id="filter0_d_592_4" x="0" y="0" width="72" height="72" filterUnits="userSpaceOnUse" color-interpolation-filters="sRGB">
<feFlood flood-opacity="0" result="BackgroundImageFix"/>
<feColorMatrix in="SourceAlpha" type="matrix" values="0 0 0 0 0 0 0 0 0 0 0 0 0 0 0 0 0 0 127 0" result="hardAlpha"/>
<feOffset/>
<feGaussianBlur stdDeviation="2"/>
<feComposite in2="hardAlpha" operator="out"/>
<feColorMatrix type="matrix" values="0 0 0 0 0 0 0 0 0 0 0 0 0 0 0 0 0 0 0.1 0"/>
<feBlend mode="normal" in2="BackgroundImageFix" result="effect1_dropShadow_592_4"/>
<feBlend mode="normal" in="SourceGraphic" in2="effect1_dropShadow_592_4" result="shape"/>
</filter>
<filter id="filter1_b_592_4" x="2" y="22" width="68" height="48" filterUnits="userSpaceOnUse" color-interpolation-filters="sRGB">
<feFlood flood-opacity="0" result="BackgroundImageFix"/>
<feGaussianBlur in="BackgroundImageFix" stdDeviation="1"/>
<feComposite in2="SourceAlpha" operator="in" result="effect1_backgroundBlur_592_4"/>
<feBlend mode="normal" in="SourceGraphic" in2="effect1_backgroundBlur_592_4" result="shape"/>
</filter>
<linearGradient id="paint0_linear_592_4" x1="36" y1="4" x2="36" y2="68" gradientUnits="userSpaceOnUse">
<stop stop-color="#FFA060"/>
<stop offset="1" stop-color="#FF6040"/>
</linearGradient>
<linearGradient id="paint1_linear_592_4" x1="35.9999" y1="24" x2="35.9999" y2="68" gradientUnits="userSpaceOnUse">
<stop stop-color="#FFC000"/>
<stop offset="1" stop-color="#FF6040"/>
</linearGradient>
<linearGradient id="paint2_linear_592_4" x1="36" y1="12" x2="36" y2="40" gradientUnits="userSpaceOnUse">
<stop stop-color="white"/>
<stop offset="1" stop-color="#F0F6FF"/>
</linearGradient>
<linearGradient id="paint3_linear_592_4" x1="36" y1="16" x2="36" y2="68" gradientUnits="userSpaceOnUse">
<stop stop-color="white"/>
<stop offset="1" stop-color="#F0F6FF"/>
</linearGradient>
<linearGradient id="paint4_linear_592_4" x1="36" y1="24" x2="36" y2="68" gradientUnits="userSpaceOnUse">
<stop stop-color="#FFE860"/>
<stop offset="1" stop-color="#FFC000"/>
</linearGradient>
<linearGradient id="paint5_linear_592_4" x1="36" y1="56" x2="36" y2="68" gradientUnits="userSpaceOnUse">
<stop stop-color="white"/>
<stop offset="1" stop-color="white" stop-opacity="0"/>
</linearGradient>
<clipPath id="clip0_592_4">
<rect width="72" height="72" fill="white"/>
</clipPath>
</defs>
</svg>
