<svg width="16" height="16" viewBox="0 0 16 16" fill="none" xmlns="http://www.w3.org/2000/svg">
<g clip-path="url(#clip0_91_1423)">
<g filter="url(#filter0_i_91_1423)">
<rect width="16" height="16" rx="8" fill="url(#paint0_radial_91_1423)"/>
</g>
<rect x="4" y="4" width="2" height="3" rx="1" fill="url(#paint1_linear_91_1423)"/>
<rect x="10" y="4" width="2" height="3" rx="1" fill="url(#paint2_linear_91_1423)"/>
<path d="M4.5 12L4.5068 11.9592C4.79141 10.2516 6.26883 9 8 9V9C9.73117 9 11.2086 10.2516 11.4932 11.9592L11.5 12" stroke="url(#paint3_linear_91_1423)" stroke-linecap="round" stroke-linejoin="round"/>
<g filter="url(#filter1_i_91_1423)">
<path d="M1 8.2534C1 7.53012 1.52291 6.91285 2.23635 6.79394L3.1267 6.64555C3.58385 6.56936 4 6.92189 4 7.38535V8.22931C4 8.96257 3.45987 9.59002 2.73659 9.71057C1.83473 9.86088 1 9.1677 1 8.2534Z" fill="url(#paint4_linear_91_1423)"/>
</g>
</g>
<defs>
<filter id="filter0_i_91_1423" x="0" y="-2" width="16" height="18" filterUnits="userSpaceOnUse" color-interpolation-filters="sRGB">
<feFlood flood-opacity="0" result="BackgroundImageFix"/>
<feBlend mode="normal" in="SourceGraphic" in2="BackgroundImageFix" result="shape"/>
<feColorMatrix in="SourceAlpha" type="matrix" values="0 0 0 0 0 0 0 0 0 0 0 0 0 0 0 0 0 0 127 0" result="hardAlpha"/>
<feOffset dy="-2"/>
<feGaussianBlur stdDeviation="2"/>
<feComposite in2="hardAlpha" operator="arithmetic" k2="-1" k3="1"/>
<feColorMatrix type="matrix" values="0 0 0 0 0.71 0 0 0 0 0 0 0 0 0 0.5964 0 0 0 0.5 0"/>
<feBlend mode="normal" in2="shape" result="effect1_innerShadow_91_1423"/>
</filter>
<filter id="filter1_i_91_1423" x="1" y="6.13516" width="3" height="3.59595" filterUnits="userSpaceOnUse" color-interpolation-filters="sRGB">
<feFlood flood-opacity="0" result="BackgroundImageFix"/>
<feBlend mode="normal" in="SourceGraphic" in2="BackgroundImageFix" result="shape"/>
<feColorMatrix in="SourceAlpha" type="matrix" values="0 0 0 0 0 0 0 0 0 0 0 0 0 0 0 0 0 0 127 0" result="hardAlpha"/>
<feOffset dy="-0.5"/>
<feGaussianBlur stdDeviation="0.5"/>
<feComposite in2="hardAlpha" operator="arithmetic" k2="-1" k3="1"/>
<feColorMatrix type="matrix" values="0 0 0 0 0.71 0 0 0 0 0 0 0 0 0 0.5964 0 0 0 0.5 0"/>
<feBlend mode="normal" in2="shape" result="effect1_innerShadow_91_1423"/>
</filter>
<radialGradient id="paint0_radial_91_1423" cx="0" cy="0" r="1" gradientUnits="userSpaceOnUse" gradientTransform="translate(8) rotate(90) scale(16)">
<stop offset="0.244977" stop-color="#FFC000"/>
<stop offset="1" stop-color="#FF6040"/>
</radialGradient>
<linearGradient id="paint1_linear_91_1423" x1="5" y1="4" x2="5" y2="7" gradientUnits="userSpaceOnUse">
<stop/>
<stop offset="1" stop-opacity="0.75"/>
</linearGradient>
<linearGradient id="paint2_linear_91_1423" x1="11" y1="4" x2="11" y2="7" gradientUnits="userSpaceOnUse">
<stop/>
<stop offset="1" stop-opacity="0.75"/>
</linearGradient>
<linearGradient id="paint3_linear_91_1423" x1="8" y1="10" x2="8" y2="13" gradientUnits="userSpaceOnUse">
<stop stop-opacity="0.75"/>
<stop offset="1"/>
</linearGradient>
<linearGradient id="paint4_linear_91_1423" x1="2.5" y1="6.5" x2="2.5" y2="9.5" gradientUnits="userSpaceOnUse">
<stop stop-color="#80C2FF"/>
<stop offset="1" stop-color="#0061E0"/>
</linearGradient>
<clipPath id="clip0_91_1423">
<rect width="16" height="16" fill="white"/>
</clipPath>
</defs>
</svg>
