<svg width="72" height="72" viewBox="0 0 72 72" fill="none" xmlns="http://www.w3.org/2000/svg">
<g clip-path="url(#clip0_537_75)">
<g filter="url(#filter0_d_537_75)">
<rect x="4" y="4" width="64" height="64" rx="16" fill="url(#paint0_linear_537_75)"/>
</g>
<mask id="mask0_537_75" style="mask-type:alpha" maskUnits="userSpaceOnUse" x="4" y="4" width="64" height="64">
<rect x="4" y="4" width="64" height="64" rx="16" fill="white"/>
</mask>
<g mask="url(#mask0_537_75)">
</g>
<g clip-path="url(#clip1_537_75)">
<ellipse cx="20" cy="36" rx="16" ry="8" fill="url(#paint1_radial_537_75)"/>
<ellipse cx="52" cy="36" rx="16" ry="8" fill="url(#paint2_radial_537_75)"/>
<g filter="url(#filter1_di_537_75)">
<path d="M26 60H36M46 60H36M36 60V50M36 50V50C27.1634 50 20 42.8366 20 34V32M36 50V50C44.8366 50 52 42.8366 52 34V32" stroke="white" stroke-width="4" stroke-linecap="round" stroke-linejoin="round"/>
</g>
<path d="M26 20C26 14.4772 30.4772 10 36 10C41.5228 10 46 14.4772 46 20V34C46 39.5228 41.5228 44 36 44C30.4772 44 26 39.5228 26 34V20Z" fill="url(#paint3_linear_537_75)"/>
</g>
</g>
<defs>
<filter id="filter0_d_537_75" x="0" y="0" width="72" height="72" filterUnits="userSpaceOnUse" color-interpolation-filters="sRGB">
<feFlood flood-opacity="0" result="BackgroundImageFix"/>
<feColorMatrix in="SourceAlpha" type="matrix" values="0 0 0 0 0 0 0 0 0 0 0 0 0 0 0 0 0 0 127 0" result="hardAlpha"/>
<feOffset/>
<feGaussianBlur stdDeviation="2"/>
<feComposite in2="hardAlpha" operator="out"/>
<feColorMatrix type="matrix" values="0 0 0 0 0 0 0 0 0 0 0 0 0 0 0 0 0 0 0.1 0"/>
<feBlend mode="normal" in2="BackgroundImageFix" result="effect1_dropShadow_537_75"/>
<feBlend mode="normal" in="SourceGraphic" in2="effect1_dropShadow_537_75" result="shape"/>
</filter>
<filter id="filter1_di_537_75" x="10" y="26" width="52" height="48" filterUnits="userSpaceOnUse" color-interpolation-filters="sRGB">
<feFlood flood-opacity="0" result="BackgroundImageFix"/>
<feColorMatrix in="SourceAlpha" type="matrix" values="0 0 0 0 0 0 0 0 0 0 0 0 0 0 0 0 0 0 127 0" result="hardAlpha"/>
<feOffset dy="4"/>
<feGaussianBlur stdDeviation="4"/>
<feComposite in2="hardAlpha" operator="out"/>
<feColorMatrix type="matrix" values="0 0 0 0 0 0 0 0 0 0 0 0 0 0 0 0 0 0 0.1 0"/>
<feBlend mode="normal" in2="BackgroundImageFix" result="effect1_dropShadow_537_75"/>
<feBlend mode="normal" in="SourceGraphic" in2="effect1_dropShadow_537_75" result="shape"/>
<feColorMatrix in="SourceAlpha" type="matrix" values="0 0 0 0 0 0 0 0 0 0 0 0 0 0 0 0 0 0 127 0" result="hardAlpha"/>
<feOffset dy="-2"/>
<feGaussianBlur stdDeviation="1"/>
<feComposite in2="hardAlpha" operator="arithmetic" k2="-1" k3="1"/>
<feColorMatrix type="matrix" values="0 0 0 0 0 0 0 0 0 0 0 0 0 0 0 0 0 0 0.25 0"/>
<feBlend mode="normal" in2="shape" result="effect2_innerShadow_537_75"/>
</filter>
<linearGradient id="paint0_linear_537_75" x1="36" y1="4" x2="36" y2="68" gradientUnits="userSpaceOnUse">
<stop stop-color="#101214"/>
<stop offset="1"/>
</linearGradient>
<radialGradient id="paint1_radial_537_75" cx="0" cy="0" r="1" gradientUnits="userSpaceOnUse" gradientTransform="translate(20 28) rotate(90) scale(16 32)">
<stop stop-color="#FF60C0"/>
<stop offset="0.7125" stop-color="#FF60C0" stop-opacity="0"/>
</radialGradient>
<radialGradient id="paint2_radial_537_75" cx="0" cy="0" r="1" gradientUnits="userSpaceOnUse" gradientTransform="translate(52 44) rotate(-90) scale(16 32)">
<stop stop-color="#FF60C0"/>
<stop offset="0.691666" stop-color="#FF60C0" stop-opacity="0"/>
</radialGradient>
<linearGradient id="paint3_linear_537_75" x1="28" y1="10" x2="44" y2="44" gradientUnits="userSpaceOnUse">
<stop stop-color="#00DDFF"/>
<stop offset="1" stop-color="#0061E0"/>
</linearGradient>
<clipPath id="clip0_537_75">
<rect width="72" height="72" fill="white"/>
</clipPath>
<clipPath id="clip1_537_75">
<rect width="64" height="64" fill="white" transform="translate(4 4)"/>
</clipPath>
</defs>
</svg>
