<svg width="16" height="16" viewBox="0 0 16 16" fill="none" xmlns="http://www.w3.org/2000/svg">
<path d="M4 12.5V13.5C4 14.6046 4.89543 15.5 6 15.5H10C11.1046 15.5 12 14.6046 12 13.5V12.5M4 12.5H12M4 12.5V5.5M12 12.5V5.5M4 5.5V2C4 1.17157 4.67137 0.5 5.49979 0.5C5.65853 0.5 5.82588 0.5 6 0.5M4 5.5H6M12 5.5V2C12 1.17157 11.3283 0.5 10.4999 0.5C10.3148 0.5 10.1423 0.5 10 0.5M12 5.5H10M6 5.5H8M6 5.5V0.5M6 0.5C6.61033 0.5 7.30373 0.5 8 0.5M8 5.5H10M8 5.5V0.5M8 0.5C8.50891 0.5 9.51935 0.5 10 0.5M10 5.5V0.5" stroke="white" stroke-linecap="round" stroke-linejoin="round"/>
<path d="M9 7.5H7C6.72386 7.5 6.5 7.72386 6.5 8C6.5 8.27614 6.72386 8.5 7 8.5H9C9.27614 8.5 9.5 8.27614 9.5 8C9.5 7.72386 9.27614 7.5 9 7.5Z" stroke="white" stroke-opacity="0.5" stroke-linecap="round" stroke-linejoin="round"/>
</svg>
