<svg width="16" height="16" viewBox="0 0 16 16" fill="none" xmlns="http://www.w3.org/2000/svg">
<g clip-path="url(#clip0_91_763)">
<path d="M7.10326 1.81698C7.47008 1.07374 8.52992 1.07374 8.89674 1.81699L10.4124 4.88798C10.558 5.18313 10.8396 5.38769 11.1653 5.43502L14.5543 5.92748C15.3746 6.04667 15.7021 7.05464 15.1086 7.63317L12.6562 10.0236C12.4205 10.2533 12.313 10.5843 12.3686 10.9087L12.9475 14.2841C13.0877 15.101 12.2302 15.724 11.4966 15.3383L8.46534 13.7446C8.17402 13.5915 7.82598 13.5915 7.53466 13.7446L4.5034 15.3383C3.76978 15.724 2.91235 15.101 3.05246 14.2841L3.63137 10.9087C3.68701 10.5843 3.57946 10.2533 3.34378 10.0236L0.89144 7.63317C0.297923 7.05464 0.625434 6.04667 1.44565 5.92748L4.8347 5.43502C5.16041 5.38769 5.44197 5.18313 5.58764 4.88798L7.10326 1.81698Z" fill="white" stroke="white"/>
</g>
<defs>
<clipPath id="clip0_91_763">
<rect width="16" height="16" fill="white"/>
</clipPath>
</defs>
</svg>
