<svg width="16" height="16" viewBox="0 0 16 16" fill="none" xmlns="http://www.w3.org/2000/svg">
<path d="M1.31602 7.78787L0.674045 12.2817C0.582186 12.9247 1.08114 13.5 1.73068 13.5C2.19011 13.5 2.598 13.206 2.74328 12.7702L3.15811 11.5257C3.36228 10.9131 3.93549 10.5 4.58114 10.5H6.41886C7.06451 10.5 7.63771 10.9131 7.84189 11.5257L8.25672 12.7702C8.402 13.206 8.80989 13.5 9.26931 13.5C9.91886 13.5 10.4178 12.9247 10.326 12.2817L9.68398 7.78787C9.57841 7.04889 8.94553 6.5 8.19906 6.5H2.80094C2.05447 6.5 1.42159 7.04889 1.31602 7.78787Z" stroke="white" stroke-linecap="round" stroke-linejoin="round"/>
<path fill-rule="evenodd" clip-rule="evenodd" d="M7.80098 3C7.30333 3 6.88141 3.36593 6.81104 3.85858L6.7093 4.57071C6.67411 4.81703 6.46315 5 6.21433 5C5.91005 5 5.67632 4.73051 5.71935 4.42929L5.82109 3.71716C5.96184 2.73186 6.80568 2 7.80098 2H13.1991C14.1944 2 15.0382 2.73186 15.179 3.71716L15.821 8.21097C15.9559 9.15521 15.2232 10 14.2694 10C13.5947 10 12.9958 9.5683 12.7824 8.92828L12.3676 7.68377C12.2315 7.27543 11.8493 7 11.4189 7H11.309C11.1406 7 10.9915 6.88942 10.9206 6.73664C10.7761 6.42514 10.9806 6 11.3241 6H11.4189C12.2798 6 13.044 6.55086 13.3163 7.36754L13.7311 8.61205C13.8083 8.84373 14.0251 9 14.2694 9C14.6146 9 14.8798 8.6942 14.831 8.3524L14.189 3.85858C14.1187 3.36593 13.6967 3 13.1991 3H7.80098Z" fill="white" fill-opacity="0.5"/>
</svg>
