<svg width="16" height="16" viewBox="0 0 16 16" fill="none" xmlns="http://www.w3.org/2000/svg">
<path d="M0.5 11.5H1.5M15.5 11.5H14.5M1.5 11.5V4C1.5 3.17157 2.17157 2.5 3 2.5H13C13.8284 2.5 14.5 3.17157 14.5 4V11.5M1.5 11.5H7.5M14.5 11.5H12.5M7 4H9" stroke="white" stroke-linecap="round" stroke-linejoin="round"/>
<path d="M11 14.5H9C8.17157 14.5 7.5 13.8284 7.5 13V7C7.5 6.17157 8.17157 5.5 9 5.5H11C11.8284 5.5 12.5 6.17157 12.5 7V13C12.5 13.8284 11.8284 14.5 11 14.5Z" stroke="white" stroke-linecap="round" stroke-linejoin="round"/>
<path d="M8.5 7C8.5 6.72386 8.72386 6.5 9 6.5C9.27614 6.5 9.5 6.72386 9.5 7C9.5 7.27614 9.27614 7.5 9 7.5C8.72386 7.5 8.5 7.27614 8.5 7Z" fill="white"/>
</svg>
