<svg width="16" height="16" viewBox="0 0 16 16" fill="none" xmlns="http://www.w3.org/2000/svg">
<path d="M2 5.5V5.5C1.17157 5.5 0.5 6.17157 0.5 7V12C0.5 12.8284 1.17157 13.5 2 13.5H14C14.8284 13.5 15.5 12.8284 15.5 12V7C15.5 6.17157 14.8284 5.5 14 5.5V5.5M2 5.5H3C3.82843 5.5 4.5 6.17157 4.5 7V7C4.5 7.82843 5.17157 8.5 6 8.5H10C10.8284 8.5 11.5 7.82843 11.5 7V7C11.5 6.17157 12.1716 5.5 13 5.5H14M2 5.5V4C2 3.17157 2.67157 2.5 3.5 2.5H12.5C13.3284 2.5 14 3.17157 14 4V5.5" stroke="white" stroke-linecap="round" stroke-linejoin="round"/>
</svg>
