<svg width="16" height="16" viewBox="0 0 16 16" fill="none" xmlns="http://www.w3.org/2000/svg">
<mask id="mask0_1575_4" style="mask-type:alpha" maskUnits="userSpaceOnUse" x="0" y="2" width="16" height="13">
<path fill-rule="evenodd" clip-rule="evenodd" d="M2 2C0.895431 2 0 2.89543 0 4V11C0 12.1046 0.895431 13 2 13H6V14H4.5C4.22386 14 4 14.2239 4 14.5C4 14.7761 4.22386 15 4.5 15H6.5H9.5H11.5C11.7761 15 12 14.7761 12 14.5C12 14.2239 11.7761 14 11.5 14H10V13H12V12.8293C11.5202 12.6597 11.0964 12.3715 10.7639 12H9.5H6.5H2C1.44772 12 1 11.5523 1 11V4C1 3.44772 1.44772 3 2 3H14C14.5523 3 15 3.44772 15 4V5.06301C15.3931 5.16419 15.7394 5.38188 16 5.67709V4C16 2.89543 15.1046 2 14 2H2ZM7 14V13H9V14H7Z" fill="white"/>
</mask>
<g mask="url(#mask0_1575_4)">
<path fill-rule="evenodd" clip-rule="evenodd" d="M2 2C0.895431 2 0 2.89543 0 4V11C0 12.1046 0.895431 13 2 13H5.5C5.77614 13 6 13.2239 6 13.5C6 13.7761 5.77614 14 5.5 14H4.5C4.22386 14 4 14.2239 4 14.5C4 14.7761 4.22386 15 4.5 15H6.5H9.5H11.5C11.7761 15 12 14.7761 12 14.5C12 14.2239 11.7761 14 11.5 14H10.5C10.2239 14 10 13.7761 10 13.5C10 13.2239 10.2239 13 10.5 13H11.9C11.9552 13 12 12.9552 12 12.9C12 12.8576 11.9732 12.82 11.9336 12.8049C11.6229 12.6867 11.3369 12.5184 11.0855 12.3098C10.8666 12.1282 10.6013 12 10.3169 12H9.5H6.5H2C1.44772 12 1 11.5523 1 11V4C1 3.44772 1.44772 3 2 3H14C14.5523 3 15 3.44772 15 4V4.79299C15 4.95192 15.1127 5.08893 15.2597 5.14934C15.5565 5.2713 16 5.07697 16 4.75609V4C16 2.89543 15.1046 2 14 2H2ZM7.5 14C7.22386 14 7 13.7761 7 13.5C7 13.2239 7.22386 13 7.5 13H8.5C8.77614 13 9 13.2239 9 13.5C9 13.7761 8.77614 14 8.5 14H7.5Z" fill="white"/>
</g>
<path d="M9.5 14.5V12.5H6.5V14.5H9.5Z" fill="white" stroke="white" stroke-linecap="round" stroke-linejoin="round"/>
<path d="M13.5 15.5V11.5M13.5 11.5H14C14.8284 11.5 15.5 10.8284 15.5 10V9C15.5 8.72386 15.2761 8.5 15 8.5V8.5M13.5 11.5H13C12.1716 11.5 11.5 10.8284 11.5 10V9C11.5 8.72386 11.7239 8.5 12 8.5V8.5M12 8.5V7C12 6.72386 12.2239 6.5 12.5 6.5H14.5C14.7761 6.5 15 6.72386 15 7V8.5M12 8.5H15" stroke="white" stroke-linecap="round" stroke-linejoin="round"/>
</svg>
