<svg width="16" height="16" viewBox="0 0 16 16" fill="none" xmlns="http://www.w3.org/2000/svg">
<g clip-path="url(#clip0_91_1240)">
<path d="M12.5 6V6C12.1936 5.38713 11.5672 5 10.882 5H10.5C9.67157 5 9 5.67157 9 6.5V6.5C9 7.32843 9.67157 8 10.5 8H11C11.8284 8 12.5 8.67157 12.5 9.5V9.5C12.5 10.3284 11.8284 11 11 11H10.618C9.93283 11 9.30643 10.6129 9 10V10M5.25 11V11C6.2165 11 7 10.2165 7 9.25V6.75C7 5.7835 6.2165 5 5.25 5V5C4.2835 5 3.5 5.7835 3.5 6.75V9.25C3.5 10.2165 4.2835 11 5.25 11ZM8 15.5V15.5C12.1421 15.5 15.5 12.1421 15.5 8V8C15.5 3.85786 12.1421 0.5 8 0.5V0.5C3.85786 0.5 0.5 3.85786 0.5 8V8C0.5 12.1421 3.85786 15.5 8 15.5Z" stroke="white" stroke-linecap="round" stroke-linejoin="round"/>
</g>
<defs>
<clipPath id="clip0_91_1240">
<rect width="16" height="16" fill="white"/>
</clipPath>
</defs>
</svg>
