<svg width="16" height="16" viewBox="0 0 16 16" fill="none" xmlns="http://www.w3.org/2000/svg">
<path d="M10.5 3.5H2C1.17157 3.5 0.5 4.17157 0.5 5V11C0.5 11.8284 1.17157 12.5 2 12.5H10.5M10.5 3.5H14C14.8284 3.5 15.5 4.17157 15.5 5V11C15.5 11.8284 14.8284 12.5 14 12.5H10.5M10.5 3.5V12.5M9 7V9M13 9.5V9.5C13.2761 9.5 13.5 9.27614 13.5 9V9C13.5 8.72386 13.2761 8.5 13 8.5V8.5C12.7239 8.5 12.5 8.72386 12.5 9V9C12.5 9.27614 12.7239 9.5 13 9.5Z" stroke="white" stroke-linecap="round" stroke-linejoin="round"/>
<path d="M12.5 5.5H13.5" stroke="white" stroke-opacity="0.5" stroke-linecap="round" stroke-linejoin="round"/>
</svg>
