<svg width="16" height="16" viewBox="0 0 16 16" fill="none" xmlns="http://www.w3.org/2000/svg">
<path d="M4.5 4.5V4.5C3.94772 4.5 3.5 4.94771 3.5 5.5V14C3.5 14.8284 4.17157 15.5 5 15.5H11C11.8284 15.5 12.5 14.8284 12.5 14V5.5C12.5 4.94772 12.0523 4.5 11.5 4.5V4.5M4.5 4.5V4C4.5 2.067 6.067 0.5 8 0.5V0.5C9.933 0.5 11.5 2.067 11.5 4V4.5M4.5 4.5H8.5M11.5 4.5H10.5M10.5 4.5V5.5C10.5 6.05228 10.0523 6.5 9.5 6.5V6.5M10.5 4.5H9.5M9.5 6.5V8C9.5 8.27614 9.27614 8.5 9 8.5V8.5C8.72386 8.5 8.5 8.27614 8.5 8V4.5M9.5 6.5V4.5M8.5 4.5H9.5" stroke="white" stroke-linecap="round" stroke-linejoin="round"/>
</svg>
