<svg width="16" height="16" viewBox="0 0 16 16" fill="none" xmlns="http://www.w3.org/2000/svg">
<path d="M8 0.5V8.5" stroke="white" stroke-linecap="round" stroke-linejoin="round"/>
<path fill-rule="evenodd" clip-rule="evenodd" d="M6.5 2.79397C6.5 2.46872 6.1987 2.22606 5.88857 2.32406C3.0545 3.21957 1 5.86985 1 9C1 12.866 4.13401 16 8 16C11.866 16 15 12.866 15 9C15 5.86985 12.9455 3.21957 10.1114 2.32406C9.8013 2.22606 9.5 2.46872 9.5 2.79397C9.5 3.02649 9.65835 3.22739 9.8792 3.30016C12.2725 4.08876 14 6.34264 14 9C14 12.3137 11.3137 15 8 15C4.68629 15 2 12.3137 2 9C2 6.34264 3.72753 4.08876 6.1208 3.30016C6.34165 3.22739 6.5 3.02649 6.5 2.79397Z" fill="white"/>
</svg>
