<svg width="16" height="16" viewBox="0 0 16 16" fill="none" xmlns="http://www.w3.org/2000/svg">
<path fill-rule="evenodd" clip-rule="evenodd" d="M4.5 8C2.567 8 1 9.567 1 11.5V13.5C1 13.7761 0.776142 14 0.5 14C0.223858 14 0 14.2239 0 14.5C0 14.7761 0.223858 15 0.5 15C1.15311 15 1.70873 14.5826 1.91465 14H3.5H6C7.65685 14 9 12.6569 9 11V10.5C9 9.67157 8.32843 9 7.5 9H6.91465C6.70873 8.4174 6.15311 8 5.5 8H4.5ZM6 9.5C6 9.22386 5.77614 9 5.5 9H4.5C3.11929 9 2 10.1193 2 11.5V13H3.5C4.88071 13 6 11.8807 6 10.5V9.5ZM5.94949 13C6.59777 12.3647 7 11.4793 7 10.5V10H7.5C7.77614 10 8 10.2239 8 10.5V11C8 12.1046 7.10457 13 6 13H5.94949ZM5.35355 10.3536C5.54882 10.1583 5.54882 9.84171 5.35355 9.64645C5.15829 9.45118 4.84171 9.45118 4.64645 9.64645L2.64645 11.6464C2.45118 11.8417 2.45118 12.1583 2.64645 12.3536C2.84171 12.5488 3.15829 12.5488 3.35355 12.3536L5.35355 10.3536Z" fill="white"/>
<path fill-rule="evenodd" clip-rule="evenodd" d="M0 5C0 3.34315 1.34315 2 3 2H11C12.6569 2 14 3.34315 14 5V9C14 10.6569 12.6569 12 11 12H10.4433C10.1549 12 9.9436 11.7327 9.97541 11.4461C10.0023 11.2038 10.1976 11 10.4413 11H11C12.1046 11 13 10.1046 13 9V5C13 3.89543 12.1046 3 11 3H3C1.89543 3 1 3.89543 1 5V8.4834C1 8.60499 0.957344 8.72222 0.88485 8.81984C0.821089 8.90571 0.760315 8.99392 0.70268 9.08433C0.494048 9.41161 0 9.38812 0 9V5ZM8.51151 12C8.70196 12 8.87504 11.8806 8.91901 11.6953C8.93445 11.6302 8.94777 11.5644 8.9589 11.4977C9.00438 11.2254 8.77614 11 8.5 11C8.22386 11 8.00642 11.2273 7.9383 11.4949C7.89779 11.654 7.83819 11.8056 7.76209 11.9469C7.74928 11.9707 7.76624 12 7.79327 12H8.51151ZM6.3841 12C6.55456 12 6.71214 11.9027 6.77271 11.7434C6.79852 11.6755 6.82228 11.6066 6.84391 11.5367C6.92989 11.2591 6.7045 11 6.41387 11H6.18672C6.04898 11 5.93205 11.0976 5.89192 11.2294C5.78768 11.5717 6.01122 12 6.36903 12H6.3841ZM2 11.5C2 11.6607 1.84092 11.7726 1.69622 11.7026C1.52351 11.6192 1.36001 11.5196 1.20768 11.406C1.07831 11.3094 1.0136 11.1495 1.03692 10.9898C1.04734 10.9184 1.05992 10.8478 1.07458 10.7779C1.14061 10.4631 1.55657 10.4211 1.81561 10.6118C1.83604 10.6268 1.85677 10.6415 1.87778 10.6557C2.00286 10.7407 2.06941 10.8932 2.04188 11.0419C2.01438 11.1904 2 11.3435 2 11.5ZM3.68368 12C3.69868 12 3.71306 11.994 3.72367 11.9834L3.85355 11.8536C4.16854 11.5386 3.94545 11 3.5 11C3.36739 11 3.24021 11.0527 3.14645 11.1464L3.01656 11.2763L2.79289 11.5L2.78433 11.5086C2.70104 11.5919 2.6761 11.7171 2.72113 11.826C2.76341 11.9282 2.85992 11.9988 2.97052 11.9999C2.98033 12 2.99016 12 3 12H3.68368ZM2.60531 11.9743C2.68964 11.9854 2.75166 11.9005 2.71911 11.8219L2.71545 11.813C2.68259 11.7337 2.5797 11.7156 2.54432 11.7939C2.53523 11.814 2.52754 11.8346 2.52124 11.8555C2.50408 11.9125 2.54626 11.9665 2.60531 11.9743ZM4.5 9.79289C4.42357 9.86932 4.4777 10 4.58579 10H5C5.08154 10 5.1608 9.99024 5.23668 9.97183C5.38925 9.9348 5.46457 9.75747 5.35355 9.64645C5.25592 9.54882 5.12796 9.5 5 9.5C4.87204 9.5 4.74408 9.54881 4.64645 9.64645L4.64609 9.64681L4.64603 9.64686L4.5 9.79289ZM5.85355 9.14645C5.89811 9.191 5.98582 9.18022 5.99315 9.11763C5.99768 9.07905 6 9.0398 6 9V8.59504C6 8.28958 5.80546 8 5.5 8H4.5C3.66163 8 2.89211 8.29477 2.28941 8.78632C2.09656 8.94361 1.99033 9.20811 2.09808 9.43244C2.27443 9.79958 2.74811 9.67076 3.08354 9.43971C3.2919 9.29619 3.52311 9.18345 3.7706 9.10808C3.85905 9.08114 3.94957 9.05898 4.04188 9.04188C4.1904 9.01438 4.34352 9 4.5 9H5.5C5.57503 9 5.6462 9.01653 5.71006 9.04614C5.76373 9.07101 5.81224 9.10513 5.85355 9.14645ZM2 5.88504C2 6.68458 2.93797 7.20297 3.72576 7.06635C3.97729 7.02274 4.23599 7 4.5 7H5.5C5.76012 7 6 6.80677 6 6.54666V5C6 4.44772 5.55228 4 5 4H3C2.44772 4 2 4.44772 2 5V5.88504ZM15.5 5C15.7761 5 16 5.22386 16 5.5V8.5C16 8.77614 15.7761 9 15.5 9C15.2239 9 15 8.77614 15 8.5V5.5C15 5.22386 15.2239 5 15.5 5Z" fill="white"/>
</svg>
