<svg width="16" height="16" viewBox="0 0 16 16" fill="none" xmlns="http://www.w3.org/2000/svg">
<g clip-path="url(#clip0_91_618)">
<path d="M10.5 0.5H11.3787C11.7765 0.5 12.158 0.658035 12.4393 0.93934L15.0607 3.56066C15.342 3.84197 15.5 4.2235 15.5 4.62132V14C15.5 14.8284 14.8284 15.5 14 15.5H2C1.17157 15.5 0.5 14.8284 0.5 14V2C0.5 1.17157 1.17157 0.5 2 0.5H3.5M10.5 0.5V2C10.5 2.82843 9.82843 3.5 9 3.5H5C4.17157 3.5 3.5 2.82843 3.5 2V0.5M10.5 0.5H3.5M11.5 6.5H4.5C3.67157 6.5 3 7.17157 3 8V12C3 12.8284 3.67157 13.5 4.5 13.5H11.5C12.3284 13.5 13 12.8284 13 12V8C13 7.17157 12.3284 6.5 11.5 6.5Z" stroke="white" stroke-linecap="round" stroke-linejoin="round"/>
</g>
<defs>
<clipPath id="clip0_91_618">
<rect width="16" height="16" fill="white"/>
</clipPath>
</defs>
</svg>
