<svg width="16" height="16" viewBox="0 0 16 16" fill="none" xmlns="http://www.w3.org/2000/svg">
<g clip-path="url(#clip0_91_944)">
<path fill-rule="evenodd" clip-rule="evenodd" d="M3.49999 2C3.42495 2 3.3741 1.92209 3.4094 1.85587C3.99807 0.751611 5.16125 0 6.49998 0H12.5C14.433 0 16 1.567 16 3.5V9.5C16 10.8387 15.2484 12.0019 14.1441 12.5906C14.0779 12.6259 14 12.575 14 12.5V11.9997C14 11.6852 14.1578 11.3974 14.3671 11.1626C14.7608 10.7208 15 10.1383 15 9.5V3.5C15 2.11929 13.8807 1 12.5 1H6.49998C5.86166 1 5.27922 1.23923 4.83742 1.63291C4.60261 1.84214 4.31475 2 4.00025 2H3.49999Z" fill="white" fill-opacity="0.5"/>
<path d="M3.5 3.5H9.5C11.1569 3.5 12.5 4.84315 12.5 6.5V12.5C12.5 14.1569 11.1569 15.5 9.5 15.5H3.5C1.84315 15.5 0.5 14.1569 0.5 12.5V6.5C0.5 4.84315 1.84315 3.5 3.5 3.5Z" stroke="white" stroke-linecap="round" stroke-linejoin="round"/>
</g>
<defs>
<clipPath id="clip0_91_944">
<rect width="16" height="16" fill="white"/>
</clipPath>
</defs>
</svg>
