<svg width="16" height="16" viewBox="0 0 16 16" fill="none" xmlns="http://www.w3.org/2000/svg">
<path d="M12.5 6.5V2C12.5 1.17157 11.8284 0.5 11 0.5H10.5M12.5 6.5H3.5M12.5 6.5V6.5C13.3284 6.5 14 7.17157 14 8V9C14 9.82843 13.3284 10.5 12.5 10.5H11.1575C10.27 10.5 9.57662 11.2662 9.66493 12.1493L9.80099 13.5099C9.90754 14.5754 9.07082 15.5 8 15.5V15.5C6.92918 15.5 6.09246 14.5754 6.19901 13.5099L6.33507 12.1493C6.42338 11.2662 5.72995 10.5 4.84252 10.5H3.5C2.67157 10.5 2 9.82843 2 9V8C2 7.17157 2.67157 6.5 3.5 6.5V6.5M3.5 6.5V2C3.5 1.17157 4.17157 0.5 5 0.5H8.5M10.5 0.5V1.5C10.5 2.05228 10.0523 2.5 9.5 2.5V2.5M10.5 0.5H9.5M9.5 2.5V0.5M9.5 2.5V3.5C9.5 3.77614 9.27614 4 9 4V4C8.72386 4 8.5 3.77614 8.5 3.5V0.5M9.5 0.5H8.5" stroke="white" stroke-linecap="round" stroke-linejoin="round"/>
</svg>
