<svg width="16" height="16" viewBox="0 0 16 16" fill="none" xmlns="http://www.w3.org/2000/svg">
<path d="M7.5 4.25H8.5C9.05228 4.25 9.5 4.69772 9.5 5.25V5.25M7.5 4.25V7M7.5 4.25V1.5C7.5 0.947715 7.05228 0.5 6.5 0.5V0.5C5.94772 0.5 5.5 0.947716 5.5 1.5V9.11897C5.5 9.58662 4.91527 9.79833 4.61589 9.43907L3.3063 7.86757C3.11222 7.63466 2.82471 7.5 2.52154 7.5V7.5C1.95736 7.5 1.5 7.95736 1.5 8.52154V8.6691C1.5 8.88545 1.56004 9.09756 1.67343 9.28182L3.99698 13.0576C4.93102 14.5754 6.58563 15.5 8.36783 15.5V15.5C11.2022 15.5 13.5 13.2022 13.5 10.3678V7.71053C13.5 6.9039 12.8461 6.25 12.0395 6.25H11.5M9.5 7V5.25M9.5 5.25H10.5C11.0523 5.25 11.5 5.69772 11.5 6.25V6.25M11.5 7.5V6.25" stroke="white" stroke-linecap="round" stroke-linejoin="round"/>
</svg>
