<svg width="16" height="16" viewBox="0 0 16 16" fill="none" xmlns="http://www.w3.org/2000/svg">
<g clip-path="url(#clip0_91_950)">
<path fill-rule="evenodd" clip-rule="evenodd" d="M9.16651 0.443071C8.56614 -0.299627 7.43382 -0.299627 6.83345 0.443071L6.52765 0.821371C6.15463 1.28282 5.54465 1.48102 4.97164 1.32695L4.50188 1.20064C3.57963 0.952675 2.66355 1.61824 2.61439 2.57198L2.58935 3.05778C2.55881 3.65036 2.18182 4.16923 1.62769 4.3814L1.17341 4.55533C0.281535 4.89681 -0.068374 5.97372 0.45245 6.77421L0.717737 7.18194C1.04133 7.6793 1.04133 8.32067 0.717737 8.81803L0.45245 9.22576C-0.068374 10.0263 0.281535 11.1032 1.17341 11.4446L1.62769 11.6186C2.18182 11.8307 2.55881 12.3496 2.58935 12.9422L2.61439 13.428C2.66355 14.3817 3.57963 15.0473 4.50188 14.7993L4.97164 14.673C5.54465 14.519 6.15463 14.7171 6.52765 15.1786L6.83345 15.5569C7.43382 16.2996 8.56614 16.2996 9.16651 15.5569L9.47231 15.1786C9.84533 14.7171 10.4553 14.519 11.0283 14.673L11.4981 14.7993C12.4203 15.0473 13.3364 14.3817 13.3856 13.428L13.4106 12.9422C13.4412 12.3496 13.8181 11.8307 14.3723 11.6186L14.8266 11.4446C15.7184 11.1032 16.0683 10.0263 15.5475 9.22576L15.2822 8.81803C14.9586 8.32067 14.9586 7.6793 15.2822 7.18194L15.5475 6.77421C16.0683 5.97372 15.7184 4.89681 14.8266 4.55533L14.3723 4.3814C13.8181 4.16923 13.4412 3.65036 13.4106 3.05778L13.3856 2.57198C13.3364 1.61824 12.4203 0.952675 11.4981 1.20064L11.0283 1.32695C10.4553 1.48102 9.84533 1.28282 9.47231 0.821371L9.16651 0.443071ZM12.8535 5.85354C13.0488 5.65828 13.0488 5.34169 12.8535 5.14643C12.6583 4.95117 12.3417 4.95117 12.1464 5.14643L7.20709 10.0858C6.81656 10.4763 6.1834 10.4763 5.79287 10.0858L3.85353 8.14643C3.65827 7.95117 3.34169 7.95117 3.14643 8.14643C2.95117 8.34169 2.95117 8.65828 3.14643 8.85354L5.08577 10.7929C5.86682 11.5739 7.13315 11.5739 7.91419 10.7929L12.8535 5.85354Z" fill="white"/>
</g>
<defs>
<clipPath id="clip0_91_950">
<rect width="16" height="16" fill="white"/>
</clipPath>
</defs>
</svg>
