<svg width="16" height="16" viewBox="0 0 16 16" fill="none" xmlns="http://www.w3.org/2000/svg">
<path d="M11 3.5H5C2.51472 3.5 0.5 5.51472 0.5 8V8.2705C0.5 10.6064 2.39361 12.5 4.7295 12.5C5.53253 12.5 6.29203 12.135 6.79368 11.5079L7.12345 11.0957C7.57283 10.534 8.42717 10.534 8.87655 11.0957L9.20632 11.5079C9.70797 12.135 10.4675 12.5 11.2705 12.5C13.6064 12.5 15.5 10.6064 15.5 8.2705V8C15.5 5.51472 13.4853 3.5 11 3.5Z" stroke="white"/>
<path d="M11 9.5C11.8284 9.5 12.5 8.82843 12.5 8C12.5 7.17157 11.8284 6.5 11 6.5C10.1716 6.5 9.5 7.17157 9.5 8C9.5 8.82843 10.1716 9.5 11 9.5Z" stroke="white"/>
<path d="M5 6.5C4.17157 6.5 3.5 7.17157 3.5 8C3.5 8.82843 4.17157 9.5 5 9.5C5.82843 9.5 6.5 8.82843 6.5 8C6.5 7.17157 5.82843 6.5 5 6.5Z" stroke="white"/>
</svg>
