<svg width="16" height="16" viewBox="0 0 16 16" fill="none" xmlns="http://www.w3.org/2000/svg">
<g clip-path="url(#clip0_91_1195)">
<path fill-rule="evenodd" clip-rule="evenodd" d="M8 0C3.58172 0 0 3.58172 0 8C0 12.4183 3.58172 16 8 16C12.4183 16 16 12.4183 16 8C16 3.58172 12.4183 0 8 0ZM5.76495 1.3644C3.14593 2.24622 1.21977 4.63512 1.01758 7.5H4.00769C4.08647 4.94497 4.76489 2.71444 5.76495 1.3644ZM5.00818 7.5C5.06997 5.61927 5.47687 3.96862 6.066 2.79036C6.73671 1.44895 7.47826 1 8 1C8.52174 1 9.26329 1.44895 9.934 2.79036C10.5231 3.96862 10.93 5.61927 10.9918 7.5H5.00818ZM4.00769 8.5H1.01758C1.21977 11.3649 3.14593 13.7538 5.76495 14.6356C4.76489 13.2856 4.08647 11.055 4.00769 8.5ZM10.235 14.6356C12.8541 13.7538 14.7802 11.3649 14.9824 8.5H11.9923C11.9135 11.055 11.2351 13.2856 10.235 14.6356ZM10.9918 8.5C10.93 10.3807 10.5231 12.0314 9.934 13.2096C9.26329 14.5511 8.52174 15 8 15C7.47826 15 6.73671 14.5511 6.066 13.2096C5.47687 12.0314 5.06997 10.3807 5.00818 8.5H10.9918ZM11.9923 7.5H14.9824C14.7802 4.63512 12.8541 2.24622 10.235 1.3644C11.2351 2.71444 11.9135 4.94498 11.9923 7.5Z" fill="white"/>
</g>
<defs>
<clipPath id="clip0_91_1195">
<rect width="16" height="16" fill="white"/>
</clipPath>
</defs>
</svg>
