<svg width="16" height="16" viewBox="0 0 16 16" fill="none" xmlns="http://www.w3.org/2000/svg">
<path fill-rule="evenodd" clip-rule="evenodd" d="M11.9469 8.19002C11.7991 8.24545 11.6366 8.22571 11.5086 8.13323C10.5217 7.4202 9.30923 7 7.99864 7C6.16149 7 4.51719 7.82568 3.41659 9.12619C3.21917 9.35947 2.86184 9.39532 2.64295 9.18206C2.46702 9.01066 2.44234 8.73473 2.59875 8.54535C3.88267 6.99077 5.82495 6 7.99864 6C9.55816 6 10.9986 6.50999 12.1622 7.37229C12.4555 7.58968 12.2888 8.06184 11.9469 8.19002ZM9.37271 10.3325C9.65342 10.4774 10.0628 10.309 10.1669 10.0108C10.228 9.8358 10.1764 9.63912 10.0165 9.5455C9.4241 9.19875 8.73458 9 7.99864 9C6.64404 9 5.44671 9.67334 4.72309 10.7036C4.598 10.8817 4.63376 11.1217 4.78965 11.2735C5.02558 11.5034 5.4211 11.4293 5.62237 11.1685C6.17097 10.4578 7.03134 10 7.99864 10C8.49385 10 8.96103 10.12 9.37271 10.3325ZM14.7503 7.04877C14.9464 7.27105 15.2906 7.2956 15.5029 7.08876C15.6858 6.91051 15.705 6.6217 15.5371 6.42922C13.7039 4.32781 11.0063 3 7.99864 3C4.99096 3 2.29342 4.32781 0.460221 6.42922C0.292311 6.62169 0.31143 6.91051 0.494378 7.08875C0.706681 7.29559 1.05091 7.27105 1.24699 7.04877C2.89615 5.17924 5.30968 4 7.99864 4C10.6876 4 13.1011 5.17924 14.7503 7.04877ZM7.99864 14C8.55092 14 8.99864 13.5523 8.99864 13C8.99864 12.4477 8.55092 12 7.99864 12C7.44635 12 6.99864 12.4477 6.99864 13C6.99864 13.5523 7.44635 14 7.99864 14Z" fill="white" fill-opacity="0.5"/>
<path d="M11.5 12V12C10.9477 12 10.5 12.4477 10.5 13V14C10.5 14.8284 11.1716 15.5 12 15.5H14C14.8284 15.5 15.5 14.8284 15.5 14V13C15.5 12.4477 15.0523 12 14.5 12V12M11.5 12H14.5M11.5 12V11C11.5 10.1716 12.1716 9.5 13 9.5V9.5C13.8284 9.5 14.5 10.1716 14.5 11V12" stroke="white" stroke-opacity="0.5" stroke-linecap="round" stroke-linejoin="round"/>
</svg>
