<svg width="16" height="16" viewBox="0 0 16 16" fill="none" xmlns="http://www.w3.org/2000/svg">
<path d="M8.08579 3.5H4.5C3.94772 3.5 3.5 3.94772 3.5 4.5V8.08579C3.5 8.97669 4.57714 9.42286 5.20711 8.79289L8.79289 5.20711C9.42286 4.57714 8.97669 3.5 8.08579 3.5Z" fill="white"/>
<path d="M11.5 12.5H7.91421C7.02331 12.5 6.57714 11.4229 7.20711 10.7929L10.7929 7.20711C11.4229 6.57714 12.5 7.02331 12.5 7.91421V11.5C12.5 12.0523 12.0523 12.5 11.5 12.5Z" fill="white"/>
<path d="M8.08579 3.5H4.5C3.94772 3.5 3.5 3.94772 3.5 4.5V8.08579C3.5 8.97669 4.57714 9.42286 5.20711 8.79289L8.79289 5.20711C9.42286 4.57714 8.97669 3.5 8.08579 3.5Z" stroke="white" stroke-linecap="round" stroke-linejoin="round"/>
<path d="M11.5 12.5H7.91421C7.02331 12.5 6.57714 11.4229 7.20711 10.7929L10.7929 7.20711C11.4229 6.57714 12.5 7.02331 12.5 7.91421V11.5C12.5 12.0523 12.0523 12.5 11.5 12.5Z" stroke="white" stroke-linecap="round" stroke-linejoin="round"/>
</svg>
