<svg width="16" height="16" viewBox="0 0 16 16" fill="none" xmlns="http://www.w3.org/2000/svg">
<g clip-path="url(#clip0_135_2)">
<path fill-rule="evenodd" clip-rule="evenodd" d="M8.85451 0.459816C8.47211 -0.193453 7.52787 -0.193453 7.14548 0.459816C6.85093 0.963009 6.18752 1.10402 5.71377 0.764135C5.09872 0.322879 4.23611 0.706937 4.15248 1.45926C4.08807 2.03876 3.53937 2.43741 2.96833 2.3196C2.22698 2.16666 1.59516 2.86836 1.82476 3.58966C2.00161 4.14526 1.6625 4.73262 1.09291 4.85726C0.35345 5.01907 0.0616637 5.9171 0.564792 6.48265C0.952337 6.91828 0.881442 7.59279 0.411794 7.93833C-0.197925 8.38691 -0.0992245 9.32598 0.590437 9.638C1.12166 9.87834 1.33125 10.5234 1.04274 11.0301C0.668195 11.6879 1.14032 12.5056 1.89726 12.5101C2.48031 12.5136 2.93414 13.0176 2.87666 13.5979C2.80205 14.3511 3.56596 14.9061 4.2593 14.6024C4.79337 14.3685 5.41296 14.6443 5.59646 15.1977C5.83468 15.9162 6.75828 16.1126 7.26815 15.5531C7.66088 15.1221 8.33911 15.1221 8.73184 15.5531C9.2417 16.1126 10.1653 15.9162 10.4035 15.1977C10.587 14.6443 11.2066 14.3685 11.7407 14.6024C12.434 14.9061 13.1979 14.3511 13.1233 13.5979C13.0658 13.0176 13.5197 12.5136 14.1027 12.5101C14.8597 12.5056 15.3318 11.6879 14.9572 11.0301C14.6687 10.5234 14.8783 9.87834 15.4096 9.638C16.0992 9.32598 16.1979 8.38691 15.5882 7.93833C15.1185 7.59279 15.0477 6.91828 15.4352 6.48265C15.9383 5.9171 15.6465 5.01907 14.9071 4.85726C14.3375 4.73262 13.9984 4.14526 14.1752 3.58966C14.4048 2.86836 13.773 2.16666 13.0317 2.3196C12.4606 2.43741 11.9119 2.03876 11.8475 1.45926C11.7639 0.706936 10.9013 0.322879 10.2862 0.764135C9.81247 1.10402 9.14906 0.963009 8.85451 0.459816ZM12.8535 5.85355C13.0488 5.65829 13.0488 5.34171 12.8535 5.14645C12.6583 4.95118 12.3417 4.95118 12.1464 5.14645L7.2071 10.0858C6.81658 10.4763 6.18341 10.4763 5.79289 10.0858L3.85355 8.14645C3.65829 7.95118 3.3417 7.95118 3.14644 8.14645C2.95118 8.34171 2.95118 8.65829 3.14644 8.85355L5.08578 10.7929C5.86683 11.5739 7.13316 11.5739 7.91421 10.7929L12.8535 5.85355Z" fill="white"/>
</g>
<defs>
<clipPath id="clip0_135_2">
<rect width="16" height="16" fill="white"/>
</clipPath>
</defs>
</svg>
