<svg width="16" height="16" viewBox="0 0 16 16" fill="none" xmlns="http://www.w3.org/2000/svg">
<g clip-path="url(#clip0_91_1410)">
<g filter="url(#filter0_i_91_1410)">
<rect width="16" height="16" rx="8" fill="url(#paint0_radial_91_1410)"/>
</g>
<path d="M4 5C4 4.44772 4.44772 4 5 4C5.55228 4 6 4.44772 6 5V6C6 6.27614 5.77614 6.5 5.5 6.5H4.5C4.22386 6.5 4 6.27614 4 6V5Z" fill="url(#paint1_linear_91_1410)"/>
<path d="M10 5C10 4.44772 10.4477 4 11 4C11.5523 4 12 4.44772 12 5V6C12 6.27614 11.7761 6.5 11.5 6.5H10.5C10.2239 6.5 10 6.27614 10 6V5Z" fill="url(#paint2_linear_91_1410)"/>
<path d="M4 8.94444C4 8.69898 4.19898 8.5 4.44444 8.5H11.5556C11.801 8.5 12 8.69898 12 8.94444C12 10.9081 10.4081 12.5 8.44444 12.5H7.55556C5.59188 12.5 4 10.9081 4 8.94444Z" fill="#800010"/>
<mask id="mask0_91_1410" style="mask-type:alpha" maskUnits="userSpaceOnUse" x="4" y="8" width="8" height="5">
<path d="M4 8.94444C4 8.69898 4.19898 8.5 4.44444 8.5H11.5556C11.801 8.5 12 8.69898 12 8.94444C12 10.9081 10.4081 12.5 8.44444 12.5H7.55556C5.59188 12.5 4 10.9081 4 8.94444Z" fill="#800010"/>
</mask>
<g mask="url(#mask0_91_1410)">
<ellipse cx="8" cy="11.5" rx="4" ry="1" fill="url(#paint3_linear_91_1410)"/>
<g filter="url(#filter1_i_91_1410)">
<rect x="4" y="8.5" width="8" height="1.5" fill="url(#paint4_radial_91_1410)"/>
</g>
</g>
<g filter="url(#filter2_i_91_1410)">
<path fill-rule="evenodd" clip-rule="evenodd" d="M2.23635 6.29394C1.52291 6.41285 1 7.03012 1 7.7534C1 8.6677 1.83473 9.36088 2.73659 9.21057C3.45987 9.09002 4 8.46257 4 7.72931V6.88535C4 6.42189 3.58385 6.06936 3.1267 6.14555L2.23635 6.29394ZM12.8733 6.14555C12.4162 6.06936 12 6.42189 12 6.88535V7.72931C12 8.46257 12.5401 9.09002 13.2634 9.21057C14.1653 9.36088 15 8.6677 15 7.7534C15 7.03012 14.4771 6.41285 13.7637 6.29394L12.8733 6.14555Z" fill="url(#paint5_linear_91_1410)"/>
</g>
</g>
<defs>
<filter id="filter0_i_91_1410" x="0" y="-2" width="16" height="18" filterUnits="userSpaceOnUse" color-interpolation-filters="sRGB">
<feFlood flood-opacity="0" result="BackgroundImageFix"/>
<feBlend mode="normal" in="SourceGraphic" in2="BackgroundImageFix" result="shape"/>
<feColorMatrix in="SourceAlpha" type="matrix" values="0 0 0 0 0 0 0 0 0 0 0 0 0 0 0 0 0 0 127 0" result="hardAlpha"/>
<feOffset dy="-2"/>
<feGaussianBlur stdDeviation="2"/>
<feComposite in2="hardAlpha" operator="arithmetic" k2="-1" k3="1"/>
<feColorMatrix type="matrix" values="0 0 0 0 0.71 0 0 0 0 0 0 0 0 0 0.5964 0 0 0 0.5 0"/>
<feBlend mode="normal" in2="shape" result="effect1_innerShadow_91_1410"/>
</filter>
<filter id="filter1_i_91_1410" x="4" y="8.5" width="8" height="2" filterUnits="userSpaceOnUse" color-interpolation-filters="sRGB">
<feFlood flood-opacity="0" result="BackgroundImageFix"/>
<feBlend mode="normal" in="SourceGraphic" in2="BackgroundImageFix" result="shape"/>
<feColorMatrix in="SourceAlpha" type="matrix" values="0 0 0 0 0 0 0 0 0 0 0 0 0 0 0 0 0 0 127 0" result="hardAlpha"/>
<feOffset dy="0.5"/>
<feGaussianBlur stdDeviation="0.25"/>
<feComposite in2="hardAlpha" operator="arithmetic" k2="-1" k3="1"/>
<feColorMatrix type="matrix" values="0 0 0 0 0 0 0 0 0 0 0 0 0 0 0 0 0 0 0.1 0"/>
<feBlend mode="normal" in2="shape" result="effect1_innerShadow_91_1410"/>
</filter>
<filter id="filter2_i_91_1410" x="1" y="5.63516" width="14" height="3.59595" filterUnits="userSpaceOnUse" color-interpolation-filters="sRGB">
<feFlood flood-opacity="0" result="BackgroundImageFix"/>
<feBlend mode="normal" in="SourceGraphic" in2="BackgroundImageFix" result="shape"/>
<feColorMatrix in="SourceAlpha" type="matrix" values="0 0 0 0 0 0 0 0 0 0 0 0 0 0 0 0 0 0 127 0" result="hardAlpha"/>
<feOffset dy="-0.5"/>
<feGaussianBlur stdDeviation="0.5"/>
<feComposite in2="hardAlpha" operator="arithmetic" k2="-1" k3="1"/>
<feColorMatrix type="matrix" values="0 0 0 0 0.71 0 0 0 0 0 0 0 0 0 0.5964 0 0 0 0.5 0"/>
<feBlend mode="normal" in2="shape" result="effect1_innerShadow_91_1410"/>
</filter>
<radialGradient id="paint0_radial_91_1410" cx="0" cy="0" r="1" gradientUnits="userSpaceOnUse" gradientTransform="translate(8) rotate(90) scale(16)">
<stop offset="0.244977" stop-color="#FFC000"/>
<stop offset="1" stop-color="#FF6040"/>
</radialGradient>
<linearGradient id="paint1_linear_91_1410" x1="5" y1="4" x2="5" y2="7" gradientUnits="userSpaceOnUse">
<stop/>
<stop offset="1" stop-opacity="0.75"/>
</linearGradient>
<linearGradient id="paint2_linear_91_1410" x1="11" y1="4" x2="11" y2="7" gradientUnits="userSpaceOnUse">
<stop/>
<stop offset="1" stop-opacity="0.75"/>
</linearGradient>
<linearGradient id="paint3_linear_91_1410" x1="8" y1="10.5" x2="8" y2="12.5" gradientUnits="userSpaceOnUse">
<stop stop-color="#C00040"/>
<stop offset="1" stop-color="#C00040" stop-opacity="0"/>
</linearGradient>
<radialGradient id="paint4_radial_91_1410" cx="0" cy="0" r="1" gradientUnits="userSpaceOnUse" gradientTransform="translate(8 9.25) rotate(90) scale(4.5 3.9986)">
<stop stop-color="#F0F6FF"/>
<stop offset="1" stop-color="#B0DDFF"/>
</radialGradient>
<linearGradient id="paint5_linear_91_1410" x1="13.5" y1="6" x2="13.5" y2="9" gradientUnits="userSpaceOnUse">
<stop stop-color="#80C2FF"/>
<stop offset="1" stop-color="#0061E0"/>
</linearGradient>
<clipPath id="clip0_91_1410">
<rect width="16" height="16" fill="white"/>
</clipPath>
</defs>
</svg>
