<svg width="16" height="16" viewBox="0 0 16 16" fill="none" xmlns="http://www.w3.org/2000/svg">
<g clip-path="url(#clip0_91_1592)">
<g filter="url(#filter0_i_91_1592)">
<rect width="16" height="16" rx="8" fill="url(#paint0_radial_91_1592)"/>
</g>
<path d="M4.5 12V12C5.11287 10.7743 6.36566 10 7.73607 10H8.26393C9.63434 10 10.8871 10.7743 11.5 12V12" stroke="url(#paint1_linear_91_1592)" stroke-linecap="round" stroke-linejoin="round"/>
<rect x="4" y="4.5" width="2" height="3" rx="1" fill="url(#paint2_linear_91_1592)"/>
<rect x="10" y="4.5" width="2" height="3" rx="1" fill="url(#paint3_linear_91_1592)"/>
<g filter="url(#filter1_di_91_1592)">
<path d="M3.5 3.5V3.5C4.44643 3.18452 5.48551 3.32367 6.31559 3.87706L6.5 4M9.5 2V2C10.4464 1.68452 11.4855 1.82367 12.3156 2.37706L12.5 2.5" stroke="#803000" stroke-linecap="round" stroke-linejoin="round"/>
</g>
<path d="M15 15.5V4.5C15 4.22386 14.7761 4 14.5 4C14.2239 4 14 4.22386 14 4.5V4.75C14 4.88807 13.8881 5 13.75 5C13.6119 5 13.5 5.11193 13.5 5.25V6.75C13.5 6.88807 13.6119 7 13.75 7C13.8881 7 14 7.11193 14 7.25V15.5C14 15.7761 14.2239 16 14.5 16C14.7761 16 15 15.7761 15 15.5Z" fill="url(#paint4_linear_91_1592)"/>
<g filter="url(#filter2_bi_91_1592)">
<rect x="9" y="4" width="4" height="4" rx="2" fill="url(#paint5_linear_91_1592)"/>
</g>
<g filter="url(#filter3_i_91_1592)">
<path fill-rule="evenodd" clip-rule="evenodd" d="M11 3C9.34315 3 8 4.34315 8 6C8 7.65685 9.34315 9 11 9C12.6569 9 14 7.65685 14 6C14 4.34315 12.6569 3 11 3ZM11 4C9.89543 4 9 4.89543 9 6C9 7.10457 9.89543 8 11 8C12.1046 8 13 7.10457 13 6C13 4.89543 12.1046 4 11 4Z" fill="url(#paint6_linear_91_1592)"/>
</g>
</g>
<defs>
<filter id="filter0_i_91_1592" x="0" y="-2" width="16" height="18" filterUnits="userSpaceOnUse" color-interpolation-filters="sRGB">
<feFlood flood-opacity="0" result="BackgroundImageFix"/>
<feBlend mode="normal" in="SourceGraphic" in2="BackgroundImageFix" result="shape"/>
<feColorMatrix in="SourceAlpha" type="matrix" values="0 0 0 0 0 0 0 0 0 0 0 0 0 0 0 0 0 0 127 0" result="hardAlpha"/>
<feOffset dy="-2"/>
<feGaussianBlur stdDeviation="2"/>
<feComposite in2="hardAlpha" operator="arithmetic" k2="-1" k3="1"/>
<feColorMatrix type="matrix" values="0 0 0 0 0.71 0 0 0 0 0 0 0 0 0 0.5964 0 0 0 0.5 0"/>
<feBlend mode="normal" in2="shape" result="effect1_innerShadow_91_1592"/>
</filter>
<filter id="filter1_di_91_1592" x="1.99988" y="0.834076" width="12.0002" height="5.66599" filterUnits="userSpaceOnUse" color-interpolation-filters="sRGB">
<feFlood flood-opacity="0" result="BackgroundImageFix"/>
<feColorMatrix in="SourceAlpha" type="matrix" values="0 0 0 0 0 0 0 0 0 0 0 0 0 0 0 0 0 0 127 0" result="hardAlpha"/>
<feOffset dy="1"/>
<feGaussianBlur stdDeviation="0.5"/>
<feComposite in2="hardAlpha" operator="out"/>
<feColorMatrix type="matrix" values="0 0 0 0 0 0 0 0 0 0 0 0 0 0 0 0 0 0 0.1 0"/>
<feBlend mode="normal" in2="BackgroundImageFix" result="effect1_dropShadow_91_1592"/>
<feBlend mode="normal" in="SourceGraphic" in2="effect1_dropShadow_91_1592" result="shape"/>
<feColorMatrix in="SourceAlpha" type="matrix" values="0 0 0 0 0 0 0 0 0 0 0 0 0 0 0 0 0 0 127 0" result="hardAlpha"/>
<feOffset dy="-0.5"/>
<feGaussianBlur stdDeviation="0.5"/>
<feComposite in2="hardAlpha" operator="arithmetic" k2="-1" k3="1"/>
<feColorMatrix type="matrix" values="0 0 0 0 0.71 0 0 0 0 0 0 0 0 0 0.5964 0 0 0 0.5 0"/>
<feBlend mode="normal" in2="shape" result="effect2_innerShadow_91_1592"/>
</filter>
<filter id="filter2_bi_91_1592" x="8.5" y="3.5" width="5" height="5.5" filterUnits="userSpaceOnUse" color-interpolation-filters="sRGB">
<feFlood flood-opacity="0" result="BackgroundImageFix"/>
<feGaussianBlur in="BackgroundImageFix" stdDeviation="0.25"/>
<feComposite in2="SourceAlpha" operator="in" result="effect1_backgroundBlur_91_1592"/>
<feBlend mode="normal" in="SourceGraphic" in2="effect1_backgroundBlur_91_1592" result="shape"/>
<feColorMatrix in="SourceAlpha" type="matrix" values="0 0 0 0 0 0 0 0 0 0 0 0 0 0 0 0 0 0 127 0" result="hardAlpha"/>
<feOffset dy="1"/>
<feGaussianBlur stdDeviation="0.5"/>
<feComposite in2="hardAlpha" operator="arithmetic" k2="-1" k3="1"/>
<feColorMatrix type="matrix" values="0 0 0 0 0 0 0 0 0 0 0 0 0 0 0 0 0 0 0.1 0"/>
<feBlend mode="normal" in2="shape" result="effect2_innerShadow_91_1592"/>
</filter>
<filter id="filter3_i_91_1592" x="8" y="2.75" width="6" height="6.25" filterUnits="userSpaceOnUse" color-interpolation-filters="sRGB">
<feFlood flood-opacity="0" result="BackgroundImageFix"/>
<feBlend mode="normal" in="SourceGraphic" in2="BackgroundImageFix" result="shape"/>
<feColorMatrix in="SourceAlpha" type="matrix" values="0 0 0 0 0 0 0 0 0 0 0 0 0 0 0 0 0 0 127 0" result="hardAlpha"/>
<feOffset dy="-0.25"/>
<feGaussianBlur stdDeviation="0.36"/>
<feComposite in2="hardAlpha" operator="arithmetic" k2="-1" k3="1"/>
<feColorMatrix type="matrix" values="0 0 0 0 0.71 0 0 0 0 0 0 0 0 0 0.5964 0 0 0 0.5 0"/>
<feBlend mode="normal" in2="shape" result="effect1_innerShadow_91_1592"/>
</filter>
<radialGradient id="paint0_radial_91_1592" cx="0" cy="0" r="1" gradientUnits="userSpaceOnUse" gradientTransform="translate(8) rotate(90) scale(16)">
<stop offset="0.244977" stop-color="#FFC000"/>
<stop offset="1" stop-color="#FF6040"/>
</radialGradient>
<linearGradient id="paint1_linear_91_1592" x1="8" y1="10" x2="8" y2="13" gradientUnits="userSpaceOnUse">
<stop stop-opacity="0.75"/>
<stop offset="1"/>
</linearGradient>
<linearGradient id="paint2_linear_91_1592" x1="5" y1="4.5" x2="5" y2="7.5" gradientUnits="userSpaceOnUse">
<stop/>
<stop offset="1" stop-opacity="0.75"/>
</linearGradient>
<linearGradient id="paint3_linear_91_1592" x1="11" y1="4.5" x2="11" y2="7.5" gradientUnits="userSpaceOnUse">
<stop/>
<stop offset="1" stop-opacity="0.75"/>
</linearGradient>
<linearGradient id="paint4_linear_91_1592" x1="14.25" y1="4" x2="14.25" y2="16" gradientUnits="userSpaceOnUse">
<stop stop-color="#454545"/>
<stop offset="1" stop-color="#101214"/>
</linearGradient>
<linearGradient id="paint5_linear_91_1592" x1="11" y1="4" x2="11" y2="8" gradientUnits="userSpaceOnUse">
<stop stop-color="#0061E0" stop-opacity="0.5"/>
<stop offset="1" stop-color="#00DDFF" stop-opacity="0.75"/>
</linearGradient>
<linearGradient id="paint6_linear_91_1592" x1="11" y1="3" x2="11" y2="9" gradientUnits="userSpaceOnUse">
<stop stop-color="#A9BFC8"/>
<stop offset="1" stop-color="#6C5F4B"/>
</linearGradient>
<clipPath id="clip0_91_1592">
<rect width="16" height="16" fill="white"/>
</clipPath>
</defs>
</svg>
