<svg width="16" height="16" viewBox="0 0 16 16" fill="none" xmlns="http://www.w3.org/2000/svg">
<g filter="url(#filter0_i_91_1731)">
<path fill-rule="evenodd" clip-rule="evenodd" d="M8 0C4.13401 0 1 3.13401 1 7C1 8.89589 1.75371 10.6157 2.97783 11.8763C3.81276 12.736 4.5 13.8015 4.5 15C4.5 15.5523 4.94772 16 5.5 16H6C6.27614 16 6.5 15.7761 6.5 15.5V14.25C6.5 14.1119 6.61193 14 6.75 14C6.88807 14 7 14.1119 7 14.25V15.5C7 15.7761 7.22386 16 7.5 16H8.5C8.77614 16 9 15.7761 9 15.5V14.25C9 14.1119 9.11193 14 9.25 14C9.38807 14 9.5 14.1119 9.5 14.25V15.5C9.5 15.7761 9.72386 16 10 16H10.5C11.0523 16 11.5 15.5523 11.5 15C11.5 13.8015 12.1872 12.736 13.0222 11.8763C14.2463 10.6157 15 8.89589 15 7C15 3.13401 11.866 0 8 0Z" fill="url(#paint0_radial_91_1731)"/>
</g>
<path d="M7 10L7.29289 9.70711C7.68342 9.31658 8.31658 9.31658 8.70711 9.70711L9 10" stroke="url(#paint1_linear_91_1731)" stroke-linecap="round"/>
<rect x="4" y="5" width="2" height="3" rx="1" fill="url(#paint2_linear_91_1731)"/>
<rect x="10" y="5" width="2" height="3" rx="1" fill="url(#paint3_linear_91_1731)"/>
<defs>
<filter id="filter0_i_91_1731" x="1" y="-2" width="14" height="18" filterUnits="userSpaceOnUse" color-interpolation-filters="sRGB">
<feFlood flood-opacity="0" result="BackgroundImageFix"/>
<feBlend mode="normal" in="SourceGraphic" in2="BackgroundImageFix" result="shape"/>
<feColorMatrix in="SourceAlpha" type="matrix" values="0 0 0 0 0 0 0 0 0 0 0 0 0 0 0 0 0 0 127 0" result="hardAlpha"/>
<feOffset dy="-2"/>
<feGaussianBlur stdDeviation="2"/>
<feComposite in2="hardAlpha" operator="arithmetic" k2="-1" k3="1"/>
<feColorMatrix type="matrix" values="0 0 0 0 0.71 0 0 0 0 0 0 0 0 0 0.5964 0 0 0 0.5 0"/>
<feBlend mode="normal" in2="shape" result="effect1_innerShadow_91_1731"/>
</filter>
<radialGradient id="paint0_radial_91_1731" cx="0" cy="0" r="1" gradientUnits="userSpaceOnUse" gradientTransform="translate(8) rotate(90) scale(16 14)">
<stop offset="0.162207" stop-color="white"/>
<stop offset="1" stop-color="#B0DDFF"/>
</radialGradient>
<linearGradient id="paint1_linear_91_1731" x1="8" y1="9" x2="8" y2="10.5" gradientUnits="userSpaceOnUse">
<stop stop-opacity="0.75"/>
<stop offset="1"/>
</linearGradient>
<linearGradient id="paint2_linear_91_1731" x1="5" y1="5" x2="5" y2="8" gradientUnits="userSpaceOnUse">
<stop/>
<stop offset="1" stop-opacity="0.75"/>
</linearGradient>
<linearGradient id="paint3_linear_91_1731" x1="11" y1="5" x2="11" y2="8" gradientUnits="userSpaceOnUse">
<stop/>
<stop offset="1" stop-opacity="0.75"/>
</linearGradient>
</defs>
</svg>
