<svg width="16" height="16" viewBox="0 0 16 16" fill="none" xmlns="http://www.w3.org/2000/svg">
<g clip-path="url(#clip0_91_1584)">
<g filter="url(#filter0_i_91_1584)">
<rect width="16" height="16" rx="8" fill="url(#paint0_radial_91_1584)"/>
</g>
<path d="M4.5 10V10C5.11287 11.2257 6.36566 12 7.73607 12H8.26393C9.63434 12 10.8871 11.2257 11.5 10V10" stroke="url(#paint1_linear_91_1584)" stroke-linecap="round" stroke-linejoin="round"/>
<rect x="4" y="4.5" width="2" height="3" rx="1" fill="url(#paint2_linear_91_1584)"/>
<rect x="10" y="4.5" width="2" height="3" rx="1" fill="url(#paint3_linear_91_1584)"/>
<g filter="url(#filter1_b_91_1584)">
<path d="M14 4.5L13.0195 6.78784C12.7043 7.52321 11.9813 8 11.1812 8H11.0086C10.1156 8 9.33087 7.40805 9.08556 6.54944L8.5 4.5H7.5L6.91445 6.54944C6.66913 7.40804 5.88436 8 4.9914 8H4.81879C4.01874 8 3.29566 7.52321 2.9805 6.78784L2 4.5H7.5H8.5H14Z" fill="url(#paint4_linear_91_1584)"/>
</g>
<g filter="url(#filter2_di_91_1584)">
<path d="M0.5 4.5H2M15.5 4.5H14M14 4.5L13.0195 6.78784C12.7043 7.5232 11.9813 8 11.1812 8H11.0086C10.1156 8 9.33087 7.40804 9.08555 6.54944L8.5 4.5M14 4.5C12.5 4 10.5 4 8.5 4.5M8.5 4.5H7.5M7.5 4.5L6.91445 6.54944C6.66913 7.40804 5.88436 8 4.9914 8H4.81879C4.01874 8 3.29566 7.52321 2.9805 6.78784L2 4.5M7.5 4.5C5.5 4 3.5 4 2 4.5" stroke="url(#paint5_linear_91_1584)" stroke-linecap="round" shape-rendering="crispEdges"/>
</g>
</g>
<defs>
<filter id="filter0_i_91_1584" x="0" y="-2" width="16" height="18" filterUnits="userSpaceOnUse" color-interpolation-filters="sRGB">
<feFlood flood-opacity="0" result="BackgroundImageFix"/>
<feBlend mode="normal" in="SourceGraphic" in2="BackgroundImageFix" result="shape"/>
<feColorMatrix in="SourceAlpha" type="matrix" values="0 0 0 0 0 0 0 0 0 0 0 0 0 0 0 0 0 0 127 0" result="hardAlpha"/>
<feOffset dy="-2"/>
<feGaussianBlur stdDeviation="2"/>
<feComposite in2="hardAlpha" operator="arithmetic" k2="-1" k3="1"/>
<feColorMatrix type="matrix" values="0 0 0 0 0.71 0 0 0 0 0 0 0 0 0 0.5964 0 0 0 0.5 0"/>
<feBlend mode="normal" in2="shape" result="effect1_innerShadow_91_1584"/>
</filter>
<filter id="filter1_b_91_1584" x="1.5" y="4" width="13" height="4.5" filterUnits="userSpaceOnUse" color-interpolation-filters="sRGB">
<feFlood flood-opacity="0" result="BackgroundImageFix"/>
<feGaussianBlur in="BackgroundImageFix" stdDeviation="0.25"/>
<feComposite in2="SourceAlpha" operator="in" result="effect1_backgroundBlur_91_1584"/>
<feBlend mode="normal" in="SourceGraphic" in2="effect1_backgroundBlur_91_1584" result="shape"/>
</filter>
<filter id="filter2_di_91_1584" x="-1" y="3.375" width="18" height="7.125" filterUnits="userSpaceOnUse" color-interpolation-filters="sRGB">
<feFlood flood-opacity="0" result="BackgroundImageFix"/>
<feColorMatrix in="SourceAlpha" type="matrix" values="0 0 0 0 0 0 0 0 0 0 0 0 0 0 0 0 0 0 127 0" result="hardAlpha"/>
<feOffset dy="1"/>
<feGaussianBlur stdDeviation="0.5"/>
<feComposite in2="hardAlpha" operator="out"/>
<feColorMatrix type="matrix" values="0 0 0 0 0 0 0 0 0 0 0 0 0 0 0 0 0 0 0.1 0"/>
<feBlend mode="normal" in2="BackgroundImageFix" result="effect1_dropShadow_91_1584"/>
<feBlend mode="normal" in="SourceGraphic" in2="effect1_dropShadow_91_1584" result="shape"/>
<feColorMatrix in="SourceAlpha" type="matrix" values="0 0 0 0 0 0 0 0 0 0 0 0 0 0 0 0 0 0 127 0" result="hardAlpha"/>
<feOffset dy="-0.25"/>
<feGaussianBlur stdDeviation="0.36"/>
<feComposite in2="hardAlpha" operator="arithmetic" k2="-1" k3="1"/>
<feColorMatrix type="matrix" values="0 0 0 0 0.71 0 0 0 0 0 0 0 0 0 0.5964 0 0 0 0.5 0"/>
<feBlend mode="normal" in2="shape" result="effect2_innerShadow_91_1584"/>
</filter>
<radialGradient id="paint0_radial_91_1584" cx="0" cy="0" r="1" gradientUnits="userSpaceOnUse" gradientTransform="translate(8) rotate(90) scale(16)">
<stop offset="0.244977" stop-color="#FFC000"/>
<stop offset="1" stop-color="#FF6040"/>
</radialGradient>
<linearGradient id="paint1_linear_91_1584" x1="8" y1="9.5" x2="8" y2="12.5" gradientUnits="userSpaceOnUse">
<stop/>
<stop offset="1" stop-opacity="0.75"/>
</linearGradient>
<linearGradient id="paint2_linear_91_1584" x1="5" y1="4.5" x2="5" y2="7.5" gradientUnits="userSpaceOnUse">
<stop/>
<stop offset="1" stop-opacity="0.75"/>
</linearGradient>
<linearGradient id="paint3_linear_91_1584" x1="11" y1="4.5" x2="11" y2="7.5" gradientUnits="userSpaceOnUse">
<stop/>
<stop offset="1" stop-opacity="0.75"/>
</linearGradient>
<linearGradient id="paint4_linear_91_1584" x1="8" y1="4.5" x2="8" y2="8" gradientUnits="userSpaceOnUse">
<stop stop-opacity="0.75"/>
<stop offset="1" stop-color="#454545" stop-opacity="0.75"/>
</linearGradient>
<linearGradient id="paint5_linear_91_1584" x1="8" y1="4.125" x2="8" y2="8" gradientUnits="userSpaceOnUse">
<stop stop-color="#454545"/>
<stop offset="1"/>
</linearGradient>
<clipPath id="clip0_91_1584">
<rect width="16" height="16" fill="white"/>
</clipPath>
</defs>
</svg>
