<svg width="64" height="64" viewBox="0 0 64 64" fill="none" xmlns="http://www.w3.org/2000/svg">
<g clip-path="url(#clip0_872_2)">
<rect x="10" width="44" height="64" rx="3" fill="url(#paint0_linear_872_2)"/>
<path d="M0 11.5C0 7.35786 3.35786 4 7.5 4H40.5C44.6421 4 48 7.35786 48 11.5V11.5C48 15.6421 44.6421 19 40.5 19H2C0.895431 19 0 18.1046 0 17V11.5Z" fill="#A6A6A6"/>
<path d="M0 51.5C0 47.3579 3.35786 44 7.5 44H28.5C32.6421 44 36 47.3579 36 51.5V51.5C36 55.6421 32.6421 59 28.5 59H2C0.895431 59 0 58.1046 0 57V51.5Z" fill="#858585"/>
<path d="M16 31.5C16 27.3579 19.3579 24 23.5 24H56.5C60.6421 24 64 27.3579 64 31.5V37C64 38.1046 63.1046 39 62 39H23.5C19.3579 39 16 35.6421 16 31.5V31.5Z" fill="#6A6A6A"/>
<path d="M10 11.5C10 10.1193 11.1193 9 12.5 9H35.5C36.8807 9 38 10.1193 38 11.5V11.5C38 12.8807 36.8807 14 35.5 14H12.5C11.1193 14 10 12.8807 10 11.5V11.5Z" fill="#6A6A6A"/>
<path d="M8 51.5C8 50.1193 9.11929 49 10.5 49V49C11.8807 49 13 50.1193 13 51.5V51.5C13 52.8807 11.8807 54 10.5 54V54C9.11929 54 8 52.8807 8 51.5V51.5Z" fill="#6A6A6A"/>
<path d="M16 51.5C16 50.1193 17.1193 49 18.5 49V49C19.8807 49 21 50.1193 21 51.5V51.5C21 52.8807 19.8807 54 18.5 54V54C17.1193 54 16 52.8807 16 51.5V51.5Z" fill="#6A6A6A"/>
<path d="M24 51.5C24 50.1193 25.1193 49 26.5 49V49C27.8807 49 29 50.1193 29 51.5V51.5C29 52.8807 27.8807 54 26.5 54V54C25.1193 54 24 52.8807 24 51.5V51.5Z" fill="#6A6A6A"/>
<path d="M26 31.5C26 30.1193 27.1193 29 28.5 29H51.5C52.8807 29 54 30.1193 54 31.5V31.5C54 32.8807 52.8807 34 51.5 34H28.5C27.1193 34 26 32.8807 26 31.5V31.5Z" fill="#A6A6A6"/>
</g>
<defs>
<linearGradient id="paint0_linear_872_2" x1="32" y1="0" x2="32" y2="64" gradientUnits="userSpaceOnUse">
<stop stop-color="#858585"/>
<stop offset="1" stop-color="#A6A6A6"/>
</linearGradient>
<clipPath id="clip0_872_2">
<rect width="64" height="64" fill="white"/>
</clipPath>
</defs>
</svg>
