<svg width="72" height="72" viewBox="0 0 72 72" fill="none" xmlns="http://www.w3.org/2000/svg">
<g filter="url(#filter0_d_91_3167)">
<g clip-path="url(#clip0_91_3167)">
<rect x="4" y="4" width="64" height="64" rx="16" fill="url(#paint0_linear_91_3167)"/>
<path d="M4 20L8 22V30L4 28V20Z" fill="url(#paint1_linear_91_3167)"/>
<path d="M4 44L8 46V54L4 52V44Z" fill="url(#paint2_linear_91_3167)"/>
<path d="M4 28L8 30V38L4 36V28Z" fill="url(#paint3_linear_91_3167)"/>
<path d="M4 36L8 38V46L4 44V36Z" fill="url(#paint4_linear_91_3167)"/>
<path d="M64 22L68 20V28L64 30V22Z" fill="url(#paint5_linear_91_3167)"/>
<path d="M64 46L68 44V52L64 54V46Z" fill="url(#paint6_linear_91_3167)"/>
<path d="M64 30L68 28V36L64 38V30Z" fill="url(#paint7_linear_91_3167)"/>
<path d="M64 38L68 36V44L64 46V38Z" fill="url(#paint8_linear_91_3167)"/>
<g filter="url(#filter1_d_91_3167)">
<path d="M4 52L32.4 30.7C34.5333 29.1 37.4667 29.1 39.6 30.7L68 52V68H4V52Z" fill="url(#paint9_linear_91_3167)"/>
</g>
<g filter="url(#filter2_di_91_3167)">
<path d="M4 20L32.4 41.3C34.5333 42.9 37.4667 42.9 39.6 41.3L68 20V4H4V20Z" fill="url(#paint10_linear_91_3167)"/>
</g>
</g>
</g>
<defs>
<filter id="filter0_d_91_3167" x="0" y="0" width="72" height="72" filterUnits="userSpaceOnUse" color-interpolation-filters="sRGB">
<feFlood flood-opacity="0" result="BackgroundImageFix"/>
<feColorMatrix in="SourceAlpha" type="matrix" values="0 0 0 0 0 0 0 0 0 0 0 0 0 0 0 0 0 0 127 0" result="hardAlpha"/>
<feOffset/>
<feGaussianBlur stdDeviation="2"/>
<feComposite in2="hardAlpha" operator="out"/>
<feColorMatrix type="matrix" values="0 0 0 0 0 0 0 0 0 0 0 0 0 0 0 0 0 0 0.1 0"/>
<feBlend mode="normal" in2="BackgroundImageFix" result="effect1_dropShadow_91_3167"/>
<feBlend mode="normal" in="SourceGraphic" in2="effect1_dropShadow_91_3167" result="shape"/>
</filter>
<filter id="filter1_d_91_3167" x="-12" y="5.5" width="96" height="70.5" filterUnits="userSpaceOnUse" color-interpolation-filters="sRGB">
<feFlood flood-opacity="0" result="BackgroundImageFix"/>
<feColorMatrix in="SourceAlpha" type="matrix" values="0 0 0 0 0 0 0 0 0 0 0 0 0 0 0 0 0 0 127 0" result="hardAlpha"/>
<feOffset dy="-8"/>
<feGaussianBlur stdDeviation="8"/>
<feComposite in2="hardAlpha" operator="out"/>
<feColorMatrix type="matrix" values="0 0 0 0 0 0 0 0 0 0.380392 0 0 0 0 0.878431 0 0 0 0.1 0"/>
<feBlend mode="normal" in2="BackgroundImageFix" result="effect1_dropShadow_91_3167"/>
<feBlend mode="normal" in="SourceGraphic" in2="effect1_dropShadow_91_3167" result="shape"/>
</filter>
<filter id="filter2_di_91_3167" x="-12" y="0" width="96" height="74.5" filterUnits="userSpaceOnUse" color-interpolation-filters="sRGB">
<feFlood flood-opacity="0" result="BackgroundImageFix"/>
<feColorMatrix in="SourceAlpha" type="matrix" values="0 0 0 0 0 0 0 0 0 0 0 0 0 0 0 0 0 0 127 0" result="hardAlpha"/>
<feOffset dy="16"/>
<feGaussianBlur stdDeviation="8"/>
<feComposite in2="hardAlpha" operator="out"/>
<feColorMatrix type="matrix" values="0 0 0 0 0 0 0 0 0 0.380392 0 0 0 0 0.878431 0 0 0 0.1 0"/>
<feBlend mode="normal" in2="BackgroundImageFix" result="effect1_dropShadow_91_3167"/>
<feBlend mode="normal" in="SourceGraphic" in2="effect1_dropShadow_91_3167" result="shape"/>
<feColorMatrix in="SourceAlpha" type="matrix" values="0 0 0 0 0 0 0 0 0 0 0 0 0 0 0 0 0 0 127 0" result="hardAlpha"/>
<feOffset dy="-4"/>
<feGaussianBlur stdDeviation="4"/>
<feComposite in2="hardAlpha" operator="arithmetic" k2="-1" k3="1"/>
<feColorMatrix type="matrix" values="0 0 0 0 1 0 0 0 0 1 0 0 0 0 1 0 0 0 0.25 0"/>
<feBlend mode="normal" in2="shape" result="effect2_innerShadow_91_3167"/>
</filter>
<linearGradient id="paint0_linear_91_3167" x1="36" y1="4" x2="36" y2="68" gradientUnits="userSpaceOnUse">
<stop stop-color="#F0F6FF"/>
<stop offset="1" stop-color="white"/>
</linearGradient>
<linearGradient id="paint1_linear_91_3167" x1="6" y1="20" x2="6" y2="30" gradientUnits="userSpaceOnUse">
<stop stop-color="#80C2FF"/>
<stop offset="1" stop-color="#B0DDFF"/>
</linearGradient>
<linearGradient id="paint2_linear_91_3167" x1="6" y1="44" x2="6" y2="54" gradientUnits="userSpaceOnUse">
<stop stop-color="#80C2FF"/>
<stop offset="1" stop-color="#B0DDFF"/>
</linearGradient>
<linearGradient id="paint3_linear_91_3167" x1="6" y1="28" x2="6" y2="38" gradientUnits="userSpaceOnUse">
<stop stop-color="#C00040"/>
<stop offset="1" stop-color="#FF6040"/>
</linearGradient>
<linearGradient id="paint4_linear_91_3167" x1="6" y1="36" x2="6" y2="46" gradientUnits="userSpaceOnUse">
<stop stop-color="#0061E0"/>
<stop offset="1" stop-color="#00A0E8"/>
</linearGradient>
<linearGradient id="paint5_linear_91_3167" x1="66" y1="20" x2="66" y2="30" gradientUnits="userSpaceOnUse">
<stop stop-color="#80C2FF"/>
<stop offset="1" stop-color="#B0DDFF"/>
</linearGradient>
<linearGradient id="paint6_linear_91_3167" x1="66" y1="44" x2="66" y2="54" gradientUnits="userSpaceOnUse">
<stop stop-color="#80C2FF"/>
<stop offset="1" stop-color="#B0DDFF"/>
</linearGradient>
<linearGradient id="paint7_linear_91_3167" x1="66" y1="28" x2="66" y2="38" gradientUnits="userSpaceOnUse">
<stop stop-color="#C00040"/>
<stop offset="1" stop-color="#FF6040"/>
</linearGradient>
<linearGradient id="paint8_linear_91_3167" x1="66" y1="36" x2="66" y2="46" gradientUnits="userSpaceOnUse">
<stop stop-color="#0061E0"/>
<stop offset="1" stop-color="#00A0E8"/>
</linearGradient>
<linearGradient id="paint9_linear_91_3167" x1="36" y1="36" x2="36" y2="68" gradientUnits="userSpaceOnUse">
<stop stop-color="white"/>
<stop offset="1" stop-color="#F0F6FF"/>
</linearGradient>
<linearGradient id="paint10_linear_91_3167" x1="36" y1="4" x2="36" y2="44" gradientUnits="userSpaceOnUse">
<stop stop-color="#F0F6FF"/>
<stop offset="1" stop-color="white"/>
</linearGradient>
<clipPath id="clip0_91_3167">
<rect x="4" y="4" width="64" height="64" rx="16" fill="white"/>
</clipPath>
</defs>
</svg>
