<svg width="72" height="72" viewBox="0 0 72 72" fill="none" xmlns="http://www.w3.org/2000/svg">
<g filter="url(#filter0_d_91_2347)">
<rect x="4" y="4" width="64" height="64" rx="16" fill="url(#paint0_linear_91_2347)"/>
<path d="M19.2602 21.9277C17.794 19.2619 19.7227 16 22.7651 16H31.0436C32.8671 16 34.546 16.9927 35.4247 18.5904L54.3699 53.0362C55.103 54.3691 54.1387 56 52.6175 56H40.3651C38.9063 56 37.5632 55.2059 36.8602 53.9277L19.2602 21.9277Z" fill="url(#paint1_linear_91_2347)"/>
<path d="M16 19C16 17.3431 17.3431 16 19 16H31C31.5523 16 32 16.4477 32 17V53C32 54.6569 30.6569 56 29 56H19C17.3431 56 16 54.6569 16 53V19Z" fill="#D9D9D9"/>
<path d="M16 19C16 17.3431 17.3431 16 19 16H31C31.5523 16 32 16.4477 32 17V53C32 54.6569 30.6569 56 29 56H19C17.3431 56 16 54.6569 16 53V19Z" fill="url(#paint2_linear_91_2347)"/>
<path d="M40 18.9775C40 17.3331 41.3331 16 42.9775 16H53C54.6569 16 56 17.3431 56 19V45.1174C56 46.1509 54.6237 46.5054 54.1244 45.6005L40.494 20.8953C40.1699 20.308 40 19.6482 40 18.9775V18.9775Z" fill="#D9D9D9"/>
<path d="M40 18.9775C40 17.3331 41.3331 16 42.9775 16H53C54.6569 16 56 17.3431 56 19V45.1174C56 46.1509 54.6237 46.5054 54.1244 45.6005L40.494 20.8953C40.1699 20.308 40 19.6482 40 18.9775V18.9775Z" fill="url(#paint3_linear_91_2347)"/>
</g>
<defs>
<filter id="filter0_d_91_2347" x="0" y="0" width="72" height="72" filterUnits="userSpaceOnUse" color-interpolation-filters="sRGB">
<feFlood flood-opacity="0" result="BackgroundImageFix"/>
<feColorMatrix in="SourceAlpha" type="matrix" values="0 0 0 0 0 0 0 0 0 0 0 0 0 0 0 0 0 0 127 0" result="hardAlpha"/>
<feOffset/>
<feGaussianBlur stdDeviation="2"/>
<feComposite in2="hardAlpha" operator="out"/>
<feColorMatrix type="matrix" values="0 0 0 0 0 0 0 0 0 0 0 0 0 0 0 0 0 0 0.1 0"/>
<feBlend mode="normal" in2="BackgroundImageFix" result="effect1_dropShadow_91_2347"/>
<feBlend mode="normal" in="SourceGraphic" in2="effect1_dropShadow_91_2347" result="shape"/>
</filter>
<linearGradient id="paint0_linear_91_2347" x1="36" y1="4" x2="36" y2="68" gradientUnits="userSpaceOnUse">
<stop/>
<stop offset="1" stop-color="#5B0F00"/>
</linearGradient>
<linearGradient id="paint1_linear_91_2347" x1="34" y1="16" x2="60" y2="56" gradientUnits="userSpaceOnUse">
<stop offset="0.371894" stop-color="#FF6040"/>
<stop offset="1" stop-color="#FFC000"/>
</linearGradient>
<linearGradient id="paint2_linear_91_2347" x1="24" y1="16" x2="24" y2="56" gradientUnits="userSpaceOnUse">
<stop stop-color="#FFC000"/>
<stop offset="1" stop-color="#FF6040"/>
</linearGradient>
<linearGradient id="paint3_linear_91_2347" x1="48" y1="16" x2="48" y2="56" gradientUnits="userSpaceOnUse">
<stop stop-color="#FFC000"/>
<stop offset="1" stop-color="#FF6040"/>
</linearGradient>
</defs>
</svg>
