<svg width="16" height="16" viewBox="0 0 16 16" fill="none" xmlns="http://www.w3.org/2000/svg">
<path fill-rule="evenodd" clip-rule="evenodd" d="M11.5 5.5C11.5 5.22386 11.2761 5 11 5C10.7239 5 10.5 5.22386 10.5 5.5V10.5C10.5 10.7761 10.7239 11 11 11C11.2761 11 11.5 10.7761 11.5 10.5V5.5ZM8.83968 6.4895C9.15715 6.33717 9.5 6.58715 9.5 6.93927C9.5 7.15172 9.36951 7.34011 9.18039 7.43689C7.88601 8.09922 7 9.44614 7 11C7 13.2091 8.79086 15 11 15C13.2091 15 15 13.2091 15 11C15 9.44614 14.114 8.09922 12.8196 7.43689C12.6305 7.34011 12.5 7.15172 12.5 6.93927C12.5 6.58715 12.8428 6.33717 13.1603 6.4895C14.8401 7.29552 16 9.01231 16 11C16 13.7614 13.7614 16 11 16C8.23858 16 6 13.7614 6 11C6 9.01231 7.15985 7.29552 8.83968 6.4895Z" fill="white"/>
<mask id="mask0_91_817" style="mask-type:alpha" maskUnits="userSpaceOnUse" x="1" y="0" width="7" height="16">
<path fill-rule="evenodd" clip-rule="evenodd" d="M3 0.5C3 0.223858 2.77614 0 2.5 0C2.22386 0 2 0.223858 2 0.5V4.58535C1.4174 4.79127 1 5.34689 1 6V10C1 11.1046 1.89543 12 3 12V12.5C3 13.1531 3.4174 13.7087 4 13.9146V15.5C4 15.7761 4.22386 16 4.5 16C4.77614 16 5 15.7761 5 15.5V13.9146C5.2167 13.8381 5.41054 13.7131 5.56855 13.5527C5.20386 12.7781 5 11.9129 5 11H3.5H3C2.44772 11 2 10.5523 2 10V6C2 5.72386 2.22386 5.5 2.5 5.5H6.5C6.77614 5.5 7 5.72386 7 6V6.52801C7.30325 6.25658 7.63422 6.0156 7.98806 5.80984C7.91606 5.24069 7.52514 4.77096 7 4.58535V0.5C7 0.223858 6.77614 0 6.5 0C6.22386 0 6 0.223858 6 0.5V4.5H3V0.5ZM4 12.5V12H5V12.5C5 12.7761 4.77614 13 4.5 13C4.22386 13 4 12.7761 4 12.5Z" fill="white"/>
</mask>
<g mask="url(#mask0_91_817)">
<path fill-rule="evenodd" clip-rule="evenodd" d="M3 0.5C3 0.223858 2.77614 0 2.5 0C2.22386 0 2 0.223858 2 0.5V3.87818C2 4.30199 1.70428 4.65975 1.41237 4.96701C1.15682 5.236 1 5.59968 1 6V10C1 10.9337 1.63988 11.718 2.50506 11.9383C2.77267 12.0064 3 12.2239 3 12.5C3 12.9003 3.15682 13.264 3.41237 13.533C3.70428 13.8402 4 14.198 4 14.6218V15.5C4 15.7761 4.22386 16 4.5 16C4.77614 16 5 15.7761 5 15.5V14.2569C5 14.0518 5.13557 13.8745 5.30826 13.7638C5.479 13.6544 5.50936 13.4315 5.43349 13.2434C5.27345 12.8467 5.15459 12.429 5.0822 11.9955C4.99124 11.4507 4.55228 11 4 11H3.5H3C2.44772 11 2 10.5523 2 10V6C2 5.72386 2.22386 5.5 2.5 5.5H6.5C6.77614 5.5 7 5.72386 7 6C7 6.20404 7.24498 6.31578 7.40834 6.19353C7.51926 6.1105 7.63315 6.03124 7.7498 5.95592C7.89215 5.86402 7.97952 5.6986 7.92731 5.53741C7.85748 5.32177 7.74013 5.12753 7.58763 4.96701C7.29571 4.65975 7 4.30199 7 3.87818V0.5C7 0.223858 6.77614 0 6.5 0C6.22386 0 6 0.223858 6 0.5V3.5C6 4.05228 5.55228 4.5 5 4.5H4C3.44772 4.5 3 4.05228 3 3.5V0.5ZM4 12.5C4 12.2239 4.22386 12 4.5 12C4.77614 12 5 12.2239 5 12.5C5 12.7761 4.77614 13 4.5 13C4.22386 13 4 12.7761 4 12.5Z" fill="white" fill-opacity="0.5"/>
</g>
</svg>
