<svg width="16" height="16" viewBox="0 0 16 16" fill="none" xmlns="http://www.w3.org/2000/svg">
<g clip-path="url(#clip0_91_626)">
<path d="M0.5 15.5L15.5 0.5" stroke="white" stroke-linecap="round" stroke-linejoin="round"/>
<path fill-rule="evenodd" clip-rule="evenodd" d="M9.77714 4.10154C9.9487 3.92998 9.97234 3.66001 9.8332 3.46125L8.20819 1.13981C7.9275 0.738816 7.46881 0.5 6.97934 0.5H5.80925C4.82019 0.5 4.10187 1.44047 4.3621 2.39468L5.17313 5.36844C5.25988 5.68651 5.02044 6 4.69075 6H3.91421C3.78161 6 3.65443 5.94732 3.56066 5.85355L2.64645 4.93934C2.36514 4.65804 1.98361 4.5 1.58579 4.5H1.5C0.671573 4.5 0 5.17157 0 6V6.08579C0 6.48361 0.158035 6.86514 0.43934 7.14645L0.93934 7.64645C1.1346 7.84171 1.1346 8.15829 0.939339 8.35355L0.43934 8.85355C0.158035 9.13486 0 9.51639 0 9.91421V10C0 10.8284 0.671573 11.5 1.5 11.5H1.58579C1.98361 11.5 2.36514 11.342 2.64645 11.0607L3.56066 10.1464C3.59452 10.1126 3.63273 10.0841 3.67398 10.0615C3.79487 9.99527 3.93093 9.94775 4.02839 9.85029L4.7425 9.13617C4.79344 9.08523 4.76279 9 4.69075 9H3.91421C3.51639 9 3.13486 9.15804 2.85355 9.43934L1.93934 10.3536C1.84557 10.4473 1.71839 10.5 1.58579 10.5H1.5C1.22386 10.5 1 10.2761 1 10V9.91421C1 9.78161 1.05268 9.65443 1.14645 9.56066L1.64645 9.06066C2.23223 8.47487 2.23223 7.52513 1.64645 6.93934L1.14645 6.43934C1.05268 6.34557 1 6.21839 1 6.08579V6C1 5.72386 1.22386 5.5 1.5 5.5H1.58579C1.71839 5.5 1.84557 5.55268 1.93934 5.64645L2.85355 6.56066C3.13486 6.84196 3.51639 7 3.91421 7H4.69075C5.67981 7 6.39813 6.05953 6.1379 5.10532L5.32687 2.13156C5.24012 1.81349 5.47956 1.5 5.80925 1.5H6.97934C7.1425 1.5 7.2954 1.57961 7.38896 1.71327L9.01397 4.03471C9.19226 4.28941 9.5573 4.32138 9.77714 4.10154ZM4.64726 13.4741C4.94202 13.1793 5.43655 13.4663 5.32687 13.8684C5.24012 14.1865 5.47956 14.5 5.80925 14.5H6.97934C7.1425 14.5 7.2954 14.4204 7.38896 14.2867L10.3675 10.0317C10.5825 9.72446 10.9049 9.50894 11.2709 9.42759L14.6085 8.68592C14.8372 8.63508 15 8.43218 15 8.19783V7.80217C15 7.56782 14.8372 7.36492 14.6085 7.31408L12.3875 6.82053C12.0024 6.73495 11.8634 6.25787 12.1424 5.97889C12.2633 5.85801 12.4376 5.80726 12.6044 5.84435L14.8254 6.33789C15.5117 6.4904 16 7.09912 16 7.80217V8.19783C16 8.90088 15.5117 9.5096 14.8254 9.66211L11.4879 10.4038C11.3659 10.4309 11.2584 10.5027 11.1867 10.6051L8.20819 14.8602C7.9275 15.2612 7.46882 15.5 6.97934 15.5H5.80925C4.94402 15.5 4.28598 14.7803 4.30899 13.9613C4.31196 13.8555 4.36293 13.7584 4.43772 13.6836L4.64726 13.4741Z" fill="white" fill-opacity="0.5"/>
</g>
<defs>
<clipPath id="clip0_91_626">
<rect width="16" height="16" fill="white"/>
</clipPath>
</defs>
</svg>
