<svg width="16" height="16" viewBox="0 0 16 16" fill="none" xmlns="http://www.w3.org/2000/svg">
<g clip-path="url(#clip0_91_1147)">
<path d="M3.5 3.5H9.5C11.1569 3.5 12.5 4.84315 12.5 6.5V12.5C12.5 14.1569 11.1569 15.5 9.5 15.5H3.5C1.84315 15.5 0.5 14.1569 0.5 12.5V6.5C0.5 4.84315 1.84315 3.5 3.5 3.5Z" stroke="white" stroke-linecap="round" stroke-linejoin="round"/>
<path fill-rule="evenodd" clip-rule="evenodd" d="M3.49995 2.00001C3.47007 2.00001 3.45082 1.9681 3.46546 1.94206C4.17337 0.68279 5.62164 -0.0542198 7.12499 0.210863L13.0338 1.25275C14.9375 1.58841 16.2086 3.40372 15.8729 5.30735L14.831 11.2162C14.7404 11.7298 14.5422 12.1973 14.2635 12.5997C14.1801 12.7202 13.9999 12.6466 13.9999 12.5V10.2581C13.9999 10.1999 14.005 10.1418 14.0151 10.0844L14.8881 5.1337C15.1278 3.77396 14.2199 2.47732 12.8602 2.23756L6.95135 1.19567C6.22251 1.06716 5.5118 1.26838 4.97227 1.69218C4.74739 1.86882 4.4817 2.00001 4.19575 2.00001H3.49995Z" fill="white" fill-opacity="0.5"/>
</g>
<defs>
<clipPath id="clip0_91_1147">
<rect width="16" height="16" fill="white"/>
</clipPath>
</defs>
</svg>
