<svg width="16" height="16" viewBox="0 0 16 16" fill="none" xmlns="http://www.w3.org/2000/svg">
<g clip-path="url(#clip0_91_701)">
<path d="M5 2H2.5C1.67157 2 1 2.67157 1 3.5V6C1 6.82843 1.67157 7.5 2.5 7.5H5C5.82843 7.5 6.5 6.82843 6.5 6V3.5C6.5 2.67157 5.82843 2 5 2Z" stroke="white" stroke-linecap="round" stroke-linejoin="round"/>
<path d="M5 9.5H2.5C1.67157 9.5 1 10.1716 1 11V13.5C1 14.3284 1.67157 15 2.5 15H5C5.82843 15 6.5 14.3284 6.5 13.5V11C6.5 10.1716 5.82843 9.5 5 9.5Z" stroke="white" stroke-linecap="round" stroke-linejoin="round"/>
<path d="M12.5 9.5H10C9.17157 9.5 8.5 10.1716 8.5 11V13.5C8.5 14.3284 9.17157 15 10 15H12.5C13.3284 15 14 14.3284 14 13.5V11C14 10.1716 13.3284 9.5 12.5 9.5Z" stroke="white" stroke-linecap="round" stroke-linejoin="round"/>
<path d="M14.9393 2.93934L13.0607 1.06066C12.4749 0.474874 11.5251 0.474872 10.9393 1.06066L9.06066 2.93934C8.47487 3.52513 8.47487 4.47487 9.06066 5.06066L10.9393 6.93934C11.5251 7.52513 12.4749 7.52513 13.0607 6.93934L14.9393 5.06066C15.5251 4.47487 15.5251 3.52513 14.9393 2.93934Z" fill="white" stroke="white" stroke-linecap="round" stroke-linejoin="round"/>
</g>
<defs>
<clipPath id="clip0_91_701">
<rect width="16" height="16" fill="white"/>
</clipPath>
</defs>
</svg>
