<svg width="16" height="16" viewBox="0 0 16 16" fill="none" xmlns="http://www.w3.org/2000/svg">
<path d="M7.5 1.5H7C6.17157 1.5 5.5 2.17157 5.5 3V9.11898C5.5 9.58662 4.91527 9.79833 4.61589 9.43907L3.3063 7.86757C3.11222 7.63466 2.82471 7.5 2.52154 7.5V7.5C1.95736 7.5 1.5 7.95736 1.5 8.52154V8.6691C1.5 8.88545 1.56004 9.09756 1.67343 9.28182L3.99698 13.0576C4.93102 14.5754 6.58563 15.5 8.36783 15.5V15.5C11.2022 15.5 13.5 13.2023 13.5 10.3678V4C13.5 3.17157 12.8284 2.5 12 2.5H11.5M7.5 1.5V7M7.5 1.5V1.5C7.5 0.947715 7.94772 0.5 8.5 0.5V0.5C9.05228 0.5 9.5 0.947715 9.5 1.5V1.5M9.5 7V1.5M9.5 1.5H10.5C11.0523 1.5 11.5 1.94772 11.5 2.5V2.5M11.5 7.5V2.5" stroke="white" stroke-linecap="round" stroke-linejoin="round"/>
</svg>
