<svg width="16" height="16" viewBox="0 0 16 16" fill="none" xmlns="http://www.w3.org/2000/svg">
<path d="M6.5 2.5H6.12132C5.7235 2.5 5.34196 2.34196 5.06066 2.06066L4.5 1.5M9.5 2.5H9.87868C10.2765 2.5 10.658 2.34196 10.9393 2.06066L11.5 1.5M8 12.5V12.5C8.27614 12.5 8.5 12.2761 8.5 12V12C8.5 11.7239 8.27614 11.5 8 11.5V11.5C7.72386 11.5 7.5 11.7239 7.5 12V12C7.5 12.2761 7.72386 12.5 8 12.5ZM5.5 0.5H10.5C11.6046 0.5 12.5 1.39543 12.5 2.5V2.5C12.5 3.60457 11.6046 4.5 10.5 4.5H5.5C4.39543 4.5 3.5 3.60457 3.5 2.5V2.5C3.5 1.39543 4.39543 0.5 5.5 0.5ZM12.5 6.5V12.5C12.5 14.1569 11.1569 15.5 9.5 15.5H6.5C4.84315 15.5 3.5 14.1569 3.5 12.5V6.5C3.5 5.94772 3.94772 5.5 4.5 5.5H11.5C12.0523 5.5 12.5 5.94772 12.5 6.5Z" stroke="white" stroke-linecap="round" stroke-linejoin="round"/>
</svg>
