<svg width="16" height="16" viewBox="0 0 16 16" fill="none" xmlns="http://www.w3.org/2000/svg">
<path d="M4.5 4.5V2.5M11.5 4.5V2.5M10.5 0.5H10.882C11.6172 0.5 12.3424 0.671186 13 1V1M5.5 0.5H5.11803C4.38278 0.5 3.65763 0.671186 3 1V1M7 8H7.13008C8.0897 8 8.80253 7.11137 8.59436 6.1746L8 3.5M7.84783 15.5H8.15217C10.5534 15.5 12.5 13.5534 12.5 11.1522V11.1522C12.5 10.792 12.208 10.5 11.8478 10.5H4.15217C3.79199 10.5 3.5 10.792 3.5 11.1522V11.1522C3.5 13.5534 5.44659 15.5 7.84783 15.5Z" stroke="white" stroke-linecap="round" stroke-linejoin="round"/>
</svg>
