<svg width="16" height="16" viewBox="0 0 16 16" fill="none" xmlns="http://www.w3.org/2000/svg">
<path d="M12.5 14.5V14.5C11.9028 12.7084 10.2262 11.5 8.33772 11.5H7.66228C5.7738 11.5 4.09719 12.7084 3.5 14.5V14.5M4.5 5.5V3.5M4.5 5.5H5.5M4.5 5.5H3.5M11.5 5.5V3.5M11.5 5.5H12.5M11.5 5.5H10.5M10.5 1.5L11.2302 1.74342C11.7401 1.91336 12.274 2 12.8114 2H13M5.5 1.5L4.76975 1.74342C4.25992 1.91336 3.72602 2 3.18861 2H3M7 9H7.13008C8.0897 9 8.80253 8.11137 8.59436 7.1746L8 4.5" stroke="white" stroke-linecap="round" stroke-linejoin="round"/>
</svg>
