<svg width="16" height="16" viewBox="0 0 16 16" fill="none" xmlns="http://www.w3.org/2000/svg">
<path d="M6.5 5.5C4 5.5 2.5 6.5 0.5 8.5H2.5M6.5 5.5V7.5M6.5 5.5V5.5C6.5 3.29086 8.29086 1.5 10.5 1.5H11C13.4853 1.5 15.5 3.51472 15.5 6V11.5M6.5 7.5C5.5 8.5 4.5 8.5 2.5 8.5M6.5 7.5V10.5M6.5 7.5L7.44868 7.81623C8.67371 8.22457 9.5 9.37099 9.5 10.6623V14.5M2.5 8.5C3.5 10 5 10.5 6.5 10.5M6.5 10.5V13.5M9 6L9.29289 5.70711C9.74565 5.25435 10.3597 5 11 5V5M12.5 10.5V13.5M9.5 3.5H11.5M11.5 3.5L14.5 5.5M11.5 3.5L14.5 4" stroke="white" stroke-linecap="round" stroke-linejoin="round"/>
</svg>
