<svg width="16" height="16" viewBox="0 0 16 16" fill="none" xmlns="http://www.w3.org/2000/svg">
<g clip-path="url(#clip0_91_1135)">
<path d="M0.5 15.5L15.5 0.5" stroke="white" stroke-linecap="round" stroke-linejoin="round"/>
<mask id="mask0_91_1135" style="mask-type:alpha" maskUnits="userSpaceOnUse" x="2" y="0" width="12" height="16">
<path d="M4.5 7.5V7.5C3.39543 7.5 2.5 8.39543 2.5 9.5V13.5C2.5 14.6046 3.39543 15.5 4.5 15.5H11.5C12.6046 15.5 13.5 14.6046 13.5 13.5V9.5C13.5 8.39543 12.6046 7.5 11.5 7.5V7.5M4.5 7.5V4C4.5 2.067 6.067 0.5 8 0.5V0.5C9.933 0.5 11.5 2.067 11.5 4V7.5M4.5 7.5H11.5" stroke="white" stroke-linecap="round" stroke-linejoin="round"/>
</mask>
<g mask="url(#mask0_91_1135)">
<path fill-rule="evenodd" clip-rule="evenodd" d="M11.3737 2.50494C11.514 2.36465 11.5527 2.14957 11.4523 1.97845C10.7577 0.794743 9.47165 0 8 0C5.79086 0 4 1.79086 4 4V6.2326C4 6.70821 3.65031 7.10031 3.23976 7.34041C2.49816 7.77411 2 8.57888 2 9.5V10.6716C2 11.117 2.53857 11.3401 2.85355 11.0251C2.94732 10.9314 3 10.8042 3 10.6716V9.5C3 8.67157 3.67157 8 4.5 8H5.67157C5.80418 8 5.93136 7.94732 6.02513 7.85355C6.34011 7.53857 6.11703 7 5.67157 7H5.55025C5.24636 7 5 6.75364 5 6.44975V4C5 2.34315 6.34315 1 8 1C9.05252 1 9.97845 1.54202 10.5139 2.36217C10.7032 2.65223 11.1288 2.74989 11.3737 2.50494ZM12 6.81511C12 6.55908 11.6905 6.43086 11.5094 6.6119L11.0607 7.06066C10.714 7.4073 10.9595 8 11.4497 8H11.5C12.3284 8 13 8.67157 13 9.5V13.5C13 14.3284 12.3284 15 11.5 15H4.5C4.28756 15 4.08544 14.9558 3.90231 14.8762C3.65643 14.7693 3.35351 14.7678 3.16392 14.9574C2.96165 15.1597 2.96569 15.4946 3.21064 15.6423C3.58711 15.8694 4.0283 16 4.5 16H11.5C12.8807 16 14 14.8807 14 13.5V9.5C14 8.37241 13.2535 7.41917 12.2277 7.10756C12.0969 7.06784 12 6.95178 12 6.81511Z" fill="white" fill-opacity="0.5"/>
</g>
</g>
<defs>
<clipPath id="clip0_91_1135">
<rect width="16" height="16" fill="white"/>
</clipPath>
</defs>
</svg>
