<svg width="16" height="16" viewBox="0 0 16 16" fill="none" xmlns="http://www.w3.org/2000/svg">
<path d="M7.50001 8C7.50001 8.27614 7.72386 8.5 8.00001 8.5C8.27615 8.5 8.50001 8.27614 8.50001 8C8.50001 7.72386 8.27615 7.5 8.00001 7.5C7.72386 7.5 7.50001 7.72386 7.50001 8Z" stroke="white" stroke-linecap="round" stroke-linejoin="round"/>
<path d="M13.5 8C13.5 8.27614 13.7239 8.5 14 8.5C14.2761 8.5 14.5 8.27614 14.5 8C14.5 7.72386 14.2761 7.5 14 7.5C13.7239 7.5 13.5 7.72386 13.5 8Z" stroke="white" stroke-linecap="round" stroke-linejoin="round"/>
<path d="M1.5 8C1.5 8.27614 1.72386 8.5 2 8.5C2.27614 8.5 2.5 8.27614 2.5 8C2.5 7.72386 2.27614 7.5 2 7.5C1.72386 7.5 1.5 7.72386 1.5 8Z" stroke="white" stroke-linecap="round" stroke-linejoin="round"/>
</svg>
