<svg width="16" height="16" viewBox="0 0 16 16" fill="none" xmlns="http://www.w3.org/2000/svg">
<path d="M14.5 4L8 7.5M14.5 4V11.1041C14.5 11.6559 14.197 12.1631 13.7111 12.4248L8 15.5M14.5 4V1.83711C14.5 1.45877 14.0961 1.2175 13.7629 1.39687L11.7143 2.5M8 7.5L1.5 4M8 7.5V15.5M8 7.5V5.39594C8 4.84412 8.30299 4.33685 8.78885 4.07523L11.7143 2.5M1.5 4L7.66703 0.679293C7.88559 0.561606 8.12994 0.5 8.37818 0.5H10.6505C11.1609 0.5 11.3433 1.17473 10.9025 1.43189L10.34 1.76M1.5 4V11.1041C1.5 11.6559 1.80299 12.1631 2.28885 12.4248L8 15.5M1.5 4H6.09448C6.36006 4 6.62088 3.92949 6.85028 3.79567L10.34 1.76M10.34 1.76L11.7143 2.5" stroke="white"/>
</svg>
