<svg width="16" height="16" viewBox="0 0 16 16" fill="none" xmlns="http://www.w3.org/2000/svg">
<g clip-path="url(#clip0_91_837)">
<path fill-rule="evenodd" clip-rule="evenodd" d="M6.49998 16C5.16125 16 3.99807 15.2484 3.4094 14.1441C3.3741 14.0779 3.42495 14 3.49998 14H4.00026C4.31476 14 4.60262 14.1579 4.83743 14.3671C5.27923 14.7608 5.86167 15 6.49998 15H12.5C13.8807 15 15 13.8807 15 12.5V6.5C15 5.86168 14.7608 5.27924 14.3671 4.83744C14.1578 4.60263 14 4.31477 14 4.00026V3.5C14 3.42497 14.0779 3.37412 14.1441 3.40941C15.2484 3.99808 16 5.16127 16 6.5V12.5C16 14.433 14.433 16 12.5 16H6.49998Z" fill="white" fill-opacity="0.5"/>
<path d="M3.5 0.5H9.5C11.1569 0.5 12.5 1.84315 12.5 3.5V9.5C12.5 11.1569 11.1569 12.5 9.5 12.5H3.5C1.84315 12.5 0.5 11.1569 0.5 9.5V3.5C0.5 1.84315 1.84315 0.5 3.5 0.5Z" fill="white" stroke="white" stroke-linecap="round" stroke-linejoin="round"/>
</g>
<defs>
<clipPath id="clip0_91_837">
<rect width="16" height="16" fill="white"/>
</clipPath>
</defs>
</svg>
