<svg width="16" height="16" viewBox="0 0 16 16" fill="none" xmlns="http://www.w3.org/2000/svg">
<path d="M5.2 13.4L7.44503 15.0838C7.71805 15.2885 8.11145 15.1657 8.21937 14.8419L8.74195 13.2742C8.90285 12.7915 8.80808 12.2601 8.49022 11.8628L7.45679 10.571C7.18475 10.2309 7.16405 9.75393 7.40561 9.39159L8.6302 7.5547C8.85413 7.2188 8.85413 6.7812 8.6302 6.4453L7.25652 4.38477C7.09378 4.14068 7.04645 3.83743 7.12704 3.55535L7.66265 1.68073C7.78582 1.24962 7.3231 0.886797 6.93382 1.10925L5.77231 1.77297C4.93855 2.2494 3.9949 2.5 3.03462 2.5C2.46322 2.5 2 2.96322 2 3.53462V7C2 9.51806 3.18555 11.8892 5.2 13.4Z" stroke="white" stroke-linejoin="round"/>
</svg>
