<svg width="16" height="16" viewBox="0 0 16 16" fill="none" xmlns="http://www.w3.org/2000/svg">
<path d="M3.5 9.5V9C3.5 8.17157 4.17157 7.5 5 7.5H7M3.5 9.5H7M3.5 9.5V11.5M7 9.5V7.5M7 9.5V10C7 10.8284 6.32843 11.5 5.5 11.5H3.5M7 7.5H9C9.82843 7.5 10.5 8.17157 10.5 9V12C10.5 12.8284 9.82843 13.5 9 13.5H5C4.17157 13.5 3.5 12.8284 3.5 12V11.5M3 15.5H11C11.8284 15.5 12.5 14.8284 12.5 14V4.62132C12.5 4.2235 12.342 3.84197 12.0607 3.56066L9.43934 0.93934C9.15804 0.658035 8.7765 0.5 8.37868 0.5H3C2.17157 0.5 1.5 1.17157 1.5 2V14C1.5 14.8284 2.17157 15.5 3 15.5Z" stroke="white" stroke-linecap="round" stroke-linejoin="round"/>
<path d="M14.5 10.5V13.5M14.5 15.5V15" stroke="white" stroke-linecap="round" stroke-linejoin="round"/>
</svg>
