<svg width="16" height="16" viewBox="0 0 16 16" fill="none" xmlns="http://www.w3.org/2000/svg">
<g clip-path="url(#clip0_91_122)">
<path d="M9.5 0.5V7C9.5 9.5 6.99999 11.5 4.5 11.5H2.5" stroke="white" stroke-opacity="0.5" stroke-linecap="round" stroke-linejoin="round"/>
<path fill-rule="evenodd" clip-rule="evenodd" d="M11.5008 6C11.1953 6 10.9644 6.27475 10.9855 6.57948C10.9951 6.7184 11 6.85863 11 7C11 10.3137 8.31371 13 5 13C4.85863 13 4.7184 12.9951 4.57948 12.9855C4.27475 12.9644 4 13.1953 4 13.5008C4 13.7466 4.18062 13.9569 4.4256 13.9768C4.61504 13.9922 4.8066 14 5 14C8.86599 14 12 10.866 12 7C12 6.8066 11.9922 6.61504 11.9768 6.4256C11.9569 6.18062 11.7466 6 11.5008 6ZM4.55995 14.9881C4.26179 14.9719 4 15.2018 4 15.5004C4 15.7535 4.19035 15.9676 4.443 15.983C4.62722 15.9943 4.81294 16 5 16C9.97056 16 14 11.9706 14 7C14 6.81295 13.9943 6.62722 13.983 6.443C13.9676 6.19035 13.7535 6 13.5004 6C13.2018 6 12.9719 6.26179 12.9881 6.55995C12.996 6.70563 13 6.85235 13 7C13 11.4183 9.41828 15 5 15C4.85235 15 4.70563 14.996 4.55995 14.9881Z" fill="white"/>
<path d="M6 8C5 8 4 8 3 7M2.5 3.5V4.5M6.5 3.5V4.5" stroke="white" stroke-linecap="round" stroke-linejoin="round"/>
</g>
<defs>
<clipPath id="clip0_91_122">
<rect width="16" height="16" fill="white"/>
</clipPath>
</defs>
</svg>
