<svg width="16" height="16" viewBox="0 0 16 16" fill="none" xmlns="http://www.w3.org/2000/svg">
<path d="M5 3.5V3.5C4.17157 3.5 3.5 4.17157 3.5 5V11C3.5 11.8284 4.17157 12.5 5 12.5V12.5M5 3.5V2C5 1.17157 5.67157 0.5 6.5 0.5H9.5C10.3284 0.5 11 1.17157 11 2V3.5M5 3.5H11M11 3.5V3.5C11.8284 3.5 12.5 4.17157 12.5 5V11C12.5 11.8284 11.8284 12.5 11 12.5V12.5M11 12.5V14C11 14.8284 10.3284 15.5 9.5 15.5H6.5C5.67157 15.5 5 14.8284 5 14V12.5M11 12.5H5M10.5 6.5L9.06066 7.93934C8.47487 8.52513 7.52513 8.52513 6.93934 7.93934L6 7" stroke="white" stroke-linecap="round" stroke-linejoin="round"/>
</svg>
