<svg width="16" height="16" viewBox="0 0 16 16" fill="none" xmlns="http://www.w3.org/2000/svg">
<path fill-rule="evenodd" clip-rule="evenodd" d="M11.2076 11.2735C10.9717 11.5034 10.5762 11.4293 10.3749 11.1685C9.8263 10.4578 8.96593 10 7.99864 10C7.03134 10 6.17097 10.4578 5.62237 11.1685C5.4211 11.4293 5.02558 11.5034 4.78965 11.2735C4.63376 11.1217 4.598 10.8817 4.72309 10.7036C5.44671 9.67334 6.64404 9 7.99864 9C9.35324 9 10.5506 9.67335 11.2742 10.7036C11.3993 10.8817 11.3635 11.1217 11.2076 11.2735ZM13.3543 9.18206C13.1354 9.39532 12.7781 9.35947 12.5807 9.1262C11.4801 7.82568 9.83578 7 7.99864 7C6.16149 7 4.51719 7.82568 3.41659 9.12619C3.21917 9.35947 2.86184 9.39532 2.64295 9.18206C2.46702 9.01066 2.44234 8.73473 2.59875 8.54535C3.88267 6.99077 5.82495 6 7.99864 6C10.1723 6 12.1146 6.99077 13.3985 8.54535C13.5549 8.73474 13.5303 9.01066 13.3543 9.18206ZM15.5029 7.08876C15.2906 7.2956 14.9464 7.27105 14.7503 7.04877C13.1011 5.17924 10.6876 4 7.99864 4C5.30968 4 2.89615 5.17924 1.24699 7.04877C1.05091 7.27105 0.706681 7.29559 0.494378 7.08875C0.31143 6.91051 0.292311 6.62169 0.460221 6.42922C2.29342 4.32781 4.99096 3 7.99864 3C11.0063 3 13.7039 4.32781 15.5371 6.42922C15.705 6.6217 15.6858 6.91051 15.5029 7.08876ZM8.99864 13C8.99864 13.5523 8.55092 14 7.99864 14C7.44635 14 6.99864 13.5523 6.99864 13C6.99864 12.4477 7.44635 12 7.99864 12C8.55092 12 8.99864 12.4477 8.99864 13Z" fill="white" fill-opacity="0.5"/>
<path fill-rule="evenodd" clip-rule="evenodd" d="M11.2076 11.2735C10.9717 11.5034 10.5762 11.4293 10.3749 11.1685C9.8263 10.4578 8.96592 10 7.99863 10C7.03134 10 6.17097 10.4578 5.62236 11.1685C5.42109 11.4293 5.02558 11.5034 4.78964 11.2735C4.63375 11.1217 4.59799 10.8817 4.72309 10.7036C5.4467 9.67334 6.64403 9 7.99863 9C9.35323 9 10.5506 9.67335 11.2742 10.7036C11.3993 10.8817 11.3635 11.1217 11.2076 11.2735ZM13.3543 9.18207C13.1354 9.39533 12.7781 9.35948 12.5807 9.1262C11.4801 7.82569 9.83577 7 7.99861 7C6.16147 7 4.51718 7.82568 3.41657 9.12619C3.21916 9.35946 2.86182 9.39531 2.64293 9.18205C2.46701 9.01065 2.44232 8.73472 2.59873 8.54534C3.88265 6.99077 5.82493 6 7.99861 6C10.1723 6 12.1146 6.99078 13.3985 8.54536C13.5549 8.73474 13.5302 9.01067 13.3543 9.18207ZM7.99863 14C8.55091 14 8.99863 13.5523 8.99863 13C8.99863 12.4477 8.55091 12 7.99863 12C7.44635 12 6.99863 12.4477 6.99863 13C6.99863 13.5523 7.44635 14 7.99863 14Z" fill="white"/>
</svg>
