<svg width="16" height="16" viewBox="0 0 16 16" fill="none" xmlns="http://www.w3.org/2000/svg">
<g clip-path="url(#clip0_91_765)">
<path d="M9.5 12.5V12.5C9.5 14.1569 10.8431 15.5 12.5 15.5V15.5M9.5 12.5V12.5C9.5 10.8431 10.8431 9.5 12.5 9.5V9.5M9.5 12.5H11.5M15.5 12.5V12.5C15.5 10.8431 14.1569 9.5 12.5 9.5V9.5M15.5 12.5V12.5C15.5 14.1569 14.1569 15.5 12.5 15.5V15.5M15.5 12.5H13.5M12.5 9.5C11.5 10.5 11.5 11.5 11.5 12.5M12.5 9.5C13.5 10.5 13.5 11.5 13.5 12.5M11.5 12.5C11.5 13.5 11.5 14.5 12.5 15.5M11.5 12.5H13.5M12.5 15.5C13.5 14.5 13.5 13.5 13.5 12.5" stroke="white" stroke-linecap="round" stroke-linejoin="round"/>
<path fill-rule="evenodd" clip-rule="evenodd" d="M7 0C3.13401 0 0 3.13401 0 7C0 10.866 3.13401 14 7 14C7.23899 14 7.47518 13.988 7.70801 13.9646C7.97965 13.9374 8.14389 13.6659 8.08968 13.3983C8.03769 13.1417 7.79809 12.9531 7.53727 12.9763C7.36028 12.992 7.18108 13 7 13C3.68629 13 1 10.3137 1 7C1 3.68629 3.68629 1 7 1C10.3137 1 13 3.68629 13 7C13 7.18108 12.992 7.36028 12.9763 7.53727C12.9531 7.79809 13.1417 8.03769 13.3983 8.08968C13.6659 8.14389 13.9374 7.97965 13.9646 7.70801C13.988 7.47518 14 7.23899 14 7C14 3.13401 10.866 0 7 0ZM3.85355 3.64645C3.65829 3.45118 3.34171 3.45118 3.14645 3.64645C2.95118 3.84171 2.95118 4.15829 3.14645 4.35355L5.58579 6.79289C6.36684 7.57394 7.63317 7.57394 8.41421 6.79289L9.85355 5.35355C10.0488 5.15829 10.0488 4.84171 9.85355 4.64645C9.65829 4.45118 9.34171 4.45118 9.14645 4.64645L7.70711 6.08579C7.31658 6.47631 6.68342 6.47631 6.29289 6.08579L3.85355 3.64645Z" fill="white"/>
</g>
<defs>
<clipPath id="clip0_91_765">
<rect width="16" height="16" fill="white"/>
</clipPath>
</defs>
</svg>
