<svg width="120" height="38" viewBox="0 0 120 38" fill="none" xmlns="http://www.w3.org/2000/svg">
<g clip-path="url(#clip0_100_3506)">
<path d="M1.54 11C1.43733 11 1.358 10.972 1.302 10.916C1.246 10.8507 1.218 10.7713 1.218 10.678V1.536C1.218 1.43333 1.246 1.354 1.302 1.298C1.358 1.23267 1.43733 1.2 1.54 1.2H5.096C5.78667 1.2 6.384 1.312 6.888 1.536C7.40133 1.76 7.798 2.096 8.078 2.544C8.358 2.98267 8.498 3.53333 8.498 4.196C8.498 4.85867 8.358 5.40933 8.078 5.848C7.798 6.28667 7.40133 6.618 6.888 6.842C6.384 7.066 5.78667 7.178 5.096 7.178H2.618V10.678C2.618 10.7713 2.58533 10.8507 2.52 10.916C2.464 10.972 2.38467 11 2.282 11H1.54ZM2.604 6.002H5.026C5.71667 6.002 6.23467 5.848 6.58 5.54C6.92533 5.232 7.098 4.784 7.098 4.196C7.098 3.61733 6.93 3.16933 6.594 2.852C6.258 2.53467 5.73533 2.376 5.026 2.376H2.604V6.002ZM12.9047 11.14C12.1954 11.14 11.6027 11.0047 11.1267 10.734C10.6507 10.4633 10.2867 10.09 10.0347 9.614C9.78272 9.12867 9.64272 8.578 9.61472 7.962C9.60539 7.80333 9.60072 7.60267 9.60072 7.36C9.60072 7.108 9.60539 6.90733 9.61472 6.758C9.64272 6.13267 9.78272 5.582 10.0347 5.106C10.2961 4.63 10.6647 4.25667 11.1407 3.986C11.6167 3.71533 12.2047 3.58 12.9047 3.58C13.6047 3.58 14.1927 3.71533 14.6687 3.986C15.1447 4.25667 15.5087 4.63 15.7607 5.106C16.0221 5.582 16.1667 6.13267 16.1947 6.758C16.2041 6.90733 16.2087 7.108 16.2087 7.36C16.2087 7.60267 16.2041 7.80333 16.1947 7.962C16.1667 8.578 16.0267 9.12867 15.7747 9.614C15.5227 10.09 15.1587 10.4633 14.6827 10.734C14.2067 11.0047 13.6141 11.14 12.9047 11.14ZM12.9047 10.062C13.4834 10.062 13.9454 9.88 14.2907 9.516C14.6361 9.14267 14.8227 8.60133 14.8507 7.892C14.8601 7.752 14.8647 7.57467 14.8647 7.36C14.8647 7.14533 14.8601 6.968 14.8507 6.828C14.8227 6.11867 14.6361 5.582 14.2907 5.218C13.9454 4.84467 13.4834 4.658 12.9047 4.658C12.3261 4.658 11.8594 4.84467 11.5047 5.218C11.1594 5.582 10.9774 6.11867 10.9587 6.828C10.9494 6.968 10.9447 7.14533 10.9447 7.36C10.9447 7.57467 10.9494 7.752 10.9587 7.892C10.9774 8.60133 11.1594 9.14267 11.5047 9.516C11.8594 9.88 12.3261 10.062 12.9047 10.062ZM19.7024 11C19.581 11 19.4877 10.972 19.4224 10.916C19.357 10.8507 19.301 10.762 19.2544 10.65L17.2664 4.154C17.2477 4.10733 17.2384 4.06067 17.2384 4.014C17.2384 3.93 17.2664 3.86 17.3224 3.804C17.3877 3.748 17.4577 3.72 17.5324 3.72H18.1484C18.251 3.72 18.3304 3.748 18.3864 3.804C18.4424 3.86 18.4797 3.91133 18.4984 3.958L20.0524 9.236L21.7184 4.014C21.737 3.94867 21.7744 3.88333 21.8304 3.818C21.8957 3.75267 21.989 3.72 22.1104 3.72H22.5864C22.7077 3.72 22.801 3.75267 22.8664 3.818C22.9317 3.88333 22.969 3.94867 22.9784 4.014L24.6444 9.236L26.1984 3.958C26.2077 3.91133 26.2404 3.86 26.2964 3.804C26.3524 3.748 26.4317 3.72 26.5344 3.72H27.1504C27.2344 3.72 27.3044 3.748 27.3604 3.804C27.4164 3.86 27.4444 3.93 27.4444 4.014C27.4444 4.06067 27.435 4.10733 27.4164 4.154L25.4284 10.65C25.4004 10.762 25.349 10.8507 25.2744 10.916C25.209 10.972 25.111 11 24.9804 11H24.4344C24.313 11 24.2104 10.972 24.1264 10.916C24.0517 10.8507 24.0004 10.762 23.9724 10.65L22.3484 5.638L20.7244 10.65C20.687 10.762 20.631 10.8507 20.5564 10.916C20.4817 10.972 20.379 11 20.2484 11H19.7024ZM31.7016 11.14C30.7402 11.14 29.9749 10.846 29.4056 10.258C28.8362 9.66067 28.5236 8.84867 28.4676 7.822C28.4582 7.70067 28.4536 7.54667 28.4536 7.36C28.4536 7.164 28.4582 7.00533 28.4676 6.884C28.5049 6.22133 28.6589 5.64267 28.9296 5.148C29.2002 4.644 29.5689 4.25667 30.0356 3.986C30.5116 3.71533 31.0669 3.58 31.7016 3.58C32.4109 3.58 33.0036 3.72933 33.4796 4.028C33.9649 4.32667 34.3336 4.75133 34.5856 5.302C34.8376 5.85267 34.9636 6.49667 34.9636 7.234V7.472C34.9636 7.57467 34.9309 7.654 34.8656 7.71C34.8096 7.766 34.7349 7.794 34.6416 7.794H29.7976C29.7976 7.80333 29.7976 7.822 29.7976 7.85C29.7976 7.878 29.7976 7.90133 29.7976 7.92C29.8162 8.30267 29.9002 8.662 30.0496 8.998C30.1989 9.32467 30.4136 9.59067 30.6936 9.796C30.9736 10.0013 31.3096 10.104 31.7016 10.104C32.0376 10.104 32.3176 10.0527 32.5416 9.95C32.7656 9.84733 32.9476 9.73533 33.0876 9.614C33.2276 9.48333 33.3209 9.38533 33.3676 9.32C33.4516 9.19867 33.5169 9.12867 33.5636 9.11C33.6102 9.082 33.6849 9.068 33.7876 9.068H34.4596C34.5529 9.068 34.6276 9.096 34.6836 9.152C34.7489 9.19867 34.7769 9.26867 34.7676 9.362C34.7582 9.502 34.6836 9.67467 34.5436 9.88C34.4036 10.076 34.2029 10.272 33.9416 10.468C33.6802 10.664 33.3629 10.8273 32.9896 10.958C32.6162 11.0793 32.1869 11.14 31.7016 11.14ZM29.7976 6.828H33.6336V6.786C33.6336 6.366 33.5542 5.99267 33.3956 5.666C33.2462 5.33933 33.0269 5.08267 32.7376 4.896C32.4482 4.7 32.1029 4.602 31.7016 4.602C31.3002 4.602 30.9549 4.7 30.6656 4.896C30.3856 5.08267 30.1709 5.33933 30.0216 5.666C29.8722 5.99267 29.7976 6.366 29.7976 6.786V6.828ZM36.9596 11C36.8662 11 36.7869 10.972 36.7216 10.916C36.6656 10.8507 36.6376 10.7713 36.6376 10.678V4.056C36.6376 3.96267 36.6656 3.88333 36.7216 3.818C36.7869 3.75267 36.8662 3.72 36.9596 3.72H37.6036C37.6969 3.72 37.7762 3.75267 37.8416 3.818C37.9069 3.88333 37.9396 3.96267 37.9396 4.056V4.672C38.1262 4.35467 38.3829 4.11667 38.7096 3.958C39.0362 3.79933 39.4282 3.72 39.8856 3.72H40.4456C40.5389 3.72 40.6136 3.75267 40.6696 3.818C40.7256 3.874 40.7536 3.94867 40.7536 4.042V4.616C40.7536 4.70933 40.7256 4.784 40.6696 4.84C40.6136 4.896 40.5389 4.924 40.4456 4.924H39.6056C39.1016 4.924 38.7049 5.07333 38.4156 5.372C38.1262 5.66133 37.9816 6.058 37.9816 6.562V10.678C37.9816 10.7713 37.9489 10.8507 37.8836 10.916C37.8182 10.972 37.7389 11 37.6456 11H36.9596ZM44.7172 11.14C43.7559 11.14 42.9905 10.846 42.4212 10.258C41.8519 9.66067 41.5392 8.84867 41.4832 7.822C41.4739 7.70067 41.4692 7.54667 41.4692 7.36C41.4692 7.164 41.4739 7.00533 41.4832 6.884C41.5205 6.22133 41.6745 5.64267 41.9452 5.148C42.2159 4.644 42.5845 4.25667 43.0512 3.986C43.5272 3.71533 44.0825 3.58 44.7172 3.58C45.4265 3.58 46.0192 3.72933 46.4952 4.028C46.9805 4.32667 47.3492 4.75133 47.6012 5.302C47.8532 5.85267 47.9792 6.49667 47.9792 7.234V7.472C47.9792 7.57467 47.9465 7.654 47.8812 7.71C47.8252 7.766 47.7505 7.794 47.6572 7.794H42.8132C42.8132 7.80333 42.8132 7.822 42.8132 7.85C42.8132 7.878 42.8132 7.90133 42.8132 7.92C42.8319 8.30267 42.9159 8.662 43.0652 8.998C43.2145 9.32467 43.4292 9.59067 43.7092 9.796C43.9892 10.0013 44.3252 10.104 44.7172 10.104C45.0532 10.104 45.3332 10.0527 45.5572 9.95C45.7812 9.84733 45.9632 9.73533 46.1032 9.614C46.2432 9.48333 46.3365 9.38533 46.3832 9.32C46.4672 9.19867 46.5325 9.12867 46.5792 9.11C46.6259 9.082 46.7005 9.068 46.8032 9.068H47.4752C47.5685 9.068 47.6432 9.096 47.6992 9.152C47.7645 9.19867 47.7925 9.26867 47.7832 9.362C47.7739 9.502 47.6992 9.67467 47.5592 9.88C47.4192 10.076 47.2185 10.272 46.9572 10.468C46.6959 10.664 46.3785 10.8273 46.0052 10.958C45.6319 11.0793 45.2025 11.14 44.7172 11.14ZM42.8132 6.828H46.6492V6.786C46.6492 6.366 46.5699 5.99267 46.4112 5.666C46.2619 5.33933 46.0425 5.08267 45.7532 4.896C45.4639 4.7 45.1185 4.602 44.7172 4.602C44.3159 4.602 43.9705 4.7 43.6812 4.896C43.4012 5.08267 43.1865 5.33933 43.0372 5.666C42.8879 5.99267 42.8132 6.366 42.8132 6.786V6.828ZM52.3132 11.14C51.7999 11.14 51.3565 11.0513 50.9832 10.874C50.6099 10.6873 50.3019 10.44 50.0592 10.132C49.8259 9.81467 49.6485 9.45533 49.5272 9.054C49.4152 8.65267 49.3499 8.228 49.3312 7.78C49.3219 7.63067 49.3172 7.49067 49.3172 7.36C49.3172 7.22933 49.3219 7.08933 49.3312 6.94C49.3499 6.50133 49.4152 6.08133 49.5272 5.68C49.6485 5.27867 49.8259 4.91933 50.0592 4.602C50.3019 4.28467 50.6099 4.03733 50.9832 3.86C51.3565 3.67333 51.7999 3.58 52.3132 3.58C52.8639 3.58 53.3212 3.678 53.6852 3.874C54.0492 4.07 54.3479 4.31267 54.5812 4.602V1.382C54.5812 1.28867 54.6092 1.214 54.6652 1.158C54.7305 1.09267 54.8099 1.06 54.9032 1.06H55.5752C55.6685 1.06 55.7432 1.09267 55.7992 1.158C55.8645 1.214 55.8972 1.28867 55.8972 1.382V10.678C55.8972 10.7713 55.8645 10.8507 55.7992 10.916C55.7432 10.972 55.6685 11 55.5752 11H54.9452C54.8425 11 54.7632 10.972 54.7072 10.916C54.6512 10.8507 54.6232 10.7713 54.6232 10.678V10.09C54.3899 10.3887 54.0865 10.6407 53.7132 10.846C53.3399 11.042 52.8732 11.14 52.3132 11.14ZM52.6072 10.006C53.0739 10.006 53.4472 9.89867 53.7272 9.684C54.0072 9.46933 54.2172 9.19867 54.3572 8.872C54.4972 8.536 54.5719 8.19533 54.5812 7.85C54.5905 7.70067 54.5952 7.52333 54.5952 7.318C54.5952 7.10333 54.5905 6.92133 54.5812 6.772C54.5719 6.44533 54.4925 6.12333 54.3432 5.806C54.2032 5.48867 53.9885 5.22733 53.6992 5.022C53.4192 4.81667 53.0552 4.714 52.6072 4.714C52.1312 4.714 51.7532 4.82133 51.4732 5.036C51.1932 5.24133 50.9925 5.51667 50.8712 5.862C50.7499 6.198 50.6799 6.562 50.6612 6.954C50.6519 7.22467 50.6519 7.49533 50.6612 7.766C50.6799 8.158 50.7499 8.52667 50.8712 8.872C50.9925 9.208 51.1932 9.48333 51.4732 9.698C51.7532 9.90333 52.1312 10.006 52.6072 10.006ZM65.009 11.14C64.449 11.14 63.9823 11.042 63.609 10.846C63.2357 10.6407 62.937 10.3887 62.713 10.09V10.678C62.713 10.7713 62.6803 10.8507 62.615 10.916C62.559 10.972 62.4843 11 62.391 11H61.747C61.6537 11 61.5743 10.972 61.509 10.916C61.453 10.8507 61.425 10.7713 61.425 10.678V1.382C61.425 1.28867 61.453 1.214 61.509 1.158C61.5743 1.09267 61.6537 1.06 61.747 1.06H62.419C62.5217 1.06 62.601 1.09267 62.657 1.158C62.713 1.214 62.741 1.28867 62.741 1.382V4.602C62.9743 4.31267 63.273 4.07 63.637 3.874C64.0103 3.678 64.4677 3.58 65.009 3.58C65.5317 3.58 65.975 3.67333 66.339 3.86C66.7123 4.03733 67.0157 4.28467 67.249 4.602C67.4917 4.91933 67.6737 5.27867 67.795 5.68C67.9163 6.08133 67.9817 6.50133 67.991 6.94C68.0003 7.08933 68.005 7.22933 68.005 7.36C68.005 7.49067 68.0003 7.63067 67.991 7.78C67.9817 8.228 67.9163 8.65267 67.795 9.054C67.6737 9.45533 67.4917 9.81467 67.249 10.132C67.0157 10.44 66.7123 10.6873 66.339 10.874C65.975 11.0513 65.5317 11.14 65.009 11.14ZM64.715 10.006C65.2003 10.006 65.5783 9.90333 65.849 9.698C66.129 9.48333 66.3297 9.208 66.451 8.872C66.5723 8.52667 66.6423 8.158 66.661 7.766C66.6703 7.49533 66.6703 7.22467 66.661 6.954C66.6423 6.562 66.5723 6.198 66.451 5.862C66.3297 5.51667 66.129 5.24133 65.849 5.036C65.5783 4.82133 65.2003 4.714 64.715 4.714C64.2763 4.714 63.9123 4.81667 63.623 5.022C63.3337 5.22733 63.1143 5.48867 62.965 5.806C62.825 6.12333 62.7503 6.44533 62.741 6.772C62.7317 6.92133 62.727 7.10333 62.727 7.318C62.727 7.52333 62.7317 7.70067 62.741 7.85C62.7597 8.19533 62.8343 8.536 62.965 8.872C63.105 9.19867 63.315 9.46933 63.595 9.684C63.8843 9.89867 64.2577 10.006 64.715 10.006ZM70.7377 13.66C70.6631 13.66 70.5977 13.632 70.5417 13.576C70.4857 13.52 70.4577 13.4547 70.4577 13.38C70.4577 13.3427 70.4624 13.3053 70.4717 13.268C70.4811 13.2307 70.4997 13.184 70.5277 13.128L71.6057 10.566L68.9317 4.252C68.8851 4.14 68.8617 4.06067 68.8617 4.014C68.8617 3.93 68.8897 3.86 68.9457 3.804C69.0017 3.748 69.0717 3.72 69.1557 3.72H69.8417C69.9351 3.72 70.0097 3.74333 70.0657 3.79C70.1217 3.83667 70.1591 3.89267 70.1777 3.958L72.3057 9.054L74.4897 3.958C74.5177 3.89267 74.5551 3.83667 74.6017 3.79C74.6577 3.74333 74.7371 3.72 74.8397 3.72H75.4977C75.5817 3.72 75.6517 3.748 75.7077 3.804C75.7637 3.86 75.7917 3.92533 75.7917 4C75.7917 4.04667 75.7684 4.13067 75.7217 4.252L71.7457 13.422C71.7177 13.4873 71.6757 13.5433 71.6197 13.59C71.5731 13.6367 71.4984 13.66 71.3957 13.66H70.7377Z" fill="white" fill-opacity="0.5"/>
<path d="M10.0852 35.6515C8.79412 35.6515 7.5953 35.4251 6.4887 34.9724C5.39887 34.5197 4.45155 33.891 3.64675 33.0862C2.85872 32.2646 2.23835 31.3005 1.78565 30.1939C1.34972 29.0873 1.13175 27.8718 1.13175 26.5472C1.13175 25.2394 1.34972 24.0322 1.78565 22.9256C2.23835 21.819 2.85872 20.8549 3.64675 20.0333C4.45155 19.2118 5.39887 18.5746 6.4887 18.1219C7.5953 17.6692 8.79412 17.4429 10.0852 17.4429C11.3762 17.4429 12.5582 17.6692 13.6313 18.1219C14.7211 18.5746 15.6685 19.2118 16.4733 20.0333C17.2781 20.8549 17.8984 21.819 18.3344 22.9256C18.7871 24.0322 19.0134 25.2478 19.0134 26.5723C19.0134 27.8634 18.7871 29.0622 18.3344 30.1688C17.8984 31.2754 17.2781 32.2395 16.4733 33.061C15.6685 33.8826 14.7211 34.5197 13.6313 34.9724C12.5582 35.4251 11.3762 35.6515 10.0852 35.6515ZM10.0852 32.0802C10.8229 32.0802 11.5019 31.9461 12.1223 31.6778C12.7427 31.3928 13.2792 31.0071 13.7319 30.5209C14.2014 30.0179 14.5619 29.4311 14.8134 28.7604C15.0649 28.0897 15.1906 27.3604 15.1906 26.5723C15.1906 25.7675 15.0649 25.0298 14.8134 24.3591C14.5619 23.6885 14.2014 23.1016 13.7319 22.5986C13.2792 22.0956 12.7427 21.71 12.1223 21.4417C11.5019 21.1567 10.8229 21.0142 10.0852 21.0142C9.34742 21.0142 8.65998 21.1567 8.02285 21.4417C7.40248 21.71 6.85757 22.0956 6.3881 22.5986C5.9354 23.0849 5.5833 23.6717 5.3318 24.3591C5.0803 25.0298 4.95455 25.7675 4.95455 26.5723C4.95455 27.6286 5.17252 28.576 5.60845 29.4143C6.06115 30.2359 6.67313 30.8898 7.4444 31.376C8.21567 31.8455 9.09592 32.0802 10.0852 32.0802ZM21.9253 35.4V22.0956H25.3708L25.4966 26.3711L24.893 25.4657C25.111 24.7951 25.4379 24.1831 25.8738 23.6298C26.3265 23.0765 26.8547 22.6406 27.4583 22.322C28.0787 21.9867 28.7242 21.819 29.3948 21.819C29.6966 21.819 29.9733 21.8441 30.2248 21.8944C30.4931 21.928 30.7194 21.9867 30.9038 22.0705L29.9481 25.9687C29.7637 25.8849 29.5206 25.8095 29.2188 25.7424C28.9338 25.6586 28.6403 25.6166 28.3385 25.6166C27.9529 25.6166 27.584 25.6921 27.2319 25.843C26.8966 25.9771 26.5948 26.1783 26.3265 26.4466C26.075 26.6981 25.8738 26.9999 25.7229 27.352C25.5888 27.7041 25.5217 28.0981 25.5217 28.534V35.4H21.9253ZM38.1726 35.6515C36.8983 35.6515 35.7582 35.3497 34.7522 34.7461C33.7462 34.1425 32.9498 33.3209 32.3629 32.2814C31.7929 31.2251 31.5078 30.0514 31.5078 28.7604C31.5078 27.4358 31.7929 26.2538 32.3629 25.2142C32.9498 24.1579 33.7462 23.328 34.7522 22.7244C35.7582 22.1208 36.8983 21.819 38.1726 21.819C39.363 21.819 40.4445 22.0453 41.4169 22.498C42.4062 22.934 43.1774 23.5376 43.7307 24.3088L41.7942 26.6729C41.5595 26.3544 41.266 26.061 40.9139 25.7927C40.5618 25.5244 40.1762 25.3148 39.757 25.1639C39.3546 25.013 38.9355 24.9376 38.4995 24.9376C37.8121 24.9376 37.2001 25.1053 36.6636 25.4406C36.1271 25.7592 35.7079 26.2119 35.4061 26.7987C35.1043 27.3688 34.9534 28.0143 34.9534 28.7352C34.9534 29.4394 35.1127 30.0766 35.4312 30.6466C35.7498 31.2167 36.1774 31.6694 36.7139 32.0047C37.2504 32.3401 37.8456 32.5077 38.4995 32.5077C38.9355 32.5077 39.3463 32.4491 39.7319 32.3317C40.1343 32.1976 40.5032 32.0047 40.8385 31.7532C41.1738 31.5017 41.4924 31.2083 41.7942 30.873L43.7307 33.2371C43.1774 33.9581 42.3894 34.5449 41.3666 34.9976C40.3606 35.4335 39.296 35.6515 38.1726 35.6515ZM46.0192 35.4V16.789H49.5653V24.8118L48.8611 25.1136C49.0288 24.51 49.3558 23.9651 49.842 23.4789C50.3282 22.9759 50.9067 22.5735 51.5773 22.2717C52.248 21.9699 52.9438 21.819 53.6648 21.819C54.6708 21.819 55.5091 22.0202 56.1798 22.4226C56.8672 22.825 57.3786 23.437 57.7139 24.2585C58.066 25.0633 58.2421 26.0693 58.2421 27.2765V35.4H54.6708V27.528C54.6708 26.9244 54.587 26.4214 54.4193 26.019C54.2516 25.6166 54.0001 25.3232 53.6648 25.1388C53.3295 24.9544 52.9019 24.8705 52.3821 24.8873C51.9797 24.8873 51.6109 24.9544 51.2755 25.0885C50.9402 25.2059 50.6384 25.3819 50.3701 25.6166C50.1186 25.8514 49.9258 26.1196 49.7917 26.4214C49.6576 26.7232 49.5905 27.0586 49.5905 27.4274V35.4H47.8048C47.436 35.4 47.1006 35.4 46.7988 35.4C46.497 35.4 46.2372 35.4 46.0192 35.4ZM61.9661 35.4V22.0956H65.5374V35.4H61.9661ZM63.7517 19.3543C63.0475 19.3543 62.5026 19.1866 62.117 18.8513C61.7313 18.516 61.5385 18.0381 61.5385 17.4177C61.5385 16.8477 61.7313 16.3866 62.117 16.0345C62.5194 15.6656 63.0643 15.4812 63.7517 15.4812C64.4224 15.4812 64.9505 15.6489 65.3362 15.9842C65.7218 16.3195 65.9146 16.7974 65.9146 17.4177C65.9146 18.0046 65.7218 18.474 65.3362 18.8261C64.9505 19.1782 64.4224 19.3543 63.7517 19.3543ZM74.6075 35.6515C73.4506 35.6515 72.4027 35.3581 71.4637 34.7712C70.5416 34.1844 69.8122 33.3712 69.2757 32.3317C68.7559 31.2754 68.496 30.085 68.496 28.7604C68.496 27.4191 68.7559 26.2286 69.2757 25.1891C69.8122 24.1496 70.5416 23.328 71.4637 22.7244C72.3859 22.1208 73.4338 21.819 74.6075 21.819C75.2278 21.819 75.8231 21.9196 76.3931 22.1208C76.98 22.3052 77.4997 22.5651 77.9524 22.9004C78.4051 23.2358 78.774 23.613 79.059 24.0322C79.3441 24.4346 79.5117 24.8538 79.562 25.2897L78.6566 25.4657V16.789H82.2028V35.4H78.8327L78.6818 32.3317L79.386 32.4323C79.3692 32.8347 79.2267 33.2287 78.9584 33.6143C78.6902 34 78.3297 34.3521 77.877 34.6706C77.441 34.9724 76.938 35.2156 76.368 35.4C75.8147 35.5677 75.2278 35.6515 74.6075 35.6515ZM75.3871 32.6838C76.0746 32.6838 76.6614 32.5161 77.1476 32.1808C77.6506 31.8455 78.0446 31.3844 78.3297 30.7975C78.6147 30.2107 78.7572 29.5317 78.7572 28.7604C78.7572 27.9724 78.6147 27.2849 78.3297 26.6981C78.0446 26.0945 77.6506 25.6334 77.1476 25.3148C76.6614 24.9795 76.0746 24.8118 75.3871 24.8118C74.7332 24.8118 74.1548 24.9795 73.6518 25.3148C73.1488 25.6334 72.7548 26.0945 72.4697 26.6981C72.2015 27.2849 72.0673 27.9724 72.0673 28.7604C72.0673 29.5317 72.2015 30.2107 72.4697 30.7975C72.7548 31.3844 73.1488 31.8455 73.6518 32.1808C74.1548 32.5161 74.7332 32.6838 75.3871 32.6838Z" fill="white"/>
<path d="M93.9594 35.6515C92.6684 35.6515 91.4696 35.4251 90.363 34.9724C89.2731 34.5197 88.3258 33.891 87.521 33.0862C86.733 32.2646 86.1126 31.3005 85.6599 30.1939C85.224 29.0873 85.006 27.8718 85.006 26.5472C85.006 25.2394 85.224 24.0322 85.6599 22.9256C86.1126 21.819 86.733 20.8549 87.521 20.0333C88.3258 19.2118 89.2731 18.5746 90.363 18.1219C91.4696 17.6692 92.6684 17.4429 93.9594 17.4429C95.2505 17.4429 96.4325 17.6692 97.5056 18.1219C98.5954 18.5746 99.5427 19.2118 100.348 20.0333C101.152 20.8549 101.773 21.819 102.209 22.9256C102.661 24.0322 102.888 25.2478 102.888 26.5723C102.888 27.8634 102.661 29.0622 102.209 30.1688C101.773 31.2754 101.152 32.2395 100.348 33.061C99.5427 33.8826 98.5954 34.5197 97.5056 34.9724C96.4325 35.4251 95.2505 35.6515 93.9594 35.6515ZM93.9594 32.0802C94.6972 32.0802 95.3762 31.9461 95.9966 31.6778C96.6169 31.3928 97.1535 31.0071 97.6062 30.5209C98.0756 30.0179 98.4361 29.4311 98.6876 28.7604C98.9391 28.0897 99.0649 27.3604 99.0649 26.5723C99.0649 25.7675 98.9391 25.0298 98.6876 24.3591C98.4361 23.6885 98.0756 23.1016 97.6062 22.5986C97.1535 22.0956 96.6169 21.71 95.9966 21.4417C95.3762 21.1567 94.6972 21.0142 93.9594 21.0142C93.2217 21.0142 92.5343 21.1567 91.8971 21.4417C91.2768 21.71 90.7318 22.0956 90.2624 22.5986C89.8097 23.0849 89.4576 23.6717 89.2061 24.3591C88.9546 25.0298 88.8288 25.7675 88.8288 26.5723C88.8288 27.6286 89.0468 28.576 89.4827 29.4143C89.9354 30.2359 90.5474 30.8898 91.3187 31.376C92.0899 31.8455 92.9702 32.0802 93.9594 32.0802ZM112.012 35.6515C110.368 35.6515 108.96 35.3581 107.786 34.7712C106.63 34.1676 105.632 33.2958 104.794 32.1556L107.158 29.4897C107.979 30.6299 108.792 31.4095 109.597 31.8287C110.419 32.2311 111.299 32.4323 112.238 32.4323C112.758 32.4323 113.219 32.3568 113.621 32.2059C114.04 32.055 114.367 31.8455 114.602 31.5772C114.854 31.3089 114.979 30.9987 114.979 30.6466C114.979 30.3784 114.921 30.1353 114.803 29.9173C114.686 29.6826 114.518 29.4814 114.3 29.3137C114.082 29.1293 113.822 28.97 113.521 28.8358C113.219 28.6849 112.883 28.5592 112.515 28.4586C112.146 28.358 111.743 28.2658 111.307 28.1819C110.368 27.9807 109.547 27.7209 108.843 27.4023C108.139 27.0837 107.552 26.6981 107.082 26.2454C106.613 25.7927 106.261 25.2729 106.026 24.6861C105.808 24.0825 105.699 23.4118 105.699 22.6741C105.699 21.6346 105.992 20.7292 106.579 19.9579C107.166 19.1699 107.946 18.5579 108.918 18.1219C109.891 17.6692 110.964 17.4429 112.137 17.4429C113.73 17.4429 115.038 17.7112 116.061 18.2477C117.1 18.7842 117.93 19.5387 118.551 20.5112L116.136 22.8753C115.616 22.1543 115.021 21.6094 114.351 21.2405C113.68 20.8717 112.959 20.6872 112.188 20.6872C111.651 20.6872 111.173 20.7627 110.754 20.9136C110.352 21.0477 110.042 21.2573 109.824 21.5423C109.606 21.8106 109.497 22.1292 109.497 22.498C109.497 22.7998 109.572 23.0681 109.723 23.3028C109.874 23.5376 110.083 23.7472 110.352 23.9316C110.637 24.0993 110.98 24.2502 111.383 24.3843C111.785 24.5184 112.23 24.6274 112.716 24.7112C113.638 24.8957 114.468 25.1472 115.206 25.4657C115.943 25.7675 116.572 26.1364 117.092 26.5723C117.628 27.0083 118.039 27.5113 118.324 28.0813C118.609 28.6514 118.752 29.2885 118.752 29.9927C118.752 31.1832 118.467 32.1976 117.897 33.0359C117.327 33.8742 116.539 34.5197 115.533 34.9724C114.527 35.4251 113.353 35.6515 112.012 35.6515Z" fill="url(#paint0_radial_100_3506)"/>
</g>
<defs>
<radialGradient id="paint0_radial_100_3506" cx="0" cy="0" r="1" gradientUnits="userSpaceOnUse" gradientTransform="translate(103.8 18.6) rotate(90) scale(19.8 20.682)">
<stop stop-color="#00DDFF"/>
<stop offset="1" stop-color="#B50098"/>
</radialGradient>
<clipPath id="clip0_100_3506">
<rect width="120" height="37.2" fill="white"/>
</clipPath>
</defs>
</svg>
