<svg width="120" height="25" viewBox="0 0 120 25" fill="none" xmlns="http://www.w3.org/2000/svg">
<g clip-path="url(#clip0_100_3512)">
<path d="M10.0852 21.8515C8.79412 21.8515 7.5953 21.6251 6.4887 21.1724C5.39887 20.7197 4.45155 20.091 3.64675 19.2862C2.85872 18.4646 2.23835 17.5005 1.78565 16.3939C1.34972 15.2873 1.13175 14.0717 1.13175 12.7472C1.13175 11.4394 1.34972 10.2322 1.78565 9.12558C2.23835 8.01898 2.85872 7.05489 3.64675 6.23333C4.45155 5.41176 5.39887 4.77463 6.4887 4.32192C7.5953 3.86922 8.79412 3.64287 10.0852 3.64287C11.3762 3.64287 12.5582 3.86922 13.6313 4.32192C14.7211 4.77463 15.6685 5.41176 16.4733 6.23333C17.2781 7.05489 17.8984 8.01898 18.3344 9.12558C18.7871 10.2322 19.0134 11.4478 19.0134 12.7723C19.0134 14.0634 18.7871 15.2622 18.3344 16.3688C17.8984 17.4754 17.2781 18.4395 16.4733 19.261C15.6685 20.0826 14.7211 20.7197 13.6313 21.1724C12.5582 21.6251 11.3762 21.8515 10.0852 21.8515ZM10.0852 18.2802C10.8229 18.2802 11.5019 18.146 12.1223 17.8778C12.7427 17.5927 13.2792 17.2071 13.7319 16.7209C14.2014 16.2179 14.5619 15.631 14.8134 14.9604C15.0649 14.2897 15.1906 13.5604 15.1906 12.7723C15.1906 11.9675 15.0649 11.2298 14.8134 10.5591C14.5619 9.88846 14.2014 9.30163 13.7319 8.79863C13.2792 8.29563 12.7427 7.90999 12.1223 7.64173C11.5019 7.35669 10.8229 7.21418 10.0852 7.21418C9.34742 7.21418 8.65998 7.35669 8.02285 7.64173C7.40248 7.90999 6.85757 8.29563 6.3881 8.79863C5.9354 9.28486 5.5833 9.87169 5.3318 10.5591C5.0803 11.2298 4.95455 11.9675 4.95455 12.7723C4.95455 13.8286 5.17252 14.7759 5.60845 15.6143C6.06115 16.4358 6.67313 17.0897 7.4444 17.576C8.21567 18.0454 9.09592 18.2802 10.0852 18.2802ZM21.9253 21.6V8.29562H25.3708L25.4966 12.5711L24.893 11.6657C25.111 10.9951 25.4379 10.3831 25.8738 9.82978C26.3265 9.27647 26.8547 8.84054 27.4583 8.52197C28.0787 8.18664 28.7242 8.01898 29.3948 8.01898C29.6966 8.01898 29.9733 8.04413 30.2248 8.09443C30.4931 8.12796 30.7194 8.18664 30.9038 8.27048L29.9481 12.1687C29.7637 12.0849 29.5206 12.0094 29.2188 11.9424C28.9338 11.8585 28.6403 11.8166 28.3385 11.8166C27.9529 11.8166 27.584 11.8921 27.2319 12.043C26.8966 12.1771 26.5948 12.3783 26.3265 12.6466C26.075 12.8981 25.8738 13.1999 25.7229 13.552C25.5888 13.9041 25.5217 14.2981 25.5217 14.734V21.6H21.9253ZM38.1726 21.8515C36.8983 21.8515 35.7582 21.5497 34.7522 20.9461C33.7462 20.3425 32.9498 19.5209 32.3629 18.4814C31.7929 17.4251 31.5078 16.2514 31.5078 14.9604C31.5078 13.6358 31.7929 12.4538 32.3629 11.4142C32.9498 10.3579 33.7462 9.52798 34.7522 8.92438C35.7582 8.32078 36.8983 8.01898 38.1726 8.01898C39.363 8.01898 40.4445 8.24533 41.4169 8.69803C42.4062 9.13396 43.1774 9.73756 43.7307 10.5088L41.7942 12.8729C41.5595 12.5544 41.266 12.2609 40.9139 11.9927C40.5618 11.7244 40.1762 11.5148 39.757 11.3639C39.3546 11.213 38.9355 11.1376 38.4995 11.1376C37.8121 11.1376 37.2001 11.3052 36.6636 11.6406C36.1271 11.9591 35.7079 12.4118 35.4061 12.9987C35.1043 13.5687 34.9534 14.2143 34.9534 14.9352C34.9534 15.6394 35.1127 16.2766 35.4312 16.8466C35.7498 17.4167 36.1774 17.8694 36.7139 18.2047C37.2504 18.5401 37.8456 18.7077 38.4995 18.7077C38.9355 18.7077 39.3463 18.649 39.7319 18.5317C40.1343 18.3975 40.5032 18.2047 40.8385 17.9532C41.1738 17.7017 41.4924 17.4083 41.7942 17.073L43.7307 19.4371C43.1774 20.158 42.3894 20.7449 41.3666 21.1976C40.3606 21.6335 39.296 21.8515 38.1726 21.8515ZM46.0192 21.6V2.98898H49.5653V11.0118L48.8611 11.3136C49.0288 10.71 49.3558 10.1651 49.842 9.67887C50.3282 9.17588 50.9067 8.77348 51.5773 8.47168C52.248 8.16988 52.9438 8.01898 53.6648 8.01898C54.6708 8.01898 55.5091 8.22018 56.1798 8.62257C56.8672 9.02498 57.3786 9.63696 57.7139 10.4585C58.066 11.2633 58.2421 12.2693 58.2421 13.4765V21.6H54.6708V13.728C54.6708 13.1244 54.587 12.6214 54.4193 12.219C54.2516 11.8166 54.0001 11.5232 53.6648 11.3388C53.3295 11.1543 52.9019 11.0705 52.3821 11.0873C51.9797 11.0873 51.6109 11.1543 51.2755 11.2885C50.9402 11.4058 50.6384 11.5819 50.3701 11.8166C50.1186 12.0514 49.9258 12.3196 49.7917 12.6214C49.6576 12.9232 49.5905 13.2586 49.5905 13.6274V21.6H47.8048C47.436 21.6 47.1006 21.6 46.7988 21.6C46.497 21.6 46.2372 21.6 46.0192 21.6ZM61.9661 21.6V8.29562H65.5374V21.6H61.9661ZM63.7517 5.55428C63.0475 5.55428 62.5026 5.38661 62.117 5.05127C61.7313 4.71594 61.5385 4.23809 61.5385 3.61773C61.5385 3.04766 61.7313 2.58658 62.117 2.23447C62.5194 1.86561 63.0643 1.68117 63.7517 1.68117C64.4224 1.68117 64.9505 1.84884 65.3362 2.18418C65.7218 2.51951 65.9146 2.99736 65.9146 3.61773C65.9146 4.20456 65.7218 4.67403 65.3362 5.02612C64.9505 5.37823 64.4224 5.55428 63.7517 5.55428ZM74.6075 21.8515C73.4506 21.8515 72.4027 21.5581 71.4637 20.9712C70.5416 20.3844 69.8122 19.5712 69.2757 18.5317C68.7559 17.4754 68.496 16.2849 68.496 14.9604C68.496 13.619 68.7559 12.4286 69.2757 11.3891C69.8122 10.3495 70.5416 9.52798 71.4637 8.92438C72.3859 8.32078 73.4338 8.01898 74.6075 8.01898C75.2278 8.01898 75.8231 8.11958 76.3931 8.32078C76.98 8.50521 77.4997 8.76509 77.9524 9.10043C78.4051 9.43576 78.774 9.81301 79.059 10.2322C79.3441 10.6346 79.5117 11.0537 79.562 11.4897L78.6566 11.6657V2.98898H82.2028V21.6H78.8327L78.6818 18.5317L79.386 18.6323C79.3692 19.0347 79.2267 19.4287 78.9584 19.8143C78.6902 20.2 78.3297 20.5521 77.877 20.8706C77.441 21.1724 76.938 21.4155 76.368 21.6C75.8147 21.7676 75.2278 21.8515 74.6075 21.8515ZM75.3871 18.8838C76.0746 18.8838 76.6614 18.7161 77.1476 18.3808C77.6506 18.0454 78.0446 17.5844 78.3297 16.9975C78.6147 16.4107 78.7572 15.7316 78.7572 14.9604C78.7572 14.1723 78.6147 13.4849 78.3297 12.8981C78.0446 12.2945 77.6506 11.8334 77.1476 11.5148C76.6614 11.1795 76.0746 11.0118 75.3871 11.0118C74.7332 11.0118 74.1548 11.1795 73.6518 11.5148C73.1488 11.8334 72.7548 12.2945 72.4697 12.8981C72.2015 13.4849 72.0673 14.1723 72.0673 14.9604C72.0673 15.7316 72.2015 16.4107 72.4697 16.9975C72.7548 17.5844 73.1488 18.0454 73.6518 18.3808C74.1548 18.7161 74.7332 18.8838 75.3871 18.8838Z" fill="#333333"/>
<path d="M93.9594 21.8515C92.6684 21.8515 91.4696 21.6251 90.363 21.1724C89.2731 20.7197 88.3258 20.091 87.521 19.2862C86.733 18.4646 86.1126 17.5005 85.6599 16.3939C85.224 15.2873 85.006 14.0717 85.006 12.7472C85.006 11.4394 85.224 10.2322 85.6599 9.12558C86.1126 8.01898 86.733 7.05489 87.521 6.23333C88.3258 5.41176 89.2731 4.77463 90.363 4.32192C91.4696 3.86922 92.6684 3.64287 93.9594 3.64287C95.2505 3.64287 96.4325 3.86922 97.5056 4.32192C98.5954 4.77463 99.5427 5.41176 100.348 6.23333C101.152 7.05489 101.773 8.01898 102.209 9.12558C102.661 10.2322 102.888 11.4478 102.888 12.7723C102.888 14.0634 102.661 15.2622 102.209 16.3688C101.773 17.4754 101.152 18.4395 100.348 19.261C99.5427 20.0826 98.5954 20.7197 97.5056 21.1724C96.4325 21.6251 95.2505 21.8515 93.9594 21.8515ZM93.9594 18.2802C94.6972 18.2802 95.3762 18.146 95.9966 17.8778C96.6169 17.5927 97.1535 17.2071 97.6062 16.7209C98.0756 16.2179 98.4361 15.631 98.6876 14.9604C98.9391 14.2897 99.0649 13.5604 99.0649 12.7723C99.0649 11.9675 98.9391 11.2298 98.6876 10.5591C98.4361 9.88846 98.0756 9.30163 97.6062 8.79863C97.1535 8.29563 96.6169 7.90999 95.9966 7.64173C95.3762 7.35669 94.6972 7.21418 93.9594 7.21418C93.2217 7.21418 92.5343 7.35669 91.8971 7.64173C91.2768 7.90999 90.7318 8.29563 90.2624 8.79863C89.8097 9.28486 89.4576 9.87169 89.2061 10.5591C88.9546 11.2298 88.8288 11.9675 88.8288 12.7723C88.8288 13.8286 89.0468 14.7759 89.4827 15.6143C89.9354 16.4358 90.5474 17.0897 91.3187 17.576C92.0899 18.0454 92.9702 18.2802 93.9594 18.2802ZM112.012 21.8515C110.368 21.8515 108.96 21.5581 107.786 20.9712C106.63 20.3676 105.632 19.4958 104.794 18.3556L107.158 15.6897C107.979 16.8299 108.792 17.6095 109.597 18.0287C110.419 18.4311 111.299 18.6323 112.238 18.6323C112.758 18.6323 113.219 18.5568 113.621 18.4059C114.04 18.255 114.367 18.0454 114.602 17.7772C114.854 17.5089 114.979 17.1987 114.979 16.8466C114.979 16.5784 114.921 16.3352 114.803 16.1173C114.686 15.8825 114.518 15.6813 114.3 15.5137C114.082 15.3292 113.822 15.17 113.521 15.0358C113.219 14.8849 112.883 14.7592 112.515 14.6586C112.146 14.558 111.743 14.4658 111.307 14.3819C110.368 14.1807 109.547 13.9208 108.843 13.6023C108.139 13.2837 107.552 12.8981 107.082 12.4454C106.613 11.9927 106.261 11.4729 106.026 10.8861C105.808 10.2825 105.699 9.61181 105.699 8.87407C105.699 7.83454 105.992 6.92914 106.579 6.15788C107.166 5.36984 107.946 4.75786 108.918 4.32192C109.891 3.86922 110.964 3.64287 112.137 3.64287C113.73 3.64287 115.038 3.91114 116.061 4.44767C117.1 4.98421 117.93 5.73871 118.551 6.71118L116.136 9.07528C115.616 8.35431 115.021 7.80939 114.351 7.44053C113.68 7.07166 112.959 6.88722 112.188 6.88722C111.651 6.88722 111.173 6.96267 110.754 7.11357C110.352 7.24771 110.042 7.45729 109.824 7.74233C109.606 8.01059 109.497 8.32916 109.497 8.69803C109.497 8.99983 109.572 9.26809 109.723 9.50282C109.874 9.73756 110.083 9.94714 110.352 10.1316C110.637 10.2992 110.98 10.4501 111.383 10.5843C111.785 10.7184 112.23 10.8274 112.716 10.9112C113.638 11.0957 114.468 11.3472 115.206 11.6657C115.943 11.9675 116.572 12.3364 117.092 12.7723C117.628 13.2083 118.039 13.7113 118.324 14.2813C118.609 14.8514 118.752 15.4885 118.752 16.1927C118.752 17.3832 118.467 18.3975 117.897 19.2359C117.327 20.0742 116.539 20.7197 115.533 21.1724C114.527 21.6251 113.353 21.8515 112.012 21.8515Z" fill="url(#paint0_radial_100_3512)"/>
</g>
<defs>
<radialGradient id="paint0_radial_100_3512" cx="0" cy="0" r="1" gradientUnits="userSpaceOnUse" gradientTransform="translate(103.8 4.79998) rotate(90) scale(19.8 20.682)">
<stop stop-color="#00DDFF"/>
<stop offset="1" stop-color="#B50098"/>
</radialGradient>
<clipPath id="clip0_100_3512">
<rect width="120" height="24" fill="white" transform="translate(0 0.599976)"/>
</clipPath>
</defs>
</svg>
