<svg width="16" height="16" viewBox="0 0 16 16" fill="none" xmlns="http://www.w3.org/2000/svg">
<g clip-path="url(#clip0_91_290)">
<path d="M3.5 11.5H2C1.17157 11.5 0.5 10.8284 0.5 10V6C0.5 5.17157 1.17157 4.5 2 4.5H3.5M3.5 11.5V4.5M3.5 11.5L6.68934 14.6893C6.88825 14.8883 7.15804 15 7.43934 15V15C8.02513 15 8.5 14.5251 8.5 13.9393V2.06066C8.5 1.47487 8.02513 1 7.43934 1V1C7.15804 1 6.88825 1.11175 6.68934 1.31066L3.5 4.5" stroke="white" stroke-linecap="round" stroke-linejoin="round"/>
<path fill-rule="evenodd" clip-rule="evenodd" d="M12 13.9834C12 14.3879 12.4358 14.6351 12.7607 14.394C14.7261 12.9358 16 10.5973 16 7.96114C16 5.325 14.7261 2.98652 12.7607 1.52824C12.4358 1.2872 12 1.53441 12 1.93892V1.93892C12 2.11055 12.0847 2.2703 12.2215 2.37394C13.9094 3.65258 15 5.6793 15 7.96114C15 10.243 13.9094 12.2697 12.2215 13.5483C12.0847 13.652 12 13.8117 12 13.9834V13.9834Z" fill="white"/>
<path fill-rule="evenodd" clip-rule="evenodd" d="M11 12.2681C11 12.6809 11.444 12.931 11.7652 12.6718C13.1282 11.5719 14 9.88776 14 8C14 6.11224 13.1282 4.42811 11.7652 3.32824C11.444 3.06901 11 3.31912 11 3.7319V3.7319C11 3.90046 11.0805 4.0578 11.2097 4.16607C12.3041 5.08326 13 6.46037 13 8C13 9.53964 12.3041 10.9167 11.2097 11.8339C11.0805 11.9422 11 12.0995 11 12.2681V12.2681Z" fill="white"/>
<path fill-rule="evenodd" clip-rule="evenodd" d="M10 10.488C10 10.9219 10.4658 11.1794 10.778 10.878C11.5314 10.1506 12 9.13 12 7.99999C12 6.86999 11.5314 5.84943 10.778 5.12201C10.4658 4.82059 10 5.07805 10 5.51201V5.51201C10 5.67229 10.0704 5.82303 10.1805 5.9395C10.6885 6.47693 11 7.20208 11 7.99999C11 8.79791 10.6885 9.52306 10.1805 10.0605C10.0704 10.177 10 10.3277 10 10.488V10.488Z" fill="white"/>
</g>
<defs>
<clipPath id="clip0_91_290">
<rect width="16" height="16" fill="white"/>
</clipPath>
</defs>
</svg>
