<svg width="20" height="16" viewBox="0 0 20 16" fill="none" xmlns="http://www.w3.org/2000/svg">
<path fill-rule="evenodd" clip-rule="evenodd" d="M6.77292 3.63156C6.85967 3.31349 6.62023 3 6.29054 3H4C1.79086 3 0 4.79086 0 7V9C0 11.2091 1.79086 13 4 13H6.3339C6.42559 13 6.499 12.9255 6.50913 12.8344V12.8344V12.8344C6.55858 12.3893 6.21017 12 5.76234 12H4C2.34315 12 1 10.6569 1 9V7C1 5.34315 2.34315 4 4 4H6.29054C6.51602 4 6.7136 3.84909 6.77292 3.63156V3.63156ZM8.28411 12C8.18559 12 8.10283 12.0741 8.09195 12.172V12.172C8.06934 12.3756 8.33727 12.4699 8.44723 12.2971V12.2971C8.52913 12.1684 8.43668 12 8.28411 12V12ZM11.2806 3.65811C11.2125 3.86228 11.0215 4 10.8062 4H8.88185C8.55216 4 8.31272 3.68651 8.39947 3.36844V3.36844C8.45879 3.15091 8.65637 3 8.88185 3H9.91881H10.8062C11.1475 3 11.3885 3.33435 11.2806 3.65811V3.65811ZM10.2669 12.2316C10.3587 12.0873 10.5178 12 10.6888 12H14C15.6569 12 17 10.6569 17 9V7C17 5.34315 15.6569 4 14 4H13.3018C13.0293 4 12.8368 3.73294 12.923 3.47434V3.47434V3.47434C13.0073 3.22148 13.216 3 13.4826 3H14C16.2091 3 18 4.79086 18 7V9C18 11.2091 16.2091 13 14 13H10.6888C10.2942 13 10.0551 12.5644 10.2669 12.2316V12.2316ZM20 6.5C20 6.22386 19.7761 6 19.5 6C19.2239 6 19 6.22386 19 6.5V9.5C19 9.77614 19.2239 10 19.5 10C19.7761 10 20 9.77614 20 9.5V6.5Z" fill="white"/>
<path d="M11.4999 3H8.49994L6.99994 8.5H8.49994L7.99994 13L11.4999 7.5H9.99994L11.4999 3Z" fill="white" stroke="white" stroke-linecap="round" stroke-linejoin="round"/>
<path d="M2 7C2 5.89543 2.89543 5 4 5H14C15.1046 5 16 5.89543 16 7V9C16 10.1046 15.1046 11 14 11H4C2.89543 11 2 10.1046 2 9V7Z" fill="white" fill-opacity="0.5"/>
</svg>
