<svg width="16" height="16" viewBox="0 0 16 16" fill="none" xmlns="http://www.w3.org/2000/svg">
<path fill-rule="evenodd" clip-rule="evenodd" d="M3 3H3.42619C3.75752 3 3.99722 3.31642 3.90751 3.63537C3.84686 3.85101 3.65019 4 3.42619 4H3C1.89543 4 1 4.89543 1 6V10C1 11.1046 1.89543 12 3 12H6.50001C6.77615 12 7.00001 12.2239 7.00001 12.5C7.00001 12.7761 6.77615 13 6.50001 13H3C1.34315 13 0 11.6569 0 10V6C0 4.34315 1.34315 3 3 3ZM9.65738 12.235C9.44924 12.568 9.68866 13 10.0814 13H11C12.6569 13 14 11.6569 14 10V6C14 4.34315 12.6569 3 11 3H8.69677C8.51907 3 8.37988 3.14765 8.32369 3.31623C8.21156 3.65262 8.46194 4 8.81653 4H11C12.1046 4 13 4.89543 13 6V10C13 11.1046 12.1046 12 11 12H10.0814C9.90899 12 9.74875 12.0888 9.65738 12.235ZM8.22289 12C8.39794 12 8.50466 12.1926 8.41188 12.341C8.29321 12.5309 8.00001 12.4468 8.00001 12.2229C8.00001 12.0998 8.09979 12 8.22289 12ZM6.6813 3C7.02257 3 7.26356 3.33435 7.15564 3.65811C7.08758 3.86228 6.89651 4 6.6813 4H5.50378C5.17245 4 4.93275 3.68358 5.02246 3.36463C5.08311 3.14899 5.27978 3 5.50378 3H6.32092H6.6813ZM15.5 6C15.7761 6 16 6.22386 16 6.5V9.5C16 9.77614 15.7761 10 15.5 10C15.2239 10 15 9.77614 15 9.5V6.5C15 6.22386 15.2239 6 15.5 6Z" fill="white"/>
<rect x="2" y="5" width="7" height="6" rx="1" fill="white" fill-opacity="0.5" class="charging"/>
<path d="M7.375 3H5.125L4 7.00001L4.875 7L4.75 10.125L7.375 6.00001H6.375L7.375 3Z" fill="white" stroke="white" stroke-width="0.75" stroke-linecap="round" stroke-linejoin="round"/>
<path d="M9.5 9V6L7 10H8V13L10.5 9H9.5Z" fill="white" stroke="white" stroke-width="0.75" stroke-linecap="round" stroke-linejoin="round"/>
<style>
  .charging {
    animation: charging 1s cubic-bezier(0.2, 0.9, 0.1, 1) infinite;
  }
  @keyframes charging {
    from { width: 0; }
  }
</style>
</svg>
