<svg width="16" height="16" viewBox="0 0 16 16" fill="none" xmlns="http://www.w3.org/2000/svg">
<path d="M4 4L8 8L11.2929 11.2929C11.6834 11.6834 11.6834 12.3166 11.2929 12.7071L9.70711 14.2929C9.07714 14.9229 8 14.4767 8 13.5858V2.41421C8 1.52331 9.07714 1.07714 9.70711 1.70711L11.2929 3.29289C11.6834 3.68342 11.6834 4.31658 11.2929 4.70711L4 12" stroke="white" stroke-linecap="round" stroke-linejoin="round"/>
<path d="M1.5 5.5L2.93934 6.93934C3.52513 7.52513 3.52513 8.47487 2.93934 9.06066L1.5 10.5M14.5 5.5L13.0607 6.93934C12.4749 7.52513 12.4749 8.47487 13.0607 9.06066L14.5 10.5" stroke="white" stroke-opacity="0.5" stroke-linecap="round" stroke-linejoin="round"/>
</svg>
