<svg width="16" height="16" viewBox="0 0 16 16" fill="none" xmlns="http://www.w3.org/2000/svg">
<g clip-path="url(#clip0_91_888)">
<path d="M8 1.5V0.5M1.5 8H0.5M14.5 8H15.5M8 14.5V15.5M8 12.5V12.5C10.4853 12.5 12.5 10.4853 12.5 8V8C12.5 5.51472 10.4853 3.5 8 3.5V3.5C5.51472 3.5 3.5 5.51472 3.5 8V8C3.5 10.4853 5.51472 12.5 8 12.5Z" stroke="white" stroke-linecap="round" stroke-linejoin="round"/>
<path d="M3.5 3.5L2.5 2.5M12.5 3.5L13.5 2.5M3.5 12.5L2.5 13.5M12.5 12.5L13.5 13.5" stroke="white" stroke-linecap="round" stroke-linejoin="round"/>
</g>
<defs>
<clipPath id="clip0_91_888">
<rect width="16" height="16" fill="white"/>
</clipPath>
</defs>
</svg>
