<svg width="16" height="16" viewBox="0 0 16 16" fill="none" xmlns="http://www.w3.org/2000/svg">
<path d="M3.69722 3.5H2C1.17157 3.5 0.5 4.17157 0.5 5V12C0.5 12.8284 1.17157 13.5 2 13.5H14C14.8284 13.5 15.5 12.8284 15.5 12V5C15.5 4.17157 14.8284 3.5 14 3.5H12.3028C11.8012 3.5 11.3329 3.24935 11.0547 2.83205L10.9453 2.66795C10.6671 2.25065 10.1988 2 9.69722 2H6.30278C5.80125 2 5.3329 2.25065 5.0547 2.66795L4.9453 2.83205C4.6671 3.24935 4.19875 3.5 3.69722 3.5Z" stroke="white" stroke-linecap="round" stroke-linejoin="round"/>
<path d="M5 8.5C5 10.1569 6.34315 11.5 8 11.5C9.65685 11.5 11 10.1569 11 8.5C11 6.84315 9.65685 5.5 8 5.5C6.34315 5.5 5 6.84315 5 8.5Z" stroke="white" stroke-linecap="round" stroke-linejoin="round"/>
<circle cx="13" cy="6" r="1" fill="white" fill-opacity="0.5"/>
</svg>
