<svg width="16" height="16" viewBox="0 0 16 16" fill="none" xmlns="http://www.w3.org/2000/svg">
<mask id="mask0_2254_6" style="mask-type:alpha" maskUnits="userSpaceOnUse" x="0" y="2" width="16" height="13">
<path fill-rule="evenodd" clip-rule="evenodd" d="M0 4C0 2.89543 0.895431 2 2 2H14C15.1046 2 16 2.89543 16 4V4.09612C15.8917 4.0602 15.7765 4.03635 15.6553 4.02651C15.439 4.00894 15.2204 4 15 4C15 3.44772 14.5523 3 14 3H2C1.44772 3 1 3.44772 1 4V11C1 11.5523 1.44772 12 2 12H6.5H7C7 12.2204 7.00894 12.439 7.02651 12.6553C7.09167 13.4577 7.77171 14 8.49922 14C8.90124 14 9.24453 13.8506 9.50229 13.6162C9.64746 13.7474 9.81762 13.8478 10 13.913V14H10.498H11.5C11.7761 14 12 14.2239 12 14.5C12 14.7761 11.7761 15 11.5 15H9.5H6.5H4.5C4.22386 15 4 14.7761 4 14.5C4 14.2239 4.22386 14 4.5 14H6V13H2C0.895431 13 0 12.1046 0 11V4ZM15.9119 11.5889C15.7177 12.2199 15.2199 12.7177 14.5889 12.9119C14.2417 12.7551 14 12.4058 14 12C14.5523 12 15 11.5523 15 11C15.4058 11 15.7551 11.2417 15.9119 11.5889ZM16 7.49798C16 7.26643 15.8371 7.06433 15.6072 7.0365C15.4391 7.01614 15.2684 7.00414 15.0955 7.0009L15.0885 7.00076L15.0664 7.00043C15.0443 7.00014 15.0222 7 15 7V8L15.031 8.00012L15.0619 8.00047L15.0769 8.00073C15.1796 8.00266 15.2813 8.00847 15.382 8.018L15.3905 8.01874C15.4052 8.01993 15.4199 8.02054 15.4346 8.02061C15.4526 8.02069 15.4706 8.01994 15.4884 8.01839C15.763 7.99448 16 7.78015 16 7.49798ZM15 9L15.0364 9.00022L15.0581 9.00055C15.277 9.00471 15.4902 9.03232 15.6953 9.08099C15.8806 9.12496 16 9.29804 16 9.48849C16 9.76579 15.7499 9.96789 15.474 10.0137C15.439 10.0195 15.4037 10.0228 15.3684 10.0234C15.3382 10.024 15.308 10.0225 15.2782 10.0191L15.2673 10.0177C15.1896 10.0073 15.1104 10.0014 15.0301 10.0002L15 10V9ZM12 12L12.0003 12.0401L12.0004 12.0506L12.0006 12.0586C12.0047 12.2774 12.0324 12.4904 12.081 12.6953C12.125 12.8806 12.298 13 12.4885 13C12.7658 13 12.9679 12.7499 13.0137 12.474C13.0195 12.439 13.0228 12.4037 13.0234 12.3684C13.024 12.3382 13.0225 12.308 13.0191 12.2782L13.0177 12.2673L13.0161 12.2547C13.0071 12.1838 13.0017 12.1117 13.0004 12.0387C13.0001 12.0258 13 12.0129 13 12H12ZM11 12H10C10 12.0201 10.0001 12.0401 10.0004 12.0601L10.0004 12.0668L10.0009 12.094C10.0041 12.2674 10.0161 12.4386 10.0365 12.6072C10.0643 12.8371 10.2664 13 10.498 13C10.7802 13 10.9945 12.763 11.0184 12.4884C11.0199 12.4706 11.0207 12.4526 11.0206 12.4346C11.0205 12.4199 11.0199 12.4052 11.0187 12.3905L11.018 12.382C11.0085 12.2814 11.0027 12.1797 11.0007 12.077L11.0004 12.0595L11.0004 12.0538C11.0001 12.0359 11 12.018 11 12ZM15 6C15.0208 6 15.0416 6.00011 15.0623 6.00032L15.0934 6.00071L15.1153 6.00109C15.2177 6.00302 15.3194 6.00751 15.4205 6.01451L15.427 6.01492C15.437 6.0155 15.447 6.0158 15.4569 6.01584C15.4693 6.01589 15.4816 6.01553 15.4939 6.01477C15.768 5.9977 16 5.77993 16 5.49922C16 5.25344 15.8194 5.04312 15.5744 5.02323C15.385 5.00784 15.1934 5 15 5V6ZM8 12C8 12.1934 8.00784 12.385 8.02323 12.5744C8.04312 12.8194 8.25344 13 8.49922 13C8.77993 13 8.9977 12.768 9.01477 12.4939C9.01553 12.4816 9.01589 12.4693 9.01584 12.4569C9.0158 12.447 9.0155 12.437 9.01492 12.427L9.01451 12.4205C9.00749 12.3192 9.00299 12.2171 9.00107 12.1144L9.00069 12.092L9.00053 12.0808C9.00018 12.0539 9 12.027 9 12H8Z" fill="white"/>
</mask>
<g mask="url(#mask0_2254_6)">
<path fill-rule="evenodd" clip-rule="evenodd" d="M0 4C0 2.89543 0.895431 2 2 2H14C15.1046 2 16 2.89543 16 4V4C16 4.04732 15.9536 4.0808 15.9078 4.06893C15.827 4.04799 15.7427 4.03361 15.6553 4.02651V4.02651C15.2942 3.99718 15.0137 3.67696 14.7925 3.39C14.6096 3.15281 14.3227 3 14 3H2C1.44772 3 1 3.44772 1 4V11C1 11.5523 1.44772 12 2 12H6.5V12C6.77614 12 6.99837 12.2241 7.01538 12.4997C7.0186 12.5517 7.02231 12.6036 7.02651 12.6553C7.09167 13.4577 7.77171 14 8.49922 14C8.77601 14 9.02495 13.9292 9.23731 13.8086C9.39921 13.7166 9.60594 13.716 9.7682 13.8073C9.83193 13.8431 9.89818 13.8743 9.96628 13.9005C9.98641 13.9082 10 13.9274 10 13.9489V13.9489C10 13.9771 10.0229 14 10.0511 14H10.498H11.5C11.7761 14 12 14.2239 12 14.5C12 14.7761 11.7761 15 11.5 15H9.5H6.5H4.5C4.22386 15 4 14.7761 4 14.5C4 14.2239 4.22386 14 4.5 14H5.5C5.77614 14 6 13.7761 6 13.5V13.5C6 13.2239 5.77614 13 5.5 13H2C0.895431 13 0 12.1046 0 11V4ZM15.7397 11.3271C15.8762 11.477 15.8854 11.6992 15.7959 11.8811C15.6008 12.278 15.278 12.6008 14.8811 12.7959C14.6992 12.8854 14.477 12.8762 14.3271 12.7397C14.3154 12.7291 14.304 12.7182 14.2929 12.7071C13.9862 12.4003 14.4004 12.0138 14.7071 11.7071V11.7071C15.0138 11.4004 15.4003 10.9862 15.7071 11.2929C15.7182 11.304 15.7291 11.3154 15.7397 11.3271ZM16 7.49798C16 7.26643 15.8371 7.06433 15.6072 7.0365C15.4391 7.01614 15.2684 7.00414 15.0955 7.0009L15.0885 7.00076L15.0664 7.00043V7.00043C15.0297 6.99995 15 7.02974 15 7.06643V7.96904C15 7.98616 15.0138 8.00005 15.031 8.00012V8.00012L15.0619 8.00047L15.0769 8.00073C15.1796 8.00266 15.2813 8.00847 15.382 8.018L15.3905 8.01874C15.4052 8.01993 15.4199 8.02054 15.4346 8.02061C15.4526 8.02069 15.4706 8.01994 15.4884 8.01839C15.763 7.99448 16 7.78015 16 7.49798ZM15 9.03643C15 9.01634 15.0163 9.0001 15.0364 9.00022V9.00022L15.0581 9.00055C15.277 9.00471 15.4902 9.03232 15.6953 9.08099C15.8806 9.12496 16 9.29804 16 9.48849C16 9.76579 15.7499 9.96789 15.474 10.0137C15.439 10.0195 15.4037 10.0228 15.3684 10.0234C15.3382 10.024 15.308 10.0225 15.2782 10.0191L15.2673 10.0177C15.1896 10.0073 15.1104 10.0014 15.0301 10.0002V10.0002C15.0135 10.0001 15 9.98655 15 9.96987V9.03643ZM12.0401 12C12.018 12 12.0001 12.018 12.0003 12.0401V12.0401L12.0004 12.0506L12.0006 12.0586C12.0047 12.2774 12.0324 12.4904 12.081 12.6953C12.125 12.8806 12.298 13 12.4885 13C12.7658 13 12.9679 12.7499 13.0137 12.474C13.0195 12.439 13.0228 12.4037 13.0234 12.3684C13.024 12.3382 13.0225 12.308 13.0191 12.2782L13.0177 12.2673L13.0161 12.2547C13.0071 12.1838 13.0017 12.1117 13.0004 12.0387V12.0387C13 12.0173 12.9827 12 12.9613 12H12.0401ZM11.0004 12.0538C11 12.0241 10.9759 12 10.9462 12H10.0601C10.0269 12 9.99997 12.0269 10.0004 12.0601V12.0601L10.0004 12.0668L10.0009 12.094C10.0041 12.2674 10.0161 12.4386 10.0365 12.6072C10.0643 12.8371 10.2664 13 10.498 13C10.7802 13 10.9945 12.763 11.0184 12.4884C11.0199 12.4706 11.0207 12.4526 11.0206 12.4346C11.0205 12.4199 11.0199 12.4052 11.0187 12.3905L11.018 12.382C11.0085 12.2814 11.0027 12.1797 11.0007 12.077L11.0004 12.0595L11.0004 12.0538V12.0538ZM15 5.9377C15 5.97211 15.0279 5.99997 15.0623 6.00032V6.00032L15.0934 6.00071L15.1153 6.00109C15.2177 6.00302 15.3194 6.00751 15.4205 6.01451L15.427 6.01492C15.437 6.0155 15.447 6.0158 15.4569 6.01584C15.4693 6.01589 15.4816 6.01553 15.4939 6.01477C15.768 5.9977 16 5.77993 16 5.49922C16 5.25344 15.8194 5.04312 15.5744 5.02323C15.5495 5.02121 15.5246 5.01931 15.4996 5.01755C15.2241 4.99813 15 5.22386 15 5.5V5.9377ZM8.5 12C8.22386 12 7.99813 12.2241 8.01755 12.4996C8.01931 12.5246 8.02121 12.5495 8.02323 12.5744C8.04312 12.8194 8.25344 13 8.49922 13C8.77993 13 8.9977 12.768 9.01477 12.4939C9.01553 12.4816 9.01589 12.4693 9.01584 12.4569C9.0158 12.447 9.0155 12.437 9.01492 12.427L9.01451 12.4205C9.00749 12.3192 9.00299 12.2171 9.00107 12.1144L9.00069 12.092L9.00053 12.0808V12.0808C8.99994 12.0362 8.96383 12 8.91921 12H8.5Z" fill="white"/>
<path d="M9.5 12.5H14C14.8284 12.5 15.5 11.8284 15.5 11V4C15.5 3.17157 14.8284 2.5 14 2.5H2C1.17157 2.5 0.5 3.17157 0.5 4V11C0.5 11.8284 1.17157 12.5 2 12.5H6.5M9.5 12.5V14.5M9.5 12.5H6.5M9.5 14.5H6.5M9.5 14.5H11.5M4.5 14.5H6.5M6.5 14.5V12.5" stroke="white" stroke-linecap="round" stroke-linejoin="round"/>
</g>
<path fill-rule="evenodd" clip-rule="evenodd" d="M8.02323 12.5744C8.04312 12.8194 8.25344 13 8.49922 13V13C8.80468 13 9.03561 12.7252 9.01451 12.4205C9.00489 12.2816 9 12.1414 9 12C9 8.68629 11.6863 6 15 6C15.1414 6 15.2816 6.00489 15.4205 6.01451C15.7252 6.03561 16 5.80468 16 5.49922V5.49922C16 5.25344 15.8194 5.04312 15.5744 5.02323C15.385 5.00784 15.1934 5 15 5C11.134 5 8 8.13401 8 12C8 12.1934 8.00784 12.385 8.02323 12.5744ZM10.0365 12.6072C10.0643 12.8371 10.2664 13 10.498 13V13C10.8161 13 11.048 12.6987 11.018 12.382C11.0061 12.2563 11 12.1288 11 12C11 9.79086 12.7909 8 15 8C15.1288 8 15.2563 8.00609 15.382 8.018C15.6987 8.04801 16 7.81611 16 7.49798V7.49798C16 7.26643 15.8371 7.06433 15.6072 7.0365C15.4082 7.0124 15.2055 7 15 7C12.2386 7 10 9.23858 10 12C10 12.2055 10.0124 12.4082 10.0365 12.6072ZM16 9.48849C16 9.29804 15.8806 9.12496 15.6953 9.08099C15.4722 9.02803 15.2394 9 15 9C13.3431 9 12 10.3431 12 12C12 12.2394 12.028 12.4722 12.081 12.6953C12.125 12.8806 12.298 13 12.4885 13V13C12.8346 13 13.0635 12.6104 13.0177 12.2673C13.006 12.1799 13 12.0906 13 12C13 10.8954 13.8954 10 15 10C15.0906 10 15.1799 10.006 15.2673 10.0177C15.6104 10.0635 16 9.83458 16 9.48849V9.48849ZM16 12C16 11.4477 15.5523 11 15 11C14.4477 11 14 11.4477 14 12C14 12.5523 14.4477 13 15 13C15.5523 13 16 12.5523 16 12Z" fill="white"/>
</svg>
