<svg width="16" height="16" viewBox="0 0 16 16" fill="none" xmlns="http://www.w3.org/2000/svg">
<path d="M8 0.5V15.5M1.5 8V8C1.5 11.5899 4.41015 14.5 8 14.5V14.5C11.5899 14.5 14.5 11.5899 14.5 8V8C14.5 4.41015 11.5899 1.5 8 1.5V1.5C4.41015 1.5 1.5 4.41015 1.5 8Z" stroke="white" stroke-linecap="round" stroke-linejoin="round"/>
<path d="M8 12.5822V3.41778C8 3.41526 8.00205 3.41321 8.00457 3.41321C10.5298 3.41321 12.5769 5.47474 12.5769 7.99999C12.5769 10.5252 10.5298 12.5868 8.00457 12.5868C8.00205 12.5868 8 12.5847 8 12.5822Z" stroke="white" stroke-opacity="0.5" stroke-linecap="round" stroke-linejoin="round"/>
</svg>
