<svg width="16" height="16" viewBox="0 0 16 16" fill="none" xmlns="http://www.w3.org/2000/svg">
<path d="M13.5 6.5H12.5M9 7.5V12.5C9 13.0523 9.44772 13.5 10 13.5V13.5C10.5523 13.5 11 13.0523 11 12.5V9C11 9.5 12.5 9.5 13 9.5C13 9.5 13 9.5 13 9.5C13 9.5 14.0793 9.5 15.0173 8.88962C15.3507 8.67262 15.5 8.2765 15.5 7.87868V6.5C15.5 5.5 14 4.5 12.5 4.5C11 4.5 9 5.5 9 7.5Z" stroke="white" stroke-linecap="round" stroke-linejoin="round"/>
<path d="M2.5 4.5H3.5M7 5.5V10.5C7 11.0523 6.55228 11.5 6 11.5V11.5C5.44772 11.5 5 11.0523 5 10.5V7C5 7.5 3 7.5 2.5 7.5C2.5 7.5 2.5 7.5 2.5 7.5C2.5 7.5 1.7918 7.5 0.971378 6.90401C0.649515 6.6702 0.5 6.2765 0.5 5.87868V4.5C0.5 3.5 2 2.5 3.5 2.5C5 2.5 7 3.5 7 5.5Z" stroke="white" stroke-linecap="round" stroke-linejoin="round"/>
</svg>
