<svg width="16" height="16" viewBox="0 0 16 16" fill="none" xmlns="http://www.w3.org/2000/svg">
<g clip-path="url(#clip0_91_933)">
<path d="M15.5 15.5L13 13M13 13L15.5 10.5M13 13L10.5 10.5M13 13L10.5 15.5" stroke="white" stroke-linecap="round" stroke-linejoin="round"/>
<path fill-rule="evenodd" clip-rule="evenodd" d="M8.00002 4C5.64215 4 3.24896 4.94116 0.812366 6.89043C0.596735 7.06294 0.282089 7.02798 0.109584 6.81235C-0.0629208 6.59672 -0.0279601 6.28207 0.187671 6.10957C2.75107 4.05884 5.35789 3 8.00002 3C10.6421 3 13.249 4.05884 15.8124 6.10957C16.028 6.28207 16.063 6.59672 15.8905 6.81235C15.7179 7.02798 15.4033 7.06294 15.1877 6.89043C12.7511 4.94116 10.3579 4 8.00002 4ZM5.00002 8C5.00002 6.34315 6.34316 5 8.00002 5C9.65687 5 11 6.34315 11 8V8.57575C11 8.82457 10.7488 9 10.5 9C10.2512 9 10 8.82457 10 8.57575V8C10 6.89543 9.10459 6 8.00002 6C6.89545 6 6.00002 6.89543 6.00002 8V10C6.00002 11.1046 6.89545 12 8.00002 12C8.47898 12 8.91863 11.8316 9.26299 11.5509C9.31503 11.5084 9.39188 11.5132 9.43935 11.5607C9.77914 11.9004 9.77327 12.4674 9.3438 12.6829C8.93956 12.8858 8.48312 13 8.00002 13C6.34316 13 5.00002 11.6569 5.00002 10V8Z" fill="white" fill-opacity="0.5"/>
</g>
<defs>
<clipPath id="clip0_91_933">
<rect width="16" height="16" fill="white"/>
</clipPath>
</defs>
</svg>
