<svg width="16" height="16" viewBox="0 0 16 16" fill="none" xmlns="http://www.w3.org/2000/svg">
<path d="M3.5 12.5H12.5M9.5 9L9.41459 9.17082C9.1605 9.679 8.64111 10 8.07295 10H7.92705C7.35889 10 6.8395 9.679 6.58541 9.17082L6.5 9M12.5 5.5V4.5C12.5 3.94772 12.0523 3.5 11.5 3.5C10.9477 3.5 10.5 3.94772 10.5 4.5V5.5C10.5 6.05228 10.9477 6.5 11.5 6.5C12.0523 6.5 12.5 6.05228 12.5 5.5ZM3.5 5.5V4.5C3.5 3.94772 3.94772 3.5 4.5 3.5V3.5C5.05228 3.5 5.5 3.94772 5.5 4.5V5.5C5.5 6.05228 5.05228 6.5 4.5 6.5V6.5C3.94772 6.5 3.5 6.05228 3.5 5.5Z" stroke="white" stroke-linecap="round" stroke-linejoin="round"/>
</svg>
