<svg width="16" height="16" viewBox="0 0 16 16" fill="none" xmlns="http://www.w3.org/2000/svg">
<g clip-path="url(#clip0_91_1063)">
<path d="M12.5 4.5H8C7.17157 4.5 6.5 5.17157 6.5 6V8.5C6.5 10.1569 7.84315 11.5 9.5 11.5H12.5C14.1569 11.5 15.5 10.1569 15.5 8.5V7.5C15.5 5.84315 14.1569 4.5 12.5 4.5Z" stroke="white" stroke-linecap="round" stroke-linejoin="round"/>
<path d="M8.5 7H13.5M8.5 9H12" stroke="white" stroke-opacity="0.5" stroke-linecap="round" stroke-linejoin="round"/>
<path fill-rule="evenodd" clip-rule="evenodd" d="M5 0C2.79086 0 1 1.79086 1 4C1 6.04015 2.52736 7.72357 4.50099 7.96918C4.77502 8.00328 5 7.77614 5 7.5C5 7.22386 4.77446 7.00437 4.50209 6.95887C3.08221 6.7217 2 5.48723 2 4C2 2.34315 3.34315 1 5 1C6.2482 1 7.31836 1.7623 7.77032 2.84674C7.80887 2.93924 7.89979 3 8 3C8.44272 3 8.76631 2.57853 8.56507 2.1842C7.90342 0.887752 6.55538 0 5 0ZM4.5 9H4.62884C4.85575 9 5.04453 9.17532 5.08955 9.39771C5.15051 9.6988 4.93382 10 4.62663 10H4.5C2.567 10 1 11.567 1 13.5V15.5C1 15.7761 0.776142 16 0.5 16C0.223858 16 0 15.7761 0 15.5V13.5C0 11.0147 2.01472 9 4.5 9ZM9 13.5C9 13.2315 9.22412 12.9996 9.49266 13C9.4951 13 9.49755 13 9.5 13C9.76898 13 9.99825 13.2026 9.99991 13.4715C9.99997 13.481 10 13.4905 10 13.5V15.5C10 15.7761 9.77614 16 9.5 16C9.22386 16 9 15.7761 9 15.5V13.5Z" fill="white"/>
</g>
<defs>
<clipPath id="clip0_91_1063">
<rect width="16" height="16" fill="white"/>
</clipPath>
</defs>
</svg>
