<svg width="16" height="16" viewBox="0 0 16 16" fill="none" xmlns="http://www.w3.org/2000/svg">
<path d="M3.5 13V4C3.5 3.17157 2.82843 2.5 2 2.5C1.17157 2.5 0.5 3.17157 0.5 4V13C0.5 13.8284 1.17157 14.5 2 14.5C2.82843 14.5 3.5 13.8284 3.5 13Z" stroke="white" stroke-linecap="round" stroke-linejoin="round"/>
<path d="M5.5 3V13C5.5 13.8284 6.17157 14.5 7 14.5C7.82843 14.5 8.5 13.8284 8.5 13V3C8.5 2.17157 7.82843 1.5 7 1.5C6.17157 1.5 5.5 2.17157 5.5 3Z" stroke="white" stroke-linecap="round" stroke-linejoin="round"/>
<path d="M12.0674 4.23877L12.0281 4.24532C11.1922 4.38463 10.6376 5.18816 10.8038 6.01908L12.2152 13.0758C12.3739 13.8697 13.134 14.3943 13.9326 14.2612L13.9719 14.2547C14.8078 14.1154 15.3624 13.3118 15.1962 12.4809L13.7848 5.42419C13.6261 4.63031 12.866 4.10567 12.0674 4.23877Z" stroke="white" stroke-linecap="round" stroke-linejoin="round"/>
</svg>
