<svg width="16" height="16" viewBox="0 0 16 16" fill="none" xmlns="http://www.w3.org/2000/svg">
<path d="M13.5 14V8C13.5 7.17157 12.8284 6.5 12 6.5H9C8.17157 6.5 7.5 7.17157 7.5 8V14C7.5 14.8284 8.17157 15.5 9 15.5H12C12.8284 15.5 13.5 14.8284 13.5 14Z" stroke="white" stroke-linecap="round" stroke-linejoin="round"/>
<path fill-rule="evenodd" clip-rule="evenodd" d="M5.57774 8C5.81095 8 5.99731 7.80305 6.03027 7.57219C6.07146 7.28369 5.86502 7 5.5736 7H4.5C4.22386 7 4 7.22386 4 7.5C4 7.77614 4.22386 8 4.5 8L5.57774 8ZM4.5 12H5.5C5.77614 12 6 11.7761 6 11.5C6 11.2239 5.77614 11 5.5 11H4.5C4.22386 11 4 11.2239 4 11.5C4 11.7761 4.22386 12 4.5 12ZM5.5 10C5.77614 10 6 9.77614 6 9.5C6 9.22386 5.77614 9 5.5 9H4.5C4.22386 9 4 9.22386 4 9.5C4 9.77614 4.22386 10 4.5 10H5.5Z" fill="white" fill-opacity="0.5"/>
<mask id="mask0_91_851" style="mask-type:alpha" maskUnits="userSpaceOnUse" x="2" y="0" width="10" height="16">
<path d="M5 2.5H4C3.17157 2.5 2.5 3.17157 2.5 4V14C2.5 14.8284 3.17157 15.5 4 15.5H10C10.8284 15.5 11.5 14.8284 11.5 14V4C11.5 3.17157 10.8284 2.5 10 2.5H9M5 2.5L5.40532 0.878732C5.46096 0.656149 5.66095 0.5 5.89039 0.5H8.10961C8.33905 0.5 8.53904 0.656149 8.59468 0.878732L9 2.5M5 2.5H9M5 2.5V3C5 3.82843 5.67157 4.5 6.5 4.5H7.5C8.32843 4.5 9 3.82843 9 3V2.5" stroke="white" stroke-linecap="round" stroke-linejoin="round"/>
</mask>
<g mask="url(#mask0_91_851)">
<path fill-rule="evenodd" clip-rule="evenodd" d="M4.92025 0.757464C5.03154 0.312297 5.43152 0 5.89039 0H8.10961C8.56848 0 8.96846 0.312297 9.07975 0.757464L9.24254 1.40859C9.32943 1.75617 9.64173 2 10 2C11.1046 2 12 2.89543 12 4V4.5C12 4.77614 11.7761 5 11.5 5C11.2239 5 11 4.77614 11 4.5V4C11 3.44772 10.5523 3 10 3C9.72386 3 9.50641 3.22733 9.43829 3.49494C9.21803 4.36012 8.43374 5 7.5 5H6.5C5.56626 5 4.78197 4.36012 4.56171 3.49494C4.49359 3.22733 4.27614 3 4 3C3.44772 3 3 3.44772 3 4V14C3 14.5523 3.44772 15 4 15H5.88966C6.05809 15 6.2068 15.1097 6.27776 15.2624C6.42249 15.574 6.21839 16 5.87484 16H4C2.89543 16 2 15.1046 2 14V4C2 2.89543 2.89543 2 4 2C4.35827 2 4.67057 1.75617 4.75746 1.40859L4.92025 0.757464ZM7.5 3C8.05228 3 8.50484 3.5427 8.0404 3.84156C7.88456 3.94183 7.69908 4 7.5 4H6.5C6.30092 4 6.11544 3.94183 5.9596 3.84156C5.49516 3.5427 5.94772 3 6.5 3H7.5ZM8.2043 1.37873C8.28319 1.69431 8.04451 2 7.71922 2H6.28078C5.95549 2 5.71681 1.69431 5.79571 1.37873C5.85135 1.15615 6.05134 1 6.28078 1H7.71922C7.94866 1 8.14865 1.15615 8.2043 1.37873Z" fill="white"/>
</g>
</svg>
