<svg width="16" height="16" viewBox="0 0 16 16" fill="none" xmlns="http://www.w3.org/2000/svg">
<path d="M5 0.5H3C2.17157 0.5 1.5 1.17157 1.5 2L1.5 14C1.5 14.8284 2.17158 15.5 3 15.5H5C5.82843 15.5 6.5 14.8284 6.5 14V2C6.5 1.17157 5.82843 0.5 5 0.5Z" fill="white"/>
<path d="M13 0.5H11C10.1716 0.5 9.5 1.17157 9.5 2V14C9.5 14.8284 10.1716 15.5 11 15.5H13C13.8284 15.5 14.5 14.8284 14.5 14V2C14.5 1.17157 13.8284 0.5 13 0.5Z" fill="white"/>
<path d="M5 0.5H3C2.17157 0.5 1.5 1.17157 1.5 2L1.5 14C1.5 14.8284 2.17158 15.5 3 15.5H5C5.82843 15.5 6.5 14.8284 6.5 14V2C6.5 1.17157 5.82843 0.5 5 0.5Z" stroke="white" stroke-linecap="round" stroke-linejoin="round"/>
<path d="M13 0.5H11C10.1716 0.5 9.5 1.17157 9.5 2V14C9.5 14.8284 10.1716 15.5 11 15.5H13C13.8284 15.5 14.5 14.8284 14.5 14V2C14.5 1.17157 13.8284 0.5 13 0.5Z" stroke="white" stroke-linecap="round" stroke-linejoin="round"/>
</svg>
