<svg width="16" height="16" viewBox="0 0 16 16" fill="none" xmlns="http://www.w3.org/2000/svg">
<path d="M1.5 13.5V11.5C1.5 9.84315 2.84315 8.5 4.5 8.5H5.5C6.05228 8.5 6.5 8.94772 6.5 9.5V10.5C6.5 12.1569 5.15685 13.5 3.5 13.5H1.5ZM1.5 13.5V13.5C1.5 14.0523 1.05228 14.5 0.5 14.5V14.5M3 12L5 10" stroke="white" stroke-linecap="round" stroke-linejoin="round"/>
<path fill-rule="evenodd" clip-rule="evenodd" d="M0 5C0 3.34315 1.34315 2 3 2H11C12.6569 2 14 3.34315 14 5V9C14 10.6569 12.6569 12 11 12H8.37337C8.06618 12 7.84949 11.6988 7.91045 11.3977C7.95547 11.1753 8.14425 11 8.37116 11H11C12.1046 11 13 10.1046 13 9V5C13 3.89543 12.1046 3 11 3H3C1.89543 3 1 3.89543 1 5V8.4834C1 8.60499 0.957344 8.72222 0.88485 8.81984C0.821089 8.90571 0.760315 8.99392 0.70268 9.08433C0.494048 9.41161 0 9.38812 0 9V5ZM8 9.5C8 9.77614 8.23726 10.0104 8.47949 9.87776C8.78966 9.70797 9 9.37855 9 9V5C9 4.44772 8.55229 4 8 4H3C2.44772 4 2 4.44772 2 5V5.88504C2 6.68458 2.93797 7.20297 3.72576 7.06635C3.97729 7.02274 4.23599 7 4.5 7H5.5C6.88071 7 8 8.11929 8 9.5ZM15.5 5C15.7761 5 16 5.22386 16 5.5V8.5C16 8.77614 15.7761 9 15.5 9C15.2239 9 15 8.77614 15 8.5V5.5C15 5.22386 15.2239 5 15.5 5Z" fill="white"/>
</svg>
