<svg width="16" height="16" viewBox="0 0 16 16" fill="none" xmlns="http://www.w3.org/2000/svg">
<path d="M5.5 5.5H1.5C0.947715 5.5 0.5 5.94772 0.5 6.5V6.5V9.5V9.5C0.5 10.0523 0.947715 10.5 1.5 10.5V10.5M5.5 5.5L11.5 1.5M5.5 5.5V10.5M11.5 1.5V5.5V10.5V14.5M11.5 1.5H12C12.8284 1.5 13.5 2.17157 13.5 3V5.5M11.5 14.5L5.5 10.5M11.5 14.5H12C12.8284 14.5 13.5 13.8284 13.5 13V5.5M5.5 10.5H3.5M1.5 10.5L2.31629 13.7652C2.42426 14.197 2.8123 14.5 3.25746 14.5V14.5C3.88861 14.5 4.35172 13.9069 4.19864 13.2946L3.5 10.5M1.5 10.5H3.5M13.5 10.5H14C14.8284 10.5 15.5 9.82843 15.5 9V7C15.5 6.17157 14.8284 5.5 14 5.5H13.5" stroke="white" stroke-linecap="round" stroke-linejoin="round"/>
</svg>
