<svg width="16" height="16" viewBox="0 0 16 16" fill="none" xmlns="http://www.w3.org/2000/svg">
<path d="M14 7V3.53462C14 2.96322 13.5368 2.5 12.9654 2.5C12.0051 2.5 11.0614 2.2494 10.2277 1.77297L8.55365 0.816372C8.27196 0.655408 7.91395 0.801182 7.82482 1.11313L7.12704 3.55535C7.04645 3.83743 7.09378 4.14068 7.25652 4.38477L8.6302 6.4453C8.85413 6.7812 8.85413 7.2188 8.6302 7.5547L7.40561 9.39159C7.16405 9.75393 7.18475 10.2309 7.45679 10.571L8.66015 12.0752C8.87205 12.3401 8.93523 12.6943 8.82796 13.0161L8.50616 13.9815C8.35115 14.4465 8.88836 14.8337 9.28051 14.5396L10.8 13.4C12.8144 11.8892 14 9.51806 14 7Z" stroke="white" stroke-linejoin="round"/>
</svg>
