<svg width="16" height="16" viewBox="0 0 16 16" fill="none" xmlns="http://www.w3.org/2000/svg">
<path d="M6.5 14.5H12.5C13.6046 14.5 14.5 13.6046 14.5 12.5V4.5M6.5 14.5H3.5C2.39543 14.5 1.5 13.6046 1.5 12.5V4.5M6.5 14.5V4.5M1.5 4.5V3.5C1.5 2.39543 2.39543 1.5 3.5 1.5H6.5H12.5C13.6046 1.5 14.5 2.39543 14.5 3.5V4.5M1.5 4.5H6.5M14.5 4.5H6.5" stroke="white" stroke-linecap="round" stroke-linejoin="round"/>
<path d="M2.5 14.5H5.5C6.05228 14.5 6.5 14.0523 6.5 13.5V5.5C6.5 4.94772 6.05228 4.5 5.5 4.5H2.5C1.94772 4.5 1.5 4.94772 1.5 5.5V13.5C1.5 14.0523 1.94772 14.5 2.5 14.5Z" fill="white"/>
</svg>
