<svg width="16" height="16" viewBox="0 0 16 16" fill="none" xmlns="http://www.w3.org/2000/svg">
<path fill-rule="evenodd" clip-rule="evenodd" d="M13.75 2C13.1977 2 12.75 2.44772 12.75 3V13C12.75 13.5523 13.1977 14 13.75 14H15C15.5523 14 16 13.5523 16 13V3C16 2.44772 15.5523 2 15 2H13.75ZM8.5 5.67C8.5 5.11772 8.94772 4.67 9.5 4.67H10.75C11.3023 4.67 11.75 5.11772 11.75 5.67V13C11.75 13.5523 11.3023 14 10.75 14H9.5C8.94771 14 8.5 13.5523 8.5 13V5.67ZM5.25 7.34C4.69772 7.34 4.25 7.78771 4.25 8.34V13C4.25 13.5523 4.69772 14 5.25 14H6.5C7.05228 14 7.5 13.5523 7.5 13V8.34C7.5 7.78772 7.05228 7.34 6.5 7.34H5.25ZM1 10C0.447715 10 0 10.4477 0 11V13C0 13.5523 0.447715 14 1 14H2.25C2.80228 14 3.25 13.5523 3.25 13V11C3.25 10.4477 2.80228 10 2.25 10H1Z" fill="white" fill-opacity="0.5"/>
<path fill-rule="evenodd" clip-rule="evenodd" d="M9.5 4.67C8.94772 4.67 8.5 5.11772 8.5 5.67V13C8.5 13.5523 8.94771 14 9.5 14H10.75C11.3023 14 11.75 13.5523 11.75 13V5.67C11.75 5.11771 11.3023 4.67 10.75 4.67H9.5ZM4.25 8.34C4.25 7.78771 4.69772 7.34 5.25 7.34H6.5C7.05228 7.34 7.5 7.78771 7.5 8.34V13C7.5 13.5523 7.05228 14 6.5 14H5.25C4.69772 14 4.25 13.5523 4.25 13V8.34ZM0 11C0 10.4477 0.447715 10 1 10H2.25C2.80228 10 3.25 10.4477 3.25 11V13C3.25 13.5523 2.80228 14 2.25 14H1C0.447715 14 0 13.5523 0 13V11Z" fill="white"/>
</svg>
