<svg width="16" height="16" viewBox="0 0 16 16" fill="none" xmlns="http://www.w3.org/2000/svg">
<g clip-path="url(#clip0_91_914)">
<path d="M3 0.5L1.5 2M1.5 2L3 3.5M1.5 2H14.5M8 13.5V13.5C9.65685 13.5 11 12.1569 11 10.5V10.5C11 8.84315 9.65685 7.5 8 7.5V7.5C6.34315 7.5 5 8.84315 5 10.5V10.5C5 12.1569 6.34315 13.5 8 13.5ZM2 15.5H14C14.8284 15.5 15.5 14.8284 15.5 14V7C15.5 6.17157 14.8284 5.5 14 5.5H12.3028C11.8012 5.5 11.3329 5.24935 11.0547 4.83205L10.9453 4.66795C10.6671 4.25065 10.1988 4 9.69722 4H6.30278C5.80125 4 5.3329 4.25065 5.0547 4.66795L4.9453 4.83205C4.6671 5.24935 4.19875 5.5 3.69722 5.5H2C1.17157 5.5 0.5 6.17157 0.5 7V14C0.5 14.8284 1.17157 15.5 2 15.5Z" stroke="white" stroke-linecap="round" stroke-linejoin="round"/>
<circle cx="13" cy="8" r="1" fill="white" fill-opacity="0.5"/>
</g>
<defs>
<clipPath id="clip0_91_914">
<rect width="16" height="16" fill="white"/>
</clipPath>
</defs>
</svg>
