<svg width="16" height="16" viewBox="0 0 16 16" fill="none" xmlns="http://www.w3.org/2000/svg">
<path fill-rule="evenodd" clip-rule="evenodd" d="M0.952933 7.49991C1.20942 3.83549 4.26278 0.935547 7.99309 0.935547C9.80193 0.935547 11.4728 1.6214 12.7345 2.76543L13.7929 1.70709C14.4228 1.07713 15.5 1.52329 15.5 2.4142V5.49998C15.5 6.05227 15.0522 6.49998 14.5 6.49998H11.4142C10.5233 6.49998 10.0771 5.42284 10.7071 4.79288L12.0264 3.47353C10.9478 2.5112 9.52836 1.93555 7.99309 1.93555C4.81648 1.93555 2.20997 4.38723 1.95581 7.50012C1.93334 7.77534 1.71163 7.99998 1.43549 7.99998C1.15935 7.99998 0.933651 7.77538 0.952933 7.49991ZM14.5729 7.99998H14.5547C14.5607 8.0001 14.5668 8.0001 14.5729 7.99998Z" fill="white"/>
<path fill-rule="evenodd" clip-rule="evenodd" d="M15.4988 8.43563C15.2424 12.1001 12.189 15 8.45869 15C6.64986 15 4.97901 14.3141 3.71727 13.1701L2.65893 14.2285C2.02897 14.8584 0.951824 14.4123 0.951824 13.5213V10.4356C0.951824 9.88328 1.39954 9.43556 1.95182 9.43556L5.03761 9.43556C5.92852 9.43556 6.37468 10.5127 5.74472 11.1427L4.42537 12.462C5.50397 13.4243 6.92343 14 8.45869 14C11.6353 14 14.2418 11.5483 14.496 8.43543C14.5184 8.1602 14.7401 7.93556 15.0163 7.93556C15.2924 7.93556 15.5181 8.16016 15.4988 8.43563ZM1.87888 7.93556H1.89709C1.89104 7.93545 1.88497 7.93545 1.87888 7.93556Z" fill="white"/>
</svg>
