<svg width="16" height="16" viewBox="0 0 16 16" fill="none" xmlns="http://www.w3.org/2000/svg">
<path d="M4 2H5M4 15.5H12C12.8284 15.5 13.5 14.8284 13.5 14V2C13.5 1.17157 12.8284 0.5 12 0.5H4C3.17157 0.5 2.5 1.17157 2.5 2V14C2.5 14.8284 3.17157 15.5 4 15.5Z" stroke="white" stroke-linecap="round" stroke-linejoin="round"/>
<path d="M10 13H6C5.72386 13 5.5 13.2239 5.5 13.5C5.5 13.7761 5.72386 14 6 14H10C10.2761 14 10.5 13.7761 10.5 13.5C10.5 13.2239 10.2761 13 10 13Z" stroke="white" stroke-opacity="0.5" stroke-linecap="round" stroke-linejoin="round"/>
</svg>
