<svg width="16" height="16" viewBox="0 0 16 16" fill="none" xmlns="http://www.w3.org/2000/svg">
<path d="M2.5 4C2.5 5.933 4.067 7.5 6 7.5C7.933 7.5 9.5 5.933 9.5 4C9.5 2.067 7.933 0.5 6 0.5C4.067 0.5 2.5 2.067 2.5 4Z" stroke="white" stroke-linecap="round" stroke-linejoin="round"/>
<path d="M1.5 15.5V13.5C1.5 11.2909 3.29086 9.5 5.5 9.5H6.5C8.70914 9.5 10.5 11.2909 10.5 13.5V15.5" stroke="white" stroke-linecap="round" stroke-linejoin="round"/>
<path fill-rule="evenodd" clip-rule="evenodd" d="M10.6347 9.87295C10.7098 9.95848 10.8147 10.0121 10.9277 10.0259C12.659 10.2367 14 11.7118 14 13.5V15.5C14 15.7761 14.2239 16 14.5 16C14.7762 16 15 15.7761 15 15.5V13.5C15 11.0147 12.9853 9 10.5 9C10.2412 9 10.1216 9.35253 10.3084 9.53176C10.4219 9.64077 10.5308 9.75461 10.6347 9.87295ZM8.82959 9.64913C9.0143 9.76111 8.93239 10.039 8.72174 10.0868C8.65874 10.1012 8.59395 10.0906 8.53839 10.0576C8.35207 9.94703 8.156 9.85116 7.95179 9.77159C7.73065 9.68542 7.69236 9.37093 7.91447 9.28729C7.96928 9.26665 8.03027 9.26645 8.08508 9.28708C8.34561 9.38515 8.59464 9.50669 8.82959 9.64913ZM9.76136 7.29443C9.527 7.56178 9.64452 8 10 8C12.2092 8 14 6.20914 14 4C14 1.79086 12.2092 0 10 0C9.64452 0 9.527 0.438224 9.76136 0.705572C9.79106 0.739464 9.82032 0.77376 9.84912 0.808452C9.94729 0.926709 10.0913 0.997461 10.2445 1.00981C11.787 1.1342 13 2.42544 13 4C13 5.57456 11.787 6.8658 10.2445 6.99019C10.0913 7.00254 9.94729 7.07329 9.84912 7.19155C9.82032 7.22624 9.79106 7.26054 9.76136 7.29443ZM8.56142 1.3668C8.70653 1.28735 8.74827 1.08888 8.62343 0.980333C8.46858 0.845692 8.30327 0.722765 8.12889 0.612933C8.0501 0.563306 7.94973 0.563463 7.87095 0.613096C7.70844 0.715465 7.73207 0.951848 7.8935 1.05589C8.0259 1.14121 8.15216 1.23522 8.2715 1.33711C8.35248 1.40625 8.46802 1.41794 8.56142 1.3668ZM8.56142 6.6332C8.70653 6.71265 8.74827 6.91112 8.62343 7.01967C8.46858 7.15431 8.30327 7.27724 8.12889 7.38707C8.0501 7.43669 7.94973 7.43654 7.87095 7.3869C7.70844 7.28454 7.73207 7.04815 7.8935 6.94411C8.0259 6.85879 8.15216 6.76478 8.2715 6.66289C8.35247 6.59375 8.46802 6.58206 8.56142 6.6332Z" fill="white" fill-opacity="0.5"/>
</svg>
