<svg width="120" height="25" viewBox="0 0 120 25" fill="none" xmlns="http://www.w3.org/2000/svg">
<g clip-path="url(#clip0_100_3509)">
<path d="M10.0852 22.0515C8.79412 22.0515 7.5953 21.8252 6.4887 21.3725C5.39887 20.9198 4.45155 20.291 3.64675 19.4862C2.85872 18.6646 2.23835 17.7006 1.78565 16.594C1.34972 15.4874 1.13175 14.2718 1.13175 12.9472C1.13175 11.6394 1.34972 10.4322 1.78565 9.3256C2.23835 8.219 2.85872 7.25492 3.64675 6.43335C4.45155 5.61179 5.39887 4.97465 6.4887 4.52195C7.5953 4.06925 8.79412 3.8429 10.0852 3.8429C11.3762 3.8429 12.5582 4.06925 13.6313 4.52195C14.7211 4.97465 15.6685 5.61179 16.4733 6.43335C17.2781 7.25492 17.8984 8.219 18.3344 9.3256C18.7871 10.4322 19.0134 11.6478 19.0134 12.9724C19.0134 14.2634 18.7871 15.4622 18.3344 16.5688C17.8984 17.6754 17.2781 18.6395 16.4733 19.4611C15.6685 20.2826 14.7211 20.9198 13.6313 21.3725C12.5582 21.8252 11.3762 22.0515 10.0852 22.0515ZM10.0852 18.4802C10.8229 18.4802 11.5019 18.3461 12.1223 18.0778C12.7427 17.7928 13.2792 17.4071 13.7319 16.9209C14.2014 16.4179 14.5619 15.8311 14.8134 15.1604C15.0649 14.4897 15.1906 13.7604 15.1906 12.9724C15.1906 12.1676 15.0649 11.4298 14.8134 10.7592C14.5619 10.0885 14.2014 9.50165 13.7319 8.99865C13.2792 8.49565 12.7427 8.11002 12.1223 7.84175C11.5019 7.55672 10.8229 7.4142 10.0852 7.4142C9.34742 7.4142 8.65998 7.55672 8.02285 7.84175C7.40248 8.11002 6.85757 8.49565 6.3881 8.99865C5.9354 9.48489 5.5833 10.0717 5.3318 10.7592C5.0803 11.4298 4.95455 12.1676 4.95455 12.9724C4.95455 14.0287 5.17252 14.976 5.60845 15.8143C6.06115 16.6359 6.67313 17.2898 7.4444 17.776C8.21567 18.2455 9.09592 18.4802 10.0852 18.4802ZM21.9253 21.8V8.49565H25.3708L25.4966 12.7712L24.893 11.8658C25.111 11.1951 25.4379 10.5831 25.8738 10.0298C26.3265 9.4765 26.8547 9.04057 27.4583 8.722C28.0787 8.38667 28.7242 8.219 29.3948 8.219C29.6966 8.219 29.9733 8.24415 30.2248 8.29445C30.4931 8.32799 30.7194 8.38667 30.9038 8.4705L29.9481 12.3688C29.7637 12.2849 29.5206 12.2095 29.2188 12.1424C28.9338 12.0586 28.6403 12.0167 28.3385 12.0167C27.9529 12.0167 27.584 12.0921 27.2319 12.243C26.8966 12.3771 26.5948 12.5783 26.3265 12.8466C26.075 13.0981 25.8738 13.3999 25.7229 13.752C25.5888 14.1041 25.5217 14.4981 25.5217 14.9341V21.8H21.9253ZM38.1726 22.0515C36.8983 22.0515 35.7582 21.7497 34.7522 21.1461C33.7462 20.5425 32.9498 19.7209 32.3629 18.6814C31.7929 17.6251 31.5078 16.4514 31.5078 15.1604C31.5078 13.8358 31.7929 12.6538 32.3629 11.6143C32.9498 10.558 33.7462 9.728 34.7522 9.1244C35.7582 8.5208 36.8983 8.219 38.1726 8.219C39.363 8.219 40.4445 8.44535 41.4169 8.89805C42.4062 9.33399 43.1774 9.93759 43.7307 10.7089L41.7942 13.073C41.5595 12.7544 41.266 12.461 40.9139 12.1927C40.5618 11.9244 40.1762 11.7149 39.757 11.564C39.3546 11.4131 38.9355 11.3376 38.4995 11.3376C37.8121 11.3376 37.2001 11.5053 36.6636 11.8406C36.1271 12.1592 35.7079 12.6119 35.4061 13.1987C35.1043 13.7688 34.9534 14.4143 34.9534 15.1353C34.9534 15.8395 35.1127 16.4766 35.4312 17.0467C35.7498 17.6167 36.1774 18.0694 36.7139 18.4048C37.2504 18.7401 37.8456 18.9078 38.4995 18.9078C38.9355 18.9078 39.3463 18.8491 39.7319 18.7317C40.1343 18.5976 40.5032 18.4048 40.8385 18.1533C41.1738 17.9018 41.4924 17.6083 41.7942 17.273L43.7307 19.6371C43.1774 20.3581 42.3894 20.9449 41.3666 21.3976C40.3606 21.8335 39.296 22.0515 38.1726 22.0515ZM46.0192 21.8V3.189H49.5653V11.2119L48.8611 11.5137C49.0288 10.9101 49.3558 10.3651 49.842 9.8789C50.3282 9.3759 50.9067 8.9735 51.5773 8.6717C52.248 8.3699 52.9438 8.219 53.6648 8.219C54.6708 8.219 55.5091 8.4202 56.1798 8.8226C56.8672 9.225 57.3786 9.83699 57.7139 10.6586C58.066 11.4634 58.2421 12.4694 58.2421 13.6766V21.8H54.6708V13.9281C54.6708 13.3245 54.587 12.8215 54.4193 12.4191C54.2516 12.0167 54.0001 11.7232 53.6648 11.5388C53.3295 11.3544 52.9019 11.2705 52.3821 11.2873C51.9797 11.2873 51.6109 11.3544 51.2755 11.4885C50.9402 11.6059 50.6384 11.7819 50.3701 12.0167C50.1186 12.2514 49.9258 12.5197 49.7917 12.8215C49.6576 13.1233 49.5905 13.4586 49.5905 13.8275V21.8H47.8048C47.436 21.8 47.1006 21.8 46.7988 21.8C46.497 21.8 46.2372 21.8 46.0192 21.8ZM61.9661 21.8V8.49565H65.5374V21.8H61.9661ZM63.7517 5.7543C63.0475 5.7543 62.5026 5.58664 62.117 5.2513C61.7313 4.91597 61.5385 4.43812 61.5385 3.81775C61.5385 3.24769 61.7313 2.7866 62.117 2.4345C62.5194 2.06564 63.0643 1.8812 63.7517 1.8812C64.4224 1.8812 64.9505 2.04887 65.3362 2.3842C65.7218 2.71954 65.9146 3.19739 65.9146 3.81775C65.9146 4.40459 65.7218 4.87405 65.3362 5.22615C64.9505 5.57825 64.4224 5.7543 63.7517 5.7543ZM74.6075 22.0515C73.4506 22.0515 72.4027 21.7581 71.4637 21.1713C70.5416 20.5844 69.8122 19.7712 69.2757 18.7317C68.7559 17.6754 68.496 16.485 68.496 15.1604C68.496 13.8191 68.7559 12.6286 69.2757 11.5891C69.8122 10.5496 70.5416 9.728 71.4637 9.1244C72.3859 8.5208 73.4338 8.219 74.6075 8.219C75.2278 8.219 75.8231 8.3196 76.3931 8.5208C76.98 8.70524 77.4997 8.96512 77.9524 9.30045C78.4051 9.63579 78.774 10.013 79.059 10.4322C79.3441 10.8346 79.5117 11.2538 79.562 11.6897L78.6566 11.8658V3.189H82.2028V21.8H78.8327L78.6818 18.7317L79.386 18.8323C79.3692 19.2347 79.2267 19.6287 78.9584 20.0144C78.6902 20.4 78.3297 20.7521 77.877 21.0707C77.441 21.3725 76.938 21.6156 76.368 21.8C75.8147 21.9677 75.2278 22.0515 74.6075 22.0515ZM75.3871 19.0838C76.0746 19.0838 76.6614 18.9161 77.1476 18.5808C77.6506 18.2455 78.0446 17.7844 78.3297 17.1976C78.6147 16.6107 78.7572 15.9317 78.7572 15.1604C78.7572 14.3724 78.6147 13.6849 78.3297 13.0981C78.0446 12.4945 77.6506 12.0334 77.1476 11.7149C76.6614 11.3795 76.0746 11.2119 75.3871 11.2119C74.7332 11.2119 74.1548 11.3795 73.6518 11.7149C73.1488 12.0334 72.7548 12.4945 72.4697 13.0981C72.2015 13.6849 72.0673 14.3724 72.0673 15.1604C72.0673 15.9317 72.2015 16.6107 72.4697 17.1976C72.7548 17.7844 73.1488 18.2455 73.6518 18.5808C74.1548 18.9161 74.7332 19.0838 75.3871 19.0838Z" fill="white"/>
<path d="M93.9594 22.0515C92.6684 22.0515 91.4696 21.8252 90.363 21.3725C89.2731 20.9198 88.3258 20.291 87.521 19.4862C86.733 18.6646 86.1126 17.7006 85.6599 16.594C85.224 15.4874 85.006 14.2718 85.006 12.9472C85.006 11.6394 85.224 10.4322 85.6599 9.3256C86.1126 8.219 86.733 7.25492 87.521 6.43335C88.3258 5.61179 89.2731 4.97465 90.363 4.52195C91.4696 4.06925 92.6684 3.8429 93.9594 3.8429C95.2505 3.8429 96.4325 4.06925 97.5056 4.52195C98.5954 4.97465 99.5427 5.61179 100.348 6.43335C101.152 7.25492 101.773 8.219 102.209 9.3256C102.661 10.4322 102.888 11.6478 102.888 12.9724C102.888 14.2634 102.661 15.4622 102.209 16.5688C101.773 17.6754 101.152 18.6395 100.348 19.4611C99.5427 20.2826 98.5954 20.9198 97.5056 21.3725C96.4325 21.8252 95.2505 22.0515 93.9594 22.0515ZM93.9594 18.4802C94.6972 18.4802 95.3762 18.3461 95.9966 18.0778C96.6169 17.7928 97.1535 17.4071 97.6062 16.9209C98.0756 16.4179 98.4361 15.8311 98.6876 15.1604C98.9391 14.4897 99.0649 13.7604 99.0649 12.9724C99.0649 12.1676 98.9391 11.4298 98.6876 10.7592C98.4361 10.0885 98.0756 9.50165 97.6062 8.99865C97.1535 8.49565 96.6169 8.11002 95.9966 7.84175C95.3762 7.55672 94.6972 7.4142 93.9594 7.4142C93.2217 7.4142 92.5343 7.55672 91.8971 7.84175C91.2768 8.11002 90.7318 8.49565 90.2624 8.99865C89.8097 9.48489 89.4576 10.0717 89.2061 10.7592C88.9546 11.4298 88.8288 12.1676 88.8288 12.9724C88.8288 14.0287 89.0468 14.976 89.4827 15.8143C89.9354 16.6359 90.5474 17.2898 91.3187 17.776C92.0899 18.2455 92.9702 18.4802 93.9594 18.4802ZM112.012 22.0515C110.368 22.0515 108.96 21.7581 107.786 21.1713C106.63 20.5677 105.632 19.6958 104.794 18.5557L107.158 15.8898C107.979 17.0299 108.792 17.8095 109.597 18.2287C110.419 18.6311 111.299 18.8323 112.238 18.8323C112.758 18.8323 113.219 18.7569 113.621 18.606C114.04 18.4551 114.367 18.2455 114.602 17.9772C114.854 17.7089 114.979 17.3988 114.979 17.0467C114.979 16.7784 114.921 16.5353 114.803 16.3173C114.686 16.0826 114.518 15.8814 114.3 15.7137C114.082 15.5293 113.822 15.37 113.521 15.2359C113.219 15.085 112.883 14.9592 112.515 14.8586C112.146 14.758 111.743 14.6658 111.307 14.582C110.368 14.3808 109.547 14.1209 108.843 13.8023C108.139 13.4837 107.552 13.0981 107.082 12.6454C106.613 12.1927 106.261 11.6729 106.026 11.0861C105.808 10.4825 105.699 9.81184 105.699 9.0741C105.699 8.03457 105.992 7.12917 106.579 6.3579C107.166 5.56987 107.946 4.95789 108.918 4.52195C109.891 4.06925 110.964 3.8429 112.137 3.8429C113.73 3.8429 115.038 4.11117 116.061 4.6477C117.1 5.18424 117.93 5.93874 118.551 6.9112L116.136 9.2753C115.616 8.55434 115.021 8.00942 114.351 7.64055C113.68 7.27169 112.959 7.08725 112.188 7.08725C111.651 7.08725 111.173 7.1627 110.754 7.3136C110.352 7.44774 110.042 7.65732 109.824 7.94235C109.606 8.21062 109.497 8.52919 109.497 8.89805C109.497 9.19985 109.572 9.46812 109.723 9.70285C109.874 9.93759 110.083 10.1472 110.352 10.3316C110.637 10.4993 110.98 10.6502 111.383 10.7843C111.785 10.9184 112.23 11.0274 112.716 11.1113C113.638 11.2957 114.468 11.5472 115.206 11.8658C115.943 12.1676 116.572 12.5364 117.092 12.9724C117.628 13.4083 118.039 13.9113 118.324 14.4814C118.609 15.0514 118.752 15.6886 118.752 16.3928C118.752 17.5832 118.467 18.5976 117.897 19.4359C117.327 20.2742 116.539 20.9198 115.533 21.3725C114.527 21.8252 113.353 22.0515 112.012 22.0515Z" fill="url(#paint0_radial_100_3509)"/>
</g>
<defs>
<radialGradient id="paint0_radial_100_3509" cx="0" cy="0" r="1" gradientUnits="userSpaceOnUse" gradientTransform="translate(103.8 5) rotate(90) scale(19.8 20.682)">
<stop stop-color="#00DDFF"/>
<stop offset="1" stop-color="#B50098"/>
</radialGradient>
<clipPath id="clip0_100_3509">
<rect width="120" height="24" fill="white" transform="translate(0 0.800003)"/>
</clipPath>
</defs>
</svg>
