<svg width="72" height="72" viewBox="0 0 72 72" fill="none" xmlns="http://www.w3.org/2000/svg">
<g clip-path="url(#clip0_900_4)">
<g filter="url(#filter0_d_900_4)">
<rect x="4" y="4" width="64" height="64" rx="16" fill="url(#paint0_linear_900_4)"/>
</g>
<mask id="mask0_900_4" style="mask-type:alpha" maskUnits="userSpaceOnUse" x="4" y="4" width="64" height="64">
<rect x="4" y="4" width="64" height="64" rx="16" fill="white"/>
</mask>
<g mask="url(#mask0_900_4)">
<g opacity="0.05">
<circle cx="36" cy="36" r="15.5" stroke="#0061E0"/>
<circle cx="36" cy="36" r="7.5" stroke="#0061E0"/>
<circle cx="36" cy="36" r="27.5" stroke="#0061E0"/>
<line x1="3.85355" y1="3.64645" x2="67.8536" y2="67.6464" stroke="#0061E0"/>
<line x1="68.3536" y1="3.85355" x2="4.35356" y2="67.8536" stroke="#0061E0"/>
<rect x="20.5" y="3.5" width="31" height="65" stroke="#0061E0"/>
<rect x="3.5" y="20.5" width="65" height="31" stroke="#0061E0"/>
<line x1="36" y1="4" x2="36" y2="69" stroke="#0061E0"/>
<line x1="3" y1="36" x2="68" y2="36" stroke="#0061E0"/>
</g>
<path d="M50 32H35.9971C33.788 32 31.9996 33.7884 31.9996 35.9975V50C31.9996 56 36 60 42 60H43.9601C46.1849 60 47.9996 58.1846 47.9996 55.9598V52C47.9996 49.7909 49.7905 48 51.9996 48H55.9996C58.2088 48 59.9996 46.2098 59.9996 44.0007V42C59.9996 36 56 32 50 32Z" fill="url(#paint1_linear_900_4)"/>
<g filter="url(#filter1_b_900_4)">
<path d="M16 20C16 17.7909 17.7909 16 20 16H28C39.0457 16 48 24.9543 48 36V44C48 46.2091 46.2091 48 44 48H36C24.9543 48 16 39.0457 16 28V20Z" fill="#B0DDFF" fill-opacity="0.6"/>
</g>
<circle cx="32" cy="32" r="6" fill="#0061E0" fill-opacity="0.25"/>
</g>
</g>
<defs>
<filter id="filter0_d_900_4" x="0" y="0" width="72" height="72" filterUnits="userSpaceOnUse" color-interpolation-filters="sRGB">
<feFlood flood-opacity="0" result="BackgroundImageFix"/>
<feColorMatrix in="SourceAlpha" type="matrix" values="0 0 0 0 0 0 0 0 0 0 0 0 0 0 0 0 0 0 127 0" result="hardAlpha"/>
<feOffset/>
<feGaussianBlur stdDeviation="2"/>
<feComposite in2="hardAlpha" operator="out"/>
<feColorMatrix type="matrix" values="0 0 0 0 0 0 0 0 0 0 0 0 0 0 0 0 0 0 0.1 0"/>
<feBlend mode="normal" in2="BackgroundImageFix" result="effect1_dropShadow_900_4"/>
<feBlend mode="normal" in="SourceGraphic" in2="effect1_dropShadow_900_4" result="shape"/>
</filter>
<filter id="filter1_b_900_4" x="12" y="12" width="40" height="40" filterUnits="userSpaceOnUse" color-interpolation-filters="sRGB">
<feFlood flood-opacity="0" result="BackgroundImageFix"/>
<feGaussianBlur in="BackgroundImageFix" stdDeviation="2"/>
<feComposite in2="SourceAlpha" operator="in" result="effect1_backgroundBlur_900_4"/>
<feBlend mode="normal" in="SourceGraphic" in2="effect1_backgroundBlur_900_4" result="shape"/>
</filter>
<linearGradient id="paint0_linear_900_4" x1="36" y1="4" x2="36" y2="68" gradientUnits="userSpaceOnUse">
<stop stop-color="white"/>
<stop offset="1" stop-color="#F0F6FF"/>
</linearGradient>
<linearGradient id="paint1_linear_900_4" x1="45.9996" y1="32" x2="45.9996" y2="60" gradientUnits="userSpaceOnUse">
<stop stop-color="#00DDFF"/>
<stop offset="1" stop-color="#0061E0"/>
</linearGradient>
<clipPath id="clip0_900_4">
<rect width="72" height="72" fill="white"/>
</clipPath>
</defs>
</svg>
