<svg width="72" height="72" viewBox="0 0 72 72" fill="none" xmlns="http://www.w3.org/2000/svg">
<g filter="url(#filter0_d_91_2874)">
<g clip-path="url(#clip0_91_2874)">
<rect x="4" y="4" width="64" height="64" rx="16" fill="url(#paint0_linear_91_2874)"/>
<rect x="35" y="10" width="2" height="8" rx="1" fill="#0061E0" fill-opacity="0.2"/>
<rect x="35" y="54" width="2" height="8" rx="1" fill="#0061E0" fill-opacity="0.2"/>
<rect x="10" y="37" width="2" height="8" rx="1" transform="rotate(-90 10 37)" fill="#0061E0" fill-opacity="0.2"/>
<rect x="54" y="37" width="2" height="8" rx="1" transform="rotate(-90 54 37)" fill="#0061E0" fill-opacity="0.2"/>
<rect x="22.134" y="13.9833" width="2" height="8" rx="1" transform="rotate(-30 22.134 13.9833)" fill="#0061E0" fill-opacity="0.2"/>
<rect x="44.134" y="52.0884" width="2" height="8" rx="1" transform="rotate(-30 44.134 52.0884)" fill="#0061E0" fill-opacity="0.2"/>
<rect x="13.9834" y="49.866" width="2" height="8" rx="1" transform="rotate(-120 13.9834 49.866)" fill="#0061E0" fill-opacity="0.2"/>
<rect x="52.0885" y="27.866" width="2" height="8" rx="1" transform="rotate(-120 52.0885 27.866)" fill="#0061E0" fill-opacity="0.2"/>
<rect x="12.9834" y="23.866" width="2" height="8" rx="1" transform="rotate(-60 12.9834 23.866)" fill="#0061E0" fill-opacity="0.2"/>
<rect x="51.0885" y="45.866" width="2" height="8" rx="1" transform="rotate(-60 51.0885 45.866)" fill="#0061E0" fill-opacity="0.2"/>
<rect x="23.8661" y="59.0167" width="2" height="8" rx="1" transform="rotate(-150 23.8661 59.0167)" fill="#0061E0" fill-opacity="0.2"/>
<rect x="45.8661" y="20.9116" width="2" height="8" rx="1" transform="rotate(-150 45.8661 20.9116)" fill="#0061E0" fill-opacity="0.2"/>
<rect x="30.5002" y="10.5687" width="2" height="4" rx="1" transform="rotate(-10 30.5002 10.5687)" fill="#0061E0" fill-opacity="0.1"/>
<rect x="38.8353" y="57.8394" width="2" height="4" rx="1" transform="rotate(-10 38.8353 57.8394)" fill="#0061E0" fill-opacity="0.1"/>
<rect x="10.5685" y="41.4996" width="2" height="4" rx="1" transform="rotate(-100 10.5685 41.4996)" fill="#0061E0" fill-opacity="0.1"/>
<rect x="57.8392" y="33.1646" width="2" height="4" rx="1" transform="rotate(-100 57.8392 33.1646)" fill="#0061E0" fill-opacity="0.1"/>
<rect x="26.1678" y="11.91" width="2" height="4" rx="1" transform="rotate(-20 26.1678 11.91)" fill="#0061E0" fill-opacity="0.1"/>
<rect x="42.5848" y="57.0153" width="2" height="4" rx="1" transform="rotate(-20 42.5848 57.0153)" fill="#0061E0" fill-opacity="0.1"/>
<rect x="11.91" y="45.8322" width="2" height="4" rx="1" transform="rotate(-110 11.91 45.8322)" fill="#0061E0" fill-opacity="0.1"/>
<rect x="57.0153" y="29.4152" width="2" height="4" rx="1" transform="rotate(-110 57.0153 29.4152)" fill="#0061E0" fill-opacity="0.1"/>
<rect x="18.5217" y="16.7255" width="2" height="4" rx="1" transform="rotate(-40 18.5217 16.7255)" fill="#0061E0" fill-opacity="0.1"/>
<rect x="49.3755" y="53.4957" width="2" height="4" rx="1" transform="rotate(-40 49.3755 53.4957)" fill="#0061E0" fill-opacity="0.1"/>
<rect x="16.7258" y="53.4785" width="2" height="4" rx="1" transform="rotate(-130 16.7258 53.4785)" fill="#0061E0" fill-opacity="0.1"/>
<rect x="53.496" y="22.6246" width="2" height="4" rx="1" transform="rotate(-130 53.496 22.6246)" fill="#0061E0" fill-opacity="0.1"/>
<rect x="15.4403" y="20.0535" width="2" height="4" rx="1" transform="rotate(-50 15.4403 20.0535)" fill="#0061E0" fill-opacity="0.1"/>
<rect x="52.2104" y="50.9073" width="2" height="4" rx="1" transform="rotate(-50 52.2104 50.9073)" fill="#0061E0" fill-opacity="0.1"/>
<rect x="20.0538" y="56.5599" width="2" height="4" rx="1" transform="rotate(-140 20.0538 56.5599)" fill="#0061E0" fill-opacity="0.1"/>
<rect x="50.9076" y="19.7897" width="2" height="4" rx="1" transform="rotate(-140 50.9076 19.7897)" fill="#0061E0" fill-opacity="0.1"/>
<rect x="11.2262" y="28.047" width="2" height="4" rx="1" transform="rotate(-70 11.2262 28.047)" fill="#0061E0" fill-opacity="0.1"/>
<rect x="56.3314" y="44.464" width="2" height="4" rx="1" transform="rotate(-70 56.3314 44.464)" fill="#0061E0" fill-opacity="0.1"/>
<rect x="28.0474" y="60.7739" width="2" height="4" rx="1" transform="rotate(-160 28.0474 60.7739)" fill="#0061E0" fill-opacity="0.1"/>
<rect x="44.4644" y="15.6686" width="2" height="4" rx="1" transform="rotate(-160 44.4644 15.6686)" fill="#0061E0" fill-opacity="0.1"/>
<rect x="10.2217" y="32.4698" width="2" height="4" rx="1" transform="rotate(-80 10.2217 32.4698)" fill="#0061E0" fill-opacity="0.1"/>
<rect x="57.4924" y="40.8049" width="2" height="4" rx="1" transform="rotate(-80 57.4924 40.8049)" fill="#0061E0" fill-opacity="0.1"/>
<rect x="32.4703" y="61.7785" width="2" height="4" rx="1" transform="rotate(-170 32.4703 61.7785)" fill="#0061E0" fill-opacity="0.1"/>
<rect x="40.8054" y="14.5078" width="2" height="4" rx="1" transform="rotate(-170 40.8054 14.5078)" fill="#0061E0" fill-opacity="0.1"/>
<path d="M19.2285 28.049C18.511 27.6347 18.2652 26.7174 18.6794 25.9999C19.0937 25.2825 20.011 25.0367 20.7285 25.4509L37.183 34.9509C37.9004 35.3651 38.1462 36.2825 37.732 36.9999C37.3178 37.7174 36.4004 37.9632 35.683 37.549L19.2285 28.049Z" fill="url(#paint1_linear_91_2874)"/>
<path d="M19.2285 28.049C18.511 27.6347 18.2652 26.7174 18.6794 25.9999C19.0937 25.2825 20.011 25.0367 20.7285 25.4509L37.183 34.9509C37.9004 35.3651 38.1462 36.2825 37.732 36.9999C37.3178 37.7174 36.4004 37.9632 35.683 37.549L19.2285 28.049Z" fill="url(#paint2_linear_91_2874)"/>
<path d="M49.5396 26.4509C50.257 26.0367 51.1744 26.2825 51.5886 27C52.0028 27.7174 51.757 28.6348 51.0396 29.049L36.3172 37.549C35.5997 37.9632 34.6823 37.7174 34.2681 37C33.8539 36.2825 34.0997 35.3651 34.8172 34.9509L49.5396 26.4509Z" fill="url(#paint3_linear_91_2874)"/>
<path d="M37.5 56.4999C37.5 57.3284 36.8284 57.9999 36 57.9999C35.1716 57.9999 34.5 57.3284 34.5 56.4999V35.4999C34.5 34.6715 35.1716 33.9999 36 33.9999C36.8284 33.9999 37.5 34.6715 37.5 35.4999V56.4999Z" fill="url(#paint4_linear_91_2874)"/>
<g filter="url(#filter1_ii_91_2874)">
<rect x="32" y="31.9999" width="8" height="8" rx="4" fill="url(#paint5_linear_91_2874)"/>
</g>
</g>
</g>
<defs>
<filter id="filter0_d_91_2874" x="0" y="0" width="72" height="72" filterUnits="userSpaceOnUse" color-interpolation-filters="sRGB">
<feFlood flood-opacity="0" result="BackgroundImageFix"/>
<feColorMatrix in="SourceAlpha" type="matrix" values="0 0 0 0 0 0 0 0 0 0 0 0 0 0 0 0 0 0 127 0" result="hardAlpha"/>
<feOffset/>
<feGaussianBlur stdDeviation="2"/>
<feComposite in2="hardAlpha" operator="out"/>
<feColorMatrix type="matrix" values="0 0 0 0 0 0 0 0 0 0 0 0 0 0 0 0 0 0 0.1 0"/>
<feBlend mode="normal" in2="BackgroundImageFix" result="effect1_dropShadow_91_2874"/>
<feBlend mode="normal" in="SourceGraphic" in2="effect1_dropShadow_91_2874" result="shape"/>
</filter>
<filter id="filter1_ii_91_2874" x="32" y="27.9999" width="8" height="12" filterUnits="userSpaceOnUse" color-interpolation-filters="sRGB">
<feFlood flood-opacity="0" result="BackgroundImageFix"/>
<feBlend mode="normal" in="SourceGraphic" in2="BackgroundImageFix" result="shape"/>
<feColorMatrix in="SourceAlpha" type="matrix" values="0 0 0 0 0 0 0 0 0 0 0 0 0 0 0 0 0 0 127 0" result="hardAlpha"/>
<feOffset dy="-4"/>
<feGaussianBlur stdDeviation="2"/>
<feComposite in2="hardAlpha" operator="arithmetic" k2="-1" k3="1"/>
<feColorMatrix type="matrix" values="0 0 0 0 0 0 0 0 0 0 0 0 0 0 0 0 0 0 0.1 0"/>
<feBlend mode="normal" in2="shape" result="effect1_innerShadow_91_2874"/>
<feColorMatrix in="SourceAlpha" type="matrix" values="0 0 0 0 0 0 0 0 0 0 0 0 0 0 0 0 0 0 127 0" result="hardAlpha"/>
<feOffset dy="-2"/>
<feGaussianBlur stdDeviation="1"/>
<feComposite in2="hardAlpha" operator="arithmetic" k2="-1" k3="1"/>
<feColorMatrix type="matrix" values="0 0 0 0 0.501961 0 0 0 0 0.760784 0 0 0 0 1 0 0 0 0.25 0"/>
<feBlend mode="normal" in2="effect1_innerShadow_91_2874" result="effect2_innerShadow_91_2874"/>
</filter>
<linearGradient id="paint0_linear_91_2874" x1="36" y1="4" x2="36" y2="68" gradientUnits="userSpaceOnUse">
<stop stop-color="white"/>
<stop offset="1" stop-color="#F0F6FF"/>
</linearGradient>
<linearGradient id="paint1_linear_91_2874" x1="17.0346" y1="25.6842" x2="37.4577" y2="37.4755" gradientUnits="userSpaceOnUse">
<stop stop-color="#80A1A8"/>
<stop offset="1" stop-color="#4A3F3D"/>
</linearGradient>
<linearGradient id="paint2_linear_91_2874" x1="11.7695" y1="18.6171" x2="35.4015" y2="32.261" gradientUnits="userSpaceOnUse">
<stop stop-color="#114854"/>
<stop offset="1" stop-color="#161E25"/>
</linearGradient>
<linearGradient id="paint3_linear_91_2874" x1="52.5599" y1="25.8053" x2="33.9934" y2="36.5246" gradientUnits="userSpaceOnUse">
<stop stop-color="#80A1A8"/>
<stop offset="1" stop-color="#4A3F3D"/>
</linearGradient>
<linearGradient id="paint4_linear_91_2874" x1="36" y1="57.9999" x2="36" y2="33.9999" gradientUnits="userSpaceOnUse">
<stop stop-color="#FF6040"/>
<stop offset="1" stop-color="#C00040"/>
</linearGradient>
<linearGradient id="paint5_linear_91_2874" x1="36" y1="31.9999" x2="36" y2="39.9999" gradientUnits="userSpaceOnUse">
<stop stop-color="#00DDFF"/>
<stop offset="1" stop-color="#0061E0"/>
</linearGradient>
<clipPath id="clip0_91_2874">
<rect x="4" y="4" width="64" height="64" rx="16" fill="white"/>
</clipPath>
</defs>
</svg>
