<svg width="72" height="72" viewBox="0 0 72 72" fill="none" xmlns="http://www.w3.org/2000/svg">
<g clip-path="url(#clip0_547_402)">
<g filter="url(#filter0_d_547_402)">
<rect x="4" y="4" width="64" height="64" rx="16" fill="url(#paint0_linear_547_402)"/>
</g>
<mask id="mask0_547_402" style="mask-type:alpha" maskUnits="userSpaceOnUse" x="4" y="4" width="64" height="64">
<rect x="4" y="4" width="64" height="64" rx="16" fill="white"/>
</mask>
<g mask="url(#mask0_547_402)">
<path d="M26.9942 18.5144L13.6457 51.8858C12.8574 53.8564 14.3087 56 16.4311 56H25.2919C26.9275 56 28.3983 55.0042 29.0058 53.4856L43.4514 17.3714C43.7142 16.7145 43.2304 16 42.523 16H30.7081C29.0725 16 27.6017 16.9958 26.9942 18.5144Z" fill="url(#paint1_linear_547_402)"/>
<path d="M29.0971 18.7428L42.9942 53.4856C43.6017 55.0042 45.0725 56 46.7081 56H55.5689C57.6913 56 59.1426 53.8564 58.3543 51.8858L44.5029 17.2572C44.1992 16.4979 43.4637 16 42.6459 16H30.9541C29.5391 16 28.5716 17.4291 29.0971 18.7428Z" fill="url(#paint2_linear_547_402)"/>
<g filter="url(#filter1_b_547_402)">
<path d="M26.9942 18.5144L13.6457 51.8858C12.8574 53.8564 14.3087 56 16.4311 56H25.2919C26.9275 56 28.3983 55.0042 29.0058 53.4856L43.4514 17.3714C43.7142 16.7145 43.2304 16 42.523 16H30.7081C29.0725 16 27.6017 16.9958 26.9942 18.5144Z" fill="url(#paint3_linear_547_402)"/>
</g>
</g>
<path d="M24 60C24 55.5817 27.5817 52 32 52H68C70.2091 52 72 53.7909 72 56V64C72 68.4183 68.4183 72 64 72H28C25.7909 72 24 70.2091 24 68V60Z" fill="url(#paint4_linear_547_402)"/>
<path d="M33.4533 67V58.6H37.1013C37.6693 58.6 38.1453 58.684 38.5293 58.852C38.9133 59.012 39.2053 59.248 39.4053 59.56C39.6133 59.864 39.7173 60.24 39.7173 60.688C39.7173 61.152 39.5933 61.544 39.3453 61.864C39.1053 62.184 38.7653 62.408 38.3253 62.536L38.3133 62.284C38.6813 62.372 39.0013 62.52 39.2733 62.728C39.5533 62.928 39.7693 63.176 39.9213 63.472C40.0813 63.768 40.1613 64.104 40.1613 64.48C40.1613 64.896 40.0893 65.264 39.9453 65.584C39.8093 65.896 39.6093 66.16 39.3453 66.376C39.0893 66.584 38.7813 66.74 38.4213 66.844C38.0613 66.948 37.6613 67 37.2213 67H33.4533ZM35.1813 65.44H37.1493C37.5333 65.44 37.8333 65.352 38.0493 65.176C38.2653 64.992 38.3733 64.736 38.3733 64.408C38.3733 64.2 38.3213 64.024 38.2173 63.88C38.1133 63.736 37.9653 63.628 37.7733 63.556C37.5813 63.484 37.3533 63.448 37.0893 63.448H35.1813V65.44ZM35.1813 61.996H36.8853C37.1093 61.996 37.2973 61.96 37.4493 61.888C37.6093 61.808 37.7333 61.7 37.8213 61.564C37.9093 61.42 37.9533 61.256 37.9533 61.072C37.9533 60.784 37.8533 60.56 37.6533 60.4C37.4613 60.24 37.1733 60.16 36.7893 60.16H35.1813V61.996ZM41.7854 67V58.6H47.4494V60.184H43.5494V65.416H47.5334V67H41.7854ZM42.6254 63.484V61.948H46.8734V63.484H42.6254ZM51.1425 67V60.22H48.7185V58.6H55.4625V60.22H52.9425V67H51.1425ZM55.3558 67L58.6558 58.6H60.2638L63.5398 67H61.7038L59.9998 62.476C59.9518 62.34 59.8918 62.172 59.8198 61.972C59.7558 61.772 59.6878 61.56 59.6158 61.336C59.5438 61.112 59.4758 60.9 59.4118 60.7C59.3558 60.492 59.3078 60.324 59.2678 60.196L59.5918 60.184C59.5438 60.36 59.4878 60.548 59.4238 60.748C59.3678 60.94 59.3038 61.14 59.2318 61.348C59.1678 61.556 59.0998 61.756 59.0278 61.948C58.9638 62.14 58.8998 62.324 58.8358 62.5L57.1438 67H55.3558ZM56.8918 65.236L57.4918 63.772H61.3198L61.9318 65.236H56.8918Z" fill="black" fill-opacity="0.75"/>
</g>
<defs>
<filter id="filter0_d_547_402" x="0" y="0" width="72" height="72" filterUnits="userSpaceOnUse" color-interpolation-filters="sRGB">
<feFlood flood-opacity="0" result="BackgroundImageFix"/>
<feColorMatrix in="SourceAlpha" type="matrix" values="0 0 0 0 0 0 0 0 0 0 0 0 0 0 0 0 0 0 127 0" result="hardAlpha"/>
<feOffset/>
<feGaussianBlur stdDeviation="2"/>
<feComposite in2="hardAlpha" operator="out"/>
<feColorMatrix type="matrix" values="0 0 0 0 0 0 0 0 0 0 0 0 0 0 0 0 0 0 0.1 0"/>
<feBlend mode="normal" in2="BackgroundImageFix" result="effect1_dropShadow_547_402"/>
<feBlend mode="normal" in="SourceGraphic" in2="effect1_dropShadow_547_402" result="shape"/>
</filter>
<filter id="filter1_b_547_402" x="11.4281" y="14" width="34.0958" height="44" filterUnits="userSpaceOnUse" color-interpolation-filters="sRGB">
<feFlood flood-opacity="0" result="BackgroundImageFix"/>
<feGaussianBlur in="BackgroundImageFix" stdDeviation="1"/>
<feComposite in2="SourceAlpha" operator="in" result="effect1_backgroundBlur_547_402"/>
<feBlend mode="normal" in="SourceGraphic" in2="effect1_backgroundBlur_547_402" result="shape"/>
</filter>
<linearGradient id="paint0_linear_547_402" x1="36" y1="4" x2="36" y2="68" gradientUnits="userSpaceOnUse">
<stop stop-color="white"/>
<stop offset="1" stop-color="#F0F6FF"/>
</linearGradient>
<linearGradient id="paint1_linear_547_402" x1="28" y1="16" x2="28" y2="56" gradientUnits="userSpaceOnUse">
<stop stop-color="#009AFF"/>
<stop offset="1" stop-color="#0061E0"/>
</linearGradient>
<linearGradient id="paint2_linear_547_402" x1="44" y1="16" x2="44" y2="56" gradientUnits="userSpaceOnUse">
<stop stop-color="#0061E0"/>
<stop offset="1" stop-color="#009AFF"/>
</linearGradient>
<linearGradient id="paint3_linear_547_402" x1="28" y1="16" x2="28" y2="56" gradientUnits="userSpaceOnUse">
<stop stop-color="#60C0FF"/>
<stop offset="1" stop-color="#00A0FF"/>
</linearGradient>
<linearGradient id="paint4_linear_547_402" x1="48" y1="52" x2="48" y2="72" gradientUnits="userSpaceOnUse">
<stop stop-color="#FFE860"/>
<stop offset="1" stop-color="#FFC000"/>
</linearGradient>
<clipPath id="clip0_547_402">
<rect width="72" height="72" fill="white"/>
</clipPath>
</defs>
</svg>
