<svg width="72" height="72" viewBox="0 0 72 72" fill="none" xmlns="http://www.w3.org/2000/svg">
<g clip-path="url(#clip0_1218_71)">
<g filter="url(#filter0_d_1218_71)">
<rect x="4" y="4" width="64" height="64" rx="16" fill="url(#paint0_linear_1218_71)"/>
</g>
<mask id="mask0_1218_71" style="mask-type:alpha" maskUnits="userSpaceOnUse" x="4" y="4" width="64" height="64">
<rect x="4" y="4" width="64" height="64" rx="16" fill="white"/>
</mask>
<g mask="url(#mask0_1218_71)">
<rect x="45" y="12" width="8" height="8" rx="4" fill="url(#paint1_radial_1218_71)"/>
<rect x="21" y="12" width="8" height="8" rx="4" fill="url(#paint2_radial_1218_71)"/>
<g filter="url(#filter1_dii_1218_71)">
<path d="M25 16V17.2339C25 20.6774 27.2034 23.7345 30.4702 24.8234L30.6754 24.8918C34.7808 26.2603 39.2192 26.2603 43.3246 24.8918L43.5298 24.8234C46.7966 23.7345 49 20.6774 49 17.2339V16" stroke="url(#paint3_linear_1218_71)" stroke-width="4" stroke-linecap="round"/>
</g>
<mask id="mask1_1218_71" style="mask-type:alpha" maskUnits="userSpaceOnUse" x="22" y="14" width="30" height="6">
<rect x="22" y="14" width="30" height="6" fill="url(#paint4_linear_1218_71)"/>
</mask>
<g mask="url(#mask1_1218_71)">
<path d="M25 16V17.2339C25 20.6774 27.2034 23.7345 30.4702 24.8234L30.6754 24.8918C34.7808 26.2603 39.2192 26.2603 43.3246 24.8918L43.5298 24.8234C46.7966 23.7345 49 20.6774 49 17.2339V16" stroke="#FF6040" stroke-opacity="0.5" stroke-width="4" stroke-linecap="round"/>
</g>
<mask id="mask2_1218_71" style="mask-type:alpha" maskUnits="userSpaceOnUse" x="22" y="14" width="30" height="3">
<rect x="22" y="14" width="30" height="3" fill="url(#paint5_linear_1218_71)"/>
</mask>
<g mask="url(#mask2_1218_71)">
<path d="M25 16V17.2339C25 20.6774 27.2034 23.7345 30.4702 24.8234L30.6754 24.8918C34.7808 26.2603 39.2192 26.2603 43.3246 24.8918L43.5298 24.8234C46.7966 23.7345 49 20.6774 49 17.2339V16" stroke="black" stroke-opacity="0.1" stroke-width="4" stroke-linecap="round"/>
</g>
<path d="M18.7693 52.14C18.0506 52.14 17.3833 52.014 16.7673 51.762C16.1606 51.51 15.6333 51.16 15.1853 50.712C14.7466 50.2547 14.4013 49.718 14.1493 49.102C13.9066 48.486 13.7853 47.8093 13.7853 47.072C13.7853 46.344 13.9066 45.672 14.1493 45.056C14.4013 44.44 14.7466 43.9033 15.1853 43.446C15.6333 42.9887 16.1606 42.634 16.7673 42.382C17.3833 42.13 18.0506 42.004 18.7693 42.004C19.4879 42.004 20.1459 42.13 20.7433 42.382C21.3499 42.634 21.8773 42.9887 22.3253 43.446C22.7733 43.9033 23.1186 44.44 23.3613 45.056C23.6133 45.672 23.7393 46.3487 23.7393 47.086C23.7393 47.8047 23.6133 48.472 23.3613 49.088C23.1186 49.704 22.7733 50.2407 22.3253 50.698C21.8773 51.1553 21.3499 51.51 20.7433 51.762C20.1459 52.014 19.4879 52.14 18.7693 52.14ZM18.7693 50.152C19.1799 50.152 19.5579 50.0773 19.9033 49.928C20.2486 49.7693 20.5473 49.5547 20.7993 49.284C21.0606 49.004 21.2613 48.6773 21.4013 48.304C21.5413 47.9307 21.6113 47.5247 21.6113 47.086C21.6113 46.638 21.5413 46.2273 21.4013 45.854C21.2613 45.4807 21.0606 45.154 20.7993 44.874C20.5473 44.594 20.2486 44.3793 19.9033 44.23C19.5579 44.0713 19.1799 43.992 18.7693 43.992C18.3586 43.992 17.9759 44.0713 17.6213 44.23C17.2759 44.3793 16.9726 44.594 16.7113 44.874C16.4593 45.1447 16.2633 45.4713 16.1233 45.854C15.9833 46.2273 15.9133 46.638 15.9133 47.086C15.9133 47.674 16.0346 48.2013 16.2773 48.668C16.5293 49.1253 16.8699 49.4893 17.2993 49.76C17.7286 50.0213 18.2186 50.152 18.7693 50.152ZM25.3602 52V44.594H27.2782L27.3482 46.974L27.0122 46.47C27.1335 46.0967 27.3155 45.756 27.5582 45.448C27.8102 45.14 28.1042 44.8973 28.4402 44.72C28.7855 44.5333 29.1449 44.44 29.5182 44.44C29.6862 44.44 29.8402 44.454 29.9802 44.482C30.1295 44.5007 30.2555 44.5333 30.3582 44.58L29.8262 46.75C29.7235 46.7033 29.5882 46.6613 29.4202 46.624C29.2615 46.5773 29.0982 46.554 28.9302 46.554C28.7155 46.554 28.5102 46.596 28.3142 46.68C28.1275 46.7547 27.9595 46.8667 27.8102 47.016C27.6702 47.156 27.5582 47.324 27.4742 47.52C27.3995 47.716 27.3622 47.9353 27.3622 48.178V52H25.3602ZM34.4044 52.14C33.6951 52.14 33.0604 51.972 32.5004 51.636C31.9404 51.3 31.4971 50.8427 31.1704 50.264C30.8531 49.676 30.6944 49.0227 30.6944 48.304C30.6944 47.5667 30.8531 46.9087 31.1704 46.33C31.4971 45.742 31.9404 45.28 32.5004 44.944C33.0604 44.608 33.6951 44.44 34.4044 44.44C35.0671 44.44 35.6691 44.566 36.2104 44.818C36.7611 45.0607 37.1904 45.3967 37.4984 45.826L36.4204 47.142C36.2898 46.9647 36.1264 46.8013 35.9304 46.652C35.7344 46.5027 35.5198 46.386 35.2864 46.302C35.0624 46.218 34.8291 46.176 34.5864 46.176C34.2038 46.176 33.8631 46.2693 33.5644 46.456C33.2658 46.6333 33.0324 46.8853 32.8644 47.212C32.6964 47.5293 32.6124 47.8887 32.6124 48.29C32.6124 48.682 32.7011 49.0367 32.8784 49.354C33.0558 49.6713 33.2938 49.9233 33.5924 50.11C33.8911 50.2967 34.2224 50.39 34.5864 50.39C34.8291 50.39 35.0578 50.3573 35.2724 50.292C35.4964 50.2173 35.7018 50.11 35.8884 49.97C36.0751 49.83 36.2524 49.6667 36.4204 49.48L37.4984 50.796C37.1904 51.1973 36.7518 51.524 36.1824 51.776C35.6224 52.0187 35.0298 52.14 34.4044 52.14ZM38.7723 52V41.64H40.7463V46.106L40.3543 46.274C40.4477 45.938 40.6297 45.6347 40.9003 45.364C41.171 45.084 41.493 44.86 41.8663 44.692C42.2397 44.524 42.627 44.44 43.0283 44.44C43.5883 44.44 44.055 44.552 44.4283 44.776C44.811 45 45.0957 45.3407 45.2823 45.798C45.4783 46.246 45.5763 46.806 45.5763 47.478V52H43.5883V47.618C43.5883 47.282 43.5417 47.002 43.4483 46.778C43.355 46.554 43.215 46.3907 43.0283 46.288C42.8417 46.1853 42.6037 46.1387 42.3143 46.148C42.0903 46.148 41.885 46.1853 41.6983 46.26C41.5117 46.3253 41.3437 46.4233 41.1943 46.554C41.0543 46.6847 40.947 46.834 40.8723 47.002C40.7977 47.17 40.7603 47.3567 40.7603 47.562V52H39.7663C39.561 52 39.3743 52 39.2063 52C39.0383 52 38.8937 52 38.7723 52ZM47.6493 52V44.594H49.6373V52H47.6493ZM48.6433 43.068C48.2513 43.068 47.948 42.9747 47.7333 42.788C47.5186 42.6013 47.4113 42.3353 47.4113 41.99C47.4113 41.6727 47.5186 41.416 47.7333 41.22C47.9573 41.0147 48.2606 40.912 48.6433 40.912C49.0166 40.912 49.3106 41.0053 49.5253 41.192C49.74 41.3787 49.8473 41.6447 49.8473 41.99C49.8473 42.3167 49.74 42.578 49.5253 42.774C49.3106 42.97 49.0166 43.068 48.6433 43.068ZM54.6863 52.14C54.0423 52.14 53.4589 51.9767 52.9363 51.65C52.4229 51.3233 52.0169 50.8707 51.7183 50.292C51.4289 49.704 51.2843 49.0413 51.2843 48.304C51.2843 47.5573 51.4289 46.8947 51.7183 46.316C52.0169 45.7373 52.4229 45.28 52.9363 44.944C53.4496 44.608 54.0329 44.44 54.6863 44.44C55.0316 44.44 55.3629 44.496 55.6803 44.608C56.0069 44.7107 56.2963 44.8553 56.5483 45.042C56.8003 45.2287 57.0056 45.4387 57.1643 45.672C57.3229 45.896 57.4163 46.1293 57.4443 46.372L56.9403 46.47V41.64H58.9143V52H57.0383L56.9543 50.292L57.3463 50.348C57.3369 50.572 57.2576 50.7913 57.1083 51.006C56.9589 51.2207 56.7583 51.4167 56.5063 51.594C56.2636 51.762 55.9836 51.8973 55.6663 52C55.3583 52.0933 55.0316 52.14 54.6863 52.14ZM55.1203 50.488C55.5029 50.488 55.8296 50.3947 56.1003 50.208C56.3803 50.0213 56.5996 49.7647 56.7583 49.438C56.9169 49.1113 56.9963 48.7333 56.9963 48.304C56.9963 47.8653 56.9169 47.4827 56.7583 47.156C56.5996 46.82 56.3803 46.5633 56.1003 46.386C55.8296 46.1993 55.5029 46.106 55.1203 46.106C54.7563 46.106 54.4343 46.1993 54.1543 46.386C53.8743 46.5633 53.6549 46.82 53.4963 47.156C53.3469 47.4827 53.2723 47.8653 53.2723 48.304C53.2723 48.7333 53.3469 49.1113 53.4963 49.438C53.6549 49.7647 53.8743 50.0213 54.1543 50.208C54.4343 50.3947 54.7563 50.488 55.1203 50.488Z" fill="url(#paint6_linear_1218_71)"/>
</g>
<path d="M24 60C24 55.5817 27.5817 52 32 52H68C70.2091 52 72 53.7909 72 56V64C72 68.4183 68.4183 72 64 72H28C25.7909 72 24 70.2091 24 68V60Z" fill="url(#paint7_linear_1218_71)"/>
<path d="M33.4533 67V58.6H37.1013C37.6693 58.6 38.1453 58.684 38.5293 58.852C38.9133 59.012 39.2053 59.248 39.4053 59.56C39.6133 59.864 39.7173 60.24 39.7173 60.688C39.7173 61.152 39.5933 61.544 39.3453 61.864C39.1053 62.184 38.7653 62.408 38.3253 62.536L38.3133 62.284C38.6813 62.372 39.0013 62.52 39.2733 62.728C39.5533 62.928 39.7693 63.176 39.9213 63.472C40.0813 63.768 40.1613 64.104 40.1613 64.48C40.1613 64.896 40.0893 65.264 39.9453 65.584C39.8093 65.896 39.6093 66.16 39.3453 66.376C39.0893 66.584 38.7813 66.74 38.4213 66.844C38.0613 66.948 37.6613 67 37.2213 67H33.4533ZM35.1813 65.44H37.1493C37.5333 65.44 37.8333 65.352 38.0493 65.176C38.2653 64.992 38.3733 64.736 38.3733 64.408C38.3733 64.2 38.3213 64.024 38.2173 63.88C38.1133 63.736 37.9653 63.628 37.7733 63.556C37.5813 63.484 37.3533 63.448 37.0893 63.448H35.1813V65.44ZM35.1813 61.996H36.8853C37.1093 61.996 37.2973 61.96 37.4493 61.888C37.6093 61.808 37.7333 61.7 37.8213 61.564C37.9093 61.42 37.9533 61.256 37.9533 61.072C37.9533 60.784 37.8533 60.56 37.6533 60.4C37.4613 60.24 37.1733 60.16 36.7893 60.16H35.1813V61.996ZM41.7854 67V58.6H47.4494V60.184H43.5494V65.416H47.5334V67H41.7854ZM42.6254 63.484V61.948H46.8734V63.484H42.6254ZM51.1425 67V60.22H48.7185V58.6H55.4625V60.22H52.9425V67H51.1425ZM55.3558 67L58.6558 58.6H60.2638L63.5398 67H61.7038L59.9998 62.476C59.9518 62.34 59.8918 62.172 59.8198 61.972C59.7558 61.772 59.6878 61.56 59.6158 61.336C59.5438 61.112 59.4758 60.9 59.4118 60.7C59.3558 60.492 59.3078 60.324 59.2678 60.196L59.5918 60.184C59.5438 60.36 59.4878 60.548 59.4238 60.748C59.3678 60.94 59.3038 61.14 59.2318 61.348C59.1678 61.556 59.0998 61.756 59.0278 61.948C58.9638 62.14 58.8998 62.324 58.8358 62.5L57.1438 67H55.3558ZM56.8918 65.236L57.4918 63.772H61.3198L61.9318 65.236H56.8918Z" fill="black" fill-opacity="0.75"/>
</g>
<defs>
<filter id="filter0_d_1218_71" x="0" y="0" width="72" height="72" filterUnits="userSpaceOnUse" color-interpolation-filters="sRGB">
<feFlood flood-opacity="0" result="BackgroundImageFix"/>
<feColorMatrix in="SourceAlpha" type="matrix" values="0 0 0 0 0 0 0 0 0 0 0 0 0 0 0 0 0 0 127 0" result="hardAlpha"/>
<feOffset/>
<feGaussianBlur stdDeviation="2"/>
<feComposite in2="hardAlpha" operator="out"/>
<feColorMatrix type="matrix" values="0 0 0 0 0 0 0 0 0 0 0 0 0 0 0 0 0 0 0.1 0"/>
<feBlend mode="normal" in2="BackgroundImageFix" result="effect1_dropShadow_1218_71"/>
<feBlend mode="normal" in="SourceGraphic" in2="effect1_dropShadow_1218_71" result="shape"/>
</filter>
<filter id="filter1_dii_1218_71" x="21" y="12" width="32" height="21.9182" filterUnits="userSpaceOnUse" color-interpolation-filters="sRGB">
<feFlood flood-opacity="0" result="BackgroundImageFix"/>
<feColorMatrix in="SourceAlpha" type="matrix" values="0 0 0 0 0 0 0 0 0 0 0 0 0 0 0 0 0 0 127 0" result="hardAlpha"/>
<feOffset dy="4"/>
<feGaussianBlur stdDeviation="1"/>
<feComposite in2="hardAlpha" operator="out"/>
<feColorMatrix type="matrix" values="0 0 0 0 0 0 0 0 0 0 0 0 0 0 0 0 0 0 0.1 0"/>
<feBlend mode="normal" in2="BackgroundImageFix" result="effect1_dropShadow_1218_71"/>
<feBlend mode="normal" in="SourceGraphic" in2="effect1_dropShadow_1218_71" result="shape"/>
<feColorMatrix in="SourceAlpha" type="matrix" values="0 0 0 0 0 0 0 0 0 0 0 0 0 0 0 0 0 0 127 0" result="hardAlpha"/>
<feOffset dy="-2"/>
<feGaussianBlur stdDeviation="1"/>
<feComposite in2="hardAlpha" operator="arithmetic" k2="-1" k3="1"/>
<feColorMatrix type="matrix" values="0 0 0 0 0 0 0 0 0 0 0 0 0 0 0 0 0 0 0.25 0"/>
<feBlend mode="normal" in2="shape" result="effect2_innerShadow_1218_71"/>
<feColorMatrix in="SourceAlpha" type="matrix" values="0 0 0 0 0 0 0 0 0 0 0 0 0 0 0 0 0 0 127 0" result="hardAlpha"/>
<feOffset dy="-1"/>
<feGaussianBlur stdDeviation="0.5"/>
<feComposite in2="hardAlpha" operator="arithmetic" k2="-1" k3="1"/>
<feColorMatrix type="matrix" values="0 0 0 0 1 0 0 0 0 0.376471 0 0 0 0 0.25098 0 0 0 0.25 0"/>
<feBlend mode="normal" in2="effect2_innerShadow_1218_71" result="effect3_innerShadow_1218_71"/>
</filter>
<linearGradient id="paint0_linear_1218_71" x1="36" y1="4" x2="36" y2="68" gradientUnits="userSpaceOnUse">
<stop stop-color="#FF2060"/>
<stop offset="1" stop-color="#C00040"/>
</linearGradient>
<radialGradient id="paint1_radial_1218_71" cx="0" cy="0" r="1" gradientUnits="userSpaceOnUse" gradientTransform="translate(49 19.5) rotate(-90) scale(7.5)">
<stop stop-color="#C00040"/>
<stop offset="1" stop-color="#C00040" stop-opacity="0.3"/>
</radialGradient>
<radialGradient id="paint2_radial_1218_71" cx="0" cy="0" r="1" gradientUnits="userSpaceOnUse" gradientTransform="translate(25 19.5) rotate(-90) scale(7.5)">
<stop stop-color="#C00040"/>
<stop offset="1" stop-color="#C00040" stop-opacity="0.3"/>
</radialGradient>
<linearGradient id="paint3_linear_1218_71" x1="37" y1="16" x2="37" y2="27" gradientUnits="userSpaceOnUse">
<stop stop-color="white"/>
<stop offset="1" stop-color="#F0F6FF"/>
</linearGradient>
<linearGradient id="paint4_linear_1218_71" x1="37" y1="14" x2="37" y2="20" gradientUnits="userSpaceOnUse">
<stop/>
<stop offset="1" stop-opacity="0"/>
</linearGradient>
<linearGradient id="paint5_linear_1218_71" x1="37" y1="14" x2="37" y2="17" gradientUnits="userSpaceOnUse">
<stop/>
<stop offset="1" stop-opacity="0"/>
</linearGradient>
<linearGradient id="paint6_linear_1218_71" x1="36.5" y1="40" x2="36.5" y2="54" gradientUnits="userSpaceOnUse">
<stop stop-color="white"/>
<stop offset="1" stop-color="#F0F6FF"/>
</linearGradient>
<linearGradient id="paint7_linear_1218_71" x1="48" y1="52" x2="48" y2="72" gradientUnits="userSpaceOnUse">
<stop stop-color="#FFE860"/>
<stop offset="1" stop-color="#FFC000"/>
</linearGradient>
<clipPath id="clip0_1218_71">
<rect width="72" height="72" fill="white"/>
</clipPath>
</defs>
</svg>
