<svg xmlns="http://www.w3.org/2000/svg" enable-background="new 0 0 24 24" viewBox="0 0 24 24"><polygon points="10.342 7.886 10.349 7.882 10.351 7.88"/><polygon points="21.56 23.484 21.553 23.488 21.551 23.49"/><polygon points="9.676 11.687 9.671 11.679 9.671 11.679"/><path fill="#6C02B0" d="M4.527,0C3.004,0,1.767,1.241,1.75,2.779v0.002V21.21C1.756,22.752,2.992,24,4.517,24h0.04h0.002h0.047c1.522,0,2.756-1.242,2.767-2.779V2.781c-0.028-1.541-1.269-2.78-2.797-2.78H4.555L4.557,0H4.527L4.527,0z"/><path fill="#5E0299" d="M4.557,0h-0.03C3.004,0,1.767,1.241,1.75,2.779v0.002V21.21C1.756,22.752,2.992,24,4.517,24h0.045V0.001H4.555L4.557,0L4.557,0z"/><path fill="#6C02B0" d="M17.414,7.36h0.039h0.002h0.028c2.011,0,3.644-1.638,3.666-3.668V3.69c-0.022-2.032-1.655-3.67-3.666-3.67h-0.03h-0.002h-0.037c-2.011,0-3.644,1.638-3.667,3.668V3.69C13.769,5.722,15.402,7.36,17.414,7.36L17.414,7.36z"/><path fill="#5E0299" d="M17.448,0.02h-0.035c-2.011,0-3.644,1.638-3.667,3.668V3.69c0.022,2.032,1.655,3.67,3.667,3.67h0.035V0.02L17.448,0.02z"/><path fill="#6C02B0" d="M8.827,10.106c0,0.588,0.187,1.131,0.505,1.572l7.906,11.15c0.511,0.708,1.327,1.163,2.249,1.163c0.59,0,1.137-0.187,1.587-0.504c0.713-0.488,1.177-1.303,1.177-2.227c0-0.556-0.167-1.072-0.454-1.5l0.006,0.009l-0.059-0.09L13.857,8.54h-0.011c-0.508-0.713-1.327-1.171-2.25-1.171c-0.594,0-1.145,0.19-1.595,0.513C9.289,8.37,8.827,9.184,8.827,10.106L8.827,10.106z"/><path fill="#5E0299" d="M9.894,7.958c-0.651,0.494-1.068,1.272-1.068,2.148c0,0.588,0.187,1.131,0.505,1.572l7.906,11.15c0.511,0.708,1.327,1.163,2.249,1.163c0.59,0,1.137-0.187,1.587-0.504c0.01-0.007,0.02-0.014,0.029-0.02L9.894,7.958L9.894,7.958z"/></svg>