<svg width="64" height="64" viewBox="0 0 64 64" fill="none" xmlns="http://www.w3.org/2000/svg">
<g clip-path="url(#clip0_3437_24)">
<rect width="64" height="64" fill="#333333"/>
<rect width="64" height="64" rx="16" fill="url(#paint0_linear_3437_24)"/>
<mask id="mask0_3437_24" style="mask-type:alpha" maskUnits="userSpaceOnUse" x="0" y="0" width="64" height="64">
<rect width="64" height="64" rx="16" fill="white"/>
</mask>
<g mask="url(#mask0_3437_24)">
<g filter="url(#filter0_b_3437_24)">
<g filter="url(#filter1_i_3437_24)">
<path d="M8.18418 45.7501C9.5025 48.0335 11.871 48.9233 13.9039 49.2177C15.9866 49.5194 18.38 49.3153 20.833 48.8133C25.7769 47.8016 31.7752 45.4089 37.7499 41.9594C43.7245 38.5099 48.7959 34.5116 52.144 30.7359C53.8052 28.8625 55.1786 26.8918 55.9587 24.9373C56.7202 23.0295 57.1339 20.5335 55.8156 18.2501C54.4973 15.9667 52.1288 15.0769 50.0958 14.7825C48.0132 14.4808 45.6198 14.6849 43.1667 15.1869C38.2228 16.1986 32.2245 18.5914 26.2499 22.0408C20.2752 25.4903 15.2039 29.4886 11.8558 33.2643C10.1945 35.1377 8.82112 37.1084 8.04101 39.0629C7.27953 40.9707 6.86586 43.4667 8.18418 45.7501Z" stroke="#B0DDFF" stroke-opacity="0.6" stroke-width="7" stroke-linejoin="round"/>
</g>
<g filter="url(#filter2_i_3437_24)">
<path d="M8 32C8 18.7452 18.7452 8 32 8V8C45.2548 8 56 18.7452 56 32V32C56 45.2548 45.2548 56 32 56V56C18.7452 56 8 45.2548 8 32V32Z" fill="url(#paint1_linear_3437_24)"/>
</g>
<mask id="mask1_3437_24" style="mask-type:alpha" maskUnits="userSpaceOnUse" x="8" y="8" width="48" height="48">
<path d="M8 32C8 18.7452 18.7452 8 32 8V8C45.2548 8 56 18.7452 56 32V32C56 45.2548 45.2548 56 32 56V56C18.7452 56 8 45.2548 8 32V32Z" fill="url(#paint2_linear_3437_24)"/>
</mask>
<g mask="url(#mask1_3437_24)">
<path fill-rule="evenodd" clip-rule="evenodd" d="M49.9479 15.7553C51.5982 16.1843 53.0547 16.9828 54.0332 18.2615C54.2849 18.5904 54.1584 19.0529 53.7997 19.26V19.26C53.4409 19.4671 52.9865 19.3388 52.72 19.0217C51.2545 17.2776 48.3538 16.5997 44.6449 16.9068C44.2996 16.9354 44.0002 16.6527 43.9215 16.3152V16.3152C43.826 15.9061 44.0652 15.4503 44.4838 15.415C46.4929 15.2455 48.3517 15.3404 49.9479 15.7553ZM41 15C41.1144 15 41.2126 15.0765 41.2523 15.1839C41.2733 15.2407 41.2942 15.2978 41.3151 15.3551C41.4155 15.6315 41.7006 15.7961 41.9902 15.7449C42.0269 15.7384 42.0636 15.732 42.1002 15.7257C42.3405 15.6841 42.5929 15.7661 42.718 15.9755C42.8971 16.2751 43 16.6255 43 17V17C43 17.0582 42.9561 17.1062 42.8986 17.115C42.7833 17.1327 42.6674 17.1512 42.5509 17.1706C42.2279 17.2243 42.0294 17.5503 42.1177 17.8657C42.1368 17.9342 42.1559 18.003 42.1748 18.072C42.2503 18.3477 42.1623 18.6527 41.9076 18.7826C41.6352 18.9216 41.3268 19 41 19V19C40.9215 19 40.8552 18.9443 40.8353 18.8684C40.7813 18.6626 40.7261 18.4589 40.6696 18.2574C40.5641 17.8807 40.1838 17.6567 39.8049 17.7535V17.7535C39.4653 17.8403 39.0879 17.6854 39.0288 17.34C39.0098 17.2295 39 17.1159 39 17C39 16.8948 39.0081 16.7916 39.0237 16.6908C39.0535 16.4992 39.2085 16.3579 39.3964 16.3097C39.4514 16.2956 39.5064 16.2816 39.5613 16.2678C39.8004 16.2076 39.9374 15.9532 39.852 15.7219V15.7219C39.7896 15.5529 39.8397 15.3608 39.9953 15.2703C40.2905 15.0984 40.6338 15 41 15V15ZM39.9784 14.1784C40.3566 14.0414 40.6261 13.622 40.4587 13.2562C39.5789 11.3343 38.5318 9.69098 37.3268 8.46775C36.1302 7.25303 34.7104 6.39089 33.1138 6.18286C32.7031 6.12934 32.3658 6.47017 32.3658 6.88439V6.88439C32.3658 7.2986 32.7042 7.62799 33.112 7.7002C35.4012 8.1055 37.4761 10.3604 39.0783 13.8446C39.2309 14.1765 39.6349 14.3028 39.9784 14.1784V14.1784ZM38 17C38 16.8522 37.8605 16.7365 37.719 16.7794C34.1831 17.8501 30.3836 19.5002 26.6155 21.6757C22.8993 23.8213 19.6103 26.2489 16.935 28.7392C16.6381 29.0155 16.7173 29.5068 17.0174 29.7796V29.7796C17.2853 30.0231 17.7072 30.0694 17.9724 29.8229C20.5483 27.4274 23.7365 25.07 27.3655 22.9748C30.6687 21.0677 33.9773 19.5856 37.0804 18.5557C37.6975 18.3509 38 17.6502 38 17V17V17ZM41.8253 19.885C41.4709 19.9862 41.1911 20.3308 41.2681 20.6912C41.9698 23.9726 42.3658 27.6925 42.3658 31.6344C42.3658 35.4773 41.9895 39.1093 41.3204 42.3297C41.2468 42.684 41.5177 43.0223 41.8644 43.1264V43.1264C42.2525 43.243 42.7023 43.0515 42.7849 42.6547C43.4807 39.3134 43.8658 35.5702 43.8658 31.6344C43.8658 27.5968 43.4605 23.7621 42.7303 20.3558C42.6467 19.9657 42.209 19.7755 41.8253 19.885V19.885ZM41.9168 44.222C42.2082 44.3726 42.3023 44.7249 42.2169 45.0416C42.1809 45.1753 42.1443 45.3082 42.1072 45.4403C42.0241 45.7362 42.2152 46.0431 42.5183 46.0939V46.0939C42.7876 46.139 42.982 46.3847 42.8943 46.6432C42.7977 46.9277 42.6389 47.1833 42.4341 47.394C42.3186 47.5128 42.1479 47.5529 41.9848 47.5241C41.9314 47.5146 41.8779 47.505 41.8242 47.4952C41.6299 47.4598 41.4378 47.5715 41.3713 47.7576V47.7576C41.3223 47.8948 41.2014 47.9952 41.0557 47.9992C41.0372 47.9997 41.0186 48 41 48C40.6394 48 40.3012 47.9046 40.0091 47.7377C39.8967 47.6734 39.8563 47.5361 39.9005 47.4144V47.4144C39.9591 47.2536 39.8639 47.0774 39.6977 47.0362C39.6141 47.0154 39.5304 46.9944 39.4464 46.9729C39.3028 46.9363 39.1786 46.8407 39.1266 46.7019C39.0447 46.4835 39 46.247 39 46V46C39 45.6168 39.4001 45.4125 39.7713 45.5077C39.7774 45.5093 39.7835 45.5109 39.7897 45.5125C40.1739 45.6108 40.565 45.385 40.672 45.0031C40.7585 44.6941 40.8421 44.3801 40.9226 44.0612C40.9316 44.0256 40.9632 44 41 44V44C41.3304 44 41.6421 44.0801 41.9168 44.222ZM38 46C38 45.4729 37.7357 44.9292 37.2349 44.7651C34.0874 43.7334 30.724 42.2339 27.3662 40.2953C23.9087 38.2991 20.8515 36.065 18.3425 33.7867C18.0442 33.5159 17.5599 33.6158 17.3012 33.9248V33.9248C17.0676 34.2037 17.0405 34.6302 17.3097 34.875C19.9152 37.2445 23.0713 39.5477 26.6162 41.5943C30.3022 43.7225 34.0184 45.3479 37.4884 46.4199C37.7471 46.4999 38 46.2707 38 46V46V46ZM40.0702 48.8531C39.7289 48.742 39.3278 48.8695 39.1812 49.1972C37.5655 52.8103 35.4506 55.1545 33.112 55.5686C32.7042 55.6408 32.3658 55.9702 32.3658 56.3844V56.3844C32.3658 56.7986 32.7031 57.1394 33.1138 57.0859C34.7104 56.8779 36.1302 56.0157 37.3268 54.801C38.702 53.405 39.8715 51.4619 40.8215 49.1819V49.1819C40.8585 49.093 40.7949 48.9946 40.6991 48.9851C40.4818 48.9634 40.2713 48.9186 40.0702 48.8531ZM43.8676 46.8842C43.738 47.3048 43.9719 47.8103 44.4103 47.8486C46.4478 48.0268 48.3328 47.9347 49.9485 47.5147C51.5988 47.0858 53.0553 46.2873 54.0338 45.0086C54.2855 44.6796 54.159 44.2171 53.8003 44.01V44.01C53.4416 43.8029 52.9871 43.9312 52.7206 44.2484C51.2453 46.0041 48.3155 46.6794 44.5709 46.3569C44.2487 46.3292 43.9627 46.5751 43.8676 46.8842V46.8842ZM16.4817 33.3433C16.2658 33.5813 15.897 33.532 15.6714 33.3032V33.3032C15.3829 33.0105 14.9073 33.025 14.648 33.3438C14.6326 33.3627 14.6172 33.3817 14.6019 33.4006C14.3877 33.6653 14.015 33.774 13.7494 33.5608C13.6565 33.4863 13.5704 33.4036 13.4921 33.3139C13.2434 33.0287 13.3095 32.6104 13.5493 32.3176C13.6148 32.2378 13.6809 32.1578 13.7478 32.0779C13.9621 31.8216 13.9591 31.4443 13.7449 31.188V31.188C13.5461 30.9502 13.5391 30.5995 13.7852 30.4111C13.9976 30.2484 14.2436 30.1274 14.511 30.0602C14.6419 30.0273 14.7763 30.0826 14.8627 30.1863C14.8708 30.1961 14.879 30.2058 14.8871 30.2156C15.0217 30.3767 15.2657 30.3833 15.4116 30.2323V30.2323C15.5024 30.1384 15.6396 30.0999 15.7603 30.1496C16.0573 30.2718 16.3185 30.4634 16.5235 30.7042C16.6701 30.8764 16.6306 31.1294 16.4735 31.292V31.292C16.2878 31.4844 16.2895 31.7868 16.4753 31.9792C16.5319 32.0378 16.5889 32.0965 16.6464 32.1552C16.8322 32.3451 16.9201 32.6216 16.8055 32.8614C16.7211 33.0378 16.6117 33.2 16.4817 33.3433ZM13.3149 29.5176C13.6454 29.2928 13.795 28.8255 13.5649 28.4987C11.3766 25.3897 10.4764 22.4866 11.2654 20.3142C11.4068 19.9248 11.2908 19.4671 10.932 19.26V19.26C10.5733 19.0529 10.1095 19.1746 9.9505 19.557C9.33235 21.0438 9.36909 22.7044 9.82275 24.3481C10.2752 25.9875 11.1621 27.6987 12.3688 29.4053C12.5807 29.7049 13.0115 29.7239 13.3149 29.5176V29.5176ZM13.0685 34.2956C12.7554 34.0319 12.2529 34.023 12.025 34.3631C10.9929 35.9038 10.2306 37.4421 9.82212 38.922C9.36846 40.5656 9.33172 42.2263 9.94987 43.713C10.1089 44.0955 10.5727 44.2171 10.9314 44.01V44.01C11.2901 43.8029 11.4062 43.3452 11.2648 42.9559C10.5149 40.8912 11.2908 38.1666 13.2482 35.2324C13.4472 34.9342 13.3427 34.5265 13.0685 34.2956V34.2956Z" fill="url(#paint3_radial_3437_24)"/>
<path fill-rule="evenodd" clip-rule="evenodd" d="M39 17C39 15.8954 39.8954 15 41 15C42.1046 15 43 15.8954 43 17C43 18.1046 42.1046 19 41 19C39.8954 19 39 18.1046 39 17ZM13 32C13 30.8954 13.8954 30 15 30C16.1046 30 17 30.8954 17 32C17 33.1046 16.1046 34 15 34C13.8954 34 13 33.1046 13 32ZM41 44C39.8954 44 39 44.8954 39 46C39 47.1046 39.8954 48 41 48C42.1046 48 43 47.1046 43 46C43 44.8954 42.1046 44 41 44Z" fill="url(#paint4_linear_3437_24)"/>
<g filter="url(#filter3_d_3437_24)">
<path fill-rule="evenodd" clip-rule="evenodd" d="M5.88708 48.5978C8.01636 51.363 11.1433 52.3544 13.4023 52.6816C16.0374 53.0632 18.8713 52.7873 21.5348 52.2422C26.9375 51.1367 33.2902 48.5757 39.5 44.9905C45.7097 41.4053 51.104 37.1841 54.7628 33.0581C56.5666 31.0239 58.2225 28.7076 59.2095 26.2348C60.0556 24.1148 60.7606 20.9111 59.4304 17.6845L53.1628 21.3031C53.4262 25.5289 46.313 32.974 36 38.9283C25.6869 44.8826 15.6826 47.3202 12.1547 44.9792L5.88708 48.5978Z" fill="url(#paint5_linear_3437_24)" fill-opacity="0.01" shape-rendering="crispEdges"/>
</g>
</g>
<g filter="url(#filter4_bi_3437_24)">
<path fill-rule="evenodd" clip-rule="evenodd" d="M5.06335 47.3413C5.09268 47.3942 5.12262 47.4472 5.15316 47.5001C7.23751 51.1103 10.8667 52.3143 13.4023 52.6815C16.0373 53.0632 18.8713 52.7873 21.5348 52.2422C26.9374 51.1366 33.2902 48.5757 39.4999 44.9905C45.7097 41.4052 51.104 37.1841 54.7627 33.0581C56.5665 31.0239 58.2224 28.7076 59.2094 26.2348C60.1592 23.8552 60.9311 20.1103 58.8467 16.5001C58.8162 16.4472 58.7853 16.3948 58.7541 16.3429L52.688 19.8451C52.7219 19.8956 52.7541 19.9473 52.7846 20.0001C54.9937 23.8264 47.479 32.3009 35.9999 38.9283C24.5209 45.5557 13.4245 47.8264 11.2153 44.0001C11.1849 43.9473 11.1562 43.8936 11.1294 43.839L5.06335 47.3413Z" fill="#B0DDFF" fill-opacity="0.6"/>
</g>
</g>
</g>
</g>
<defs>
<filter id="filter0_b_3437_24" x="-0.171143" y="4" width="64.3421" height="56" filterUnits="userSpaceOnUse" color-interpolation-filters="sRGB">
<feFlood flood-opacity="0" result="BackgroundImageFix"/>
<feGaussianBlur in="BackgroundImageFix" stdDeviation="2"/>
<feComposite in2="SourceAlpha" operator="in" result="effect1_backgroundBlur_3437_24"/>
<feBlend mode="normal" in="SourceGraphic" in2="effect1_backgroundBlur_3437_24" result="shape"/>
</filter>
<filter id="filter1_i_3437_24" x="3.82886" y="8.14154" width="56.342" height="44.7171" filterUnits="userSpaceOnUse" color-interpolation-filters="sRGB">
<feFlood flood-opacity="0" result="BackgroundImageFix"/>
<feBlend mode="normal" in="SourceGraphic" in2="BackgroundImageFix" result="shape"/>
<feColorMatrix in="SourceAlpha" type="matrix" values="0 0 0 0 0 0 0 0 0 0 0 0 0 0 0 0 0 0 127 0" result="hardAlpha"/>
<feOffset dy="-3"/>
<feGaussianBlur stdDeviation="3"/>
<feComposite in2="hardAlpha" operator="arithmetic" k2="-1" k3="1"/>
<feColorMatrix type="matrix" values="0 0 0 0 1 0 0 0 0 1 0 0 0 0 1 0 0 0 0.25 0"/>
<feBlend mode="normal" in2="shape" result="effect1_innerShadow_3437_24"/>
</filter>
<filter id="filter2_i_3437_24" x="8" y="-3" width="48" height="59" filterUnits="userSpaceOnUse" color-interpolation-filters="sRGB">
<feFlood flood-opacity="0" result="BackgroundImageFix"/>
<feBlend mode="normal" in="SourceGraphic" in2="BackgroundImageFix" result="shape"/>
<feColorMatrix in="SourceAlpha" type="matrix" values="0 0 0 0 0 0 0 0 0 0 0 0 0 0 0 0 0 0 127 0" result="hardAlpha"/>
<feOffset dy="-11"/>
<feGaussianBlur stdDeviation="5.5"/>
<feComposite in2="hardAlpha" operator="arithmetic" k2="-1" k3="1"/>
<feColorMatrix type="matrix" values="0 0 0 0 0 0 0 0 0 0.380392 0 0 0 0 0.878431 0 0 0 0.25 0"/>
<feBlend mode="normal" in2="shape" result="effect1_innerShadow_3437_24"/>
</filter>
<filter id="filter3_d_3437_24" x="1.88708" y="15.6845" width="62.2839" height="43.1741" filterUnits="userSpaceOnUse" color-interpolation-filters="sRGB">
<feFlood flood-opacity="0" result="BackgroundImageFix"/>
<feColorMatrix in="SourceAlpha" type="matrix" values="0 0 0 0 0 0 0 0 0 0 0 0 0 0 0 0 0 0 127 0" result="hardAlpha"/>
<feOffset dy="2"/>
<feGaussianBlur stdDeviation="2"/>
<feComposite in2="hardAlpha" operator="out"/>
<feColorMatrix type="matrix" values="0 0 0 0 0 0 0 0 0 0 0 0 0 0 0 0 0 0 0.1 0"/>
<feBlend mode="normal" in2="BackgroundImageFix" result="effect1_dropShadow_3437_24"/>
<feBlend mode="normal" in="SourceGraphic" in2="effect1_dropShadow_3437_24" result="shape"/>
</filter>
<filter id="filter4_bi_3437_24" x="1.06335" y="12.3429" width="63.1076" height="44.5157" filterUnits="userSpaceOnUse" color-interpolation-filters="sRGB">
<feFlood flood-opacity="0" result="BackgroundImageFix"/>
<feGaussianBlur in="BackgroundImageFix" stdDeviation="2"/>
<feComposite in2="SourceAlpha" operator="in" result="effect1_backgroundBlur_3437_24"/>
<feBlend mode="normal" in="SourceGraphic" in2="effect1_backgroundBlur_3437_24" result="shape"/>
<feColorMatrix in="SourceAlpha" type="matrix" values="0 0 0 0 0 0 0 0 0 0 0 0 0 0 0 0 0 0 127 0" result="hardAlpha"/>
<feOffset dy="-3"/>
<feGaussianBlur stdDeviation="3"/>
<feComposite in2="hardAlpha" operator="arithmetic" k2="-1" k3="1"/>
<feColorMatrix type="matrix" values="0 0 0 0 1 0 0 0 0 1 0 0 0 0 1 0 0 0 0.25 0"/>
<feBlend mode="normal" in2="shape" result="effect2_innerShadow_3437_24"/>
</filter>
<linearGradient id="paint0_linear_3437_24" x1="32" y1="0" x2="32" y2="64" gradientUnits="userSpaceOnUse">
<stop stop-color="white"/>
<stop offset="1" stop-color="#F0F6FF"/>
</linearGradient>
<linearGradient id="paint1_linear_3437_24" x1="32" y1="8" x2="32" y2="56" gradientUnits="userSpaceOnUse">
<stop stop-color="#009AFF"/>
<stop offset="1" stop-color="#0061E0"/>
</linearGradient>
<linearGradient id="paint2_linear_3437_24" x1="32" y1="8" x2="32" y2="56" gradientUnits="userSpaceOnUse">
<stop stop-color="#00DDFF"/>
<stop offset="1" stop-color="#007AFF"/>
</linearGradient>
<radialGradient id="paint3_radial_3437_24" cx="0" cy="0" r="1" gradientUnits="userSpaceOnUse" gradientTransform="translate(31.8575 31.9994) rotate(-90) scale(23.9596 24.1791)">
<stop stop-color="white" stop-opacity="0.75"/>
<stop offset="1" stop-color="white" stop-opacity="0.1"/>
</radialGradient>
<linearGradient id="paint4_linear_3437_24" x1="28" y1="15" x2="28" y2="48" gradientUnits="userSpaceOnUse">
<stop stop-color="white"/>
<stop offset="1" stop-color="#F0F6FF"/>
</linearGradient>
<linearGradient id="paint5_linear_3437_24" x1="35.9664" y1="9.40061" x2="35.9664" y2="53.4551" gradientUnits="userSpaceOnUse">
<stop stop-color="#B0DDFF"/>
<stop offset="1" stop-color="#80C2FF"/>
</linearGradient>
<clipPath id="clip0_3437_24">
<rect width="64" height="64" fill="white"/>
</clipPath>
</defs>
</svg>
