<svg width="35" height="20" viewBox="0 0 35 20" fill="none" xmlns="http://www.w3.org/2000/svg">
<rect width="35" height="20" fill="url(#paint0_linear_1000_29)"/>
<circle cx="7.5" cy="3.5" r="0.5" fill="white" fill-opacity="0.1"/>
<circle cx="8.5" cy="7.5" r="0.5" fill="white" fill-opacity="0.1"/>
<circle cx="10.5" cy="4.5" r="0.5" fill="white" fill-opacity="0.1"/>
<circle cx="26.5" cy="12.5" r="0.5" fill="white" fill-opacity="0.1"/>
<circle cx="27.5" cy="9.5" r="0.5" fill="white" fill-opacity="0.1"/>
<circle cx="28.5" cy="5.5" r="0.5" fill="white" fill-opacity="0.1"/>
<circle cx="25.5" cy="4.5" r="0.5" fill="white" fill-opacity="0.1"/>
<circle cx="9.5" cy="10.5" r="0.5" fill="white" fill-opacity="0.1"/>
<circle cx="7.5" cy="13.5" r="0.5" fill="white" fill-opacity="0.1"/>
<circle cx="10.5" cy="15.5" r="0.5" fill="white" fill-opacity="0.1"/>
<circle cx="21.5" cy="3.5" r="0.5" fill="white" fill-opacity="0.1"/>
<circle cx="15.5" cy="17.5" r="0.5" fill="white" fill-opacity="0.1"/>
<circle cx="25.5" cy="16.5" r="0.5" fill="white" fill-opacity="0.1"/>
<circle cx="28.5" cy="14.5" r="0.5" fill="white" fill-opacity="0.1"/>
<path d="M12.5 10C12.5 6.96243 14.9624 4.5 18 4.5V4.5C21.0376 4.5 23.5 6.96243 23.5 10V10C23.5 13.0376 21.0376 15.5 18 15.5V15.5C14.9624 15.5 12.5 13.0376 12.5 10V10Z" fill="url(#paint1_linear_1000_29)"/>
<path d="M13.8074 4.59628L13.6708 4.66459C13.2733 4.86335 13.0525 5.30235 13.1458 5.7369C14.1922 10.6118 16.5948 13.7866 22.28 14.8759C22.7067 14.9577 23.1317 14.7365 23.326 14.348L23.3945 14.211C23.6954 13.6092 23.3249 12.8893 22.6693 12.7383C18.1418 11.6954 16.2667 9.51378 15.2711 5.30706C15.1175 4.65832 14.4037 4.29814 13.8074 4.59628Z" fill="url(#paint2_linear_1000_29)"/>
<defs>
<linearGradient id="paint0_linear_1000_29" x1="0" y1="0" x2="18.9189" y2="26.4865" gradientUnits="userSpaceOnUse">
<stop stop-color="#B040C0"/>
<stop offset="1" stop-color="#00295E"/>
</linearGradient>
<linearGradient id="paint1_linear_1000_29" x1="18" y1="4.5" x2="18" y2="15.5" gradientUnits="userSpaceOnUse">
<stop stop-color="#00DDFF"/>
<stop offset="1" stop-color="#FF80CC"/>
</linearGradient>
<linearGradient id="paint2_linear_1000_29" x1="13" y1="4" x2="24" y2="15" gradientUnits="userSpaceOnUse">
<stop stop-color="#1C7EFF"/>
<stop offset="1" stop-color="#AF46F4"/>
</linearGradient>
</defs>
</svg>
