<svg width="64" height="64" viewBox="0 0 64 64" fill="none" xmlns="http://www.w3.org/2000/svg">
<g clip-path="url(#clip0_3301_3)">
<rect width="64" height="64" fill="url(#paint0_linear_3301_3)"/>
<mask id="mask0_3301_3" style="mask-type:alpha" maskUnits="userSpaceOnUse" x="0" y="0" width="64" height="64">
<rect width="64" height="64" fill="white"/>
</mask>
<g mask="url(#mask0_3301_3)">
<path d="M46 28H31.9971C29.788 28 27.9996 29.7884 27.9996 31.9975V46C27.9996 52 32 56 38 56H39.9601C42.1849 56 43.9996 54.1846 43.9996 51.9598V48C43.9996 45.7909 45.7905 44 47.9996 44H51.9996C54.2088 44 55.9996 42.2098 55.9996 40.0007V38C55.9996 32 52 28 46 28Z" fill="url(#paint1_linear_3301_3)"/>
<g filter="url(#filter0_b_3301_3)">
<path d="M12 16C12 13.7909 13.7909 12 16 12H24C35.0457 12 44 20.9543 44 32V40C44 42.2091 42.2091 44 40 44H32C20.9543 44 12 35.0457 12 24V16Z" fill="white" fill-opacity="0.7"/>
</g>
<circle cx="28" cy="28" r="6" fill="black" fill-opacity="0.1"/>
</g>
</g>
<defs>
<filter id="filter0_b_3301_3" x="4" y="4" width="48" height="48" filterUnits="userSpaceOnUse" color-interpolation-filters="sRGB">
<feFlood flood-opacity="0" result="BackgroundImageFix"/>
<feGaussianBlur in="BackgroundImageFix" stdDeviation="4"/>
<feComposite in2="SourceAlpha" operator="in" result="effect1_backgroundBlur_3301_3"/>
<feBlend mode="normal" in="SourceGraphic" in2="effect1_backgroundBlur_3301_3" result="shape"/>
</filter>
<linearGradient id="paint0_linear_3301_3" x1="32" y1="0" x2="32" y2="64" gradientUnits="userSpaceOnUse">
<stop stop-color="#D0D2E5"/>
<stop offset="1" stop-color="#B0B2D5"/>
</linearGradient>
<linearGradient id="paint1_linear_3301_3" x1="41.9996" y1="28" x2="41.9996" y2="56" gradientUnits="userSpaceOnUse">
<stop stop-color="#606275"/>
<stop offset="1" stop-color="#404265"/>
</linearGradient>
<clipPath id="clip0_3301_3">
<rect width="64" height="64" fill="white"/>
</clipPath>
</defs>
</svg>
