<svg width="16" height="16" viewBox="0 0 16 16" fill="none" xmlns="http://www.w3.org/2000/svg">
<g clip-path="url(#clip0_91_1717)">
<g filter="url(#filter0_i_91_1717)">
<rect width="16" height="16" rx="8" fill="url(#paint0_radial_91_1717)"/>
</g>
<path d="M4 4.63719C4 4.34444 4.30808 4.15404 4.56992 4.28496L5.83295 4.91647C5.93533 4.96766 6 5.07231 6 5.18677V6C6 6.55228 5.55228 7 5 7C4.44772 7 4 6.55228 4 6V4.63719Z" fill="url(#paint1_linear_91_1717)"/>
<path d="M10 5.18677C10 5.07231 10.0647 4.96766 10.1671 4.91647L11.4301 4.28496C11.6919 4.15404 12 4.34444 12 4.63719V6C12 6.55228 11.5523 7 11 7C10.4477 7 10 6.55228 10 6V5.18677Z" fill="url(#paint2_linear_91_1717)"/>
<path d="M4.5 11.5V11.5C5.11287 10.2743 6.36566 9.5 7.73607 9.5H8.26393C9.63434 9.5 10.8871 10.2743 11.5 11.5V11.5" stroke="url(#paint3_linear_91_1717)" stroke-linecap="round" stroke-linejoin="round"/>
<g filter="url(#filter1_di_91_1717)">
<path d="M3.5 3.5L3.75192 3.66795C4.56573 4.21049 5.52192 4.5 6.5 4.5V4.5M9.5 4.5V4.5C10.4781 4.5 11.4343 4.21049 12.2481 3.66795L12.5 3.5" stroke="#803000" stroke-linecap="round" stroke-linejoin="round"/>
</g>
</g>
<defs>
<filter id="filter0_i_91_1717" x="0" y="-2" width="16" height="18" filterUnits="userSpaceOnUse" color-interpolation-filters="sRGB">
<feFlood flood-opacity="0" result="BackgroundImageFix"/>
<feBlend mode="normal" in="SourceGraphic" in2="BackgroundImageFix" result="shape"/>
<feColorMatrix in="SourceAlpha" type="matrix" values="0 0 0 0 0 0 0 0 0 0 0 0 0 0 0 0 0 0 127 0" result="hardAlpha"/>
<feOffset dy="-2"/>
<feGaussianBlur stdDeviation="2"/>
<feComposite in2="hardAlpha" operator="arithmetic" k2="-1" k3="1"/>
<feColorMatrix type="matrix" values="0 0 0 0 0.71 0 0 0 0 0 0 0 0 0 0.5964 0 0 0 0.5 0"/>
<feBlend mode="normal" in2="shape" result="effect1_innerShadow_91_1717"/>
</filter>
<filter id="filter1_di_91_1717" x="1.99994" y="2.49994" width="12.0001" height="4.50006" filterUnits="userSpaceOnUse" color-interpolation-filters="sRGB">
<feFlood flood-opacity="0" result="BackgroundImageFix"/>
<feColorMatrix in="SourceAlpha" type="matrix" values="0 0 0 0 0 0 0 0 0 0 0 0 0 0 0 0 0 0 127 0" result="hardAlpha"/>
<feOffset dy="1"/>
<feGaussianBlur stdDeviation="0.5"/>
<feComposite in2="hardAlpha" operator="out"/>
<feColorMatrix type="matrix" values="0 0 0 0 0 0 0 0 0 0 0 0 0 0 0 0 0 0 0.1 0"/>
<feBlend mode="normal" in2="BackgroundImageFix" result="effect1_dropShadow_91_1717"/>
<feBlend mode="normal" in="SourceGraphic" in2="effect1_dropShadow_91_1717" result="shape"/>
<feColorMatrix in="SourceAlpha" type="matrix" values="0 0 0 0 0 0 0 0 0 0 0 0 0 0 0 0 0 0 127 0" result="hardAlpha"/>
<feOffset dy="-0.5"/>
<feGaussianBlur stdDeviation="0.5"/>
<feComposite in2="hardAlpha" operator="arithmetic" k2="-1" k3="1"/>
<feColorMatrix type="matrix" values="0 0 0 0 0.71 0 0 0 0 0 0 0 0 0 0.5964 0 0 0 0.5 0"/>
<feBlend mode="normal" in2="shape" result="effect2_innerShadow_91_1717"/>
</filter>
<radialGradient id="paint0_radial_91_1717" cx="0" cy="0" r="1" gradientUnits="userSpaceOnUse" gradientTransform="translate(8) rotate(90) scale(16)">
<stop offset="0.244977" stop-color="#FFC000"/>
<stop offset="1" stop-color="#FF6040"/>
</radialGradient>
<linearGradient id="paint1_linear_91_1717" x1="5" y1="4" x2="5" y2="7" gradientUnits="userSpaceOnUse">
<stop/>
<stop offset="1" stop-opacity="0.75"/>
</linearGradient>
<linearGradient id="paint2_linear_91_1717" x1="11" y1="4" x2="11" y2="7" gradientUnits="userSpaceOnUse">
<stop/>
<stop offset="1" stop-opacity="0.75"/>
</linearGradient>
<linearGradient id="paint3_linear_91_1717" x1="8" y1="10" x2="8" y2="13" gradientUnits="userSpaceOnUse">
<stop stop-opacity="0.75"/>
<stop offset="1"/>
</linearGradient>
<clipPath id="clip0_91_1717">
<rect width="16" height="16" fill="white"/>
</clipPath>
</defs>
</svg>
