<svg width="16" height="16" viewBox="0 0 16 16" fill="none" xmlns="http://www.w3.org/2000/svg">
<g clip-path="url(#clip0_91_1739)">
<g filter="url(#filter0_i_91_1739)">
<path d="M1 3H3M3 3L13 13M3 3V1M13 13V15M13 13H15" stroke="url(#paint0_linear_91_1739)" stroke-width="2" stroke-linecap="round"/>
</g>
<g filter="url(#filter1_i_91_1739)">
<path d="M15 3H13M13 3L3 13M13 3V1M3 13V15M3 13H1" stroke="url(#paint1_linear_91_1739)" stroke-width="2" stroke-linecap="round"/>
</g>
<g filter="url(#filter2_i_91_1739)">
<path fill-rule="evenodd" clip-rule="evenodd" d="M8 2C5.10051 2 2.75 4.35051 2.75 7.25C2.75 8.95953 3.56709 10.4782 4.83204 11.4368C5.22277 11.7329 5.5 12.173 5.5 12.6633V13.375C5.5 13.7202 5.77982 14 6.125 14C6.47018 14 6.75 13.7202 6.75 13.375V12.75C6.75 12.6119 6.86193 12.5 7 12.5C7.13807 12.5 7.25 12.6119 7.25 12.75V13.25C7.25 13.6642 7.58579 14 8 14C8.41421 14 8.75 13.6642 8.75 13.25V12.75C8.75 12.6119 8.86193 12.5 9 12.5C9.13807 12.5 9.25 12.6119 9.25 12.75V13.375C9.25 13.7202 9.52982 14 9.875 14C10.2202 14 10.5 13.7202 10.5 13.375V12.6633C10.5 12.173 10.7772 11.7329 11.168 11.4368C12.4329 10.4782 13.25 8.95953 13.25 7.25C13.25 4.35051 10.8995 2 8 2Z" fill="url(#paint2_radial_91_1739)"/>
</g>
<path d="M7 10L7.46967 9.53033C7.76256 9.23744 8.23744 9.23744 8.53033 9.53033L9 10" stroke="url(#paint3_linear_91_1739)" stroke-width="0.75" stroke-linecap="round"/>
<rect x="5" y="5.75" width="1.5" height="2.25" rx="0.75" fill="url(#paint4_linear_91_1739)"/>
<path d="M9.5 6.5C9.5 6.08579 9.83579 5.75 10.25 5.75C10.6642 5.75 11 6.08579 11 6.5V7.25C11 7.66421 10.6642 8 10.25 8C9.83579 8 9.5 7.66421 9.5 7.25V6.5Z" fill="url(#paint5_linear_91_1739)"/>
</g>
<defs>
<filter id="filter0_i_91_1739" x="0" y="-0.5" width="16" height="16.5" filterUnits="userSpaceOnUse" color-interpolation-filters="sRGB">
<feFlood flood-opacity="0" result="BackgroundImageFix"/>
<feBlend mode="normal" in="SourceGraphic" in2="BackgroundImageFix" result="shape"/>
<feColorMatrix in="SourceAlpha" type="matrix" values="0 0 0 0 0 0 0 0 0 0 0 0 0 0 0 0 0 0 127 0" result="hardAlpha"/>
<feOffset dy="-0.5"/>
<feGaussianBlur stdDeviation="0.75"/>
<feComposite in2="hardAlpha" operator="arithmetic" k2="-1" k3="1"/>
<feColorMatrix type="matrix" values="0 0 0 0 0.71 0 0 0 0 0 0 0 0 0 0.5964 0 0 0 0.5 0"/>
<feBlend mode="normal" in2="shape" result="effect1_innerShadow_91_1739"/>
</filter>
<filter id="filter1_i_91_1739" x="0" y="-0.5" width="16" height="16.5" filterUnits="userSpaceOnUse" color-interpolation-filters="sRGB">
<feFlood flood-opacity="0" result="BackgroundImageFix"/>
<feBlend mode="normal" in="SourceGraphic" in2="BackgroundImageFix" result="shape"/>
<feColorMatrix in="SourceAlpha" type="matrix" values="0 0 0 0 0 0 0 0 0 0 0 0 0 0 0 0 0 0 127 0" result="hardAlpha"/>
<feOffset dy="-0.5"/>
<feGaussianBlur stdDeviation="0.75"/>
<feComposite in2="hardAlpha" operator="arithmetic" k2="-1" k3="1"/>
<feColorMatrix type="matrix" values="0 0 0 0 0.71 0 0 0 0 0 0 0 0 0 0.5964 0 0 0 0.5 0"/>
<feBlend mode="normal" in2="shape" result="effect1_innerShadow_91_1739"/>
</filter>
<filter id="filter2_i_91_1739" x="2.75" y="0.5" width="10.5" height="13.5" filterUnits="userSpaceOnUse" color-interpolation-filters="sRGB">
<feFlood flood-opacity="0" result="BackgroundImageFix"/>
<feBlend mode="normal" in="SourceGraphic" in2="BackgroundImageFix" result="shape"/>
<feColorMatrix in="SourceAlpha" type="matrix" values="0 0 0 0 0 0 0 0 0 0 0 0 0 0 0 0 0 0 127 0" result="hardAlpha"/>
<feOffset dy="-1.5"/>
<feGaussianBlur stdDeviation="1.5"/>
<feComposite in2="hardAlpha" operator="arithmetic" k2="-1" k3="1"/>
<feColorMatrix type="matrix" values="0 0 0 0 0.71 0 0 0 0 0 0 0 0 0 0.5964 0 0 0 0.5 0"/>
<feBlend mode="normal" in2="shape" result="effect1_innerShadow_91_1739"/>
</filter>
<linearGradient id="paint0_linear_91_1739" x1="8" y1="0" x2="8" y2="16" gradientUnits="userSpaceOnUse">
<stop stop-color="#A6A6A6"/>
<stop offset="1" stop-color="#6A6A6A"/>
</linearGradient>
<linearGradient id="paint1_linear_91_1739" x1="8" y1="0" x2="8" y2="16" gradientUnits="userSpaceOnUse">
<stop stop-color="#A6A6A6"/>
<stop offset="1" stop-color="#6A6A6A"/>
</linearGradient>
<radialGradient id="paint2_radial_91_1739" cx="0" cy="0" r="1" gradientUnits="userSpaceOnUse" gradientTransform="translate(8 2) rotate(90) scale(12 10.5)">
<stop offset="0.169805" stop-color="white"/>
<stop offset="1" stop-color="#B0DDFF"/>
</radialGradient>
<linearGradient id="paint3_linear_91_1739" x1="8" y1="8.75" x2="8" y2="9.875" gradientUnits="userSpaceOnUse">
<stop stop-opacity="0.75"/>
<stop offset="1"/>
</linearGradient>
<linearGradient id="paint4_linear_91_1739" x1="5.75" y1="5.75" x2="5.75" y2="8" gradientUnits="userSpaceOnUse">
<stop/>
<stop offset="1" stop-opacity="0.75"/>
</linearGradient>
<linearGradient id="paint5_linear_91_1739" x1="10.25" y1="5.75" x2="10.25" y2="8" gradientUnits="userSpaceOnUse">
<stop/>
<stop offset="1" stop-opacity="0.75"/>
</linearGradient>
<clipPath id="clip0_91_1739">
<rect width="16" height="16" fill="white"/>
</clipPath>
</defs>
</svg>
