<svg width="16" height="16" viewBox="0 0 16 16" fill="none" xmlns="http://www.w3.org/2000/svg">
<path d="M3 10H2C1.17157 10 0.5 9.32843 0.5 8.5V7.76521C0.5 6.67571 1.08217 5.64866 2.09311 5.24244C5.80099 3.75252 10.199 3.75252 13.9069 5.24244C14.9178 5.64866 15.5 6.67571 15.5 7.76521V8.5C15.5 9.32843 14.8284 10 14 10H13C12.1716 10 11.5 9.32843 11.5 8.5V7.92705C11.5 7.35889 11.1825 6.8271 10.6425 6.65041C9.01087 6.11653 6.98913 6.11653 5.3575 6.65041C4.81751 6.8271 4.5 7.35889 4.5 7.92705V8.5C4.5 9.32843 3.82843 10 3 10Z" stroke="white"/>
<path d="M0.5 12H15.5" stroke="white" stroke-opacity="0.5" stroke-linecap="round"/>
</svg>
