<svg width="16" height="16" viewBox="0 0 16 16" fill="none" xmlns="http://www.w3.org/2000/svg">
<path d="M6.35883 2.29418L6.64117 3.70583C6.8268 4.63401 6.11686 5.5 5.17029 5.5H4C3.17157 5.5 2.5 6.17157 2.5 7V7.81268C2.5 8.77231 3.38863 9.48514 4.3254 9.27696L5.1746 9.08825C6.11137 8.88008 7 9.59291 7 10.5525V10.6301C7 11.5897 6.11137 12.3025 5.1746 12.0944L4.3254 11.9056C3.38863 11.6975 2.5 12.4103 2.5 13.3699V14C2.5 14.8284 3.17157 15.5 4 15.5H12C12.8284 15.5 13.5 14.8284 13.5 14V7C13.5 6.17157 12.8284 5.5 12 5.5H10.8297C9.88314 5.5 9.1732 4.63401 9.35884 3.70582L9.64117 2.29417C9.8268 1.36599 9.11686 0.5 8.17029 0.5H7.82971C6.88314 0.5 6.1732 1.36599 6.35883 2.29418Z" stroke="white" stroke-linecap="round" stroke-linejoin="round"/>
</svg>
