<svg width="16" height="16" viewBox="0 0 16 16" fill="none" xmlns="http://www.w3.org/2000/svg">
<g clip-path="url(#clip0_49_8)">
<path d="M4.5 5L6.93934 7.43934C7.52513 8.02513 8.47487 8.02513 9.06066 7.43934L10.5 6M8 14.5V14.5C11.5899 14.5 14.5 11.5899 14.5 8V8C14.5 4.41015 11.5899 1.5 8 1.5V1.5C4.41015 1.5 1.5 4.41015 1.5 8V8C1.5 11.5899 4.41015 14.5 8 14.5Z" stroke="white" stroke-linecap="round" stroke-linejoin="round"/>
<path fill-rule="evenodd" clip-rule="evenodd" d="M3.35357 0.646446C2.88216 0.175041 2.11787 0.175041 1.64646 0.646446L0.646461 1.64645C0.175056 2.11785 0.175057 2.88215 0.646461 3.35355C1.11787 3.82496 1.88216 3.82496 2.35357 3.35355L3.35357 2.35355C3.82497 1.88215 3.82497 1.11785 3.35357 0.646446ZM13.6465 3.35355C14.1179 3.82496 14.8822 3.82496 15.3536 3.35355C15.825 2.88215 15.825 2.11785 15.3536 1.64645L14.3536 0.646446C13.8822 0.175041 13.1179 0.175041 12.6465 0.646446C12.1751 1.11785 12.1751 1.88215 12.6465 2.35355L13.6465 3.35355Z" fill="white" fill-opacity="0.5"/>
<path d="M3.5 13L2.5 15.5M12.5 13L13.5 15.5" stroke="white" stroke-linecap="round" stroke-linejoin="round"/>
</g>
<defs>
<clipPath id="clip0_49_8">
<rect width="16" height="16" fill="white"/>
</clipPath>
</defs>
</svg>
