<svg width="16" height="16" viewBox="0 0 16 16" fill="none" xmlns="http://www.w3.org/2000/svg">
<g clip-path="url(#clip0_421_8)">
<path d="M3.5 3.5H9.5C11.1569 3.5 12.5 4.84315 12.5 6.5V12.5C12.5 14.1569 11.1569 15.5 9.5 15.5H3.5C1.84315 15.5 0.5 14.1569 0.5 12.5V6.5C0.5 4.84315 1.84315 3.5 3.5 3.5Z" stroke="white" stroke-linecap="round" stroke-linejoin="round"/>
<path fill-rule="evenodd" clip-rule="evenodd" d="M3.50001 2C3.47013 2 3.45088 1.96809 3.46552 1.94204C4.17343 0.682775 5.6217 -0.0542351 7.12506 0.210847L13.0339 1.25274C14.9375 1.5884 16.2086 3.4037 15.873 5.30733L14.8311 11.2162C14.7405 11.7298 14.5422 12.1973 14.2636 12.5997C14.1802 12.7202 14 12.6466 14 12.5V10.2581C14 10.1999 14.0051 10.1418 14.0152 10.0844L14.8882 5.13368C15.1279 3.77395 14.22 2.4773 12.8603 2.23754L6.95141 1.19565C6.22257 1.06714 5.51186 1.26837 4.97233 1.69217C4.74745 1.8688 4.48177 2 4.19581 2H3.50001Z" fill="white" fill-opacity="0.5"/>
</g>
<defs>
<clipPath id="clip0_421_8">
<rect width="16" height="16" fill="white"/>
</clipPath>
</defs>
</svg>
