<svg width="16" height="16" viewBox="0 0 16 16" fill="none" xmlns="http://www.w3.org/2000/svg">
<g clip-path="url(#clip0_10_1608)">
<path d="M0.5 15.5L15.5 0.5" stroke="white" stroke-linecap="round" stroke-linejoin="round"/>
<path fill-rule="evenodd" clip-rule="evenodd" d="M12.2008 1.67789C12.3165 1.56221 12.3566 1.38604 12.2711 1.24654C11.9968 0.798757 11.5029 0.5 10.9393 0.5C10.5254 0.5 10.1285 0.664425 9.83579 0.957106L7.08579 3.70711C6.89825 3.89464 6.6439 4 6.37868 4H5.5C4.39543 4 3.5 4.89543 3.5 6V10C3.5 10.1474 3.67361 10.2051 3.77786 10.1008L4.32809 9.55058C4.43816 9.44052 4.5 9.29123 4.5 9.13557V6C4.5 5.44772 4.94772 5 5.5 5H5.8033C6.18808 5 6.5 5.31192 6.5 5.6967V6.17157C6.5 6.61702 7.03857 6.84011 7.35355 6.52513C7.44732 6.43136 7.5 6.30418 7.5 6.17157V5.12132C7.5 4.8561 7.60536 4.60175 7.79289 4.41421L10.5429 1.66421C10.648 1.55907 10.7906 1.5 10.9393 1.5C11.249 1.5 11.5 1.75102 11.5 2.06066C11.5 2.17802 11.6419 2.23679 11.7249 2.15381L12.2008 1.67789ZM7.09467 11.0267C7.24425 10.8771 7.5 10.983 7.5 11.1945C7.5 11.2575 7.52502 11.3179 7.56954 11.3624L10.5429 14.3358C10.648 14.4409 10.7906 14.5 10.9393 14.5C11.249 14.5 11.5 14.249 11.5 13.9393V6.82843C11.5 6.69582 11.5527 6.56864 11.6464 6.47487C11.9614 6.15989 12.5 6.38297 12.5 6.82843V13.9393C12.5 14.8013 11.8013 15.5 10.9393 15.5C10.5254 15.5 10.1285 15.3356 9.83579 15.0429L6.86244 12.0695C6.81791 12.025 6.75752 12 6.69454 12C6.48301 12 6.37707 11.7442 6.52665 11.5947L7.09467 11.0267Z" fill="white" fill-opacity="0.5"/>
</g>
<defs>
<clipPath id="clip0_10_1608">
<rect width="16" height="16" fill="white"/>
</clipPath>
</defs>
</svg>
