<svg width="16" height="16" viewBox="0 0 16 16" fill="none" xmlns="http://www.w3.org/2000/svg">
<g clip-path="url(#clip0_1_1303)">
<path d="M3.5 11.5H2C1.17157 11.5 0.5 10.8284 0.5 10V6C0.5 5.17157 1.17157 4.5 2 4.5H3.5M3.5 11.5V4.5M3.5 11.5L6.68934 14.6893C6.88825 14.8883 7.15804 15 7.43934 15V15C8.02513 15 8.5 14.5251 8.5 13.9393V2.06066C8.5 1.47487 8.02513 1 7.43934 1V1C7.15804 1 6.88825 1.11175 6.68934 1.31066L3.5 4.5" stroke="white" stroke-linecap="round" stroke-linejoin="round"/>
<path fill-rule="evenodd" clip-rule="evenodd" d="M10 13.5C10 13.7761 10.2246 14.0022 10.4998 13.9795C13.5797 13.7255 16 11.1454 16 8C16 4.85462 13.5797 2.27453 10.4998 2.02052C10.2246 1.99783 10 2.22386 10 2.5C10 2.77614 10.2245 2.99737 10.4993 3.02462C13.0263 3.27516 15 5.40709 15 8C15 10.5929 13.0263 12.7248 10.4993 12.9754C10.2245 13.0026 10 13.2239 10 13.5ZM10 11.5C10 11.7761 10.225 12.0033 10.499 11.9692C12.4726 11.7236 14 10.0402 14 8C14 5.95985 12.4726 4.27643 10.499 4.03082C10.225 3.99672 10 4.22386 10 4.5C10 4.77614 10.2255 4.99563 10.4979 5.04113C11.9178 5.2783 13 6.51277 13 8C13 9.48723 11.9178 10.7217 10.4979 10.9589C10.2255 11.0044 10 11.2239 10 11.5ZM10 9.5C10 9.77614 10.2273 10.0064 10.4949 9.93829C11.3601 9.71803 12 8.93374 12 8C12 7.06626 11.3601 6.28197 10.4949 6.06171C10.2273 5.99359 10 6.22386 10 6.5C10 6.77614 10.2373 6.98964 10.4795 7.12224C10.7897 7.29203 11 7.62145 11 8C11 8.37855 10.7897 8.70797 10.4795 8.87776C10.2373 9.01036 10 9.22386 10 9.5Z" fill="white"/>
</g>
<defs>
<clipPath id="clip0_1_1303">
<rect width="16" height="16" fill="white"/>
</clipPath>
</defs>
</svg>
