<svg width="16" height="16" viewBox="0 0 16 16" fill="none" xmlns="http://www.w3.org/2000/svg">
<path d="M4.5 11.5H3C2.17157 11.5 1.5 10.8284 1.5 10V6C1.5 5.17157 2.17157 4.5 3 4.5H4.5M4.5 11.5V4.5M4.5 11.5L7.68934 14.6893C7.88825 14.8883 8.15804 15 8.43934 15V15C9.02513 15 9.5 14.5251 9.5 13.9393V2.06066C9.5 1.47487 9.02513 1 8.43934 1V1C8.15804 1 7.88825 1.11175 7.68934 1.31066L4.5 4.5" stroke="white" stroke-linecap="round" stroke-linejoin="round"/>
<path fill-rule="evenodd" clip-rule="evenodd" d="M11 11.5C11 11.7761 11.225 12.0033 11.499 11.9692C13.4726 11.7236 15 10.0401 15 8C15 5.95985 13.4726 4.27643 11.499 4.03082C11.225 3.99672 11 4.22385 11 4.5C11 4.77614 11.2255 4.99563 11.4979 5.04113C12.9178 5.2783 14 6.51277 14 8C14 9.48723 12.9178 10.7217 11.4979 10.9589C11.2255 11.0044 11 11.2239 11 11.5ZM11 9.5C11 9.77614 11.2273 10.0064 11.4949 9.93828C12.3601 9.71803 13 8.93374 13 8C13 7.06626 12.3601 6.28197 11.4949 6.06171C11.2273 5.99358 11 6.22385 11 6.5C11 6.77614 11.2373 6.98963 11.4795 7.12223C11.7897 7.29203 12 7.62145 12 8C12 8.37854 11.7897 8.70796 11.4795 8.87776C11.2373 9.01036 11 9.22385 11 9.5Z" fill="white"/>
</svg>
