<svg width="16" height="16" viewBox="0 0 16 16" fill="none" xmlns="http://www.w3.org/2000/svg">
<g clip-path="url(#clip0_252_2)">
<path d="M15.3 12.5L15.3781 13.6711C15.4411 14.6167 14.6225 15.383 13.6832 15.2578L6.51534 14.302C3.07176 13.8429 0.5 10.9055 0.5 7.43142V7.43142C0.5 3.6033 3.6033 0.5 7.43142 0.5H7.93288C11.4202 0.5 14.3827 3.0513 14.9 6.5V6.5M15.3 12.5L8.29193 10.7031C7.79826 10.5765 7.40263 10.2079 7.24147 9.72441L6.69863 8.0959C6.36359 7.09076 7.14795 6.06449 8.2058 6.12392L14.9 6.5M15.3 12.5L14.9 6.5" stroke="white" stroke-linecap="round" stroke-linejoin="round"/>
</g>
<defs>
<clipPath id="clip0_252_2">
<rect width="16" height="16" fill="white"/>
</clipPath>
</defs>
</svg>
