<svg width="16" height="16" viewBox="0 0 16 16" fill="none" xmlns="http://www.w3.org/2000/svg">
<g clip-path="url(#clip0_12_1638)">
<path d="M0.5 15.5L15.5 0.5" stroke="white" stroke-linecap="round" stroke-linejoin="round"/>
<path fill-rule="evenodd" clip-rule="evenodd" d="M11.0225 2.85615C11.2097 2.66895 11.2186 2.36828 11.0427 2.17041L10.1211 1.13365C9.20477 0.102767 7.5 0.750921 7.5 2.1302V5.17157C7.5 5.61702 8.03857 5.84011 8.35355 5.52512C8.44732 5.43135 8.5 5.30418 8.5 5.17157V2.1302C8.5 1.67044 9.06826 1.45439 9.3737 1.79801L10.2953 2.83478C10.4864 3.0498 10.8191 3.05957 11.0225 2.85615ZM6.93934 6.93934C7.1346 6.74407 7.1346 6.42749 6.93934 6.23223L4.35355 3.64644C4.15829 3.45118 3.84171 3.45118 3.64645 3.64644C3.45118 3.84171 3.45118 4.15829 3.64645 4.35355L6.23223 6.93934C6.42749 7.1346 6.74408 7.1346 6.93934 6.93934ZM7.64645 10.4749C7.55268 10.5686 7.5 10.6958 7.5 10.8284V13.8698C7.5 15.2491 9.20477 15.8972 10.1211 14.8663L11.7473 13.0369C12.2749 12.4433 12.2484 11.5413 11.6868 10.9797L9.76777 9.06066C9.5725 8.86539 9.25592 8.86539 9.06066 9.06066C8.8654 9.25592 8.8654 9.5725 9.06066 9.76776L10.9797 11.6868C11.1669 11.874 11.1757 12.1747 10.9999 12.3726L9.3737 14.202C9.06826 14.5456 8.5 14.3296 8.5 13.8698V10.8284C8.5 10.383 7.96143 10.1599 7.64645 10.4749Z" fill="white" fill-opacity="0.5"/>
</g>
<defs>
<clipPath id="clip0_12_1638">
<rect width="16" height="16" fill="white"/>
</clipPath>
</defs>
</svg>
