<svg width="16" height="16" viewBox="0 0 16 16" fill="none" xmlns="http://www.w3.org/2000/svg">
<path d="M8 3.5L7.5077 3.1718C6.85063 2.73375 6.0786 2.5 5.2889 2.5H2C1.17157 2.5 0.5 3.17157 0.5 4V11C0.5 11.8284 1.17157 12.5 2 12.5H5.2889C6.0786 12.5 6.85063 12.7338 7.5077 13.1718L8 13.5M8 3.5L8.4923 3.1718C9.14937 2.73375 9.9214 2.5 10.7111 2.5H14C14.8284 2.5 15.5 3.17157 15.5 4V11C15.5 11.8284 14.8284 12.5 14 12.5H10.7111C9.9214 12.5 9.14937 12.7338 8.4923 13.1718L8 13.5M8 3.5V13.5" stroke="white" stroke-linecap="round" stroke-linejoin="round"/>
</svg>
