<svg width="16" height="16" viewBox="0 0 16 16" fill="none" xmlns="http://www.w3.org/2000/svg">
<path d="M8.5 8.5V7.5C8.5 5.29086 6.70914 3.5 4.5 3.5H3C2.17157 3.5 1.5 4.17157 1.5 5V6.5C1.5 8.70914 3.29086 10.5 5.5 10.5H6.5M8.5 8.5L6.5 10.5M8.5 8.5L9.86754 9.18377C10.1787 9.33934 10.246 9.75402 10 10V10M6.5 10.5L7.18377 11.8675C7.33934 12.1787 7.75402 12.246 8 12V12M8 12L9.5 14.5M8 12L10 10M10 10L14.5 13.5" stroke="white" stroke-linecap="round" stroke-linejoin="round"/>
<path fill-rule="evenodd" clip-rule="evenodd" d="M5.82935 2.16173C5.9946 2.20275 6.16679 2.20971 6.33414 2.17838C8.98477 1.68218 11.8128 2.51993 13.6464 4.35355C13.8417 4.54881 14.1583 4.54882 14.3535 4.35355C14.5488 4.15829 14.5488 3.84171 14.3535 3.64645C11.893 1.18591 7.84722 0.308598 4.4337 1.69572C4.26255 1.76527 4.31526 2 4.5 2C4.95838 2 5.40365 2.05607 5.82935 2.16173Z" fill="white" fill-opacity="0.5"/>
</svg>
