<svg width="16" height="16" viewBox="0 0 16 16" fill="none" xmlns="http://www.w3.org/2000/svg">
<g clip-path="url(#clip0_41_269)">
<path d="M4.5 7.5L1 6.5M4.5 7.5V10M4.5 7.5H8M11.5 7.5L15 6.5M11.5 7.5V10M11.5 7.5H8M11.5 10H15.5M11.5 10V12.75M11.5 12.75V12.75C11.5 14.2688 10.2688 15.5 8.75 15.5H8M11.5 12.75L15 13.75M4.5 10H0.5M4.5 10V12.5M4.5 12.5V12.5C4.5 14.1569 5.84315 15.5 7.5 15.5H8M4.5 12.5L1 13.75M8 7.5V15.5M7.125 2H8.875C10.3247 2 11.5 3.17525 11.5 4.625V4.625C11.5 5.10825 11.1082 5.5 10.625 5.5H5.375C4.89175 5.5 4.5 5.10825 4.5 4.625V4.625C4.5 3.17525 5.67525 2 7.125 2Z" stroke="white" stroke-linecap="round" stroke-linejoin="round"/>
<path d="M10 2L11.5 0.5M6 2L4.5 0.5" stroke="white" stroke-linecap="round" stroke-linejoin="round"/>
</g>
<defs>
<clipPath id="clip0_41_269">
<rect width="16" height="16" fill="white"/>
</clipPath>
</defs>
</svg>
