<svg width="16" height="16" viewBox="0 0 16 16" fill="none" xmlns="http://www.w3.org/2000/svg">
<path d="M12.5 3.5H2.48859C1.49203 3.5 0.772531 4.45386 1.04631 5.41208L2.18917 9.41208C2.37315 10.056 2.96173 10.5 3.63145 10.5H10.1991C10.9455 10.5 11.5784 9.95111 11.684 9.21213L12.5 3.5ZM12.5 3.5L13.0607 2.93934C13.342 2.65804 13.7235 2.5 14.1213 2.5H15.5M10 13.5V13.5C10.2761 13.5 10.5 13.2761 10.5 13V13C10.5 12.7239 10.2761 12.5 10 12.5V12.5C9.72386 12.5 9.5 12.7239 9.5 13V13C9.5 13.2761 9.72386 13.5 10 13.5ZM5 13.5V13.5C5.27614 13.5 5.5 13.2761 5.5 13V13C5.5 12.7239 5.27614 12.5 5 12.5V12.5C4.72386 12.5 4.5 12.7239 4.5 13V13C4.5 13.2761 4.72386 13.5 5 13.5Z" stroke="white" stroke-linecap="round" stroke-linejoin="round"/>
</svg>
