<svg width="16" height="16" viewBox="0 0 16 16" fill="none" xmlns="http://www.w3.org/2000/svg">
<path d="M7.5 2.5H4C3.17157 2.5 2.5 3.17157 2.5 4V14C2.5 14.8284 3.17157 15.5 4 15.5H10C10.8284 15.5 11.5 14.8284 11.5 14V6.5M7.5 2.5H7.87868C8.2765 2.5 8.65804 2.65804 8.93934 2.93934L11.0607 5.06066C11.342 5.34196 11.5 5.7235 11.5 6.12132V6.5M7.5 2.5V5C7.5 5.82843 8.17157 6.5 9 6.5H11.5" stroke="white" stroke-linejoin="round"/>
<path fill-rule="evenodd" clip-rule="evenodd" d="M6.00001 1C5.23041 1 4.88242 0.170187 5.63959 0.0323901C5.7565 0.011113 5.87696 0 6.00001 0H9.50001H9.87869C10.4091 0 10.9178 0.210714 11.2929 0.585786L13.4142 2.70711C13.7893 3.08218 14 3.59089 14 4.12132V4.5V12C14 12.1231 13.9889 12.2435 13.9676 12.3604C13.8298 13.1176 13 12.7696 13 12V6.5V6.12132V5.1298C13 5.05811 12.9419 5 12.8702 5C12.8173 5 12.7698 4.96772 12.7486 4.9192C12.6785 4.75889 12.5944 4.60465 12.4969 4.45836C12.3755 4.27605 12.4959 4 12.7149 4C12.8625 4 12.9787 3.86849 12.9213 3.73249C12.8716 3.61469 12.7993 3.50638 12.7071 3.41421L10.5858 1.29289C10.4936 1.20073 10.3853 1.12841 10.2675 1.07869C10.1315 1.02129 10 1.1375 10 1.28512C10 1.50416 9.72396 1.62449 9.54165 1.50307C9.39536 1.40565 9.24112 1.32149 9.0808 1.25138C9.03229 1.23016 9.00001 1.18276 9.00001 1.1298C9.00001 1.05811 8.94189 1 8.87021 1H7.87869H7.50001H6.00001Z" fill="white" fill-opacity="0.5"/>
</svg>
