<svg width="16" height="16" viewBox="0 0 16 16" fill="none" xmlns="http://www.w3.org/2000/svg">
<g clip-path="url(#clip0_4_1404)">
<path d="M2 6V6C1.17157 6 0.5 5.32843 0.5 4.5V3C0.5 1.89543 1.39543 1 2.5 1H4.5M2 6V13C2 14.1046 2.89543 15 4 15H12C13.1046 15 14 14.1046 14 13V6M2 6H14M14 6V6C14.8284 6 15.5 5.32843 15.5 4.5V3C15.5 1.89543 14.6046 1 13.5 1H11.5M4.5 1V3M4.5 1H11.5M11.5 1V3" stroke="white" stroke-linecap="round" stroke-linejoin="round"/>
<path fill-rule="evenodd" clip-rule="evenodd" d="M4 9C4 8.44772 4.44772 8 5 8C5.55228 8 6 8.44772 6 9C6 9.55228 5.55228 10 5 10C4.44772 10 4 9.55228 4 9ZM7 9C7 8.44772 7.44772 8 8 8C8.55228 8 9 8.44772 9 9C9 9.55228 8.55228 10 8 10C7.44772 10 7 9.55228 7 9ZM11 8C10.4477 8 10 8.44772 10 9C10 9.55228 10.4477 10 11 10C11.5523 10 12 9.55228 12 9C12 8.44772 11.5523 8 11 8ZM4 12C4 11.4477 4.44772 11 5 11C5.55228 11 6 11.4477 6 12C6 12.5523 5.55228 13 5 13C4.44772 13 4 12.5523 4 12ZM8 11C7.44772 11 7 11.4477 7 12C7 12.5523 7.44772 13 8 13C8.55228 13 9 12.5523 9 12C9 11.4477 8.55228 11 8 11Z" fill="white" fill-opacity="0.5"/>
</g>
<defs>
<clipPath id="clip0_4_1404">
<rect width="16" height="16" fill="white"/>
</clipPath>
</defs>
</svg>
