<svg width="16" height="16" viewBox="0 0 16 16" fill="none" xmlns="http://www.w3.org/2000/svg">
<g clip-path="url(#clip0_41_257)">
<path d="M11.5 4.5V9.5C11.5 10.6046 12.3954 11.5 13.5 11.5V11.5C14.6046 11.5 15.5 10.6046 15.5 9.5V8C15.5 3.85786 12.1421 0.5 8 0.5V0.5C3.85786 0.5 0.5 3.85786 0.5 8V8C0.5 12.1421 3.85786 15.5 8 15.5H8.5" stroke="white" stroke-linecap="round" stroke-linejoin="round"/>
<path d="M4.5 8C4.5 9.933 6.067 11.5 8 11.5C9.933 11.5 11.5 9.933 11.5 8C11.5 6.067 9.933 4.5 8 4.5C6.067 4.5 4.5 6.067 4.5 8Z" stroke="white" stroke-linecap="round" stroke-linejoin="round"/>
</g>
<defs>
<clipPath id="clip0_41_257">
<rect width="16" height="16" fill="white"/>
</clipPath>
</defs>
</svg>
