<svg width="16" height="16" viewBox="0 0 16 16" fill="none" xmlns="http://www.w3.org/2000/svg">
<g clip-path="url(#clip0_111_25)">
<path d="M15.5 15.5L13 13M13 13L15.5 10.5M13 13L10.5 10.5M13 13L10.5 15.5" stroke="white" stroke-linecap="round" stroke-linejoin="round"/>
<path fill-rule="evenodd" clip-rule="evenodd" d="M8 4C5.64213 4 3.24895 4.94116 0.812351 6.89043C0.59672 7.06294 0.282073 7.02798 0.109569 6.81235C-0.062936 6.59672 -0.0279753 6.28207 0.187656 6.10957C2.75106 4.05884 5.35788 3 8 3C10.6421 3 13.2489 4.05884 15.8124 6.10957C16.028 6.28207 16.0629 6.59672 15.8904 6.81235C15.7179 7.02798 15.4033 7.06294 15.1877 6.89043C12.7511 4.94116 10.3579 4 8 4ZM5 8C5 6.34315 6.34315 5 8 5C9.65686 5 11 6.34315 11 8V8.57575C11 8.82457 10.7488 9 10.5 9C10.2512 9 10 8.82457 10 8.57575V8C10 6.89543 9.10457 6 8 6C6.89543 6 6 6.89543 6 8V10C6 11.1046 6.89543 12 8 12C8.47897 12 8.91861 11.8316 9.26297 11.5509C9.31501 11.5084 9.39186 11.5132 9.43934 11.5607C9.77912 11.9004 9.77326 12.4674 9.34378 12.6829C8.93954 12.8858 8.48311 13 8 13C6.34315 13 5 11.6569 5 10V8Z" fill="white" fill-opacity="0.5"/>
</g>
<defs>
<clipPath id="clip0_111_25">
<rect width="16" height="16" fill="white"/>
</clipPath>
</defs>
</svg>
