<svg width="16" height="16" viewBox="0 0 16 16" fill="none" xmlns="http://www.w3.org/2000/svg">
<g clip-path="url(#clip0_201_111)">
<path fill-rule="evenodd" clip-rule="evenodd" d="M0.812366 6.89043C3.24896 4.94116 5.64215 4 8.00002 4C10.3579 4 12.7511 4.94116 15.1877 6.89043C15.4033 7.06294 15.7179 7.02798 15.8905 6.81235C16.063 6.59672 16.028 6.28207 15.8124 6.10957C13.249 4.05884 10.6421 3 8.00002 3C5.35789 3 2.75107 4.05884 0.187671 6.10957C-0.0279601 6.28207 -0.0629208 6.59672 0.109584 6.81235C0.282089 7.02798 0.596735 7.06294 0.812366 6.89043ZM8.00002 5C6.34316 5 5.00002 6.34315 5.00002 8V10C5.00002 11.6569 6.34316 13 8.00002 13C9.65687 13 11 11.6569 11 10V8C11 6.34315 9.65687 5 8.00002 5ZM6.00002 8C6.00002 6.89543 6.89545 6 8.00002 6C9.10459 6 10 6.89543 10 8V10C10 11.1046 9.10459 12 8.00002 12C6.89545 12 6.00002 11.1046 6.00002 10V8Z" fill="white"/>
</g>
<defs>
<clipPath id="clip0_201_111">
<rect width="16" height="16" fill="white"/>
</clipPath>
</defs>
</svg>
