<svg width="16" height="16" viewBox="0 0 16 16" fill="none" xmlns="http://www.w3.org/2000/svg">
<path fill-rule="evenodd" clip-rule="evenodd" d="M9.44685 12.0282C9.21359 12.2855 9.27739 12.7083 9.61111 12.8046C10.0521 12.9318 10.5181 13 11 13C13.7614 13 16 10.7614 16 8C16 5.23858 13.7614 3 11 3C10.5181 3 10.0521 3.06818 9.6111 3.19543C9.27739 3.29173 9.21359 3.7145 9.44685 3.97184C9.5825 4.1215 9.79277 4.18001 9.98823 4.12907C10.3114 4.04483 10.6505 4 11 4C13.2091 4 15 5.79086 15 8C15 10.2091 13.2091 12 11 12C10.6505 12 10.3114 11.9552 9.98823 11.8709C9.79277 11.82 9.58251 11.8785 9.44685 12.0282ZM7.1726 5.93122C7.33316 6.09978 7.3471 6.35113 7.26377 6.5685C7.09337 7.01297 7 7.49558 7 8C7 8.50442 7.09337 8.98703 7.26377 9.4315C7.3471 9.64887 7.33316 9.90021 7.1726 10.0688C6.92498 10.3287 6.5103 10.2323 6.37377 9.90029C6.13286 9.31443 6 8.67273 6 8C6 7.32727 6.13286 6.68557 6.37377 6.09971C6.5103 5.76767 6.92498 5.67126 7.1726 5.93122Z" fill="white" fill-opacity="0.5"/>
<path d="M0.5 8C0.5 10.4853 2.51472 12.5 5 12.5C7.48528 12.5 9.5 10.4853 9.5 8C9.5 5.51472 7.48528 3.5 5 3.5C2.51472 3.5 0.5 5.51472 0.5 8Z" fill="white" stroke="white" stroke-linecap="round" stroke-linejoin="round"/>
</svg>
