<svg width="16" height="16" viewBox="0 0 16 16" fill="none" xmlns="http://www.w3.org/2000/svg">
<g clip-path="url(#clip0_78_44)">
<path d="M0.5 15.5L15.5 0.5" stroke="white" stroke-linecap="round" stroke-linejoin="round"/>
<mask id="mask0_78_44" style="mask-type:alpha" maskUnits="userSpaceOnUse" x="4" y="0" width="8" height="16">
<path d="M11.5 4.5V2C11.5 1.17157 10.8284 0.5 10 0.5H6C5.17157 0.5 4.5 1.17157 4.5 2V4.5M11.5 4.5L10.5 6.5M11.5 4.5H4.5M10.5 6.5V14C10.5 14.8284 9.82843 15.5 9 15.5H7C6.17157 15.5 5.5 14.8284 5.5 14V6.5M10.5 6.5H5.5M5.5 6.5L4.5 4.5M8 9V10" stroke="white" stroke-linecap="round" stroke-linejoin="round"/>
</mask>
<g mask="url(#mask0_78_44)">
<path fill-rule="evenodd" clip-rule="evenodd" d="M11.8404 2.03827C11.9398 1.93892 11.9952 1.80117 11.9717 1.66265C11.8113 0.718722 10.9896 0 10 0H6C4.89543 0 4 0.895431 4 2V4.5C4 4.57762 4.01807 4.65418 4.05279 4.72361L4.90995 6.43793C4.96917 6.55637 5 6.68697 5 6.8194V7.67157C5 8.11702 5.53857 8.3401 5.85355 8.02512C5.94732 7.93135 6 7.80418 6 7.67157V7.62132C6 7.27817 6.27817 7 6.62132 7H6.67157C6.80418 7 6.93135 6.94732 7.02512 6.85355C7.3401 6.53857 7.11702 6 6.67157 6H6.11803C5.92865 6 5.75552 5.893 5.67082 5.72361C5.5046 5.39116 5.74634 5 6.11803 5H8.67157C8.80418 5 8.93135 4.94732 9.02512 4.85355C9.3401 4.53857 9.11702 4 8.67157 4H6C5.44771 4 5 3.55228 5 3V2C5 1.44772 5.44772 1 6 1H10C10.5523 1 11 1.44772 11 2C11 2.32425 11.392 2.48664 11.6213 2.25736L11.8404 2.03827ZM11 8.32842C11 7.88297 10.4614 7.65989 10.1464 7.97487C10.0527 8.06864 10 8.19582 10 8.32842V14C10 14.5523 9.55228 15 9 15H7C6.44772 15 6 14.5523 6 14V13.3284C6 12.883 5.46143 12.6599 5.14645 12.9749C5.05268 13.0686 5 13.1958 5 13.3284V14C5 15.1046 5.89543 16 7 16H9C10.1046 16 11 15.1046 11 14V8.32842ZM7.92908 10.1922C7.81587 10.3054 7.8399 10.5 8 10.5C8.27614 10.5 8.5 10.2761 8.5 10C8.5 9.86026 8.33104 9.79027 8.23223 9.88909L7.92908 10.1922Z" fill="white" fill-opacity="0.5"/>
</g>
</g>
<defs>
<clipPath id="clip0_78_44">
<rect width="16" height="16" fill="white"/>
</clipPath>
</defs>
</svg>
