<svg width="16" height="16" viewBox="0 0 16 16" fill="none" xmlns="http://www.w3.org/2000/svg">
<g clip-path="url(#clip0_70_109)">
<path fill-rule="evenodd" clip-rule="evenodd" d="M0.935547 8.00001C0.935547 4.09842 4.09841 0.935562 7.99999 0.935562C9.82358 0.935562 11.4858 1.62652 12.7391 2.76091L13.7929 1.70711C14.4229 1.07714 15.5 1.52331 15.5 2.41421V5.5C15.5 6.05228 15.0523 6.5 14.5 6.5H11.4142C10.5233 6.5 10.0771 5.42286 10.7071 4.79289L12.031 3.46905C10.9595 2.51513 9.54742 1.93556 7.99999 1.93556C4.65069 1.93556 1.93555 4.65071 1.93555 8.00001C1.93555 11.3493 4.65069 14.0645 7.99999 14.0645C11.181 14.0645 13.7899 11.6153 14.0441 8.49988C14.0666 8.22465 14.2883 8.00001 14.5644 8.00001C14.8406 8.00001 15.0663 8.22461 15.047 8.50008C14.7905 12.1683 11.7334 15.0645 7.99999 15.0645C4.09841 15.0645 0.935547 11.9016 0.935547 8.00001Z" fill="white"/>
<path fill-rule="evenodd" clip-rule="evenodd" d="M4.85355 4.64645C4.75641 4.5493 4.62924 4.50049 4.50192 4.5C4.36524 4.49948 4.25122 4.59204 4.162 4.69558C4.15731 4.70101 4.15264 4.70645 4.14798 4.71191C4.05911 4.81593 3.98486 4.94283 4.00608 5.07799C4.02193 5.17886 4.06872 5.27582 4.14645 5.35355L6.58579 7.79289C7.36684 8.57394 8.63317 8.57394 9.41421 7.79289L9.84603 7.36108C10.009 7.19809 9.99126 6.92973 9.84882 6.7485C9.67553 6.52803 9.33418 6.45871 9.13589 6.657L8.70711 7.08579C8.31658 7.47631 7.68342 7.47631 7.29289 7.08579L4.85355 4.64645Z" fill="white"/>
</g>
<defs>
<clipPath id="clip0_70_109">
<rect width="16" height="16" fill="white"/>
</clipPath>
</defs>
</svg>
