<svg width="16" height="16" viewBox="0 0 16 16" fill="none" xmlns="http://www.w3.org/2000/svg">
<g clip-path="url(#clip0_648_67)">
<path d="M12.5 5.5V5.5C12.1936 4.88713 11.5672 4.5 10.882 4.5H10.5C9.67157 4.5 9 5.17157 9 6V6C9 6.82843 9.67157 7.5 10.5 7.5H10.75C11.7165 7.5 12.5 8.2835 12.5 9.25V9.75C12.5 10.7165 11.7165 11.5 10.75 11.5V11.5C9.7835 11.5 9 10.7165 9 9.75V9.5M5.25 11.5V11.5C6.2165 11.5 7 10.7165 7 9.75V6.25C7 5.2835 6.2165 4.5 5.25 4.5V4.5C4.2835 4.5 3.5 5.2835 3.5 6.25V9.75C3.5 10.7165 4.2835 11.5 5.25 11.5ZM8 15.5V15.5C12.1421 15.5 15.5 12.1421 15.5 8V8C15.5 3.85786 12.1421 0.5 8 0.5V0.5C3.85786 0.5 0.5 3.85786 0.5 8V8C0.5 12.1421 3.85786 15.5 8 15.5Z" stroke="white" stroke-linecap="round" stroke-linejoin="round"/>
</g>
<defs>
<clipPath id="clip0_648_67">
<rect width="16" height="16" fill="white"/>
</clipPath>
</defs>
</svg>
