<svg width="16" height="16" viewBox="0 0 16 16" fill="none" xmlns="http://www.w3.org/2000/svg">
<g clip-path="url(#clip0_230_28)">
<path d="M9.5 3.5C9.5 5.15685 10.8431 6.5 12.5 6.5C14.1569 6.5 15.5 5.15685 15.5 3.5C15.5 1.84315 14.1569 0.5 12.5 0.5C10.8431 0.5 9.5 1.84315 9.5 3.5Z" fill="white" stroke="white" stroke-linecap="round" stroke-linejoin="round"/>
<path fill-rule="evenodd" clip-rule="evenodd" d="M7.52646 3C7.79377 3 8 3.23268 8 3.5C8 3.76732 7.79377 4 7.52646 4H3.5C2.11929 4 1 5.11929 1 6.5V12.5C1 13.8807 2.11929 15 3.5 15H9.5C10.8807 15 12 13.8807 12 12.5V8.47354C12 8.20623 12.2327 8 12.5 8C12.7673 8 13 8.20623 13 8.47354V12.5C13 14.433 11.433 16 9.5 16H3.5C1.567 16 0 14.433 0 12.5V6.5C0 4.567 1.567 3 3.5 3H7.52646ZM11.1506 3.41289C11.082 3.37614 11 3.4222 11 3.5C11 4.32843 11.6716 5 12.5 5C12.5778 5 12.6239 4.91796 12.5871 4.84938C12.2608 4.2404 11.7596 3.73918 11.1506 3.41289Z" fill="white"/>
</g>
<defs>
<clipPath id="clip0_230_28">
<rect width="16" height="16" fill="white"/>
</clipPath>
</defs>
</svg>
