<svg width="16" height="16" viewBox="0 0 16 16" fill="none" xmlns="http://www.w3.org/2000/svg">
<g clip-path="url(#clip0_201_12)">
<mask id="path-1-inside-1_201_12" fill="white">
<path fill-rule="evenodd" clip-rule="evenodd" d="M0.595919 8.59592C0.266802 8.26681 0.266802 7.7332 0.59592 7.40408L1.31836 6.68164C2.75205 5.24795 5.04805 5.20213 6.53687 6.54417C5.75838 7.3579 5.75838 8.64211 6.53688 9.45583C5.04806 10.7979 2.75205 10.7521 1.31836 9.31836L0.595919 8.59592ZM6.54404 9.46328C5.20213 10.9521 5.248 13.248 6.68165 14.6816L7.40409 15.4041C7.7332 15.7332 8.26681 15.7332 8.59593 15.4041L9.31837 14.6816C10.7318 13.2682 10.7963 11.0166 9.51188 9.5267C8.68652 10.3124 7.3804 10.3001 6.5701 9.4898C6.56132 9.48102 6.55263 9.47218 6.54404 9.46328ZM9.52702 9.51214C11.017 10.7963 13.2683 10.7317 14.6816 9.31837L15.4041 8.59592C15.7332 8.26681 15.7332 7.7332 15.4041 7.40408L14.6816 6.68164C13.2683 5.2683 11.017 5.20371 9.52703 6.48786C9.53463 6.49523 9.54219 6.50268 9.5497 6.51019C10.3725 7.33299 10.3725 8.667 9.5497 9.48979C9.54218 9.49731 9.53462 9.50476 9.52702 9.51214ZM9.51188 6.4733C10.7963 4.98336 10.7318 2.7318 9.31837 1.31837L8.59593 0.595924C8.26681 0.266806 7.73321 0.266805 7.40409 0.595923L6.68165 1.31836C5.248 2.75201 5.20213 5.0479 6.54403 6.53672C6.55263 6.52782 6.56132 6.51898 6.5701 6.5102C7.38041 5.69989 8.68653 5.68759 9.51188 6.4733Z"/>
</mask>
<path d="M6.53687 6.54417L7.21812 7.19592L7.88951 6.49415L7.16812 5.84388L6.53687 6.54417ZM6.53688 9.45583L7.16813 10.1561L7.88952 9.50584L7.21813 8.80407L6.53688 9.45583ZM6.54404 9.46328L7.22214 8.80824L6.52016 8.08156L5.84372 8.83206L6.54404 9.46328ZM9.51188 9.5267L10.226 8.9111L9.57923 8.16089L8.86182 8.84383L9.51188 9.5267ZM9.52702 9.51214L8.87029 8.83568L8.13089 9.55351L8.9115 10.2263L9.52702 9.51214ZM9.52703 6.48786L8.91151 5.7737L8.13089 6.44649L8.87031 7.16432L9.52703 6.48786ZM9.51188 6.4733L8.86182 7.15616L9.57924 7.83912L10.226 7.08889L9.51188 6.4733ZM6.54403 6.53672L5.84371 7.16793L6.52017 7.91845L7.22214 7.19175L6.54403 6.53672ZM-0.0707468 6.73742C-0.768053 7.43472 -0.768056 8.56528 -0.0707476 9.26259L1.26259 7.92926C1.30166 7.96833 1.30166 8.03168 1.26259 8.07075L-0.0707468 6.73742ZM0.651695 6.01498L-0.0707468 6.73742L1.26259 8.07075L1.98503 7.34831L0.651695 6.01498ZM7.16812 5.84388C5.30859 4.16767 2.44201 4.22466 0.651695 6.01498L1.98503 7.34831C3.06209 6.27125 4.78752 6.23659 5.90561 7.24446L7.16812 5.84388ZM7.21813 8.80407C6.78838 8.35488 6.78838 7.64512 7.21812 7.19592L5.85561 5.89242C4.72839 7.07067 4.72839 8.92934 5.85563 10.1076L7.21813 8.80407ZM0.651693 9.98503C2.44202 11.7754 5.3086 11.8323 7.16813 10.1561L5.90562 8.75554C4.78753 9.76342 3.06209 9.72876 1.98503 8.6517L0.651693 9.98503ZM-0.0707476 9.26259L0.651693 9.98503L1.98503 8.6517L1.26259 7.92926L-0.0707476 9.26259ZM5.84372 8.83206C4.16767 10.6916 4.22472 13.558 6.01498 15.3483L7.34831 14.015C6.27128 12.9379 6.2366 11.2126 7.24437 10.0945L5.84372 8.83206ZM6.01498 15.3483L6.73742 16.0708L8.07075 14.7374L7.34831 14.015L6.01498 15.3483ZM6.73742 16.0708C7.43473 16.7681 8.56528 16.7681 9.26259 16.0708L7.92926 14.7374C7.96833 14.6983 8.03168 14.6983 8.07075 14.7374L6.73742 16.0708ZM9.26259 16.0708L9.98503 15.3483L8.6517 14.015L7.92926 14.7374L9.26259 16.0708ZM9.98503 15.3483C11.7502 13.5832 11.8303 10.7722 10.226 8.9111L8.79778 10.1423C9.76228 11.2611 9.71346 12.9532 8.6517 14.015L9.98503 15.3483ZM8.86182 8.84383C8.40613 9.27762 7.68437 9.27073 7.23677 8.82313L5.90343 10.1565C7.07643 11.3295 8.96691 11.3472 10.1619 10.2096L8.86182 8.84383ZM7.23677 8.82313C7.23184 8.8182 7.22696 8.81324 7.22214 8.80824L5.86595 10.1183C5.87831 10.1311 5.89081 10.1438 5.90343 10.1565L7.23677 8.82313ZM8.9115 10.2263C10.7726 11.8303 13.5833 11.75 15.3483 9.98503L14.015 8.6517C12.9533 9.71338 11.2614 9.76227 10.1425 8.79798L8.9115 10.2263ZM15.3483 9.98503L16.0708 9.26259L14.7374 7.92926L14.015 8.6517L15.3483 9.98503ZM16.0708 9.26259C16.7681 8.56529 16.7681 7.43473 16.0708 6.73742L14.7374 8.07075C14.6983 8.03168 14.6983 7.96833 14.7374 7.92926L16.0708 9.26259ZM16.0708 6.73742L15.3483 6.01498L14.015 7.34831L14.7374 8.07075L16.0708 6.73742ZM15.3483 6.01498C13.5833 4.24998 10.7726 4.16968 8.91151 5.7737L10.1425 7.20202C11.2614 6.23773 12.9533 6.28663 14.015 7.34831L15.3483 6.01498ZM8.87031 7.16432C8.87457 7.16846 8.87881 7.17264 8.88303 7.17686L10.2164 5.84353C10.2056 5.83272 10.1947 5.82201 10.1837 5.81139L8.87031 7.16432ZM8.88303 7.17686C9.33764 7.63146 9.33764 8.36852 8.88303 8.82313L10.2164 10.1565C11.4073 8.96548 11.4074 7.03451 10.2164 5.84353L8.88303 7.17686ZM8.88303 8.82313C8.8788 8.82736 8.87456 8.83154 8.87029 8.83568L10.1837 10.1886C10.1947 10.178 10.2056 10.1673 10.2164 10.1565L8.88303 8.82313ZM10.226 7.08889C11.8303 5.22783 11.7502 2.41682 9.98504 0.651699L8.6517 1.98503C9.71346 3.04679 9.76228 4.73889 8.79779 5.8577L10.226 7.08889ZM9.98504 0.651699L9.26259 -0.0707432L7.92926 1.26259L8.6517 1.98503L9.98504 0.651699ZM9.26259 -0.0707432C8.56529 -0.76805 7.43473 -0.768052 6.73742 -0.0707436L8.07075 1.26259C8.03168 1.30166 7.96833 1.30166 7.92926 1.26259L9.26259 -0.0707432ZM6.73742 -0.0707436L6.01498 0.651697L7.34831 1.98503L8.07075 1.26259L6.73742 -0.0707436ZM6.01498 0.651697C4.22472 2.44195 4.16767 5.30839 5.84371 7.16793L7.24436 5.9055C6.2366 4.7874 6.27129 3.06206 7.34831 1.98503L6.01498 0.651697ZM7.22214 7.19175C7.22696 7.18676 7.23183 7.1818 7.23677 7.17686L5.90343 5.84353C5.8908 5.85616 5.8783 5.86888 5.86593 5.88169L7.22214 7.19175ZM7.23677 7.17686C7.68438 6.72925 8.40614 6.72237 8.86182 7.15616L10.1619 5.79043C8.96692 4.65281 7.07644 4.67053 5.90343 5.84353L7.23677 7.17686Z" fill="white" fill-opacity="0.5" mask="url(#path-1-inside-1_201_12)"/>
<path fill-rule="evenodd" clip-rule="evenodd" d="M2 2.89388C2 2.4002 2.4002 2 2.89388 2H3.97754C6.12808 2 7.88445 3.68763 7.99453 5.81077C6.80036 5.8372 5.8372 6.80036 5.81078 7.99453C3.68764 7.88445 2 6.12808 2 3.97754V2.89388ZM5.81057 8.00549C3.68752 8.11567 2 9.87199 2 12.0225V13.1061C2 13.5998 2.4002 14 2.89388 14H3.97754C6.0977 14 7.83475 12.3597 7.98888 10.2789C6.78059 10.2492 5.81023 9.26036 5.81023 8.04491C5.81023 8.03174 5.81034 8.0186 5.81057 8.00549ZM8.01115 10.2794C8.16549 12.3599 9.90244 14 12.0225 14H13.1061C13.5998 14 14 13.5998 14 13.1061V12.0225C14 9.90245 12.3599 8.1655 10.2794 8.01115C10.2795 8.02239 10.2796 8.03364 10.2796 8.04491C10.2796 9.2791 9.27912 10.2796 8.04493 10.2796C8.03365 10.2796 8.02239 10.2795 8.01115 10.2794ZM10.2789 7.98888C12.3597 7.83475 14 6.0977 14 3.97754V2.89388C14 2.4002 13.5998 2 13.1061 2H12.0225C9.872 2 8.11567 3.68752 8.00549 5.81056C8.01861 5.81033 8.03175 5.81021 8.04493 5.81021C9.26038 5.81021 10.2492 6.78058 10.2789 7.98888Z" fill="white"/>
<rect x="5.81023" y="5.81021" width="4.4694" height="4.4694" rx="2.2347" fill="white" fill-opacity="0.5"/>
</g>
<defs>
<clipPath id="clip0_201_12">
<rect width="16" height="16" fill="white"/>
</clipPath>
</defs>
</svg>
