<svg width="16" height="16" viewBox="0 0 16 16" fill="none" xmlns="http://www.w3.org/2000/svg">
<path fill-rule="evenodd" clip-rule="evenodd" d="M11 4C9.34315 4 8 5.34315 8 7C8 8.65685 9.34315 10 11 10C12.6569 10 14 8.65685 14 7C14 5.34315 12.6569 4 11 4ZM9 7C9 5.89543 9.89543 5 11 5C12.1046 5 13 5.89543 13 7C13 8.10457 12.1046 9 11 9C9.89543 9 9 8.10457 9 7ZM8 15C8 13.3431 9.34315 12 11 12C12.6569 12 14 13.3431 14 15V15.5C14 15.7761 14.2239 16 14.5 16C14.7761 16 15 15.7761 15 15.5V15C15 12.7909 13.2091 11 11 11C8.79086 11 7 12.7909 7 15V15.5C7 15.7761 7.22386 16 7.5 16C7.77614 16 8 15.7761 8 15.5V15Z" fill="white"/>
<path fill-rule="evenodd" clip-rule="evenodd" d="M6 0C3.79086 0 2 1.79086 2 4C2 6.20914 3.79086 8 6 8C6.08331 8 6.16604 7.99745 6.24809 7.99243C6.72835 7.96304 7 7.48116 7 7C7 6.91771 6.91894 6.85783 6.83993 6.88083C6.57341 6.95841 6.29156 7 6 7C4.34315 7 3 5.65685 3 4C3 2.34315 4.34315 1 6 1C7.28576 1 8.38261 1.80887 8.80943 2.94551C8.91523 3.22724 9.25004 3.38945 9.52991 3.2788C9.73809 3.19649 9.87501 2.9789 9.80601 2.76595C9.28591 1.16072 7.7785 0 6 0ZM6.5 9C6.77544 9 7.0451 9.02475 7.30688 9.07214C7.50974 9.10886 7.67896 9.2397 7.80299 9.40437C8.04421 9.7246 8.33243 10.0074 8.6574 10.2426C8.7781 10.33 8.7665 10.5229 8.63528 10.5934C8.57206 10.6274 8.49535 10.6232 8.43557 10.5835C7.88119 10.2148 7.21568 10 6.5 10H5.5C3.567 10 2 11.567 2 13.5V15.5C2 15.7761 1.77614 16 1.5 16C1.22386 16 1 15.7761 1 15.5V13.5C1 11.0147 3.01472 9 5.5 9H6.5Z" fill="white"/>
</svg>
