<svg width="16" height="16" viewBox="0 0 16 16" fill="none" xmlns="http://www.w3.org/2000/svg">
<path d="M3.97122 6.97122L6.5 9.5L9.02878 12.0288C9.62169 12.6217 10.6372 12.2655 10.7298 11.4321L10.9735 9.23884C10.9902 9.08788 10.9375 8.93748 10.8301 8.83007L7.16993 5.16993C7.06252 5.06252 6.91212 5.00976 6.76116 5.02654L4.5679 5.27023C3.73452 5.36283 3.37831 6.37831 3.97122 6.97122Z" fill="white"/>
<path d="M12.5607 1.56066L14.4393 3.43934C15.0251 4.02513 15.0251 4.97487 14.4393 5.56066L12.8536 7.14645C12.6583 7.34171 12.3417 7.34171 12.1464 7.14645L8.85355 3.85355C8.65829 3.65829 8.65829 3.34171 8.85355 3.14645L10.4393 1.56066C11.0251 0.974874 11.9749 0.974872 12.5607 1.56066Z" fill="white"/>
<path d="M1.5 14.5L6.5 9.5M6.5 9.5L3.97122 6.97122C3.37831 6.37831 3.73452 5.36283 4.5679 5.27023L6.76116 5.02654C6.91212 5.00976 7.06252 5.06252 7.16993 5.16993L10.8301 8.83007C10.9375 8.93748 10.9902 9.08788 10.9735 9.23884L10.7298 11.4321C10.6372 12.2655 9.62169 12.6217 9.02878 12.0288L6.5 9.5ZM12.8536 7.14645L14.4393 5.56066C15.0251 4.97487 15.0251 4.02513 14.4393 3.43934L12.5607 1.56066C11.9749 0.974873 11.0251 0.974874 10.4393 1.56066L8.85355 3.14645C8.65829 3.34171 8.65829 3.65829 8.85355 3.85355L12.1464 7.14645C12.3417 7.34171 12.6583 7.34171 12.8536 7.14645Z" stroke="white" stroke-linecap="round" stroke-linejoin="round"/>
</svg>
