<svg width="16" height="16" viewBox="0 0 16 16" fill="none" xmlns="http://www.w3.org/2000/svg">
<g clip-path="url(#clip0_644_2)">
<path d="M0.5 15.5L7 9M0.5 9L7 15.5M12.25 15.5V15.5C14.0449 15.5 15.5 14.0449 15.5 12.25V12.25C15.5 10.4551 14.0449 9 12.25 9V9C10.4551 9 9 10.4551 9 12.25V12.25C9 14.0449 10.4551 15.5 12.25 15.5ZM15.3882 6.27639L12.6972 0.894427C12.513 0.525903 11.987 0.525903 11.8028 0.894428L9.1118 6.27639C8.94558 6.60884 9.18733 7 9.55902 7H14.941C15.3127 7 15.5544 6.60884 15.3882 6.27639ZM2 7H5.5C6.32843 7 7 6.32843 7 5.5V2C7 1.17157 6.32843 0.5 5.5 0.5H2C1.17157 0.5 0.5 1.17157 0.5 2V5.5C0.5 6.32843 1.17157 7 2 7Z" stroke="white" stroke-linecap="round" stroke-linejoin="round"/>
</g>
<defs>
<clipPath id="clip0_644_2">
<rect width="16" height="16" fill="white"/>
</clipPath>
</defs>
</svg>
