<svg width="16" height="16" viewBox="0 0 16 16" fill="none" xmlns="http://www.w3.org/2000/svg">
<g clip-path="url(#clip0_41_280)">
<path d="M6.5 15.5L8.05769 11M15.5 15.5L13.9423 11M8.05769 11L10.055 5.22996C10.3656 4.33277 11.6344 4.33277 11.945 5.22996L13.9423 11M8.05769 11H13.9423" stroke="white" stroke-linecap="round" stroke-linejoin="round"/>
<mask id="mask0_41_280" style="mask-type:alpha" maskUnits="userSpaceOnUse" x="-1" y="-2" width="12" height="15">
<path d="M0.5 11.5L2.05769 7M9.5 11.5L7.94231 7M2.05769 7L4.05501 1.22996C4.36558 0.332774 5.63442 0.332774 5.94499 1.22996L7.94231 7M2.05769 7H7.94231" stroke="white" stroke-linecap="round" stroke-linejoin="round"/>
</mask>
<g mask="url(#mask0_41_280)">
<path fill-rule="evenodd" clip-rule="evenodd" d="M4.52752 1.39351C4.6828 0.94492 5.31722 0.94492 5.47251 1.39351L6.78075 5.17289C7.00561 5.82247 6.52317 6.5 5.83577 6.5H4.16426C3.47686 6.5 2.99442 5.82247 3.21928 5.17289L4.52752 1.39351ZM7.67245 7.52731C7.65985 7.56372 7.60835 7.56372 7.59574 7.52731C7.59009 7.51096 7.57469 7.5 7.55739 7.5H3.1258C2.6996 7.5 2.32023 7.77013 2.18081 8.17289L0.972507 11.6636C0.882178 11.9245 0.59741 12.0628 0.336459 11.9725C0.0755081 11.8822 -0.062808 11.5974 0.0275211 11.3364L1.58521 6.83644L3.58253 1.0664C4.04838 -0.279377 5.95165 -0.279377 6.41749 1.0664L8.10659 5.94602C8.14327 6.05197 8.14327 6.16718 8.10659 6.27313L7.67245 7.52731Z" fill="white" fill-opacity="0.5"/>
</g>
</g>
<defs>
<clipPath id="clip0_41_280">
<rect width="16" height="16" fill="white"/>
</clipPath>
</defs>
</svg>
