<svg width="16" height="16" viewBox="0 0 16 16" fill="none" xmlns="http://www.w3.org/2000/svg">
<g clip-path="url(#clip0_41_248)">
<path d="M6.5 14C6.5 14.8284 7.17157 15.5 8 15.5C8.82843 15.5 9.5 14.8284 9.5 14C9.5 13.1716 8.82843 12.5 8 12.5C7.17157 12.5 6.5 13.1716 6.5 14Z" stroke="white" stroke-linecap="round" stroke-linejoin="round"/>
<path d="M0.5 8C0.5 8.82843 1.17157 9.5 2 9.5C2.82843 9.5 3.5 8.82843 3.5 8C3.5 7.17157 2.82843 6.5 2 6.5C1.17157 6.5 0.5 7.17157 0.5 8Z" stroke="white" stroke-linecap="round" stroke-linejoin="round"/>
<path d="M6.5 2C6.5 2.82843 7.17157 3.5 8 3.5C8.82843 3.5 9.5 2.82843 9.5 2C9.5 1.17157 8.82843 0.5 8 0.5C7.17157 0.5 6.5 1.17157 6.5 2Z" stroke="white" stroke-linecap="round" stroke-linejoin="round"/>
<path d="M3.5 6.5L6.5 3.5M3.5 9.5L6.5 12.5" stroke="white" stroke-linecap="round" stroke-linejoin="round"/>
<path fill-rule="evenodd" clip-rule="evenodd" d="M10.8536 4.14645C10.6583 3.95118 10.3417 3.95118 10.1464 4.14645C9.95118 4.34171 9.95118 4.65829 10.1464 4.85355L12.1464 6.85355C12.1904 6.8975 12.2405 6.93155 12.2939 6.95572C12.1075 7.25967 12 7.61728 12 8C12 8.38272 12.1075 8.74033 12.2939 9.04428C12.2405 9.06845 12.1904 9.1025 12.1464 9.14645L10.1464 11.1464C9.95118 11.3417 9.95118 11.6583 10.1464 11.8536C10.3417 12.0488 10.6583 12.0488 10.8536 11.8536L12.8536 9.85355C12.8975 9.80961 12.9316 9.75952 12.9557 9.70605C13.2597 9.8925 13.6173 10 14 10C15.1046 10 16 9.10457 16 8C16 6.89543 15.1046 6 14 6C13.6173 6 13.2597 6.1075 12.9557 6.29395C12.9316 6.24048 12.8975 6.19039 12.8536 6.14645L10.8536 4.14645ZM15 8C15 8.55228 14.5523 9 14 9C13.4477 9 13 8.55228 13 8C13 7.44772 13.4477 7 14 7C14.5523 7 15 7.44772 15 8Z" fill="white" fill-opacity="0.5"/>
</g>
<defs>
<clipPath id="clip0_41_248">
<rect width="16" height="16" fill="white"/>
</clipPath>
</defs>
</svg>
