<svg width="16" height="16" viewBox="0 0 16 16" fill="none" xmlns="http://www.w3.org/2000/svg">
<path d="M14 7V3.53462C14 2.96322 13.5368 2.5 12.9654 2.5C12.0051 2.5 11.0614 2.2494 10.2277 1.77297L8.74421 0.925262C8.28306 0.661748 7.71694 0.661748 7.25579 0.925262L5.77231 1.77297C4.93855 2.2494 3.9949 2.5 3.03462 2.5C2.46322 2.5 2 2.96322 2 3.53462V7C2 9.51806 3.18555 11.8892 5.2 13.4L7.1 14.825C7.63333 15.225 8.36667 15.225 8.9 14.825L10.8 13.4C12.8144 11.8892 14 9.51806 14 7Z" stroke="white"/>
</svg>
