<svg width="16" height="16" viewBox="0 0 16 16" fill="none" xmlns="http://www.w3.org/2000/svg">
<path d="M15.5 15.5L13 13M13 13L15.5 10.5M13 13L10.5 10.5M13 13L10.5 15.5" stroke="white" stroke-linecap="round" stroke-linejoin="round"/>
<path fill-rule="evenodd" clip-rule="evenodd" d="M15 3C15 2.44772 14.5523 2 14 2C13.4477 2 13 2.44772 13 3V8.84315C13 9.59431 13.9082 9.97049 14.4393 9.43934C14.7226 9.15605 15 8.81747 15 8.41684V3ZM11.5607 9.43934C11.7228 9.60147 12 9.48664 12 9.25736V5C12 4.44772 11.5523 4 11 4C10.4477 4 10 4.44772 10 5V7.67238C10 8.36223 10.7818 8.87222 11.3498 9.26364C11.424 9.31477 11.4947 9.37333 11.5607 9.43934ZM10 13C10 12.6757 10.392 12.5134 10.6213 12.7426C10.7635 12.8848 10.7635 13.1152 10.6213 13.2574L10.5705 13.3082C10.3899 13.4887 10.0817 13.472 10.025 13.223C10.0086 13.1513 10 13.0767 10 13ZM9 10.5006C9 10.5002 9 10.4998 9 10.4994V7C9 6.44772 8.55228 6 8 6C7.44772 6 7 6.44772 7 7V13C7 13.5523 7.44772 14 8 14C8.55228 14 9 13.5523 9 13V10.5006ZM6 9C6 8.44772 5.55228 8 5 8C4.44772 8 4 8.44772 4 9V13C4 13.5523 4.44772 14 5 14C5.55228 14 6 13.5523 6 13V9ZM3 11C3 10.4477 2.55228 10 2 10C1.44772 10 1 10.4477 1 11V13C1 13.5523 1.44772 14 2 14C2.55228 14 3 13.5523 3 13V11Z" fill="white" fill-opacity="0.5"/>
</svg>
