<svg width="16" height="16" viewBox="0 0 16 16" fill="none" xmlns="http://www.w3.org/2000/svg">
<g clip-path="url(#clip0_615_27)">
<path d="M7.83943 6.9077L3.02805 2.37934C2.07079 1.47839 0.5 2.15708 0.5 3.47164V12.5284C0.5 13.8429 2.07079 14.5216 3.02805 13.6207L7.83943 9.0923C8.4687 8.50004 8.4687 7.49995 7.83943 6.9077Z" fill="white"/>
<path d="M15.5 2V14M3.02805 13.6207L7.83943 9.0923C8.4687 8.50005 8.4687 7.49995 7.83943 6.9077L3.02805 2.37934C2.07079 1.47839 0.5 2.15708 0.5 3.47164V12.5284C0.5 13.8429 2.07079 14.5216 3.02805 13.6207Z" stroke="white" stroke-linecap="round" stroke-linejoin="round"/>
<path fill-rule="evenodd" clip-rule="evenodd" d="M8.37073 2.01524C7.09438 0.813968 5 1.71889 5 3.47164V12.5284C5 14.2811 7.09439 15.186 8.37073 13.9848L13.1821 9.4564C14.0211 8.66672 14.0211 7.33327 13.1821 6.5436L8.37073 2.01524Z" fill="white" fill-opacity="0.5"/>
</g>
<defs>
<clipPath id="clip0_615_27">
<rect width="16" height="16" fill="white"/>
</clipPath>
</defs>
</svg>
