<svg width="16" height="16" viewBox="0 0 16 16" fill="none" xmlns="http://www.w3.org/2000/svg">
<g clip-path="url(#clip0_615_24)">
<path d="M8.16057 6.9077L12.972 2.37934C13.9292 1.47839 15.5 2.15708 15.5 3.47164V12.5284C15.5 13.8429 13.9292 14.5216 12.972 13.6207L8.16057 9.0923C7.5313 8.50004 7.5313 7.49995 8.16057 6.9077Z" fill="white"/>
<path d="M0.5 2V14M12.972 13.6207L8.16057 9.0923C7.5313 8.50005 7.5313 7.49995 8.16057 6.9077L12.972 2.37934C13.9292 1.47839 15.5 2.15708 15.5 3.47164V12.5284C15.5 13.8429 13.9292 14.5216 12.972 13.6207Z" stroke="white" stroke-linecap="round" stroke-linejoin="round"/>
<path fill-rule="evenodd" clip-rule="evenodd" d="M11 3.47164C11 1.71889 8.90563 0.813968 7.62928 2.01524L2.8179 6.5436C1.97887 7.33327 1.97887 8.66672 2.8179 9.4564L7.62928 13.9848C8.90563 15.186 11 14.2811 11 12.5284V3.47164Z" fill="white" fill-opacity="0.5"/>
</g>
<defs>
<clipPath id="clip0_615_24">
<rect width="16" height="16" fill="white"/>
</clipPath>
</defs>
</svg>
