<svg width="16" height="16" viewBox="0 0 16 16" fill="none" xmlns="http://www.w3.org/2000/svg">
<path fill-rule="evenodd" clip-rule="evenodd" d="M0.952963 7.49993C1.20945 3.8355 4.26281 0.935562 7.99312 0.935562C9.80196 0.935562 11.4728 1.62142 12.7345 2.76545L13.7929 1.70711C14.4228 1.07714 15.5 1.52331 15.5 2.41421V5.5C15.5 6.05228 15.0523 6.5 14.5 6.5H11.4142C10.5233 6.5 10.0771 5.42286 10.7071 4.79289L12.0264 3.47354C10.9478 2.51121 9.52839 1.93556 7.99312 1.93556C4.81651 1.93556 2.21 4.38724 1.95584 7.50013C1.93337 7.77536 1.71166 8 1.43552 8C1.15938 8 0.933682 7.7754 0.952963 7.49993ZM14.5729 8H14.5547C14.5608 8.00011 14.5668 8.00011 14.5729 8Z" fill="white"/>
<path fill-rule="evenodd" clip-rule="evenodd" d="M15.4988 8.43563C15.2424 12.1001 12.189 15 8.45869 15C6.64986 15 4.97901 14.3141 3.71727 13.1701L2.65893 14.2285C2.02897 14.8584 0.951824 14.4123 0.951824 13.5213V10.4356C0.951824 9.88328 1.39954 9.43556 1.95182 9.43556L5.03761 9.43556C5.92852 9.43556 6.37468 10.5127 5.74472 11.1427L4.42537 12.462C5.50397 13.4243 6.92343 14 8.45869 14C11.6353 14 14.2418 11.5483 14.496 8.43543C14.5184 8.1602 14.7401 7.93556 15.0163 7.93556C15.2924 7.93556 15.5181 8.16016 15.4988 8.43563ZM1.87888 7.93556H1.89709C1.89104 7.93545 1.88497 7.93545 1.87888 7.93556Z" fill="white"/>
</svg>
