<svg width="16" height="16" viewBox="0 0 16 16" fill="none" xmlns="http://www.w3.org/2000/svg">
<path d="M11.5 6.5V2C11.5 1.17157 10.8284 0.5 10 0.5H6C5.17157 0.5 4.5 1.17157 4.5 2V6.5M11.5 6.5H4.5M11.5 6.5V6.5C12.0523 6.5 12.5 6.94772 12.5 7.5V11C12.5 11.8284 11.8284 12.5 11 12.5H9M4.5 6.5V6.5C3.94772 6.5 3.5 6.94772 3.5 7.5V11C3.5 11.8284 4.17157 12.5 5 12.5H7M7 12.5V13.5C7 14.0523 7.44772 14.5 8 14.5V14.5M7 12.5H9M9 12.5V13.5C9 14.0523 8.55228 14.5 8 14.5V14.5M8 14.5V15.5" stroke="white" stroke-linecap="round" stroke-linejoin="round"/>
<path d="M6.5 3.5V4M9.5 3.5V4" stroke="white" stroke-linecap="round" stroke-linejoin="round"/>
</svg>
