<svg width="16" height="16" viewBox="0 0 16 16" fill="none" xmlns="http://www.w3.org/2000/svg">
<path d="M2.5 4C2.5 5.933 4.067 7.5 6 7.5C7.933 7.5 9.5 5.933 9.5 4C9.5 2.067 7.933 0.5 6 0.5C4.067 0.5 2.5 2.067 2.5 4Z" stroke="white" stroke-linecap="round" stroke-linejoin="round"/>
<path d="M1.5 15.5V13.5C1.5 11.2909 3.29086 9.5 5.5 9.5H6.5C8.70914 9.5 10.5 11.2909 10.5 13.5V15.5" stroke="white" stroke-linecap="round" stroke-linejoin="round"/>
<path fill-rule="evenodd" clip-rule="evenodd" d="M10.6346 9.87295C10.7097 9.95848 10.8146 10.0121 10.9276 10.0259C12.6589 10.2367 14 11.7118 14 13.5V15.5C14 15.7761 14.2238 16 14.5 16C14.7761 16 15 15.7761 15 15.5V13.5C15 11.0147 12.9853 9 10.5 9C10.2412 9 10.1216 9.35253 10.3083 9.53176C10.4219 9.64077 10.5307 9.75461 10.6346 9.87295ZM8.82953 9.64913C9.01424 9.76111 8.93233 10.039 8.72168 10.0868C8.65868 10.1012 8.59389 10.0906 8.53833 10.0576C8.35201 9.94703 8.15594 9.85116 7.95173 9.77159C7.73059 9.68542 7.6923 9.37093 7.91441 9.28729C7.96922 9.26665 8.03021 9.26645 8.08502 9.28708C8.34555 9.38515 8.59457 9.50669 8.82953 9.64913ZM9.7613 7.29443C9.52694 7.56178 9.64446 8 9.99999 8C12.2091 8 14 6.20914 14 4C14 1.79086 12.2091 0 9.99999 0C9.64446 0 9.52694 0.438224 9.7613 0.705572C9.791 0.739464 9.82026 0.77376 9.84906 0.808452C9.94722 0.926709 10.0912 0.997461 10.2444 1.00981C11.787 1.1342 13 2.42544 13 4C13 5.57456 11.787 6.8658 10.2444 6.99019C10.0912 7.00254 9.94722 7.07329 9.84906 7.19155C9.82026 7.22624 9.791 7.26054 9.7613 7.29443ZM8.56136 1.3668C8.70647 1.28735 8.74821 1.08888 8.62336 0.980333C8.46852 0.845692 8.30321 0.722765 8.12883 0.612933C8.05004 0.563306 7.94967 0.563463 7.87089 0.613096C7.70838 0.715465 7.732 0.951847 7.89344 1.05589C8.02584 1.14121 8.1521 1.23522 8.27144 1.33711C8.35242 1.40625 8.46796 1.41794 8.56136 1.3668ZM8.56136 6.6332C8.70647 6.71265 8.74821 6.91112 8.62336 7.01967C8.46852 7.15431 8.30321 7.27724 8.12883 7.38707C8.05004 7.43669 7.94967 7.43654 7.87089 7.3869C7.70838 7.28454 7.732 7.04815 7.89344 6.94411C8.02583 6.85879 8.1521 6.76478 8.27144 6.66289C8.35241 6.59375 8.46796 6.58206 8.56136 6.6332Z" fill="white" fill-opacity="0.5"/>
</svg>
