<svg width="16" height="16" viewBox="0 0 16 16" fill="none" xmlns="http://www.w3.org/2000/svg">
<g clip-path="url(#clip0_135_2)">
<path fill-rule="evenodd" clip-rule="evenodd" d="M9.16653 0.443085C8.56616 -0.299613 7.43383 -0.299613 6.83346 0.443085L6.52766 0.821385C6.15464 1.28284 5.54467 1.48103 4.97165 1.32696L4.50189 1.20066C3.57964 0.952689 2.66357 1.61826 2.61441 2.572L2.58937 3.05779C2.55882 3.65037 2.18184 4.16925 1.6277 4.38141L1.17342 4.55535C0.281548 4.89682 -0.068361 5.97373 0.452463 6.77422L0.71775 7.18196C1.04135 7.67932 1.04135 8.32068 0.71775 8.81804L0.452463 9.22578C-0.068361 10.0263 0.281548 11.1032 1.17342 11.4447L1.6277 11.6186C2.18184 11.8308 2.55882 12.3496 2.58937 12.9422L2.61441 13.428C2.66357 14.3817 3.57964 15.0473 4.50189 14.7993L4.97165 14.673C5.54467 14.519 6.15464 14.7172 6.52766 15.1786L6.83346 15.5569C7.43383 16.2996 8.56616 16.2996 9.16652 15.5569L9.47233 15.1786C9.84535 14.7172 10.4553 14.519 11.0283 14.673L11.4981 14.7993C12.4203 15.0473 13.3364 14.3817 13.3856 13.428L13.4106 12.9422C13.4412 12.3496 13.8182 11.8308 14.3723 11.6186L14.8266 11.4447C15.7184 11.1032 16.0683 10.0263 15.5475 9.22578L15.2822 8.81804C14.9586 8.32068 14.9586 7.67932 15.2822 7.18196L15.5475 6.77422C16.0683 5.97373 15.7184 4.89682 14.8266 4.55535L14.3723 4.38141C13.8182 4.16925 13.4412 3.65037 13.4106 3.05779L13.3856 2.572C13.3364 1.61826 12.4203 0.952689 11.4981 1.20066L11.0283 1.32696C10.4553 1.48103 9.84535 1.28284 9.47233 0.821385L9.16653 0.443085ZM12.8535 5.85355C13.0488 5.65829 13.0488 5.34171 12.8535 5.14645C12.6583 4.95118 12.3417 4.95118 12.1464 5.14645L7.2071 10.0858C6.81658 10.4763 6.18341 10.4763 5.79289 10.0858L3.85355 8.14645C3.65829 7.95118 3.3417 7.95118 3.14644 8.14645C2.95118 8.34171 2.95118 8.65829 3.14644 8.85355L5.08578 10.7929C5.86683 11.5739 7.13316 11.5739 7.91421 10.7929L12.8535 5.85355Z" fill="white"/>
</g>
<defs>
<clipPath id="clip0_135_2">
<rect width="16" height="16" fill="white"/>
</clipPath>
</defs>
</svg>
