<svg width="16" height="16" viewBox="0 0 16 16" fill="none" xmlns="http://www.w3.org/2000/svg">
<g clip-path="url(#clip0_230_33)">
<path d="M0.5 3.5L1.64645 4.64645C1.84171 4.84171 1.84171 5.15829 1.64645 5.35355L0.853554 6.14645C0.658291 6.34171 0.658291 6.65829 0.853553 6.85355L1.64645 7.64645C1.84171 7.84171 1.84171 8.15829 1.64645 8.35355L0.853554 9.14645C0.658291 9.34171 0.658291 9.65829 0.853553 9.85355L1.64645 10.6464C1.84171 10.8417 1.84171 11.1583 1.64645 11.3536L0.5 12.5M15.5 3.5L14.3536 4.64645C14.1583 4.84171 14.1583 5.15829 14.3536 5.35355L15.1464 6.14645C15.3417 6.34171 15.3417 6.65829 15.1464 6.85355L14.3536 7.64645C14.1583 7.84171 14.1583 8.15829 14.3536 8.35355L15.1464 9.14645C15.3417 9.34171 15.3417 9.65829 15.1464 9.85355L14.3536 10.6464C14.1583 10.8417 14.1583 11.1583 14.3536 11.3536L15.5 12.5M5.5 15.5H10.5C11.3284 15.5 12 14.8284 12 14V2C12 1.17157 11.3284 0.5 10.5 0.5H5.5C4.67157 0.5 4 1.17157 4 2V14C4 14.8284 4.67157 15.5 5.5 15.5Z" stroke="white" stroke-linecap="round" stroke-linejoin="round"/>
</g>
<defs>
<clipPath id="clip0_230_33">
<rect width="16" height="16" fill="white"/>
</clipPath>
</defs>
</svg>
