<svg width="16" height="16" viewBox="0 0 16 16" fill="none" xmlns="http://www.w3.org/2000/svg">
<g clip-path="url(#clip0_615_30)">
<path d="M0.5 8V8C0.5 12.1421 3.85786 15.5 8 15.5V15.5C12.1421 15.5 15.5 12.1421 15.5 8V8M0.5 8V8C0.5 3.85786 3.85786 0.5 8 0.5V0.5C12.1421 0.5 15.5 3.85786 15.5 8V8M0.5 8H15.5" stroke="white"/>
<path d="M11.5 8C11.5 10.1483 11.0635 12.0686 10.3812 13.4332C9.68393 14.8278 8.81316 15.5 8 15.5C7.18684 15.5 6.31607 14.8278 5.61879 13.4332C4.93646 12.0686 4.5 10.1483 4.5 8C4.5 5.85165 4.93646 3.93141 5.61879 2.56675C6.31607 1.17219 7.18684 0.5 8 0.5C8.81316 0.5 9.68393 1.17219 10.3812 2.56675C11.0635 3.93141 11.5 5.85165 11.5 8Z" stroke="white"/>
</g>
<defs>
<clipPath id="clip0_615_30">
<rect width="16" height="16" fill="white"/>
</clipPath>
</defs>
</svg>
