<svg width="16" height="16" viewBox="0 0 16 16" fill="none" xmlns="http://www.w3.org/2000/svg">
<path fill-rule="evenodd" clip-rule="evenodd" d="M11.2077 11.2735C10.9717 11.5034 10.5762 11.4293 10.3749 11.1685C9.82633 10.4578 8.96596 10 7.99867 10C7.03137 10 6.171 10.4578 5.6224 11.1685C5.42113 11.4293 5.02561 11.5034 4.78968 11.2735C4.63379 11.1217 4.59803 10.8817 4.72312 10.7036C5.44674 9.67334 6.64407 9 7.99867 9C9.35327 9 10.5506 9.67335 11.2742 10.7036C11.3993 10.8817 11.3635 11.1217 11.2077 11.2735ZM13.3544 9.18206C13.1355 9.39532 12.7781 9.35947 12.5807 9.1262C11.4801 7.82568 9.83582 7 7.99867 7C6.16152 7 4.51722 7.82568 3.41662 9.12619C3.2192 9.35947 2.86187 9.39532 2.64298 9.18206C2.46705 9.01066 2.44237 8.73473 2.59878 8.54535C3.8827 6.99077 5.82498 6 7.99867 6C10.1724 6 12.1146 6.99077 13.3986 8.54535C13.555 8.73474 13.5303 9.01066 13.3544 9.18206ZM15.5029 7.08876C15.2906 7.2956 14.9464 7.27105 14.7503 7.04877C13.1012 5.17924 10.6876 4 7.99867 4C5.30971 4 2.89618 5.17924 1.24702 7.04877C1.05094 7.27105 0.706711 7.29559 0.494409 7.08875C0.311461 6.91051 0.292342 6.62169 0.460251 6.42922C2.29345 4.32781 4.991 3 7.99867 3C11.0063 3 13.7039 4.32781 15.5371 6.42922C15.705 6.6217 15.6859 6.91051 15.5029 7.08876ZM8.99867 13C8.99867 13.5523 8.55095 14 7.99867 14C7.44638 14 6.99867 13.5523 6.99867 13C6.99867 12.4477 7.44638 12 7.99867 12C8.55095 12 8.99867 12.4477 8.99867 13Z" fill="white" fill-opacity="0.5"/>
</svg>
