<svg width="16" height="16" viewBox="0 0 16 16" fill="none" xmlns="http://www.w3.org/2000/svg">
  <path fill-rule="evenodd" clip-rule="evenodd" d="M7.99866 14C8.55094 14 8.99866 13.5523 8.99866 13C8.99866 12.4477 8.55094 12 7.99866 12C7.44637 12 6.99866 12.4477 6.99866 13C6.99866 13.5523 7.44637 14 7.99866 14Z" fill="white" class="wave0"/>
<path fill-rule="evenodd" clip-rule="evenodd" d="M11.2077 11.2735C10.9717 11.5034 10.5762 11.4293 10.3749 11.1685C9.82635 10.4578 8.96598 10 7.99868 10C7.03139 10 6.17102 10.4578 5.62242 11.1685C5.42115 11.4293 5.02563 11.5034 4.78969 11.2735V11.2735C4.6338 11.1217 4.59804 10.8817 4.72314 10.7036C5.44675 9.67334 6.64408 9 7.99868 9C9.35328 9 10.5506 9.67335 11.2742 10.7036C11.3993 10.8817 11.3636 11.1217 11.2077 11.2735V11.2735Z" fill="white" class="wave1"/>
<path fill-rule="evenodd" clip-rule="evenodd" d="M13.3544 9.18206C13.1355 9.39532 12.7781 9.35947 12.5807 9.1262C11.4801 7.82568 9.83583 7 7.99868 7C6.16154 7 4.51724 7.82568 3.41664 9.12619C3.21922 9.35947 2.86188 9.39532 2.643 9.18206V9.18206C2.46707 9.01066 2.44239 8.73473 2.59879 8.54535C3.88271 6.99077 5.82499 6 7.99868 6C10.1724 6 12.1147 6.99077 13.3986 8.54535C13.555 8.73474 13.5303 9.01066 13.3544 9.18206V9.18206Z" fill="white" class="wave2"/>
<path fill-rule="evenodd" clip-rule="evenodd" d="M15.5029 7.08876C15.2906 7.2956 14.9464 7.27105 14.7503 7.04877C13.1012 5.17924 10.6876 4 7.99867 4C5.30971 4 2.89618 5.17924 1.24702 7.04877C1.05094 7.27105 0.706711 7.29559 0.494409 7.08875V7.08875C0.311461 6.91051 0.292342 6.62169 0.460251 6.42922C2.29345 4.32781 4.991 3 7.99867 3C11.0063 3 13.7039 4.32781 15.5371 6.42922C15.705 6.6217 15.6859 6.91051 15.5029 7.08876V7.08876Z" fill="white" class="wave3"/>
<style>
  .wave0 {
    animation: fade 1s ease;
  }

  .wave1 {
    animation: fade 1s ease 0.3s;
  }

  .wave2 {
    animation: fade 1s ease 0.6s;
  }

  .wave3 {
    animation: fade 1s ease 0.9s;
  }

  @keyframes fade {
    0%, 100% {
      opacity: 1;
    }
    50% {
      opacity: 0.5;
    }
  }
</style>
</svg>
