<svg width="16" height="16" viewBox="0 0 16 16" fill="none" xmlns="http://www.w3.org/2000/svg">
<path fill-rule="evenodd" clip-rule="evenodd" d="M11.947 8.19002C11.7991 8.24545 11.6366 8.22571 11.5086 8.13323C10.5217 7.4202 9.30926 7 7.99867 7C6.16152 7 4.51722 7.82568 3.41662 9.12619C3.2192 9.35947 2.86187 9.39532 2.64298 9.18206C2.46705 9.01066 2.44237 8.73473 2.59878 8.54535C3.8827 6.99077 5.82498 6 7.99867 6C9.55819 6 10.9986 6.50999 12.1622 7.37229C12.4556 7.58968 12.2888 8.06184 11.947 8.19002ZM9.37274 10.3325C9.65345 10.4774 10.0628 10.309 10.1669 10.0108C10.228 9.8358 10.1764 9.63912 10.0165 9.5455C9.42413 9.19875 8.73461 9 7.99867 9C6.64407 9 5.44674 9.67334 4.72312 10.7036C4.59803 10.8817 4.63379 11.1217 4.78968 11.2735C5.02561 11.5034 5.42113 11.4293 5.6224 11.1685C6.171 10.4578 7.03137 10 7.99867 10C8.49388 10 8.96106 10.12 9.37274 10.3325ZM14.7503 7.04877C14.9464 7.27105 15.2906 7.2956 15.5029 7.08876C15.6859 6.91051 15.705 6.6217 15.5371 6.42922C13.7039 4.32781 11.0063 3 7.99867 3C4.991 3 2.29345 4.32781 0.460251 6.42922C0.292342 6.62169 0.311461 6.91051 0.494409 7.08875C0.706711 7.29559 1.05094 7.27105 1.24702 7.04877C2.89618 5.17924 5.30971 4 7.99867 4C10.6876 4 13.1012 5.17924 14.7503 7.04877ZM7.99867 14C8.55095 14 8.99867 13.5523 8.99867 13C8.99867 12.4477 8.55095 12 7.99867 12C7.44638 12 6.99867 12.4477 6.99867 13C6.99867 13.5523 7.44638 14 7.99867 14Z" fill="white" fill-opacity="0.5"/>
<path fill-rule="evenodd" clip-rule="evenodd" d="M10.1669 10.0108C10.228 9.8358 10.1764 9.63912 10.0165 9.5455C9.42411 9.19875 8.73459 9 7.99865 9C6.64405 9 5.44672 9.67334 4.72311 10.7036C4.59801 10.8817 4.63377 11.1217 4.78966 11.2735C5.0256 11.5034 5.42112 11.4293 5.62239 11.1685C6.17099 10.4578 7.03136 10 7.99865 10C8.49386 10 8.96104 10.12 9.37272 10.3325C9.65343 10.4774 10.0628 10.309 10.1669 10.0108ZM7.99865 14C8.55094 14 8.99865 13.5523 8.99865 13C8.99865 12.4477 8.55094 12 7.99865 12C7.44637 12 6.99865 12.4477 6.99865 13C6.99865 13.5523 7.44637 14 7.99865 14Z" fill="white"/>
<path d="M11.5 12V12C10.9477 12 10.5 12.4477 10.5 13V14C10.5 14.8284 11.1716 15.5 12 15.5H14C14.8284 15.5 15.5 14.8284 15.5 14V13C15.5 12.4477 15.0523 12 14.5 12V12M11.5 12H14.5M11.5 12V11C11.5 10.1716 12.1716 9.5 13 9.5V9.5C13.8284 9.5 14.5 10.1716 14.5 11V12" stroke="white" stroke-opacity="0.5" stroke-linecap="round" stroke-linejoin="round"/>
</svg>
