<svg width="16" height="16" viewBox="0 0 16 16" fill="none" xmlns="http://www.w3.org/2000/svg">
<g clip-path="url(#clip0_10_1613)">
<path d="M0.5 15.5L15.5 0.5" stroke="white" stroke-linecap="round" stroke-linejoin="round"/>
<path fill-rule="evenodd" clip-rule="evenodd" d="M9.91031 3.96837C10.194 3.68471 10.0614 3.20473 9.66578 3.13834C9.12362 3.04736 8.56668 3 7.99867 3C4.991 3 2.29345 4.32781 0.460251 6.42922C0.292342 6.62169 0.311461 6.91051 0.494409 7.08875C0.706711 7.29559 1.05094 7.27105 1.24702 7.04877C2.89618 5.17924 5.30971 4 7.99867 4C8.49048 4 8.97308 4.03945 9.44347 4.11535C9.61383 4.14284 9.78829 4.09039 9.91031 3.96837ZM6.86909 7.00959C7.23573 6.64295 6.96958 6.05563 6.46358 6.16884C4.92132 6.51391 3.57121 7.36792 2.59878 8.54535C2.44237 8.73473 2.46705 9.01066 2.64298 9.18206C2.86187 9.39532 3.2192 9.35947 3.41662 9.12619C4.22473 8.1713 5.32595 7.4724 6.5814 7.16836C6.68986 7.1421 6.79018 7.0885 6.86909 7.00959ZM11.16 7.89945C10.8738 7.72166 10.8035 7.31786 11.0417 7.07959C11.1934 6.92796 11.4273 6.89199 11.6109 7.0028C12.2908 7.4132 12.8953 7.93596 13.3986 8.54535C13.555 8.73474 13.5303 9.01066 13.3544 9.18206C13.1355 9.39532 12.7781 9.35947 12.5807 9.1262C12.1751 8.64695 11.6957 8.23218 11.16 7.89945ZM9.08644 10.2033C8.73353 10.0659 8.55308 9.56824 8.82086 9.30046C8.92941 9.19191 9.08782 9.14699 9.23384 9.19435C10.0673 9.46467 10.7809 10.0012 11.2742 10.7036C11.3993 10.8817 11.3635 11.1217 11.2077 11.2735C10.9717 11.5034 10.5762 11.4293 10.3749 11.1685C10.0439 10.7397 9.59944 10.403 9.08644 10.2033ZM13.2753 5.7083C13.018 5.52176 12.9747 5.14663 13.1994 4.92189C13.3651 4.75619 13.6252 4.7286 13.8157 4.86506C14.4486 5.31842 15.0264 5.8438 15.5371 6.42922C15.705 6.6217 15.6859 6.91051 15.5029 7.08876C15.2906 7.2956 14.9464 7.27105 14.7503 7.04877C14.31 6.54964 13.8153 6.09972 13.2753 5.7083ZM7.99867 14C8.55095 14 8.99867 13.5523 8.99867 13C8.99867 12.4477 8.55095 12 7.99867 12C7.44638 12 6.99867 12.4477 6.99867 13C6.99867 13.5523 7.44638 14 7.99867 14Z" fill="white" fill-opacity="0.5"/>
</g>
<defs>
<clipPath id="clip0_10_1613">
<rect width="16" height="16" fill="white"/>
</clipPath>
</defs>
</svg>
