<svg width="16" height="16" viewBox="0 0 16 16" fill="none" xmlns="http://www.w3.org/2000/svg">
<g clip-path="url(#clip0_645_17)">
<path d="M6.75 0.5H2C1.17157 0.5 0.5 1.17157 0.5 2V6.75C0.5 6.88807 0.611929 7 0.75 7H6.75C6.88807 7 7 6.88807 7 6.75V0.75C7 0.611929 6.88807 0.5 6.75 0.5Z" fill="white"/>
<path d="M14 0.5H9.25C9.11193 0.5 9 0.611929 9 0.75V6.75C9 6.88807 9.11193 7 9.25 7H15.25C15.3881 7 15.5 6.88807 15.5 6.75V2C15.5 1.17157 14.8284 0.5 14 0.5Z" fill="white"/>
<path d="M6.75 9H0.75C0.611929 9 0.5 9.11193 0.5 9.25V14C0.5 14.8284 1.17157 15.5 2 15.5H6.75C6.88807 15.5 7 15.3881 7 15.25V9.25C7 9.11193 6.88807 9 6.75 9Z" fill="white"/>
<path d="M15.25 9H9.25C9.11193 9 9 9.11193 9 9.25V15.25C9 15.3881 9.11193 15.5 9.25 15.5H14C14.8284 15.5 15.5 14.8284 15.5 14V9.25C15.5 9.11193 15.3881 9 15.25 9Z" fill="white"/>
<path d="M6.75 0.5H2C1.17157 0.5 0.5 1.17157 0.5 2V6.75C0.5 6.88807 0.611929 7 0.75 7H6.75C6.88807 7 7 6.88807 7 6.75V0.75C7 0.611929 6.88807 0.5 6.75 0.5Z" stroke="white" stroke-linecap="round" stroke-linejoin="round"/>
<path d="M14 0.5H9.25C9.11193 0.5 9 0.611929 9 0.75V6.75C9 6.88807 9.11193 7 9.25 7H15.25C15.3881 7 15.5 6.88807 15.5 6.75V2C15.5 1.17157 14.8284 0.5 14 0.5Z" stroke="white" stroke-linecap="round" stroke-linejoin="round"/>
<path d="M6.75 9H0.75C0.611929 9 0.5 9.11193 0.5 9.25V14C0.5 14.8284 1.17157 15.5 2 15.5H6.75C6.88807 15.5 7 15.3881 7 15.25V9.25C7 9.11193 6.88807 9 6.75 9Z" stroke="white" stroke-linecap="round" stroke-linejoin="round"/>
<path d="M15.25 9H9.25C9.11193 9 9 9.11193 9 9.25V15.25C9 15.3881 9.11193 15.5 9.25 15.5H14C14.8284 15.5 15.5 14.8284 15.5 14V9.25C15.5 9.11193 15.3881 9 15.25 9Z" stroke="white" stroke-linecap="round" stroke-linejoin="round"/>
</g>
<defs>
<clipPath id="clip0_645_17">
<rect width="16" height="16" fill="white"/>
</clipPath>
</defs>
</svg>
