<svg width="16" height="16" viewBox="0 0 16 16" fill="none" xmlns="http://www.w3.org/2000/svg">
<g clip-path="url(#clip0_645_4)">
<path d="M0.5 8C0.5 12.1421 3.85786 15.5 8 15.5C12.1421 15.5 15.5 12.1421 15.5 8C15.5 3.85786 12.1421 0.5 8 0.5C3.85786 0.5 0.5 3.85786 0.5 8Z" stroke="white" stroke-linejoin="round"/>
<path d="M6.5 4.5C5.5 3 4.5 2.5 3.5 2L3.94427 1.77786C4.3001 1.59995 4.71161 1.57357 5.09423 1.68251C6.27623 2.01908 7.13812 2.13812 8 3C8.86188 2.13812 9.72377 2.01908 10.9058 1.68251C11.2884 1.57357 11.6999 1.59995 12.0557 1.77786L12.5 2C11.5 2.5 10.5 3 9.5 4.5C11.5 6.5 13 9 14 12.5H13.5C12 9.5 10.5 7.5 8 6C5.5 7.5 4 9.5 2.5 12.5H2C3 9 4.5 6.5 6.5 4.5Z" fill="white" stroke="white" stroke-linejoin="round"/>
</g>
<defs>
<clipPath id="clip0_645_4">
<rect width="16" height="16" fill="white"/>
</clipPath>
</defs>
</svg>
