<svg width="72" height="72" viewBox="0 0 72 72" fill="none" xmlns="http://www.w3.org/2000/svg">
<g filter="url(#filter0_d_91_2822)">
<rect x="4" y="4" width="64" height="64" rx="16" fill="url(#paint0_linear_91_2822)"/>
<g filter="url(#filter1_biii_91_2822)">
<path fill-rule="evenodd" clip-rule="evenodd" d="M44 56C35.1634 56 28 49.732 28 42C28 34.268 35.1634 28 44 28C52.8366 28 60 34.268 60 42C60 45.4125 58.6047 48.5397 56.286 50.9689C55.6455 51.64 55.4285 52.6401 55.88 53.4506C56.5277 54.6136 57.225 55.7518 57.9462 56.878C58.8076 58.2232 57.8534 59.9295 56.293 59.5878C53.5236 58.9815 50.8701 57.7453 48.5955 56.1421C48.1147 55.8032 47.5183 55.6703 46.9377 55.7645C45.9854 55.9192 45.0035 56 44 56Z" fill="white" fill-opacity="0.6"/>
</g>
<mask id="mask0_91_2822" style="mask-type:alpha" maskUnits="userSpaceOnUse" x="28" y="28" width="32" height="32">
<path fill-rule="evenodd" clip-rule="evenodd" d="M44 56C35.1634 56 28 49.732 28 42C28 34.268 35.1634 28 44 28C52.8366 28 60 34.268 60 42C60 45.4125 58.6047 48.5397 56.286 50.9689C55.6455 51.64 55.4285 52.6401 55.88 53.4506C56.5277 54.6136 57.225 55.7518 57.9462 56.878C58.8076 58.2232 57.8534 59.9295 56.293 59.5878C53.5236 58.9815 50.8701 57.7453 48.5955 56.1421C48.1147 55.8032 47.5183 55.6703 46.9377 55.7645C45.9854 55.9192 45.0035 56 44 56Z" fill="white"/>
</mask>
<g mask="url(#mask0_91_2822)">
<g filter="url(#filter2_d_91_2822)">
<path fill-rule="evenodd" clip-rule="evenodd" d="M36 52C49.2548 52 60 43.0457 60 32C60 20.9543 49.2548 12 36 12C22.7452 12 12 20.9543 12 32C12 36.6681 13.9192 40.9627 17.1359 44.3657C17.7054 44.9682 17.9127 45.8452 17.5689 46.5997C16.5748 48.7813 15.3531 50.849 14.0538 52.878C13.1924 54.2232 14.1466 55.9295 15.707 55.5878C19.1144 54.8418 22.3463 53.1422 24.913 50.9789C25.5057 50.4793 26.3181 50.3178 27.053 50.564C29.8179 51.4903 32.8375 52 36 52Z" fill="white" fill-opacity="0.01" shape-rendering="crispEdges"/>
</g>
</g>
<g filter="url(#filter3_biii_91_2822)">
<path fill-rule="evenodd" clip-rule="evenodd" d="M36 52C49.2548 52 60 43.0457 60 32C60 20.9543 49.2548 12 36 12C22.7452 12 12 20.9543 12 32C12 36.6681 13.9192 40.9627 17.1359 44.3657C17.7054 44.9682 17.9127 45.8452 17.5689 46.5997C16.5748 48.7813 15.3531 50.849 14.0538 52.878C13.1924 54.2232 14.1466 55.9295 15.707 55.5878C19.1144 54.8418 22.3463 53.1422 24.913 50.9789C25.5057 50.4793 26.3181 50.3178 27.053 50.564C29.8179 51.4903 32.8375 52 36 52Z" fill="white" fill-opacity="0.6"/>
</g>
</g>
<defs>
<filter id="filter0_d_91_2822" x="0" y="0" width="72" height="72" filterUnits="userSpaceOnUse" color-interpolation-filters="sRGB">
<feFlood flood-opacity="0" result="BackgroundImageFix"/>
<feColorMatrix in="SourceAlpha" type="matrix" values="0 0 0 0 0 0 0 0 0 0 0 0 0 0 0 0 0 0 127 0" result="hardAlpha"/>
<feOffset/>
<feGaussianBlur stdDeviation="2"/>
<feComposite in2="hardAlpha" operator="out"/>
<feColorMatrix type="matrix" values="0 0 0 0 0 0 0 0 0 0 0 0 0 0 0 0 0 0 0.1 0"/>
<feBlend mode="normal" in2="BackgroundImageFix" result="effect1_dropShadow_91_2822"/>
<feBlend mode="normal" in="SourceGraphic" in2="effect1_dropShadow_91_2822" result="shape"/>
</filter>
<filter id="filter1_biii_91_2822" x="25" y="16" width="38" height="47.6321" filterUnits="userSpaceOnUse" color-interpolation-filters="sRGB">
<feFlood flood-opacity="0" result="BackgroundImageFix"/>
<feGaussianBlur in="BackgroundImageFix" stdDeviation="1.5"/>
<feComposite in2="SourceAlpha" operator="in" result="effect1_backgroundBlur_91_2822"/>
<feBlend mode="normal" in="SourceGraphic" in2="effect1_backgroundBlur_91_2822" result="shape"/>
<feColorMatrix in="SourceAlpha" type="matrix" values="0 0 0 0 0 0 0 0 0 0 0 0 0 0 0 0 0 0 127 0" result="hardAlpha"/>
<feOffset dy="-12"/>
<feGaussianBlur stdDeviation="6"/>
<feComposite in2="hardAlpha" operator="arithmetic" k2="-1" k3="1"/>
<feColorMatrix type="matrix" values="0 0 0 0 0 0 0 0 0 0.380392 0 0 0 0 0.878431 0 0 0 0.25 0"/>
<feBlend mode="normal" in2="shape" result="effect2_innerShadow_91_2822"/>
<feColorMatrix in="SourceAlpha" type="matrix" values="0 0 0 0 0 0 0 0 0 0 0 0 0 0 0 0 0 0 127 0" result="hardAlpha"/>
<feOffset dy="4"/>
<feGaussianBlur stdDeviation="4"/>
<feComposite in2="hardAlpha" operator="arithmetic" k2="-1" k3="1"/>
<feColorMatrix type="matrix" values="0 0 0 0 1 0 0 0 0 1 0 0 0 0 1 0 0 0 0.25 0"/>
<feBlend mode="normal" in2="effect2_innerShadow_91_2822" result="effect3_innerShadow_91_2822"/>
<feColorMatrix in="SourceAlpha" type="matrix" values="0 0 0 0 0 0 0 0 0 0 0 0 0 0 0 0 0 0 127 0" result="hardAlpha"/>
<feOffset dy="2"/>
<feGaussianBlur stdDeviation="2"/>
<feComposite in2="hardAlpha" operator="arithmetic" k2="-1" k3="1"/>
<feColorMatrix type="matrix" values="0 0 0 0 1 0 0 0 0 1 0 0 0 0 1 0 0 0 0.25 0"/>
<feBlend mode="normal" in2="effect3_innerShadow_91_2822" result="effect4_innerShadow_91_2822"/>
</filter>
<filter id="filter2_d_91_2822" x="10" y="12" width="52" height="49.6321" filterUnits="userSpaceOnUse" color-interpolation-filters="sRGB">
<feFlood flood-opacity="0" result="BackgroundImageFix"/>
<feColorMatrix in="SourceAlpha" type="matrix" values="0 0 0 0 0 0 0 0 0 0 0 0 0 0 0 0 0 0 127 0" result="hardAlpha"/>
<feOffset dy="4"/>
<feGaussianBlur stdDeviation="1"/>
<feComposite in2="hardAlpha" operator="out"/>
<feColorMatrix type="matrix" values="0 0 0 0 0 0 0 0 0 0 0 0 0 0 0 0 0 0 0.05 0"/>
<feBlend mode="normal" in2="BackgroundImageFix" result="effect1_dropShadow_91_2822"/>
<feBlend mode="normal" in="SourceGraphic" in2="effect1_dropShadow_91_2822" result="shape"/>
</filter>
<filter id="filter3_biii_91_2822" x="8" y="-4" width="56" height="67.6321" filterUnits="userSpaceOnUse" color-interpolation-filters="sRGB">
<feFlood flood-opacity="0" result="BackgroundImageFix"/>
<feGaussianBlur in="BackgroundImageFix" stdDeviation="2"/>
<feComposite in2="SourceAlpha" operator="in" result="effect1_backgroundBlur_91_2822"/>
<feBlend mode="normal" in="SourceGraphic" in2="effect1_backgroundBlur_91_2822" result="shape"/>
<feColorMatrix in="SourceAlpha" type="matrix" values="0 0 0 0 0 0 0 0 0 0 0 0 0 0 0 0 0 0 127 0" result="hardAlpha"/>
<feOffset dy="-16"/>
<feGaussianBlur stdDeviation="8"/>
<feComposite in2="hardAlpha" operator="arithmetic" k2="-1" k3="1"/>
<feColorMatrix type="matrix" values="0 0 0 0 0 0 0 0 0 0.380392 0 0 0 0 0.878431 0 0 0 0.25 0"/>
<feBlend mode="normal" in2="shape" result="effect2_innerShadow_91_2822"/>
<feColorMatrix in="SourceAlpha" type="matrix" values="0 0 0 0 0 0 0 0 0 0 0 0 0 0 0 0 0 0 127 0" result="hardAlpha"/>
<feOffset dy="8"/>
<feGaussianBlur stdDeviation="8"/>
<feComposite in2="hardAlpha" operator="arithmetic" k2="-1" k3="1"/>
<feColorMatrix type="matrix" values="0 0 0 0 1 0 0 0 0 1 0 0 0 0 1 0 0 0 0.25 0"/>
<feBlend mode="normal" in2="effect2_innerShadow_91_2822" result="effect3_innerShadow_91_2822"/>
<feColorMatrix in="SourceAlpha" type="matrix" values="0 0 0 0 0 0 0 0 0 0 0 0 0 0 0 0 0 0 127 0" result="hardAlpha"/>
<feOffset dy="2"/>
<feGaussianBlur stdDeviation="2"/>
<feComposite in2="hardAlpha" operator="arithmetic" k2="-1" k3="1"/>
<feColorMatrix type="matrix" values="0 0 0 0 1 0 0 0 0 1 0 0 0 0 1 0 0 0 0.5 0"/>
<feBlend mode="normal" in2="effect3_innerShadow_91_2822" result="effect4_innerShadow_91_2822"/>
</filter>
<linearGradient id="paint0_linear_91_2822" x1="36" y1="4" x2="36" y2="68" gradientUnits="userSpaceOnUse">
<stop stop-color="#00A0E8"/>
<stop offset="1" stop-color="#0061E0"/>
</linearGradient>
</defs>
</svg>
