<svg width="72" height="72" viewBox="0 0 72 72" fill="none" xmlns="http://www.w3.org/2000/svg">
<g clip-path="url(#clip0_1412_49)">
<g filter="url(#filter0_d_1412_49)">
<rect x="4" y="4" width="64" height="64" rx="16" fill="url(#paint0_linear_1412_49)"/>
</g>
<mask id="mask0_1412_49" style="mask-type:alpha" maskUnits="userSpaceOnUse" x="4" y="4" width="64" height="64">
<rect x="4" y="4" width="64" height="64" rx="16" fill="white"/>
</mask>
<g mask="url(#mask0_1412_49)">
<g filter="url(#filter1_b_1412_49)">
<g filter="url(#filter2_i_1412_49)">
<path d="M12.1842 49.7501C13.5026 52.0335 15.871 52.9233 17.904 53.2177C19.9867 53.5194 22.3801 53.3153 24.8331 52.8133C29.777 51.8016 35.7753 49.4089 41.7499 45.9594C47.7246 42.5099 52.7959 38.5116 56.144 34.7359C57.8053 32.8625 59.1787 30.8918 59.9588 28.9373C60.7203 27.0295 61.134 24.5335 59.8156 22.2501C58.4973 19.9667 56.1289 19.0769 54.0959 18.7825C52.0132 18.4808 49.6198 18.6849 47.1668 19.1869C42.2229 20.1986 36.2246 22.5914 30.2499 26.0408C24.2753 29.4903 19.204 33.4886 15.8559 37.2643C14.1946 39.1377 12.8212 41.1084 12.0411 43.0629C11.2796 44.9707 10.8659 47.4667 12.1842 49.7501Z" stroke="#B0DDFF" stroke-opacity="0.6" stroke-width="7" stroke-linejoin="round"/>
</g>
<g filter="url(#filter3_i_1412_49)">
<path d="M12 36C12 22.7452 22.7452 12 36 12V12C49.2548 12 60 22.7452 60 36V36C60 49.2548 49.2548 60 36 60V60C22.7452 60 12 49.2548 12 36V36Z" fill="url(#paint1_linear_1412_49)"/>
</g>
<mask id="mask1_1412_49" style="mask-type:alpha" maskUnits="userSpaceOnUse" x="12" y="12" width="48" height="48">
<path d="M12 36C12 22.7452 22.7452 12 36 12V12C49.2548 12 60 22.7452 60 36V36C60 49.2548 49.2548 60 36 60V60C22.7452 60 12 49.2548 12 36V36Z" fill="url(#paint2_linear_1412_49)"/>
</mask>
<g mask="url(#mask1_1412_49)">
<path fill-rule="evenodd" clip-rule="evenodd" d="M53.9478 19.7553C55.5981 20.1843 57.0547 20.9828 58.0331 22.2615C58.2849 22.5904 58.1583 23.0529 57.7996 23.26V23.26C57.4409 23.4671 56.9864 23.3388 56.72 23.0217C55.2544 21.2776 52.3537 20.5997 48.6449 20.9068C48.2995 20.9354 48.0002 20.6527 47.9214 20.3152V20.3152C47.8259 19.9061 48.0651 19.4503 48.4837 19.415C50.4928 19.2455 52.3517 19.3404 53.9478 19.7553ZM44.9999 19C45.1144 19 45.2125 19.0765 45.2522 19.1839C45.2733 19.2407 45.2942 19.2978 45.315 19.3551C45.4154 19.6315 45.7006 19.7961 45.9901 19.7449C46.0268 19.7384 46.0635 19.732 46.1001 19.7257C46.3404 19.6841 46.5928 19.7661 46.7179 19.9755C46.897 20.2751 46.9999 20.6255 46.9999 21V21C46.9999 21.0582 46.956 21.1062 46.8985 21.115C46.7832 21.1327 46.6673 21.1512 46.5508 21.1706C46.2278 21.2243 46.0294 21.5503 46.1176 21.8657C46.1368 21.9342 46.1558 22.003 46.1747 22.072C46.2502 22.3477 46.1622 22.6527 45.9076 22.7826C45.6352 22.9216 45.3267 23 44.9999 23V23C44.9214 23 44.8552 22.9443 44.8353 22.8684C44.7813 22.6626 44.7261 22.4589 44.6696 22.2574C44.564 21.8807 44.1838 21.6567 43.8048 21.7535V21.7535C43.4652 21.8403 43.0879 21.6854 43.0287 21.34C43.0098 21.2295 42.9999 21.1159 42.9999 21C42.9999 20.8948 43.008 20.7916 43.0237 20.6908C43.0534 20.4992 43.2085 20.3579 43.3963 20.3097C43.4514 20.2956 43.5063 20.2816 43.5612 20.2678C43.8003 20.2076 43.9373 19.9532 43.8519 19.7219V19.7219C43.7895 19.5529 43.8396 19.3608 43.9953 19.2703C44.2905 19.0984 44.6337 19 44.9999 19V19ZM43.9783 18.1784C44.3566 18.0414 44.6261 17.622 44.4586 17.2562C43.5788 15.3343 42.5318 13.691 41.3268 12.4677C40.1301 11.253 38.7104 10.3909 37.1137 10.1829C36.703 10.1293 36.3657 10.4702 36.3657 10.8844V10.8844C36.3657 11.2986 36.7041 11.628 37.112 11.7002C39.4012 12.1055 41.4761 14.3604 43.0782 17.8446C43.2309 18.1765 43.6348 18.3028 43.9783 18.1784V18.1784ZM41.9999 21C41.9999 20.8522 41.8604 20.7365 41.719 20.7794C38.1831 21.8501 34.3836 23.5002 30.6155 25.6757C26.8992 27.8213 23.6102 30.2489 20.9349 32.7392C20.6381 33.0155 20.7172 33.5068 21.0173 33.7796V33.7796C21.2852 34.0231 21.7072 34.0694 21.9723 33.8229C24.5483 31.4274 27.7364 29.07 31.3655 26.9748C34.6686 25.0677 37.9772 23.5856 41.0803 22.5557C41.6975 22.3509 41.9999 21.6502 41.9999 21V21V21ZM45.8253 23.885C45.4709 23.9862 45.191 24.3308 45.2681 24.6912C45.9698 27.9726 46.3657 31.6925 46.3657 35.6344C46.3657 39.4773 45.9894 43.1093 45.3203 46.3297C45.2467 46.684 45.5177 47.0223 45.8643 47.1264V47.1264C46.2525 47.243 46.7022 47.0515 46.7848 46.6547C47.4806 43.3134 47.8657 39.5702 47.8657 35.6344C47.8657 31.5968 47.4604 27.7621 46.7303 24.3558C46.6467 23.9657 46.2089 23.7755 45.8253 23.885V23.885ZM45.9167 48.222C46.2081 48.3726 46.3022 48.7249 46.2169 49.0416C46.1808 49.1753 46.1443 49.3082 46.1072 49.4403C46.024 49.7362 46.2151 50.0431 46.5183 50.0939V50.0939C46.7875 50.139 46.982 50.3847 46.8942 50.6432C46.7977 50.9277 46.6388 51.1833 46.434 51.394C46.3185 51.5128 46.1478 51.5529 45.9848 51.5241C45.9313 51.5146 45.8778 51.505 45.8242 51.4952C45.6298 51.4598 45.4378 51.5715 45.3713 51.7576V51.7576C45.3222 51.8948 45.2013 51.9952 45.0556 51.9992C45.0371 51.9997 45.0185 52 44.9999 52C44.6394 52 44.3011 51.9046 44.009 51.7377C43.8966 51.6734 43.8562 51.5361 43.9005 51.4144V51.4144C43.959 51.2536 43.8638 51.0774 43.6977 51.0362C43.6141 51.0154 43.5303 50.9944 43.4463 50.9729C43.3027 50.9363 43.1786 50.8407 43.1265 50.7019C43.0447 50.4835 42.9999 50.247 42.9999 50V50C42.9999 49.6168 43.4 49.4125 43.7712 49.5077C43.7774 49.5093 43.7835 49.5109 43.7896 49.5125C44.1739 49.6108 44.565 49.385 44.6719 49.0031C44.7584 48.6941 44.842 48.3801 44.9226 48.0612C44.9316 48.0256 44.9631 48 44.9999 48V48C45.3303 48 45.6421 48.0801 45.9167 48.222ZM41.9999 50C41.9999 49.4729 41.7357 48.9292 41.2348 48.7651C38.0873 47.7334 34.7239 46.2339 31.3661 44.2953C27.9086 42.2991 24.8514 40.065 22.3425 37.7867C22.0442 37.5159 21.5598 37.6158 21.3011 37.9248V37.9248C21.0676 38.2037 21.0405 38.6302 21.3096 38.875C23.9152 41.2445 27.0712 43.5477 30.6161 45.5943C34.3022 47.7225 38.0183 49.3479 41.4883 50.4199C41.747 50.4999 41.9999 50.2707 41.9999 50V50V50ZM44.0702 52.8531C43.7289 52.742 43.3277 52.8695 43.1812 53.1972C41.5654 56.8103 39.4505 59.1545 37.112 59.5686C36.7041 59.6408 36.3657 59.9702 36.3657 60.3844V60.3844C36.3657 60.7986 36.703 61.1394 37.1137 61.0859C38.7104 60.8779 40.1301 60.0157 41.3268 58.801C42.702 57.405 43.8714 55.4619 44.8214 53.1819V53.1819C44.8585 53.093 44.7948 52.9946 44.699 52.9851C44.4817 52.9634 44.2713 52.9186 44.0702 52.8531ZM47.8675 50.8842C47.738 51.3048 47.9718 51.8103 48.4103 51.8486C50.4477 52.0268 52.3327 51.9347 53.9485 51.5147C55.5988 51.0858 57.0553 50.2873 58.0338 49.0086C58.2855 48.6796 58.1589 48.2171 57.8002 48.01V48.01C57.4415 47.8029 56.9871 47.9312 56.7206 48.2484C55.2452 50.0041 52.3154 50.6794 48.5709 50.3569C48.2486 50.3292 47.9627 50.5751 47.8675 50.8842V50.8842ZM20.4817 37.3433C20.2658 37.5813 19.8969 37.532 19.6713 37.3032V37.3032C19.3828 37.0105 18.9072 37.025 18.6479 37.3438C18.6325 37.3627 18.6172 37.3817 18.6018 37.4006C18.3876 37.6653 18.0149 37.774 17.7493 37.5608C17.6564 37.4863 17.5703 37.4036 17.4921 37.3139C17.2433 37.0287 17.3095 36.6104 17.5493 36.3176C17.6147 36.2378 17.6809 36.1578 17.7477 36.0779C17.962 35.8216 17.9591 35.4443 17.7448 35.188V35.188C17.5461 34.9502 17.539 34.5995 17.7851 34.4111C17.9975 34.2484 18.2435 34.1274 18.5109 34.0602C18.6419 34.0273 18.7763 34.0826 18.8627 34.1863C18.8708 34.1961 18.8789 34.2058 18.8871 34.2156C19.0216 34.3767 19.2656 34.3833 19.4115 34.2323V34.2323C19.5023 34.1384 19.6395 34.0999 19.7603 34.1496C20.0573 34.2718 20.3184 34.4634 20.5234 34.7042C20.67 34.8764 20.6305 35.1294 20.4735 35.292V35.292C20.2877 35.4844 20.2894 35.7868 20.4752 35.9792C20.5318 36.0378 20.5889 36.0965 20.6463 36.1552C20.8322 36.3451 20.92 36.6216 20.8054 36.8614C20.7211 37.0378 20.6116 37.2 20.4817 37.3433ZM17.3149 33.5176C17.6454 33.2928 17.7949 32.8255 17.5649 32.4987C15.3765 29.3897 14.4764 26.4866 15.2654 24.3142C15.4068 23.9248 15.2907 23.4671 14.932 23.26V23.26C14.5733 23.0529 14.1095 23.1746 13.9504 23.557C13.3323 25.0438 13.369 26.7044 13.8227 28.3481C14.2752 29.9875 15.162 31.6987 16.3688 33.4053C16.5806 33.7049 17.0114 33.7239 17.3149 33.5176V33.5176ZM17.0684 38.2956C16.7553 38.0319 16.2528 38.023 16.025 38.3631C14.9929 39.9038 14.2305 41.4421 13.8221 42.922C13.3684 44.5656 13.3317 46.2263 13.9498 47.713C14.1088 48.0955 14.5726 48.2171 14.9313 48.01V48.01C15.2901 47.8029 15.4062 47.3452 15.2648 46.9559C14.5149 44.8912 15.2907 42.1666 17.2482 39.2324C17.4471 38.9342 17.3426 38.5265 17.0684 38.2956V38.2956Z" fill="url(#paint3_radial_1412_49)"/>
<path fill-rule="evenodd" clip-rule="evenodd" d="M42.9999 21C42.9999 19.8954 43.8953 19 44.9999 19C46.1044 19 46.9999 19.8954 46.9999 21C46.9999 22.1046 46.1044 23 44.9999 23C43.8953 23 42.9999 22.1046 42.9999 21ZM16.9999 36C16.9999 34.8954 17.8953 34 18.9999 34C20.1044 34 20.9999 34.8954 20.9999 36C20.9999 37.1046 20.1044 38 18.9999 38C17.8953 38 16.9999 37.1046 16.9999 36ZM44.9999 48C43.8953 48 42.9999 48.8954 42.9999 50C42.9999 51.1046 43.8953 52 44.9999 52C46.1044 52 46.9999 51.1046 46.9999 50C46.9999 48.8954 46.1044 48 44.9999 48Z" fill="url(#paint4_linear_1412_49)"/>
<g filter="url(#filter4_d_1412_49)">
<path fill-rule="evenodd" clip-rule="evenodd" d="M9.88708 52.5978C12.0164 55.363 15.1433 56.3544 17.4023 56.6816C20.0374 57.0632 22.8713 56.7873 25.5348 56.2422C30.9375 55.1367 37.2902 52.5757 43.5 48.9905C49.7097 45.4053 55.104 41.1841 58.7628 37.0581C60.5666 35.0239 62.2225 32.7076 63.2095 30.2348C64.0556 28.1148 64.7606 24.9111 63.4304 21.6845L57.1628 25.3031C57.4262 29.5289 50.313 36.974 40 42.9283C29.6869 48.8826 19.6826 51.3202 16.1547 48.9792L9.88708 52.5978Z" fill="url(#paint5_linear_1412_49)" fill-opacity="0.01" shape-rendering="crispEdges"/>
</g>
</g>
<g filter="url(#filter5_bi_1412_49)">
<path fill-rule="evenodd" clip-rule="evenodd" d="M9.06335 51.3413C9.09268 51.3942 9.12261 51.4472 9.15316 51.5001C11.2375 55.1103 14.8667 56.3143 17.4023 56.6815C20.0373 57.0632 22.8713 56.7873 25.5348 56.2422C30.9374 55.1366 37.2902 52.5757 43.4999 48.9905C49.7097 45.4052 55.104 41.1841 58.7627 37.0581C60.5665 35.0239 62.2224 32.7076 63.2094 30.2348C64.1592 27.8552 64.9311 24.1103 62.8467 20.5001C62.8162 20.4472 62.7853 20.3948 62.7541 20.3429L56.688 23.8451C56.7219 23.8956 56.7541 23.9473 56.7846 24.0001C58.9937 27.8264 51.479 36.3009 39.9999 42.9283C28.5209 49.5557 17.4245 51.8264 15.2153 48.0001C15.1849 47.9473 15.1562 47.8936 15.1294 47.839L9.06335 51.3413Z" fill="#B0DDFF" fill-opacity="0.6"/>
</g>
</g>
</g>
<path d="M24 60C24 55.5817 27.5817 52 32 52H68C70.2091 52 72 53.7909 72 56V64C72 68.4183 68.4183 72 64 72H28C25.7909 72 24 70.2091 24 68V60Z" fill="url(#paint6_linear_1412_49)"/>
<path d="M33.4533 67V58.6H37.1013C37.6693 58.6 38.1453 58.684 38.5293 58.852C38.9133 59.012 39.2053 59.248 39.4053 59.56C39.6133 59.864 39.7173 60.24 39.7173 60.688C39.7173 61.152 39.5933 61.544 39.3453 61.864C39.1053 62.184 38.7653 62.408 38.3253 62.536L38.3133 62.284C38.6813 62.372 39.0013 62.52 39.2733 62.728C39.5533 62.928 39.7693 63.176 39.9213 63.472C40.0813 63.768 40.1613 64.104 40.1613 64.48C40.1613 64.896 40.0893 65.264 39.9453 65.584C39.8093 65.896 39.6093 66.16 39.3453 66.376C39.0893 66.584 38.7813 66.74 38.4213 66.844C38.0613 66.948 37.6613 67 37.2213 67H33.4533ZM35.1813 65.44H37.1493C37.5333 65.44 37.8333 65.352 38.0493 65.176C38.2653 64.992 38.3733 64.736 38.3733 64.408C38.3733 64.2 38.3213 64.024 38.2173 63.88C38.1133 63.736 37.9653 63.628 37.7733 63.556C37.5813 63.484 37.3533 63.448 37.0893 63.448H35.1813V65.44ZM35.1813 61.996H36.8853C37.1093 61.996 37.2973 61.96 37.4493 61.888C37.6093 61.808 37.7333 61.7 37.8213 61.564C37.9093 61.42 37.9533 61.256 37.9533 61.072C37.9533 60.784 37.8533 60.56 37.6533 60.4C37.4613 60.24 37.1733 60.16 36.7893 60.16H35.1813V61.996ZM41.7854 67V58.6H47.4494V60.184H43.5494V65.416H47.5334V67H41.7854ZM42.6254 63.484V61.948H46.8734V63.484H42.6254ZM51.1425 67V60.22H48.7185V58.6H55.4625V60.22H52.9425V67H51.1425ZM55.3558 67L58.6558 58.6H60.2638L63.5398 67H61.7038L59.9998 62.476C59.9518 62.34 59.8918 62.172 59.8198 61.972C59.7558 61.772 59.6878 61.56 59.6158 61.336C59.5438 61.112 59.4758 60.9 59.4118 60.7C59.3558 60.492 59.3078 60.324 59.2678 60.196L59.5918 60.184C59.5438 60.36 59.4878 60.548 59.4238 60.748C59.3678 60.94 59.3038 61.14 59.2318 61.348C59.1678 61.556 59.0998 61.756 59.0278 61.948C58.9638 62.14 58.8998 62.324 58.8358 62.5L57.1438 67H55.3558ZM56.8918 65.236L57.4918 63.772H61.3198L61.9318 65.236H56.8918Z" fill="black" fill-opacity="0.75"/>
</g>
<defs>
<filter id="filter0_d_1412_49" x="0" y="0" width="72" height="72" filterUnits="userSpaceOnUse" color-interpolation-filters="sRGB">
<feFlood flood-opacity="0" result="BackgroundImageFix"/>
<feColorMatrix in="SourceAlpha" type="matrix" values="0 0 0 0 0 0 0 0 0 0 0 0 0 0 0 0 0 0 127 0" result="hardAlpha"/>
<feOffset/>
<feGaussianBlur stdDeviation="2"/>
<feComposite in2="hardAlpha" operator="out"/>
<feColorMatrix type="matrix" values="0 0 0 0 0 0 0 0 0 0 0 0 0 0 0 0 0 0 0.1 0"/>
<feBlend mode="normal" in2="BackgroundImageFix" result="effect1_dropShadow_1412_49"/>
<feBlend mode="normal" in="SourceGraphic" in2="effect1_dropShadow_1412_49" result="shape"/>
</filter>
<filter id="filter1_b_1412_49" x="3.82898" y="8" width="64.3419" height="56" filterUnits="userSpaceOnUse" color-interpolation-filters="sRGB">
<feFlood flood-opacity="0" result="BackgroundImageFix"/>
<feGaussianBlur in="BackgroundImageFix" stdDeviation="2"/>
<feComposite in2="SourceAlpha" operator="in" result="effect1_backgroundBlur_1412_49"/>
<feBlend mode="normal" in="SourceGraphic" in2="effect1_backgroundBlur_1412_49" result="shape"/>
</filter>
<filter id="filter2_i_1412_49" x="7.82898" y="12.1415" width="56.3419" height="44.7171" filterUnits="userSpaceOnUse" color-interpolation-filters="sRGB">
<feFlood flood-opacity="0" result="BackgroundImageFix"/>
<feBlend mode="normal" in="SourceGraphic" in2="BackgroundImageFix" result="shape"/>
<feColorMatrix in="SourceAlpha" type="matrix" values="0 0 0 0 0 0 0 0 0 0 0 0 0 0 0 0 0 0 127 0" result="hardAlpha"/>
<feOffset dy="-3"/>
<feGaussianBlur stdDeviation="3"/>
<feComposite in2="hardAlpha" operator="arithmetic" k2="-1" k3="1"/>
<feColorMatrix type="matrix" values="0 0 0 0 1 0 0 0 0 1 0 0 0 0 1 0 0 0 0.25 0"/>
<feBlend mode="normal" in2="shape" result="effect1_innerShadow_1412_49"/>
</filter>
<filter id="filter3_i_1412_49" x="12" y="1" width="48" height="59" filterUnits="userSpaceOnUse" color-interpolation-filters="sRGB">
<feFlood flood-opacity="0" result="BackgroundImageFix"/>
<feBlend mode="normal" in="SourceGraphic" in2="BackgroundImageFix" result="shape"/>
<feColorMatrix in="SourceAlpha" type="matrix" values="0 0 0 0 0 0 0 0 0 0 0 0 0 0 0 0 0 0 127 0" result="hardAlpha"/>
<feOffset dy="-11"/>
<feGaussianBlur stdDeviation="5.5"/>
<feComposite in2="hardAlpha" operator="arithmetic" k2="-1" k3="1"/>
<feColorMatrix type="matrix" values="0 0 0 0 0 0 0 0 0 0.380392 0 0 0 0 0.878431 0 0 0 0.25 0"/>
<feBlend mode="normal" in2="shape" result="effect1_innerShadow_1412_49"/>
</filter>
<filter id="filter4_d_1412_49" x="5.88708" y="19.6845" width="62.2839" height="43.1741" filterUnits="userSpaceOnUse" color-interpolation-filters="sRGB">
<feFlood flood-opacity="0" result="BackgroundImageFix"/>
<feColorMatrix in="SourceAlpha" type="matrix" values="0 0 0 0 0 0 0 0 0 0 0 0 0 0 0 0 0 0 127 0" result="hardAlpha"/>
<feOffset dy="2"/>
<feGaussianBlur stdDeviation="2"/>
<feComposite in2="hardAlpha" operator="out"/>
<feColorMatrix type="matrix" values="0 0 0 0 0 0 0 0 0 0 0 0 0 0 0 0 0 0 0.1 0"/>
<feBlend mode="normal" in2="BackgroundImageFix" result="effect1_dropShadow_1412_49"/>
<feBlend mode="normal" in="SourceGraphic" in2="effect1_dropShadow_1412_49" result="shape"/>
</filter>
<filter id="filter5_bi_1412_49" x="5.06335" y="16.3429" width="63.1075" height="44.5157" filterUnits="userSpaceOnUse" color-interpolation-filters="sRGB">
<feFlood flood-opacity="0" result="BackgroundImageFix"/>
<feGaussianBlur in="BackgroundImageFix" stdDeviation="2"/>
<feComposite in2="SourceAlpha" operator="in" result="effect1_backgroundBlur_1412_49"/>
<feBlend mode="normal" in="SourceGraphic" in2="effect1_backgroundBlur_1412_49" result="shape"/>
<feColorMatrix in="SourceAlpha" type="matrix" values="0 0 0 0 0 0 0 0 0 0 0 0 0 0 0 0 0 0 127 0" result="hardAlpha"/>
<feOffset dy="-3"/>
<feGaussianBlur stdDeviation="3"/>
<feComposite in2="hardAlpha" operator="arithmetic" k2="-1" k3="1"/>
<feColorMatrix type="matrix" values="0 0 0 0 1 0 0 0 0 1 0 0 0 0 1 0 0 0 0.25 0"/>
<feBlend mode="normal" in2="shape" result="effect2_innerShadow_1412_49"/>
</filter>
<linearGradient id="paint0_linear_1412_49" x1="36" y1="4" x2="36" y2="68" gradientUnits="userSpaceOnUse">
<stop stop-color="white"/>
<stop offset="1" stop-color="#F0F6FF"/>
</linearGradient>
<linearGradient id="paint1_linear_1412_49" x1="36" y1="12" x2="36" y2="60" gradientUnits="userSpaceOnUse">
<stop stop-color="#009AFF"/>
<stop offset="1" stop-color="#0061E0"/>
</linearGradient>
<linearGradient id="paint2_linear_1412_49" x1="36" y1="12" x2="36" y2="60" gradientUnits="userSpaceOnUse">
<stop stop-color="#00DDFF"/>
<stop offset="1" stop-color="#007AFF"/>
</linearGradient>
<radialGradient id="paint3_radial_1412_49" cx="0" cy="0" r="1" gradientUnits="userSpaceOnUse" gradientTransform="translate(35.8575 35.9994) rotate(-90) scale(23.9596 24.1791)">
<stop stop-color="white" stop-opacity="0.75"/>
<stop offset="1" stop-color="white" stop-opacity="0.1"/>
</radialGradient>
<linearGradient id="paint4_linear_1412_49" x1="31.9999" y1="19" x2="31.9999" y2="52" gradientUnits="userSpaceOnUse">
<stop stop-color="white"/>
<stop offset="1" stop-color="#F0F6FF"/>
</linearGradient>
<linearGradient id="paint5_linear_1412_49" x1="39.9664" y1="13.4006" x2="39.9664" y2="57.4551" gradientUnits="userSpaceOnUse">
<stop stop-color="#B0DDFF"/>
<stop offset="1" stop-color="#80C2FF"/>
</linearGradient>
<linearGradient id="paint6_linear_1412_49" x1="48" y1="52" x2="48" y2="72" gradientUnits="userSpaceOnUse">
<stop stop-color="#FFE860"/>
<stop offset="1" stop-color="#FFC000"/>
</linearGradient>
<clipPath id="clip0_1412_49">
<rect width="72" height="72" fill="white"/>
</clipPath>
</defs>
</svg>
