<svg width="72" height="72" viewBox="0 0 72 72" fill="none" xmlns="http://www.w3.org/2000/svg">
<g clip-path="url(#clip0_1355_147)">
<g filter="url(#filter0_d_1355_147)">
<rect x="4" y="4" width="64" height="64" rx="16" fill="url(#paint0_linear_1355_147)"/>
</g>
<mask id="mask0_1355_147" style="mask-type:alpha" maskUnits="userSpaceOnUse" x="4" y="4" width="64" height="64">
<rect x="4" y="4" width="64" height="64" rx="16" fill="white"/>
</mask>
<g mask="url(#mask0_1355_147)">
<g filter="url(#filter1_d_1355_147)">
<path d="M53.2301 34.3636V42.3182H27.4347V34.3636H53.2301ZM33.8835 78V30.2443C33.8835 27.3087 34.4896 24.8655 35.7017 22.9148C36.9328 20.964 38.5805 19.5057 40.6449 18.5398C42.7093 17.5739 45.0009 17.0909 47.5199 17.0909C49.3002 17.0909 50.8816 17.233 52.2642 17.517C53.6468 17.8011 54.6695 18.0568 55.3324 18.2841L53.2869 26.2386C52.8513 26.1061 52.3021 25.9735 51.6392 25.8409C50.9763 25.6894 50.2377 25.6136 49.4233 25.6136C47.5104 25.6136 46.1563 26.0777 45.3608 27.0057C44.5843 27.9148 44.196 29.2216 44.196 30.9261V78H33.8835Z" fill="white"/>
</g>
</g>
</g>
<defs>
<filter id="filter0_d_1355_147" x="0" y="0" width="72" height="72" filterUnits="userSpaceOnUse" color-interpolation-filters="sRGB">
<feFlood flood-opacity="0" result="BackgroundImageFix"/>
<feColorMatrix in="SourceAlpha" type="matrix" values="0 0 0 0 0 0 0 0 0 0 0 0 0 0 0 0 0 0 127 0" result="hardAlpha"/>
<feOffset/>
<feGaussianBlur stdDeviation="2"/>
<feComposite in2="hardAlpha" operator="out"/>
<feColorMatrix type="matrix" values="0 0 0 0 0 0 0 0 0 0 0 0 0 0 0 0 0 0 0.1 0"/>
<feBlend mode="normal" in2="BackgroundImageFix" result="effect1_dropShadow_1355_147"/>
<feBlend mode="normal" in="SourceGraphic" in2="effect1_dropShadow_1355_147" result="shape"/>
</filter>
<filter id="filter1_d_1355_147" x="23.4347" y="17.0909" width="35.8977" height="68.9091" filterUnits="userSpaceOnUse" color-interpolation-filters="sRGB">
<feFlood flood-opacity="0" result="BackgroundImageFix"/>
<feColorMatrix in="SourceAlpha" type="matrix" values="0 0 0 0 0 0 0 0 0 0 0 0 0 0 0 0 0 0 127 0" result="hardAlpha"/>
<feOffset dy="4"/>
<feGaussianBlur stdDeviation="2"/>
<feComposite in2="hardAlpha" operator="out"/>
<feColorMatrix type="matrix" values="0 0 0 0 0 0 0 0 0 0 0 0 0 0 0 0 0 0 0.1 0"/>
<feBlend mode="normal" in2="BackgroundImageFix" result="effect1_dropShadow_1355_147"/>
<feBlend mode="normal" in="SourceGraphic" in2="effect1_dropShadow_1355_147" result="shape"/>
</filter>
<linearGradient id="paint0_linear_1355_147" x1="36" y1="4" x2="36" y2="68" gradientUnits="userSpaceOnUse">
<stop stop-color="#00A0E8"/>
<stop offset="1" stop-color="#0061E0"/>
</linearGradient>
<clipPath id="clip0_1355_147">
<rect width="72" height="72" fill="white"/>
</clipPath>
</defs>
</svg>
