<svg width="16" height="16" viewBox="0 0 16 16" fill="none" xmlns="http://www.w3.org/2000/svg">
<path d="M11.75 1.5H4.25C2.73122 1.5 1.5 2.73122 1.5 4.25C1.5 5.76878 2.73122 7 4.25 7H11.75C13.2688 7 14.5 5.76878 14.5 4.25C14.5 2.73122 13.2688 1.5 11.75 1.5Z" stroke="#e7e7e7" stroke-linecap="round" stroke-linejoin="round"/>
<path d="M11.75 9H4.25C2.73122 9 1.5 10.2312 1.5 11.75C1.5 13.2688 2.73122 14.5 4.25 14.5H11.75C13.2688 14.5 14.5 13.2688 14.5 11.75C14.5 10.2312 13.2688 9 11.75 9Z" stroke="#e7e7e7" stroke-linecap="round" stroke-linejoin="round"/>
<path d="M11.75 3C11.0596 3 10.5 3.55964 10.5 4.25C10.5 4.94036 11.0596 5.5 11.75 5.5C12.4404 5.5 13 4.94036 13 4.25C13 3.55964 12.4404 3 11.75 3Z" fill="#e7e7e7"/>
<path d="M4.25 10.5C3.55964 10.5 3 11.0596 3 11.75C3 12.4404 3.55964 13 4.25 13C4.94036 13 5.5 12.4404 5.5 11.75C5.5 11.0596 4.94036 10.5 4.25 10.5Z" fill="#e7e7e7" fill-opacity="0.5"/>
</svg>
