<svg width="16" height="16" viewBox="0 0 16 16" fill="none" xmlns="http://www.w3.org/2000/svg">
<rect width="16" height="16" rx="4" fill="url(#paint0_linear_1046_2)"/>
<path d="M9.5 12V4C9.5 3.17157 8.82843 2.5 8 2.5H5C4.17157 2.5 3.5 3.17157 3.5 4V12C3.5 12.8284 4.17157 13.5 5 13.5H8C8.82843 13.5 9.5 12.8284 9.5 12Z" stroke="black" stroke-opacity="0.75" stroke-width="0.75" stroke-linecap="round"/>
<path d="M5.75 12.5H7.25" stroke="black" stroke-opacity="0.375" stroke-width="0.5" stroke-linecap="round"/>
<g filter="url(#filter0_d_1046_2)">
<rect x="8" y="5" width="4" height="4" rx="1" fill="url(#paint1_linear_1046_2)"/>
</g>
<g filter="url(#filter1_d_1046_2)">
<rect x="7" y="7" width="4" height="4" rx="1" fill="url(#paint2_linear_1046_2)"/>
</g>
<g filter="url(#filter2_d_1046_2)">
<rect x="8" y="9" width="5" height="5" rx="1.25" fill="url(#paint3_linear_1046_2)"/>
</g>
<path d="M4.5 3.875C4.5 3.66789 4.66789 3.5 4.875 3.5V3.5C5.08211 3.5 5.25 3.66789 5.25 3.875V3.875C5.25 4.08211 5.08211 4.25 4.875 4.25V4.25C4.66789 4.25 4.5 4.08211 4.5 3.875V3.875Z" fill="black" fill-opacity="0.75"/>
<defs>
<filter id="filter0_d_1046_2" x="7" y="4.5" width="6" height="6" filterUnits="userSpaceOnUse" color-interpolation-filters="sRGB">
<feFlood flood-opacity="0" result="BackgroundImageFix"/>
<feColorMatrix in="SourceAlpha" type="matrix" values="0 0 0 0 0 0 0 0 0 0 0 0 0 0 0 0 0 0 127 0" result="hardAlpha"/>
<feOffset dy="0.5"/>
<feGaussianBlur stdDeviation="0.5"/>
<feComposite in2="hardAlpha" operator="out"/>
<feColorMatrix type="matrix" values="0 0 0 0 0 0 0 0 0 0 0 0 0 0 0 0 0 0 0.1 0"/>
<feBlend mode="normal" in2="BackgroundImageFix" result="effect1_dropShadow_1046_2"/>
<feBlend mode="normal" in="SourceGraphic" in2="effect1_dropShadow_1046_2" result="shape"/>
</filter>
<filter id="filter1_d_1046_2" x="6" y="6.5" width="6" height="6" filterUnits="userSpaceOnUse" color-interpolation-filters="sRGB">
<feFlood flood-opacity="0" result="BackgroundImageFix"/>
<feColorMatrix in="SourceAlpha" type="matrix" values="0 0 0 0 0 0 0 0 0 0 0 0 0 0 0 0 0 0 127 0" result="hardAlpha"/>
<feOffset dy="0.5"/>
<feGaussianBlur stdDeviation="0.5"/>
<feComposite in2="hardAlpha" operator="out"/>
<feColorMatrix type="matrix" values="0 0 0 0 0 0 0 0 0 0 0 0 0 0 0 0 0 0 0.1 0"/>
<feBlend mode="normal" in2="BackgroundImageFix" result="effect1_dropShadow_1046_2"/>
<feBlend mode="normal" in="SourceGraphic" in2="effect1_dropShadow_1046_2" result="shape"/>
</filter>
<filter id="filter2_d_1046_2" x="7" y="8.5" width="7" height="7" filterUnits="userSpaceOnUse" color-interpolation-filters="sRGB">
<feFlood flood-opacity="0" result="BackgroundImageFix"/>
<feColorMatrix in="SourceAlpha" type="matrix" values="0 0 0 0 0 0 0 0 0 0 0 0 0 0 0 0 0 0 127 0" result="hardAlpha"/>
<feOffset dy="0.5"/>
<feGaussianBlur stdDeviation="0.5"/>
<feComposite in2="hardAlpha" operator="out"/>
<feColorMatrix type="matrix" values="0 0 0 0 0 0 0 0 0 0 0 0 0 0 0 0 0 0 0.1 0"/>
<feBlend mode="normal" in2="BackgroundImageFix" result="effect1_dropShadow_1046_2"/>
<feBlend mode="normal" in="SourceGraphic" in2="effect1_dropShadow_1046_2" result="shape"/>
</filter>
<linearGradient id="paint0_linear_1046_2" x1="8" y1="0" x2="8" y2="16" gradientUnits="userSpaceOnUse">
<stop stop-color="#FFC000"/>
<stop offset="1" stop-color="#FF6040"/>
</linearGradient>
<linearGradient id="paint1_linear_1046_2" x1="10" y1="5" x2="10" y2="9" gradientUnits="userSpaceOnUse">
<stop stop-color="#FF6040"/>
<stop offset="1" stop-color="#C00040"/>
</linearGradient>
<linearGradient id="paint2_linear_1046_2" x1="9" y1="7" x2="9" y2="11" gradientUnits="userSpaceOnUse">
<stop stop-color="#00DDFF"/>
<stop offset="1" stop-color="#0061E0"/>
</linearGradient>
<linearGradient id="paint3_linear_1046_2" x1="10.5" y1="9" x2="10.5" y2="14" gradientUnits="userSpaceOnUse">
<stop stop-color="#60FF80"/>
<stop offset="1" stop-color="#40A060"/>
</linearGradient>
</defs>
</svg>
