<svg width="35" height="20" viewBox="0 0 35 20" fill="none" xmlns="http://www.w3.org/2000/svg">
<rect width="35" height="20" fill="url(#paint0_linear_1004_48)"/>
<rect width="35" height="20" fill="url(#paint1_linear_1004_48)"/>
<rect x="20" y="4.25" width="2" height="2" rx="1" fill="#C00040"/>
<rect x="14" y="4.25" width="2" height="2" rx="1" fill="#C00040"/>
<path d="M15 5.25V6.75C15 8.40685 16.3431 9.75 18 9.75V9.75C19.6569 9.75 21 8.40685 21 6.75V5.25" stroke="url(#paint2_linear_1004_48)" stroke-linecap="round"/>
<path d="M13.5673 15.035C13.3877 15.035 13.2208 15.0035 13.0668 14.9405C12.9152 14.8775 12.7833 14.79 12.6713 14.678C12.5617 14.5637 12.4753 14.4295 12.4123 14.2755C12.3517 14.1215 12.3213 13.9523 12.3213 13.768C12.3213 13.586 12.3517 13.418 12.4123 13.264C12.4753 13.11 12.5617 12.9758 12.6713 12.8615C12.7833 12.7472 12.9152 12.6585 13.0668 12.5955C13.2208 12.5325 13.3877 12.501 13.5673 12.501C13.747 12.501 13.9115 12.5325 14.0608 12.5955C14.2125 12.6585 14.3443 12.7472 14.4563 12.8615C14.5683 12.9758 14.6547 13.11 14.7153 13.264C14.7783 13.418 14.8098 13.5872 14.8098 13.7715C14.8098 13.9512 14.7783 14.118 14.7153 14.272C14.6547 14.426 14.5683 14.5602 14.4563 14.6745C14.3443 14.7888 14.2125 14.8775 14.0608 14.9405C13.9115 15.0035 13.747 15.035 13.5673 15.035ZM13.5673 14.538C13.67 14.538 13.7645 14.5193 13.8508 14.482C13.9372 14.4423 14.0118 14.3887 14.0748 14.321C14.1402 14.251 14.1903 14.1693 14.2253 14.076C14.2603 13.9827 14.2778 13.8812 14.2778 13.7715C14.2778 13.6595 14.2603 13.5568 14.2253 13.4635C14.1903 13.3702 14.1402 13.2885 14.0748 13.2185C14.0118 13.1485 13.9372 13.0948 13.8508 13.0575C13.7645 13.0178 13.67 12.998 13.5673 12.998C13.4647 12.998 13.369 13.0178 13.2803 13.0575C13.194 13.0948 13.1182 13.1485 13.0528 13.2185C12.9898 13.2862 12.9408 13.3678 12.9058 13.4635C12.8708 13.5568 12.8533 13.6595 12.8533 13.7715C12.8533 13.9185 12.8837 14.0503 12.9443 14.167C13.0073 14.2813 13.0925 14.3723 13.1998 14.44C13.3072 14.5053 13.4297 14.538 13.5673 14.538ZM15.2151 15V13.1485H15.6946L15.7121 13.7435L15.6281 13.6175C15.6584 13.5242 15.7039 13.439 15.7646 13.362C15.8276 13.285 15.9011 13.2243 15.9851 13.18C16.0714 13.1333 16.1612 13.11 16.2546 13.11C16.2966 13.11 16.3351 13.1135 16.3701 13.1205C16.4074 13.1252 16.4389 13.1333 16.4646 13.145L16.3316 13.6875C16.3059 13.6758 16.2721 13.6653 16.2301 13.656C16.1904 13.6443 16.1496 13.6385 16.1076 13.6385C16.0539 13.6385 16.0026 13.649 15.9536 13.67C15.9069 13.6887 15.8649 13.7167 15.8276 13.754C15.7926 13.789 15.7646 13.831 15.7436 13.88C15.7249 13.929 15.7156 13.9838 15.7156 14.0445V15H15.2151ZM17.4761 15.035C17.2988 15.035 17.1401 14.993 17.0001 14.909C16.8601 14.825 16.7493 14.7107 16.6676 14.566C16.5883 14.419 16.5486 14.2557 16.5486 14.076C16.5486 13.8917 16.5883 13.7272 16.6676 13.5825C16.7493 13.4355 16.8601 13.32 17.0001 13.236C17.1401 13.152 17.2988 13.11 17.4761 13.11C17.6418 13.11 17.7923 13.1415 17.9276 13.2045C18.0653 13.2652 18.1726 13.3492 18.2496 13.4565L17.9801 13.7855C17.9474 13.7412 17.9066 13.7003 17.8576 13.663C17.8086 13.6257 17.7549 13.5965 17.6966 13.5755C17.6406 13.5545 17.5823 13.544 17.5216 13.544C17.4259 13.544 17.3408 13.5673 17.2661 13.614C17.1914 13.6583 17.1331 13.7213 17.0911 13.803C17.0491 13.8823 17.0281 13.9722 17.0281 14.0725C17.0281 14.1705 17.0503 14.2592 17.0946 14.3385C17.1389 14.4178 17.1984 14.4808 17.2731 14.5275C17.3478 14.5742 17.4306 14.5975 17.5216 14.5975C17.5823 14.5975 17.6394 14.5893 17.6931 14.573C17.7491 14.5543 17.8004 14.5275 17.8471 14.4925C17.8938 14.4575 17.9381 14.4167 17.9801 14.37L18.2496 14.699C18.1726 14.7993 18.0629 14.881 17.9206 14.944C17.7806 15.0047 17.6324 15.035 17.4761 15.035ZM18.5681 15V12.41H19.0616V13.5265L18.9636 13.5685C18.9869 13.4845 19.0324 13.4087 19.1001 13.341C19.1677 13.271 19.2482 13.215 19.3416 13.173C19.4349 13.131 19.5317 13.11 19.6321 13.11C19.7721 13.11 19.8887 13.138 19.9821 13.194C20.0777 13.25 20.1489 13.3352 20.1956 13.4495C20.2446 13.5615 20.2691 13.7015 20.2691 13.8695V15H19.7721V13.9045C19.7721 13.8205 19.7604 13.7505 19.7371 13.6945C19.7137 13.6385 19.6787 13.5977 19.6321 13.572C19.5854 13.5463 19.5259 13.5347 19.4536 13.537C19.3976 13.537 19.3462 13.5463 19.2996 13.565C19.2529 13.5813 19.2109 13.6058 19.1736 13.6385C19.1386 13.6712 19.1117 13.7085 19.0931 13.7505C19.0744 13.7925 19.0651 13.8392 19.0651 13.8905V15H18.8166C18.7652 15 18.7186 15 18.6766 15C18.6346 15 18.5984 15 18.5681 15ZM20.7873 15V13.1485H21.2843V15H20.7873ZM21.0358 12.767C20.9378 12.767 20.862 12.7437 20.8083 12.697C20.7547 12.6503 20.7278 12.5838 20.7278 12.4975C20.7278 12.4182 20.7547 12.354 20.8083 12.305C20.8643 12.2537 20.9402 12.228 21.0358 12.228C21.1292 12.228 21.2027 12.2513 21.2563 12.298C21.31 12.3447 21.3368 12.4112 21.3368 12.4975C21.3368 12.5792 21.31 12.6445 21.2563 12.6935C21.2027 12.7425 21.1292 12.767 21.0358 12.767ZM22.5466 15.035C22.3856 15.035 22.2397 14.9942 22.1091 14.9125C21.9807 14.8308 21.8792 14.7177 21.8046 14.573C21.7322 14.426 21.6961 14.2603 21.6961 14.076C21.6961 13.8893 21.7322 13.7237 21.8046 13.579C21.8792 13.4343 21.9807 13.32 22.1091 13.236C22.2374 13.152 22.3832 13.11 22.5466 13.11C22.6329 13.11 22.7157 13.124 22.7951 13.152C22.8767 13.1777 22.9491 13.2138 23.0121 13.2605C23.0751 13.3072 23.1264 13.3597 23.1661 13.418C23.2057 13.474 23.2291 13.5323 23.2361 13.593L23.1101 13.6175V12.41H23.6036V15H23.1346L23.1136 14.573L23.2116 14.587C23.2092 14.643 23.1894 14.6978 23.1521 14.7515C23.1147 14.8052 23.0646 14.8542 23.0016 14.8985C22.9409 14.9405 22.8709 14.9743 22.7916 15C22.7146 15.0233 22.6329 15.035 22.5466 15.035ZM22.6551 14.622C22.7507 14.622 22.8324 14.5987 22.9001 14.552C22.9701 14.5053 23.0249 14.4412 23.0646 14.3595C23.1042 14.2778 23.1241 14.1833 23.1241 14.076C23.1241 13.9663 23.1042 13.8707 23.0646 13.789C23.0249 13.705 22.9701 13.6408 22.9001 13.5965C22.8324 13.5498 22.7507 13.5265 22.6551 13.5265C22.5641 13.5265 22.4836 13.5498 22.4136 13.5965C22.3436 13.6408 22.2887 13.705 22.2491 13.789C22.2117 13.8707 22.1931 13.9663 22.1931 14.076C22.1931 14.1833 22.2117 14.2778 22.2491 14.3595C22.2887 14.4412 22.3436 14.5053 22.4136 14.552C22.4836 14.5987 22.5641 14.622 22.6551 14.622Z" fill="white"/>
<defs>
<linearGradient id="paint0_linear_1004_48" x1="17.5" y1="0" x2="17.5" y2="20" gradientUnits="userSpaceOnUse">
<stop stop-color="#C00040"/>
<stop offset="1" stop-color="#8040A0"/>
</linearGradient>
<linearGradient id="paint1_linear_1004_48" x1="17.5" y1="0" x2="17.5" y2="20" gradientUnits="userSpaceOnUse">
<stop stop-color="#FF6040"/>
<stop offset="1" stop-color="#C00040"/>
</linearGradient>
<linearGradient id="paint2_linear_1004_48" x1="18.4286" y1="4.75" x2="18.4286" y2="10.4773" gradientUnits="userSpaceOnUse">
<stop stop-color="white"/>
<stop offset="1" stop-color="#B0DDFF"/>
</linearGradient>
</defs>
</svg>
