<svg width="72" height="72" viewBox="0 0 72 72" fill="none" xmlns="http://www.w3.org/2000/svg">
<g filter="url(#filter0_d_361_36)">
<rect x="4" y="4" width="64" height="64" rx="16" fill="url(#paint0_linear_361_36)"/>
<path d="M23.3478 25.14C22.8718 25.14 22.4191 25.084 21.9898 24.972C21.5698 24.8507 21.1918 24.6687 20.8558 24.426C20.5291 24.174 20.2678 23.8613 20.0718 23.488C19.8758 23.1147 19.7684 22.676 19.7498 22.172C19.7498 22.088 19.7778 22.018 19.8338 21.962C19.8898 21.8967 19.9644 21.864 20.0578 21.864H20.8138C20.9164 21.864 20.9958 21.8967 21.0518 21.962C21.1171 22.018 21.1591 22.0927 21.1778 22.186C21.2151 22.606 21.3364 22.9467 21.5418 23.208C21.7471 23.46 22.0084 23.6467 22.3258 23.768C22.6431 23.8893 22.9931 23.95 23.3758 23.95C24.0851 23.95 24.6264 23.7167 24.9998 23.25C25.3731 22.7833 25.5598 22.1627 25.5598 21.388V16.418H20.5898C20.4964 16.418 20.4171 16.39 20.3518 16.334C20.2958 16.2687 20.2678 16.1893 20.2678 16.096V15.522C20.2678 15.4287 20.2958 15.354 20.3518 15.298C20.4171 15.2327 20.4964 15.2 20.5898 15.2H26.6238C26.7264 15.2 26.8058 15.2327 26.8618 15.298C26.9271 15.354 26.9598 15.4333 26.9598 15.536V21.416C26.9598 22.172 26.8151 22.83 26.5258 23.39C26.2364 23.95 25.8258 24.384 25.2938 24.692C24.7618 24.9907 24.1131 25.14 23.3478 25.14ZM31.7881 25.14C31.1908 25.14 30.6821 25.0093 30.2621 24.748C29.8515 24.4773 29.5388 24.104 29.3241 23.628C29.1095 23.152 29.0021 22.606 29.0021 21.99V18.042C29.0021 17.9487 29.0301 17.874 29.0861 17.818C29.1515 17.7527 29.2308 17.72 29.3241 17.72H30.0241C30.1175 17.72 30.1921 17.7527 30.2481 17.818C30.3135 17.874 30.3461 17.9487 30.3461 18.042V21.92C30.3461 23.3107 30.9528 24.006 32.1661 24.006C32.7448 24.006 33.2068 23.824 33.5521 23.46C33.9068 23.0867 34.0841 22.5733 34.0841 21.92V18.042C34.0841 17.9487 34.1121 17.874 34.1681 17.818C34.2335 17.7527 34.3128 17.72 34.4061 17.72H35.0921C35.1948 17.72 35.2741 17.7527 35.3301 17.818C35.3861 17.874 35.4141 17.9487 35.4141 18.042V24.678C35.4141 24.7713 35.3861 24.8507 35.3301 24.916C35.2741 24.972 35.1948 25 35.0921 25H34.4481C34.3548 25 34.2755 24.972 34.2101 24.916C34.1541 24.8507 34.1261 24.7713 34.1261 24.678V24.062C33.8741 24.3887 33.5661 24.65 33.2021 24.846C32.8475 25.042 32.3761 25.14 31.7881 25.14ZM37.816 25C37.7227 25 37.6433 24.972 37.578 24.916C37.522 24.8507 37.494 24.7713 37.494 24.678V18.042C37.494 17.9487 37.522 17.874 37.578 17.818C37.6433 17.7527 37.7227 17.72 37.816 17.72H38.474C38.5673 17.72 38.642 17.7527 38.698 17.818C38.7633 17.874 38.796 17.9487 38.796 18.042V18.658C39.0387 18.3407 39.342 18.084 39.706 17.888C40.0793 17.6827 40.5553 17.58 41.134 17.58C41.7407 17.58 42.254 17.7153 42.674 17.986C43.1033 18.2473 43.4253 18.616 43.64 19.092C43.8547 19.5587 43.962 20.1047 43.962 20.73V24.678C43.962 24.7713 43.934 24.8507 43.878 24.916C43.822 24.972 43.7473 25 43.654 25H42.954C42.8607 25 42.7813 24.972 42.716 24.916C42.66 24.8507 42.632 24.7713 42.632 24.678V20.8C42.632 20.1467 42.4733 19.638 42.156 19.274C41.8387 18.9007 41.372 18.714 40.756 18.714C40.1773 18.714 39.7107 18.9007 39.356 19.274C39.0107 19.638 38.838 20.1467 38.838 20.8V24.678C38.838 24.7713 38.8053 24.8507 38.74 24.916C38.684 24.972 38.6093 25 38.516 25H37.816ZM48.8822 25.14C47.9209 25.14 47.1556 24.846 46.5862 24.258C46.0169 23.6607 45.7042 22.8487 45.6482 21.822C45.6389 21.7007 45.6342 21.5467 45.6342 21.36C45.6342 21.164 45.6389 21.0053 45.6482 20.884C45.6856 20.2213 45.8396 19.6427 46.1102 19.148C46.3809 18.644 46.7496 18.2567 47.2162 17.986C47.6922 17.7153 48.2476 17.58 48.8822 17.58C49.5916 17.58 50.1842 17.7293 50.6602 18.028C51.1456 18.3267 51.5142 18.7513 51.7662 19.302C52.0182 19.8527 52.1442 20.4967 52.1442 21.234V21.472C52.1442 21.5747 52.1116 21.654 52.0462 21.71C51.9902 21.766 51.9156 21.794 51.8222 21.794H46.9782C46.9782 21.8033 46.9782 21.822 46.9782 21.85C46.9782 21.878 46.9782 21.9013 46.9782 21.92C46.9969 22.3027 47.0809 22.662 47.2302 22.998C47.3796 23.3247 47.5942 23.5907 47.8742 23.796C48.1542 24.0013 48.4902 24.104 48.8822 24.104C49.2182 24.104 49.4982 24.0527 49.7222 23.95C49.9462 23.8473 50.1282 23.7353 50.2682 23.614C50.4082 23.4833 50.5016 23.3853 50.5482 23.32C50.6322 23.1987 50.6976 23.1287 50.7442 23.11C50.7909 23.082 50.8656 23.068 50.9682 23.068H51.6402C51.7336 23.068 51.8082 23.096 51.8642 23.152C51.9296 23.1987 51.9576 23.2687 51.9482 23.362C51.9389 23.502 51.8642 23.6747 51.7242 23.88C51.5842 24.076 51.3836 24.272 51.1222 24.468C50.8609 24.664 50.5436 24.8273 50.1702 24.958C49.7969 25.0793 49.3676 25.14 48.8822 25.14ZM46.9782 20.828H50.8142V20.786C50.8142 20.366 50.7349 19.9927 50.5762 19.666C50.4269 19.3393 50.2076 19.0827 49.9182 18.896C49.6289 18.7 49.2836 18.602 48.8822 18.602C48.4809 18.602 48.1356 18.7 47.8462 18.896C47.5662 19.0827 47.3516 19.3393 47.2022 19.666C47.0529 19.9927 46.9782 20.366 46.9782 20.786V20.828Z" fill="#333333" fill-opacity="0.5"/>
<path d="M19.1321 55C18.9188 55 18.7375 54.936 18.5881 54.808C18.4601 54.6587 18.3961 54.4773 18.3961 54.264V53.24C18.3961 53.048 18.4495 52.8347 18.5561 52.6C18.6628 52.3653 18.8761 52.1093 19.1961 51.832L25.9801 45.048C27.0681 44.1307 27.9215 43.352 28.5401 42.712C29.1801 42.0507 29.6281 41.4213 29.8841 40.824C30.1615 40.2267 30.3001 39.608 30.3001 38.968C30.3001 37.752 29.9588 36.792 29.2761 36.088C28.5935 35.3627 27.5801 35 26.2361 35C25.3828 35 24.6468 35.1813 24.0281 35.544C23.4095 35.8853 22.9188 36.3653 22.5561 36.984C22.2148 37.5813 21.9908 38.264 21.8841 39.032C21.8415 39.3093 21.7241 39.5013 21.5321 39.608C21.3615 39.7147 21.2015 39.768 21.0521 39.768H19.3881C19.1961 39.768 19.0361 39.7147 18.9081 39.608C18.7801 39.48 18.7161 39.3307 18.7161 39.16C18.7375 38.3493 18.9081 37.5387 19.2281 36.728C19.5481 35.896 20.0175 35.1493 20.6361 34.488C21.2761 33.8267 22.0548 33.2933 22.9721 32.888C23.9108 32.4613 24.9988 32.248 26.2361 32.248C27.9215 32.248 29.2975 32.5573 30.3641 33.176C31.4521 33.7733 32.2521 34.5733 32.7641 35.576C33.2761 36.5787 33.5321 37.6773 33.5321 38.872C33.5321 39.8107 33.3721 40.6747 33.0521 41.464C32.7321 42.232 32.2628 42.9893 31.6441 43.736C31.0468 44.4613 30.3001 45.208 29.4041 45.976L23.2601 52.216H33.2441C33.4788 52.216 33.6601 52.28 33.7881 52.408C33.9375 52.536 34.0121 52.7173 34.0121 52.952V54.264C34.0121 54.4773 33.9375 54.6587 33.7881 54.808C33.6601 54.936 33.4788 55 33.2441 55H19.1321ZM48.1289 55C47.9155 55 47.7342 54.936 47.5849 54.808C47.4569 54.6587 47.3929 54.4773 47.3929 54.264V49.656H37.0249C36.8115 49.656 36.6302 49.592 36.4809 49.464C36.3529 49.3147 36.2889 49.1333 36.2889 48.92V47.64C36.2889 47.5547 36.3102 47.4267 36.3529 47.256C36.4169 47.064 36.5129 46.872 36.6409 46.68L46.2409 33.144C46.4969 32.7813 46.8915 32.6 47.4249 32.6H49.7289C49.9422 32.6 50.1129 32.6747 50.2409 32.824C50.3902 32.952 50.4649 33.1227 50.4649 33.336V46.872H53.3449C53.5795 46.872 53.7609 46.9467 53.8889 47.096C54.0382 47.224 54.1129 47.3947 54.1129 47.608V48.92C54.1129 49.1333 54.0382 49.3147 53.8889 49.464C53.7609 49.592 53.5902 49.656 53.3769 49.656H50.4649V54.264C50.4649 54.4773 50.3902 54.6587 50.2409 54.808C50.1129 54.936 49.9422 55 49.7289 55H48.1289ZM39.7129 46.936H47.4249V35.96L39.7129 46.936Z" fill="#333333"/>
</g>
<defs>
<filter id="filter0_d_361_36" x="0" y="0" width="72" height="72" filterUnits="userSpaceOnUse" color-interpolation-filters="sRGB">
<feFlood flood-opacity="0" result="BackgroundImageFix"/>
<feColorMatrix in="SourceAlpha" type="matrix" values="0 0 0 0 0 0 0 0 0 0 0 0 0 0 0 0 0 0 127 0" result="hardAlpha"/>
<feOffset/>
<feGaussianBlur stdDeviation="2"/>
<feComposite in2="hardAlpha" operator="out"/>
<feColorMatrix type="matrix" values="0 0 0 0 0 0 0 0 0 0 0 0 0 0 0 0 0 0 0.1 0"/>
<feBlend mode="normal" in2="BackgroundImageFix" result="effect1_dropShadow_361_36"/>
<feBlend mode="normal" in="SourceGraphic" in2="effect1_dropShadow_361_36" result="shape"/>
</filter>
<linearGradient id="paint0_linear_361_36" x1="36" y1="4" x2="36" y2="68" gradientUnits="userSpaceOnUse">
<stop stop-color="white"/>
<stop offset="1" stop-color="#F0F6FF"/>
</linearGradient>
</defs>
</svg>
