<svg width="72" height="72" viewBox="0 0 72 72" fill="none" xmlns="http://www.w3.org/2000/svg">
<g filter="url(#filter0_d_91_3011)">
<g clip-path="url(#clip0_91_3011)">
<rect x="4" y="4" width="64" height="64" rx="16" fill="url(#paint0_linear_91_3011)"/>
<g filter="url(#filter1_diii_91_3011)">
<path d="M12 24C12 20.3396 13.6748 16.6792 20.0897 13.0188C21.2113 12.3788 22.6159 12.6159 23.529 13.529L29.8787 19.8787C31.0502 21.0502 31.0551 22.9546 29.9998 24.2319C28.2547 26.3442 25.9999 29.5479 25.9999 32C25.9999 36 26.9999 39 29.9999 42C32.9999 45 36 46 40 46C42.4521 46 45.6558 43.7452 47.7681 42.0001C49.0454 40.9449 50.9497 40.9497 52.1213 42.1213L58.471 48.471C59.3841 49.3841 59.6212 50.7887 58.9812 51.9103C55.3208 58.3252 51.6604 60 48 60C44 60 33.9999 54 25.9999 46C17.9999 38 12 28 12 24Z" fill="white"/>
</g>
</g>
</g>
<defs>
<filter id="filter0_d_91_3011" x="0" y="0" width="72" height="72" filterUnits="userSpaceOnUse" color-interpolation-filters="sRGB">
<feFlood flood-opacity="0" result="BackgroundImageFix"/>
<feColorMatrix in="SourceAlpha" type="matrix" values="0 0 0 0 0 0 0 0 0 0 0 0 0 0 0 0 0 0 127 0" result="hardAlpha"/>
<feOffset/>
<feGaussianBlur stdDeviation="2"/>
<feComposite in2="hardAlpha" operator="out"/>
<feColorMatrix type="matrix" values="0 0 0 0 0 0 0 0 0 0 0 0 0 0 0 0 0 0 0.1 0"/>
<feBlend mode="normal" in2="BackgroundImageFix" result="effect1_dropShadow_91_3011"/>
<feBlend mode="normal" in="SourceGraphic" in2="effect1_dropShadow_91_3011" result="shape"/>
</filter>
<filter id="filter1_diii_91_3011" x="4" y="4.65814" width="63.3419" height="67.3419" filterUnits="userSpaceOnUse" color-interpolation-filters="sRGB">
<feFlood flood-opacity="0" result="BackgroundImageFix"/>
<feColorMatrix in="SourceAlpha" type="matrix" values="0 0 0 0 0 0 0 0 0 0 0 0 0 0 0 0 0 0 127 0" result="hardAlpha"/>
<feOffset dy="4"/>
<feGaussianBlur stdDeviation="4"/>
<feComposite in2="hardAlpha" operator="out"/>
<feColorMatrix type="matrix" values="0 0 0 0 0 0 0 0 0 0 0 0 0 0 0 0 0 0 0.1 0"/>
<feBlend mode="normal" in2="BackgroundImageFix" result="effect1_dropShadow_91_3011"/>
<feBlend mode="normal" in="SourceGraphic" in2="effect1_dropShadow_91_3011" result="shape"/>
<feColorMatrix in="SourceAlpha" type="matrix" values="0 0 0 0 0 0 0 0 0 0 0 0 0 0 0 0 0 0 127 0" result="hardAlpha"/>
<feOffset dy="-8"/>
<feGaussianBlur stdDeviation="4"/>
<feComposite in2="hardAlpha" operator="arithmetic" k2="-1" k3="1"/>
<feColorMatrix type="matrix" values="0 0 0 0 0 0 0 0 0 0 0 0 0 0 0 0 0 0 0.15 0"/>
<feBlend mode="normal" in2="shape" result="effect2_innerShadow_91_3011"/>
<feColorMatrix in="SourceAlpha" type="matrix" values="0 0 0 0 0 0 0 0 0 0 0 0 0 0 0 0 0 0 127 0" result="hardAlpha"/>
<feOffset dy="-4"/>
<feGaussianBlur stdDeviation="1"/>
<feComposite in2="hardAlpha" operator="arithmetic" k2="-1" k3="1"/>
<feColorMatrix type="matrix" values="0 0 0 0 0.25098 0 0 0 0 1 0 0 0 0 0.501961 0 0 0 0.25 0"/>
<feBlend mode="normal" in2="effect2_innerShadow_91_3011" result="effect3_innerShadow_91_3011"/>
<feColorMatrix in="SourceAlpha" type="matrix" values="0 0 0 0 0 0 0 0 0 0 0 0 0 0 0 0 0 0 127 0" result="hardAlpha"/>
<feOffset dy="4"/>
<feGaussianBlur stdDeviation="4"/>
<feComposite in2="hardAlpha" operator="arithmetic" k2="-1" k3="1"/>
<feColorMatrix type="matrix" values="0 0 0 0 1 0 0 0 0 1 0 0 0 0 1 0 0 0 1 0"/>
<feBlend mode="normal" in2="effect3_innerShadow_91_3011" result="effect4_innerShadow_91_3011"/>
</filter>
<linearGradient id="paint0_linear_91_3011" x1="36" y1="4" x2="36" y2="68" gradientUnits="userSpaceOnUse">
<stop stop-color="#40FF80"/>
<stop offset="1" stop-color="#10C04A"/>
</linearGradient>
<clipPath id="clip0_91_3011">
<rect x="4" y="4" width="64" height="64" rx="16" fill="white"/>
</clipPath>
</defs>
</svg>
