<svg width="72" height="72" viewBox="0 0 72 72" fill="none" xmlns="http://www.w3.org/2000/svg">
<rect x="4" y="4" width="64" height="64" rx="16" fill="url(#paint0_linear_91_3182)"/>
<g filter="url(#filter0_d_91_3182)">
<rect x="4" y="4" width="64" height="64" rx="16" fill="white" fill-opacity="0.01" shape-rendering="crispEdges"/>
</g>
<mask id="mask0_91_3182" style="mask-type:alpha" maskUnits="userSpaceOnUse" x="4" y="4" width="64" height="64">
<rect x="4" y="4" width="64" height="64" rx="16" fill="#D9D9D9"/>
</mask>
<g mask="url(#mask0_91_3182)">
<rect x="4" y="4" width="64" height="18" fill="url(#paint1_linear_91_3182)"/>
<rect x="4" y="32" width="64" height="2" fill="#0061E0" fill-opacity="0.25"/>
<rect x="4" y="44" width="64" height="2" fill="#0061E0" fill-opacity="0.25"/>
<rect x="4" y="56" width="64" height="2" fill="#0061E0" fill-opacity="0.25"/>
<rect x="4" y="22" width="64" height="8" fill="url(#paint2_linear_91_3182)" fill-opacity="0.1"/>
<g filter="url(#filter1_d_91_3182)">
<path d="M35.4626 68.1344L21.6169 71.5958C20.8845 71.7789 20.2211 71.1155 20.4042 70.3831L23.8656 56.5374C23.9536 56.1858 24.1354 55.8646 24.3917 55.6083L57.1716 22.8284C58.7337 21.2663 61.2663 21.2663 62.8284 22.8284L69.1716 29.1716C70.7337 30.7337 70.7337 33.2663 69.1716 34.8284L36.3917 67.6083C36.1354 67.8646 35.8142 68.0464 35.4626 68.1344Z" fill="url(#paint3_linear_91_3182)"/>
</g>
</g>
<path d="M11 30L13.2223 32.2223C14.1317 33.1317 15.6508 32.9587 16.3325 31.868L20 26" stroke="#333333" stroke-width="2" stroke-linecap="round" stroke-linejoin="round"/>
<path d="M11 42L13.2223 44.2223C14.1317 45.1317 15.6508 44.9587 16.3325 43.868L20 38" stroke="#333333" stroke-opacity="0.5" stroke-width="2" stroke-linecap="round" stroke-linejoin="round"/>
<path d="M35.4626 68.1344L21.6169 71.5958C20.8845 71.7789 20.2211 71.1155 20.4042 70.3831L23.8656 56.5374C23.9536 56.1858 24.1354 55.8646 24.3917 55.6083L57.1716 22.8284C58.7337 21.2663 61.2663 21.2663 62.8284 22.8284L69.1716 29.1716C70.7337 30.7337 70.7337 33.2663 69.1716 34.8284L36.3917 67.6083C36.1354 67.8646 35.8142 68.0464 35.4626 68.1344Z" fill="url(#paint4_linear_91_3182)"/>
<path d="M21.5458 65.8167L20.4042 70.3831C20.2211 71.1155 20.8845 71.7789 21.6169 71.5958L26.1833 70.4542C26.7532 70.3117 26.8067 69.5227 26.2613 69.3045C25.8015 69.1206 25.5 68.6753 25.5 68.1801V67.9907C25.5 67.1674 24.8326 66.5 24.0093 66.5H23.8199C23.3247 66.5 22.8794 66.1985 22.6955 65.7387C22.4773 65.1933 21.6883 65.2468 21.5458 65.8167Z" fill="url(#paint5_linear_91_3182)"/>
<path d="M69.1716 34.8284L36.4268 67.5732C36.2693 67.7307 36 67.6192 36 67.3964V64.3541C36 63.5363 35.5021 62.8008 34.7428 62.4971L31.7958 61.3183C31.2876 61.1151 30.8849 60.7124 30.6817 60.2042L29.5029 57.2572C29.1992 56.4979 28.4637 56 27.6459 56H24.6036C24.3808 56 24.2693 55.7307 24.4268 55.5732L57.1716 22.8284C58.7337 21.2663 61.2663 21.2663 62.8284 22.8284L69.1716 29.1716C70.7337 30.7337 70.7337 33.2663 69.1716 34.8284Z" fill="url(#paint6_linear_91_3182)"/>
<defs>
<filter id="filter0_d_91_3182" x="0" y="0" width="72" height="72" filterUnits="userSpaceOnUse" color-interpolation-filters="sRGB">
<feFlood flood-opacity="0" result="BackgroundImageFix"/>
<feColorMatrix in="SourceAlpha" type="matrix" values="0 0 0 0 0 0 0 0 0 0 0 0 0 0 0 0 0 0 127 0" result="hardAlpha"/>
<feOffset/>
<feGaussianBlur stdDeviation="2"/>
<feComposite in2="hardAlpha" operator="out"/>
<feColorMatrix type="matrix" values="0 0 0 0 0 0 0 0 0 0 0 0 0 0 0 0 0 0 0.1 0"/>
<feBlend mode="normal" in2="BackgroundImageFix" result="effect1_dropShadow_91_3182"/>
<feBlend mode="normal" in="SourceGraphic" in2="effect1_dropShadow_91_3182" result="shape"/>
</filter>
<filter id="filter1_d_91_3182" x="8.37341" y="13.6569" width="73.9697" height="73.9697" filterUnits="userSpaceOnUse" color-interpolation-filters="sRGB">
<feFlood flood-opacity="0" result="BackgroundImageFix"/>
<feColorMatrix in="SourceAlpha" type="matrix" values="0 0 0 0 0 0 0 0 0 0 0 0 0 0 0 0 0 0 127 0" result="hardAlpha"/>
<feOffset dy="4"/>
<feGaussianBlur stdDeviation="6"/>
<feComposite in2="hardAlpha" operator="out"/>
<feColorMatrix type="matrix" values="0 0 0 0 0 0 0 0 0 0 0 0 0 0 0 0 0 0 0.25 0"/>
<feBlend mode="normal" in2="BackgroundImageFix" result="effect1_dropShadow_91_3182"/>
<feBlend mode="normal" in="SourceGraphic" in2="effect1_dropShadow_91_3182" result="shape"/>
</filter>
<linearGradient id="paint0_linear_91_3182" x1="36" y1="4" x2="36" y2="68" gradientUnits="userSpaceOnUse">
<stop stop-color="white"/>
<stop offset="1" stop-color="#F0F6FF"/>
</linearGradient>
<linearGradient id="paint1_linear_91_3182" x1="36" y1="4" x2="36" y2="22" gradientUnits="userSpaceOnUse">
<stop stop-color="#FFC000"/>
<stop offset="1" stop-color="#FF6040"/>
</linearGradient>
<linearGradient id="paint2_linear_91_3182" x1="36" y1="22" x2="36" y2="30" gradientUnits="userSpaceOnUse">
<stop/>
<stop offset="1" stop-opacity="0"/>
</linearGradient>
<linearGradient id="paint3_linear_91_3182" x1="53.5" y1="27.5" x2="65" y2="38" gradientUnits="userSpaceOnUse">
<stop stop-color="#FFE074"/>
<stop offset="1" stop-color="#F69C49"/>
</linearGradient>
<linearGradient id="paint4_linear_91_3182" x1="53.5" y1="27.5" x2="65" y2="38" gradientUnits="userSpaceOnUse">
<stop stop-color="#FFEB85"/>
<stop offset="0.804" stop-color="#FF910F"/>
</linearGradient>
<linearGradient id="paint5_linear_91_3182" x1="21.5" y1="65.5" x2="26.5" y2="70.5" gradientUnits="userSpaceOnUse">
<stop stop-color="#333333"/>
<stop offset="1"/>
</linearGradient>
<linearGradient id="paint6_linear_91_3182" x1="53.5" y1="27.5" x2="65" y2="38" gradientUnits="userSpaceOnUse">
<stop stop-color="#FF6040"/>
<stop offset="1" stop-color="#C00040"/>
</linearGradient>
</defs>
</svg>
