<svg width="72" height="72" viewBox="0 0 72 72" fill="none" xmlns="http://www.w3.org/2000/svg">
<g filter="url(#filter0_d_91_3038)">
<rect x="4" y="4" width="64" height="64" rx="16" fill="url(#paint0_linear_91_3038)"/>
<path d="M26 39.4641C23.3333 37.9245 23.3333 34.0755 26 32.5359L50 18.6795C52.6667 17.1399 56 19.0644 56 22.1436V49.8564C56 52.9356 52.6667 54.8601 50 53.3205L26 39.4641Z" fill="url(#paint1_linear_91_3038)"/>
<g filter="url(#filter1_d_91_3038)">
<path fill-rule="evenodd" clip-rule="evenodd" d="M20 16C17.7909 16 16 17.7909 16 20V52C16 54.2091 17.7909 56 20 56H24C26.2091 56 28 54.2091 28 52V20C28 17.7909 26.2091 16 24 16H20ZM40 16C37.7909 16 36 17.7909 36 20V52C36 54.2091 37.7909 56 40 56H44C46.2091 56 48 54.2091 48 52V20C48 17.7909 46.2091 16 44 16H40Z" fill="url(#paint2_linear_91_3038)"/>
</g>
<g filter="url(#filter2_bd_91_3038)">
<path d="M26 39.4641C23.3333 37.9245 23.3333 34.0755 26 32.5359L50 18.6795C52.6667 17.1399 56 19.0644 56 22.1436V49.8564C56 52.9356 52.6667 54.8601 50 53.3205L26 39.4641Z" fill="url(#paint3_linear_91_3038)" shape-rendering="crispEdges"/>
</g>
</g>
<defs>
<filter id="filter0_d_91_3038" x="0" y="0" width="72" height="72" filterUnits="userSpaceOnUse" color-interpolation-filters="sRGB">
<feFlood flood-opacity="0" result="BackgroundImageFix"/>
<feColorMatrix in="SourceAlpha" type="matrix" values="0 0 0 0 0 0 0 0 0 0 0 0 0 0 0 0 0 0 127 0" result="hardAlpha"/>
<feOffset/>
<feGaussianBlur stdDeviation="2"/>
<feComposite in2="hardAlpha" operator="out"/>
<feColorMatrix type="matrix" values="0 0 0 0 0 0 0 0 0 0 0 0 0 0 0 0 0 0 0.1 0"/>
<feBlend mode="normal" in2="BackgroundImageFix" result="effect1_dropShadow_91_3038"/>
<feBlend mode="normal" in="SourceGraphic" in2="effect1_dropShadow_91_3038" result="shape"/>
</filter>
<filter id="filter1_d_91_3038" x="8" y="12" width="48" height="56" filterUnits="userSpaceOnUse" color-interpolation-filters="sRGB">
<feFlood flood-opacity="0" result="BackgroundImageFix"/>
<feColorMatrix in="SourceAlpha" type="matrix" values="0 0 0 0 0 0 0 0 0 0 0 0 0 0 0 0 0 0 127 0" result="hardAlpha"/>
<feOffset dy="4"/>
<feGaussianBlur stdDeviation="4"/>
<feComposite in2="hardAlpha" operator="out"/>
<feColorMatrix type="matrix" values="0 0 0 0 0 0 0 0 0 0 0 0 0 0 0 0 0 0 0.1 0"/>
<feBlend mode="normal" in2="BackgroundImageFix" result="effect1_dropShadow_91_3038"/>
<feBlend mode="normal" in="SourceGraphic" in2="effect1_dropShadow_91_3038" result="shape"/>
</filter>
<filter id="filter2_bd_91_3038" x="16" y="14.1376" width="48" height="51.7247" filterUnits="userSpaceOnUse" color-interpolation-filters="sRGB">
<feFlood flood-opacity="0" result="BackgroundImageFix"/>
<feGaussianBlur in="BackgroundImageFix" stdDeviation="1"/>
<feComposite in2="SourceAlpha" operator="in" result="effect1_backgroundBlur_91_3038"/>
<feColorMatrix in="SourceAlpha" type="matrix" values="0 0 0 0 0 0 0 0 0 0 0 0 0 0 0 0 0 0 127 0" result="hardAlpha"/>
<feOffset dy="4"/>
<feGaussianBlur stdDeviation="4"/>
<feComposite in2="hardAlpha" operator="out"/>
<feColorMatrix type="matrix" values="0 0 0 0 0 0 0 0 0 0 0 0 0 0 0 0 0 0 0.1 0"/>
<feBlend mode="normal" in2="effect1_backgroundBlur_91_3038" result="effect2_dropShadow_91_3038"/>
<feBlend mode="normal" in="SourceGraphic" in2="effect2_dropShadow_91_3038" result="shape"/>
</filter>
<linearGradient id="paint0_linear_91_3038" x1="36" y1="4" x2="36" y2="68" gradientUnits="userSpaceOnUse">
<stop stop-color="#FF6040"/>
<stop offset="1" stop-color="#8613C0"/>
</linearGradient>
<linearGradient id="paint1_linear_91_3038" x1="44" y1="12" x2="44" y2="60" gradientUnits="userSpaceOnUse">
<stop offset="0.145345" stop-color="#FFC000"/>
<stop offset="0.853379" stop-color="#FF6040"/>
</linearGradient>
<linearGradient id="paint2_linear_91_3038" x1="42" y1="16" x2="42" y2="56" gradientUnits="userSpaceOnUse">
<stop stop-color="white"/>
<stop offset="1" stop-color="#B0DDFF"/>
</linearGradient>
<linearGradient id="paint3_linear_91_3038" x1="44" y1="12" x2="44" y2="60" gradientUnits="userSpaceOnUse">
<stop offset="0.145345" stop-color="#FFC000"/>
<stop offset="0.853379" stop-color="#FF6040" stop-opacity="0.75"/>
</linearGradient>
</defs>
</svg>
