<svg width="72" height="72" viewBox="0 0 72 72" fill="none" xmlns="http://www.w3.org/2000/svg">
<g filter="url(#filter0_d_153_18)">
<rect x="4" y="4" width="64" height="64" rx="16" fill="url(#paint0_linear_153_18)"/>
<rect x="4" y="4" width="64" height="64" rx="16" fill="white"/>
<path fill-rule="evenodd" clip-rule="evenodd" d="M20 12H42.3431C43.404 12 44.4214 12.4214 45.1716 13.1716L54.8284 22.8284C55.5786 23.5786 56 24.596 56 25.6569V56C56 58.2091 54.2091 60 52 60H20C17.7909 60 16 58.2091 16 56V16C16 13.7909 17.7909 12 20 12ZM23 32C21.8954 32 21 32.8954 21 34V54C21 55.1046 21.8954 56 23 56H49C50.1046 56 51 55.1046 51 54V34C51 32.8954 50.1046 32 49 32H23Z" fill="url(#paint1_linear_153_18)"/>
</g>
<defs>
<filter id="filter0_d_153_18" x="0" y="0" width="72" height="72" filterUnits="userSpaceOnUse" color-interpolation-filters="sRGB">
<feFlood flood-opacity="0" result="BackgroundImageFix"/>
<feColorMatrix in="SourceAlpha" type="matrix" values="0 0 0 0 0 0 0 0 0 0 0 0 0 0 0 0 0 0 127 0" result="hardAlpha"/>
<feOffset/>
<feGaussianBlur stdDeviation="2"/>
<feComposite in2="hardAlpha" operator="out"/>
<feColorMatrix type="matrix" values="0 0 0 0 0 0 0 0 0 0 0 0 0 0 0 0 0 0 0.1 0"/>
<feBlend mode="normal" in2="BackgroundImageFix" result="effect1_dropShadow_153_18"/>
<feBlend mode="normal" in="SourceGraphic" in2="effect1_dropShadow_153_18" result="shape"/>
</filter>
<linearGradient id="paint0_linear_153_18" x1="36" y1="4" x2="36" y2="68" gradientUnits="userSpaceOnUse">
<stop stop-color="white"/>
<stop offset="1" stop-color="#B0DDFF"/>
</linearGradient>
<linearGradient id="paint1_linear_153_18" x1="36" y1="12" x2="36" y2="60" gradientUnits="userSpaceOnUse">
<stop stop-color="#40FF80"/>
<stop offset="1" stop-color="#10C04A"/>
</linearGradient>
</defs>
</svg>
