<svg width="16" height="16" viewBox="0 0 16 16" fill="none" xmlns="http://www.w3.org/2000/svg">
<g clip-path="url(#clip0_2945_19)">
<path d="M7.22231 0.962057C7.62256 0.466925 8.37744 0.466925 8.77769 0.962057L9.44508 1.78767C9.69376 2.09531 10.1004 2.22744 10.4824 2.12472L11.5076 1.84907C12.1225 1.68376 12.7332 2.12747 12.766 2.7633L12.8206 3.82352C12.841 4.21857 13.0923 4.56449 13.4617 4.70593L14.4532 5.08553C15.0477 5.31318 15.281 6.03112 14.9338 6.56478L14.3548 7.45464C14.1391 7.78621 14.1391 8.21379 14.3548 8.54536L14.9338 9.43522C15.281 9.96888 15.0477 10.6868 14.4532 10.9145L13.4617 11.2941C13.0923 11.4355 12.841 11.7814 12.8206 12.1765L12.766 13.2367C12.7332 13.8725 12.1225 14.3162 11.5076 14.1509L10.4824 13.8753C10.1004 13.7726 9.69376 13.9047 9.44508 14.2123L8.77769 15.0379C8.37744 15.5331 7.62256 15.5331 7.22231 15.0379L6.55492 14.2123C6.30624 13.9047 5.89959 13.7726 5.51758 13.8753L4.49236 14.1509C3.87753 14.3162 3.26681 13.8725 3.23404 13.2367L3.17939 12.1765C3.15903 11.7814 2.9077 11.4355 2.53828 11.2941L1.54684 10.9145C0.952256 10.6868 0.718983 9.96888 1.0662 9.43522L1.64517 8.54536C1.8609 8.21379 1.8609 7.78621 1.64517 7.45464L1.0662 6.56478C0.718984 6.03112 0.952256 5.31318 1.54684 5.08553L2.53828 4.70593C2.9077 4.56449 3.15903 4.21857 3.17939 3.82352L3.23404 2.7633C3.26681 2.12747 3.87753 1.68376 4.49236 1.84907L5.51758 2.12472C5.89959 2.22744 6.30624 2.09531 6.55492 1.78767L7.22231 0.962057Z" fill="#C00040" stroke="#E0E0E0"/>
<path d="M9.0918 4L8.88867 9.5H7.10742L6.9043 4H9.0918ZM7.99805 12.125C7.69596 12.125 7.43685 12.0195 7.2207 11.8086C7.00716 11.5951 6.90169 11.3359 6.9043 11.0312C6.90169 10.7344 7.00716 10.4805 7.2207 10.2695C7.43685 10.0586 7.69596 9.95312 7.99805 9.95312C8.28451 9.95312 8.53711 10.0586 8.75586 10.2695C8.97721 10.4805 9.08919 10.7344 9.0918 11.0312C9.08919 11.2344 9.03581 11.4193 8.93164 11.5859C8.83008 11.75 8.69727 11.8815 8.5332 11.9805C8.36914 12.0768 8.19076 12.125 7.99805 12.125Z" fill="white"/>
</g>
<defs>
<clipPath id="clip0_2945_19">
<rect width="16" height="16" fill="white"/>
</clipPath>
</defs>
</svg>
