<svg width="24" height="24" viewBox="0 0 24 24" fill="none" xmlns="http://www.w3.org/2000/svg">
<g clip-path="url(#clip0_146_72)">
<mask id="path-1-inside-1_146_72" fill="white">
<path fill-rule="evenodd" clip-rule="evenodd" d="M12 24C18.6274 24 24 18.6274 24 12C24 5.37258 18.6274 0 12 0C5.37258 0 0 5.37258 0 12C0 14.0197 0.498978 15.9229 1.38039 17.593C1.57548 17.9627 1.63557 18.3923 1.51853 18.7936L0.765867 21.3741C0.434287 22.511 1.48902 23.5657 2.62587 23.2341L5.20641 22.4815C5.60768 22.3644 6.03729 22.4245 6.40696 22.6196C8.07706 23.501 9.98026 24 12 24Z"/>
</mask>
<path fill-rule="evenodd" clip-rule="evenodd" d="M12 24C18.6274 24 24 18.6274 24 12C24 5.37258 18.6274 0 12 0C5.37258 0 0 5.37258 0 12C0 14.0197 0.498978 15.9229 1.38039 17.593C1.57548 17.9627 1.63557 18.3923 1.51853 18.7936L0.765867 21.3741C0.434287 22.511 1.48902 23.5657 2.62587 23.2341L5.20641 22.4815C5.60768 22.3644 6.03729 22.4245 6.40696 22.6196C8.07706 23.501 9.98026 24 12 24Z" fill="url(#paint0_linear_146_72)"/>
<path d="M0.765867 21.3741L1.72587 21.6541H1.72587L0.765867 21.3741ZM2.62587 23.2341L2.90587 24.1941H2.90587L2.62587 23.2341ZM5.20641 22.4815L4.92641 21.5215L5.20641 22.4815ZM6.40696 22.6196L6.87371 21.7352L6.40696 22.6196ZM1.38039 17.593L2.26478 17.1263L1.38039 17.593ZM1.51853 18.7936L2.47853 19.0736L1.51853 18.7936ZM23 12C23 18.0751 18.0751 23 12 23V25C19.1797 25 25 19.1797 25 12H23ZM12 1C18.0751 1 23 5.92487 23 12H25C25 4.8203 19.1797 -1 12 -1V1ZM1 12C1 5.92487 5.92487 1 12 1V-1C4.8203 -1 -1 4.8203 -1 12H1ZM2.26478 17.1263C1.45746 15.5966 1 13.8532 1 12H-1C-1 14.1863 -0.459506 16.2493 0.495994 18.0598L2.26478 17.1263ZM0.558527 18.5136L-0.194133 21.0941L1.72587 21.6541L2.47853 19.0736L0.558527 18.5136ZM-0.194133 21.0941C-0.746768 22.9889 1.01112 24.7467 2.90587 24.1941L2.34587 22.2741C1.96692 22.3846 1.61534 22.0331 1.72587 21.6541L-0.194133 21.0941ZM2.90587 24.1941L5.48641 23.4415L4.92641 21.5215L2.34587 22.2741L2.90587 24.1941ZM12 23C10.1468 23 8.40342 22.5425 6.87371 21.7352L5.94022 23.504C7.75071 24.4595 9.81371 25 12 25V23ZM5.48641 23.4415C5.61133 23.405 5.774 23.4163 5.94022 23.504L6.87371 21.7352C6.30058 21.4327 5.60403 21.3238 4.92641 21.5215L5.48641 23.4415ZM0.495994 18.0598C0.583714 18.226 0.594962 18.3886 0.558527 18.5136L2.47853 19.0736C2.67617 18.3959 2.56725 17.6994 2.26478 17.1263L0.495994 18.0598Z" fill="url(#paint1_linear_146_72)" mask="url(#path-1-inside-1_146_72)"/>
<path d="M9.5 19.5H12M14.5 19.5H12M12 19.5V16.5M12 16.5V16.5C9.51472 16.5 7.5 14.4853 7.5 12V10.5M12 16.5V16.5C14.4853 16.5 16.5 14.4853 16.5 12V10.5" stroke="white" stroke-linecap="round" stroke-linejoin="round"/>
<path d="M9 7C9 5.34315 10.3431 4 12 4V4C13.6569 4 15 5.34315 15 7V12C15 13.6569 13.6569 15 12 15V15C10.3431 15 9 13.6569 9 12V7Z" fill="url(#paint2_linear_146_72)"/>
</g>
<defs>
<linearGradient id="paint0_linear_146_72" x1="12" y1="0" x2="12" y2="24" gradientUnits="userSpaceOnUse">
<stop stop-color="#101214"/>
<stop offset="1" stop-color="#212325"/>
</linearGradient>
<linearGradient id="paint1_linear_146_72" x1="12.0856" y1="0" x2="12.0856" y2="24" gradientUnits="userSpaceOnUse">
<stop stop-color="#00DDFF"/>
<stop offset="1" stop-color="#0061E0"/>
</linearGradient>
<linearGradient id="paint2_linear_146_72" x1="9" y1="4" x2="15" y2="15" gradientUnits="userSpaceOnUse">
<stop stop-color="#00DDFF"/>
<stop offset="1" stop-color="#0061E0"/>
</linearGradient>
<clipPath id="clip0_146_72">
<rect width="24" height="24" fill="white"/>
</clipPath>
</defs>
</svg>
