<svg width="464" height="16" viewBox="0 0 464 16" fill="none" xmlns="http://www.w3.org/2000/svg">
<g clip-path="url(#clip0_190_167)">
<path fill-rule="evenodd" clip-rule="evenodd" d="M17.021 7.4541C17.3611 3.56736 20.7875 0.692196 24.6743 1.03224C26.4909 1.19118 28.0866 2.02438 29.2363 3.26369L30.3779 2.30573C31.0604 1.73307 32.0945 2.27142 32.0169 3.15893L31.7479 6.23298C31.6998 6.78316 31.2148 7.19015 30.6646 7.14202L27.5905 6.87307C26.703 6.79543 26.3524 5.6835 27.0349 5.11083L28.4691 3.90741C27.4848 2.86374 26.1287 2.1633 24.5871 2.02844C21.2506 1.73653 18.3091 4.2047 18.0172 7.54125C17.7253 10.8778 20.1935 13.8193 23.53 14.1112C26.6989 14.3884 29.5114 12.176 30.0361 9.09456C30.0825 8.82233 30.3229 8.61787 30.598 8.64193C30.8731 8.666 31.0784 8.90942 31.0352 9.18217C30.4599 12.8141 27.1621 15.4328 23.4429 15.1074C19.5561 14.7673 16.681 11.3408 17.021 7.4541Z" fill="white" fill-opacity="0.95"/>
</g>
<g clip-path="url(#clip1_190_167)">
<path fill-rule="evenodd" clip-rule="evenodd" d="M1 8.06445C1 4.16286 4.16286 1 8.06445 1C9.88803 1 11.5502 1.69096 12.8035 2.82535L13.8573 1.77154C14.4873 1.14158 15.5645 1.58775 15.5645 2.47865V5.56444C15.5645 6.11672 15.1167 6.56444 14.5645 6.56444H11.4787C10.5878 6.56444 10.1416 5.4873 10.7716 4.85733L12.0954 3.53348C11.0239 2.57957 9.61187 2 8.06445 2C4.71515 2 2 4.71515 2 8.06445C2 11.4137 4.71515 14.1289 8.06445 14.1289C11.2454 14.1289 13.8544 11.6798 14.1086 8.56432C14.131 8.28909 14.3527 8.06445 14.6289 8.06445C14.905 8.06445 15.1307 8.28905 15.1115 8.56452C14.8549 12.2327 11.7979 15.1289 8.06445 15.1289C4.16286 15.1289 1 11.966 1 8.06445Z" fill="white"/>
</g>
<g clip-path="url(#clip2_190_167)">
<path fill-rule="evenodd" clip-rule="evenodd" d="M49.2218 6.25052C50.2316 2.48188 54.1053 0.245397 57.874 1.2552C59.6354 1.72718 61.0621 2.8248 61.9791 4.24492L63.2698 3.49977C64.0413 3.05432 64.9663 3.76407 64.7357 4.62461L63.937 7.60525C63.7941 8.13872 63.2458 8.4553 62.7123 8.31236L59.7317 7.5137C58.8711 7.28312 58.7189 6.1272 59.4905 5.68175L61.1119 4.74565C60.3238 3.54692 59.1098 2.62163 57.6151 2.22113C54.38 1.35426 51.0546 3.27416 50.1877 6.50934C49.3209 9.74451 51.2408 13.0699 54.476 13.9367C57.5486 14.76 60.7025 13.0696 61.7544 10.1261C61.8473 9.86607 62.1196 9.70646 62.3863 9.77793C62.653 9.84941 62.8129 10.1248 62.723 10.3859C61.5258 13.8627 57.8234 15.8689 54.2171 14.9027C50.4485 13.8929 48.212 10.0192 49.2218 6.25052Z" fill="white" fill-opacity="0.85"/>
</g>
<g clip-path="url(#clip3_190_167)">
<path fill-rule="evenodd" clip-rule="evenodd" d="M81.6432 5.07947C83.2921 1.54344 87.4953 0.0135935 91.0313 1.66247C92.6841 2.43315 93.8985 3.76185 94.555 5.31963L95.9554 4.80992C96.7926 4.50521 97.5803 5.36479 97.2038 6.17223L95.8996 8.9689C95.6662 9.46944 95.0713 9.686 94.5707 9.45259L91.774 8.14848C90.9666 7.77197 91.0175 6.60719 91.8546 6.30248L93.6139 5.66215C93.046 4.34479 92.0112 3.22275 90.6087 2.56878C87.5732 1.15331 83.965 2.46659 82.5495 5.50209C81.1341 8.53759 82.4473 12.1458 85.4828 13.5613C88.3658 14.9056 91.7654 13.7886 93.3124 11.0724C93.449 10.8325 93.7449 10.7226 93.9952 10.8393C94.2455 10.956 94.3551 11.2549 94.2212 11.4965C92.4384 14.7126 88.4439 16.0454 85.0602 14.4676C81.5242 12.8187 79.9943 8.61551 81.6432 5.07947Z" fill="white" fill-opacity="0.75"/>
</g>
<g clip-path="url(#clip4_190_167)">
<path fill-rule="evenodd" clip-rule="evenodd" d="M97.9056 4.55581C99.8564 1.17694 104.177 0.0192512 107.556 1.97004C109.135 2.88184 110.229 4.31133 110.747 5.92039L112.187 5.53467C113.047 5.30409 113.757 6.22905 113.312 7.0006L111.769 9.67297C111.493 10.1513 110.881 10.3151 110.403 10.039L107.73 8.4961C106.959 8.05065 107.111 6.89473 107.972 6.66415L109.78 6.17959C109.329 4.81774 108.396 3.60978 107.056 2.83607C104.155 1.16142 100.446 2.15523 98.7717 5.05581C97.097 7.95639 98.0908 11.6653 100.991 13.34C103.746 14.9305 107.23 14.114 109.008 11.543C109.165 11.3159 109.469 11.2322 109.709 11.3703C109.948 11.5083 110.031 11.8157 109.876 12.0446C107.82 15.0931 103.725 16.0727 100.491 14.206C97.1125 12.2552 95.9549 7.93468 97.9056 4.55581Z" fill="white" fill-opacity="0.7"/>
</g>
<g clip-path="url(#clip5_190_167)">
<path fill-rule="evenodd" clip-rule="evenodd" d="M114.596 3.54985C117.104 0.561061 121.56 0.171216 124.549 2.67911C125.946 3.85128 126.775 5.44903 127.006 7.12364L128.491 6.99375C129.378 6.9161 129.916 7.95026 129.344 8.63273L127.36 10.9966C127.005 11.4197 126.375 11.4748 125.951 11.1198L123.588 9.13633C122.905 8.56367 123.256 7.45174 124.143 7.37409L126.008 7.21092C125.801 5.79145 125.091 4.43982 123.906 3.44515C121.34 1.29226 117.515 1.62692 115.362 4.19263C113.209 6.75835 113.544 10.5835 116.11 12.7364C118.547 14.7811 122.119 14.582 124.317 12.3588C124.511 12.1624 124.825 12.1328 125.037 12.3103C125.248 12.4878 125.277 12.805 125.085 13.0036C122.53 15.6487 118.327 15.9023 115.467 13.5025C112.478 10.9946 112.088 6.53863 114.596 3.54985Z" fill="white" fill-opacity="0.6"/>
</g>
<g clip-path="url(#clip6_190_167)">
<path fill-rule="evenodd" clip-rule="evenodd" d="M131.451 2.67911C134.44 0.171216 138.896 0.561061 141.404 3.54985C142.576 4.9468 143.115 6.66426 143.052 8.35352L144.536 8.48341C145.424 8.56105 145.774 9.67298 145.092 10.2456L142.728 12.2292C142.305 12.5842 141.674 12.529 141.319 12.1059L139.336 9.74204C138.763 9.05957 139.301 8.02541 140.189 8.10306L142.054 8.26624C142.096 6.83228 141.632 5.37803 140.638 4.19263C138.485 1.62692 134.66 1.29226 132.094 3.44515C129.528 5.59804 129.194 9.42322 131.346 11.9889C133.391 14.4257 136.944 14.85 139.494 13.0422C139.719 12.8825 140.034 12.9079 140.212 13.1194C140.389 13.331 140.362 13.6482 140.139 13.8106C137.164 15.9719 132.98 15.4917 130.58 12.6317C128.072 9.64294 128.462 5.187 131.451 2.67911Z" fill="white" fill-opacity="0.5"/>
</g>
<g clip-path="url(#clip7_190_167)">
<path fill-rule="evenodd" clip-rule="evenodd" d="M148.444 1.97004C151.823 0.0192512 156.144 1.17694 158.094 4.55581C159.006 6.13508 159.239 7.92007 158.883 9.57266L160.323 9.95838C161.183 10.189 161.335 11.3449 160.564 11.7903L157.892 13.3332C157.413 13.6094 156.802 13.4455 156.525 12.9672L154.983 10.2948C154.537 9.52328 155.247 8.59832 156.107 8.82891L157.916 9.31347C158.206 7.90859 158.002 6.39592 157.228 5.05581C155.554 2.15523 151.845 1.16142 148.944 2.83607C146.044 4.51072 145.05 8.21968 146.724 11.1203C148.315 13.8751 151.74 14.9099 154.566 13.5723C154.815 13.4542 155.121 13.5339 155.259 13.773C155.397 14.0122 155.315 14.3199 155.067 14.441C151.762 16.0529 147.725 14.8535 145.858 11.6203C143.908 8.24138 145.065 3.92083 148.444 1.97004Z" fill="white" fill-opacity="0.4"/>
</g>
<g clip-path="url(#clip8_190_167)">
<path fill-rule="evenodd" clip-rule="evenodd" d="M165.595 1.43358C169.261 0.0991573 173.315 1.98951 174.649 5.6558C175.273 7.36941 175.192 9.1677 174.555 10.7334L175.905 11.3632C176.713 11.7397 176.662 12.9045 175.825 13.2092L172.925 14.2646C172.406 14.4535 171.832 14.1859 171.643 13.667L170.588 10.7673C170.283 9.93009 171.143 9.14243 171.95 9.51894L173.647 10.3102C174.177 8.97706 174.239 7.45193 173.71 5.99782C172.564 2.85051 169.084 1.22774 165.937 2.37327C162.789 3.5188 161.167 6.99883 162.312 10.1461C163.4 13.1353 166.594 14.7493 169.608 13.9226C169.875 13.8495 170.162 13.9811 170.256 14.2405C170.35 14.5 170.217 14.7889 169.951 14.8651C166.416 15.8786 162.649 13.9965 161.372 10.4882C160.038 6.82188 161.928 2.768 165.595 1.43358Z" fill="white" fill-opacity="0.3"/>
</g>
<g clip-path="url(#clip9_190_167)">
<path fill-rule="evenodd" clip-rule="evenodd" d="M200.085 0.9944C203.987 0.9944 207.15 4.15726 207.15 8.05884C207.15 9.88243 206.459 11.5446 205.324 12.7979L206.378 13.8517C207.008 14.4817 206.562 15.5589 205.671 15.5589L202.585 15.5589C202.033 15.5589 201.585 15.1111 201.585 14.5589L201.585 11.4731C201.585 10.5822 202.662 10.136 203.292 10.766L204.616 12.0898C205.57 11.0183 206.15 9.60627 206.15 8.05884C206.15 4.70955 203.435 1.9944 200.085 1.9944C196.736 1.9944 194.021 4.70955 194.021 8.05884C194.021 11.2398 196.47 13.8488 199.585 14.103C199.861 14.1254 200.085 14.3471 200.085 14.6233C200.085 14.8994 199.861 15.1251 199.585 15.1059C195.917 14.8493 193.021 11.7923 193.021 8.05884C193.021 4.15726 196.184 0.9944 200.085 0.9944Z" fill="white" fill-opacity="0.1"/>
</g>
<g clip-path="url(#clip10_190_167)">
<path fill-rule="evenodd" clip-rule="evenodd" d="M182.771 1.11564C186.614 0.438141 190.278 3.00373 190.955 6.84604C191.272 8.64192 190.88 10.3989 189.981 11.8301L191.201 12.6849C191.931 13.1959 191.679 14.3342 190.801 14.4889L187.763 15.0247C187.219 15.1206 186.7 14.7574 186.604 14.2135L186.068 11.1746C185.914 10.2973 186.897 9.67084 187.627 10.1818L189.16 11.2557C189.914 10.0349 190.239 8.54361 189.97 7.01968C189.389 3.72127 186.244 1.51885 182.945 2.10045C179.647 2.68205 177.444 5.82743 178.026 9.12584C178.578 12.2585 181.443 14.4026 184.555 14.1119C184.83 14.0862 185.09 14.2655 185.138 14.5375C185.186 14.8094 185.004 15.0707 184.729 15.0996C181.072 15.4839 177.689 12.9762 177.041 9.29949C176.364 5.45718 178.929 1.79315 182.771 1.11564Z" fill="white" fill-opacity="0.2"/>
</g>
<path d="M433.5 14.5L440 8M446.5 1.5L440 8M440 8L446.5 14.5M440 8L434.5 2.5" stroke="white" stroke-linecap="round" stroke-linejoin="round"/>
<path d="M417.5 14.5L424 8M430.5 1.5L424 8M424 8L430.5 14.5M424 8L419.5 3.5" stroke="white" stroke-linecap="round" stroke-linejoin="round"/>
<path d="M401.5 14.5L408 8M414.5 1.5L408 8M408 8L414.5 14.5M408 8L404.5 4.5" stroke="white" stroke-linecap="round" stroke-linejoin="round"/>
<path d="M385.5 14.5L392 8M398.5 1.5L392 8M392 8L398.5 14.5M392 8L389.5 5.5" stroke="white" stroke-linecap="round" stroke-linejoin="round"/>
<path d="M369.5 14.5L376 8M382 2L376 8M376 8L382.5 14.5M376 8L374.5 6.5" stroke="white" stroke-linecap="round" stroke-linejoin="round"/>
<path d="M353.5 14.5L360 8M365.5 2.5L360 8M360 8L366.5 14.5M360 8L359.5 7.5" stroke="white" stroke-linecap="round" stroke-linejoin="round"/>
<path d="M337.5 14.5L344 8M348.5 3.5L344 8M344 8L350.5 14.5M344 8L344.5 8.5" stroke="white" stroke-linecap="round" stroke-linejoin="round"/>
<path d="M321.5 14.5L330.5 4.5M334.5 14.5L329.5 9.5" stroke="white" stroke-linecap="round" stroke-linejoin="round"/>
<path d="M305.5 14.5L314.5 5.5M318.5 14.5L314.5 10.5" stroke="white" stroke-linecap="round" stroke-linejoin="round"/>
<path d="M289.5 14.5L296.5 7.5M302.5 14.5L299.5 11.5" stroke="white" stroke-linecap="round" stroke-linejoin="round"/>
<path d="M273.5 14.5L278.5 9.5M286.5 14.5L284.5 12.5" stroke="white" stroke-linecap="round" stroke-linejoin="round"/>
<path d="M257.5 14.5L260.5 11.5M270.5 14.5L269.5 13.5" stroke="white" stroke-linecap="round" stroke-linejoin="round"/>
<path d="M241.5 14.5L242.5 13.5" stroke="white" stroke-linecap="round" stroke-linejoin="round"/>
<circle cx="254.5" cy="14.5" r="0.5" fill="white"/>
<circle cx="225.5" cy="14.5" r="0.5" fill="white"/>
<path d="M449.5 14.5L456 8M462.5 1.5L456 8M456 8L462.5 14.5M456 8L449.5 1.5" stroke="white" stroke-linecap="round" stroke-linejoin="round"/>
<g clip-path="url(#clip11_190_167)">
<path fill-rule="evenodd" clip-rule="evenodd" d="M33.0952 6.84793C33.7727 3.00562 37.4367 0.440033 41.279 1.11754C43.0749 1.4342 44.5919 2.4033 45.6291 3.73809L46.8499 2.88329C47.5797 2.37228 48.563 2.99872 48.4083 3.87609L47.8725 6.91499C47.7766 7.45889 47.2579 7.82206 46.714 7.72615L43.6751 7.19031C42.7977 7.03561 42.5454 5.89735 43.2752 5.38635L44.8088 4.3125C43.9193 3.18702 42.6293 2.37105 41.1054 2.10234C37.807 1.52074 34.6616 3.72316 34.08 7.02158C33.4984 10.32 35.7008 13.4654 38.9992 14.047C42.1319 14.5993 45.1265 12.6405 45.9178 9.61649C45.9877 9.34934 46.2451 9.16661 46.517 9.21456C46.789 9.26251 46.9722 9.5229 46.9054 9.79084C46.0158 13.3588 42.5023 15.6801 38.8256 15.0318C34.9833 14.3543 32.4177 10.6902 33.0952 6.84793Z" fill="white" fill-opacity="0.9"/>
</g>
<g clip-path="url(#clip12_190_167)">
<path fill-rule="evenodd" clip-rule="evenodd" d="M65.4001 5.66641C66.7345 2.00012 70.7884 0.109762 74.4547 1.44418C76.1683 2.06789 77.4939 3.28568 78.2837 4.78032L79.6344 4.15049C80.4418 3.77397 81.3014 4.56164 80.9967 5.39881L79.9413 8.2985C79.7524 8.81748 79.1785 9.08507 78.6596 8.89618L75.7599 7.84078C74.9227 7.53607 74.8718 6.37129 75.6793 5.99478L77.3761 5.20355C76.6955 3.9407 75.5668 2.91313 74.1127 2.38387C70.9654 1.23835 67.4853 2.86112 66.3398 6.00843C65.1943 9.15574 66.817 12.6358 69.9643 13.7813C72.9535 14.8693 76.2428 13.4602 77.5472 10.6195C77.6624 10.3686 77.9476 10.2333 78.2071 10.3278C78.4666 10.4222 78.6018 10.7105 78.4895 10.9627C76.9938 14.322 73.1306 15.9979 69.6223 14.721C65.956 13.3866 64.0657 9.3327 65.4001 5.66641Z" fill="white" fill-opacity="0.8"/>
</g>
<defs>
<clipPath id="clip0_190_167">
<rect width="16" height="16" fill="white" transform="translate(16)"/>
</clipPath>
<clipPath id="clip1_190_167">
<rect width="16" height="16" fill="white"/>
</clipPath>
<clipPath id="clip2_190_167">
<rect width="16" height="16" fill="white" transform="translate(48)"/>
</clipPath>
<clipPath id="clip3_190_167">
<rect width="16" height="16" fill="white" transform="translate(80)"/>
</clipPath>
<clipPath id="clip4_190_167">
<rect width="16" height="16" fill="white" transform="translate(96)"/>
</clipPath>
<clipPath id="clip5_190_167">
<rect width="16" height="16" fill="white" transform="translate(112)"/>
</clipPath>
<clipPath id="clip6_190_167">
<rect width="16" height="16" fill="white" transform="translate(128)"/>
</clipPath>
<clipPath id="clip7_190_167">
<rect width="16" height="16" fill="white" transform="translate(144)"/>
</clipPath>
<clipPath id="clip8_190_167">
<rect width="16" height="16" fill="white" transform="translate(160)"/>
</clipPath>
<clipPath id="clip9_190_167">
<rect width="16" height="16" fill="white" transform="translate(192)"/>
</clipPath>
<clipPath id="clip10_190_167">
<rect width="16" height="16" fill="white" transform="translate(176)"/>
</clipPath>
<clipPath id="clip11_190_167">
<rect width="16" height="16" fill="white" transform="translate(32)"/>
</clipPath>
<clipPath id="clip12_190_167">
<rect width="16" height="16" fill="white" transform="translate(64)"/>
</clipPath>
</defs>
</svg>
