<svg width="16" height="16" viewBox="0 0 16 16" fill="none" xmlns="http://www.w3.org/2000/svg">
<g clip-path="url(#clip0_134_29)">
<path d="M2 1C2 0.447715 2.44772 0 3 0H9.25736C10.053 0 10.8161 0.316071 11.3787 0.87868L13.1213 2.62132C13.6839 3.18393 14 3.94699 14 4.74264V15C14 15.5523 13.5523 16 13 16H3C2.44772 16 2 15.5523 2 15V1Z" fill="url(#paint0_linear_134_29)"/>
<g filter="url(#filter0_d_134_29)">
<path d="M9 0H9.25736C10.053 0 10.8161 0.316071 11.3787 0.87868L13.1213 2.62132C13.6839 3.18393 14 3.94699 14 4.74264V5H10C9.44772 5 9 4.55228 9 4V0Z" fill="url(#paint1_radial_134_29)" shape-rendering="crispEdges"/>
</g>
<path d="M5.71304 12.06C5.57304 12.06 5.43904 12.042 5.31104 12.006C5.18304 11.97 5.06504 11.92 4.95704 11.856C4.84904 11.788 4.75104 11.708 4.66304 11.616C4.57904 11.52 4.50704 11.414 4.44704 11.298L4.91504 10.812C5.01904 10.952 5.11104 11.06 5.19104 11.136C5.27104 11.212 5.34904 11.264 5.42504 11.292C5.50104 11.32 5.58504 11.334 5.67704 11.334C5.80504 11.334 5.91704 11.304 6.01304 11.244C6.11304 11.184 6.18904 11.102 6.24104 10.998C6.29304 10.894 6.31904 10.776 6.31904 10.644V8.496H5.55104V7.8H7.73504V8.496H7.08704V10.722C7.08704 10.918 7.05304 11.098 6.98504 11.262C6.91704 11.422 6.82104 11.562 6.69704 11.682C6.57704 11.802 6.43304 11.896 6.26504 11.964C6.09704 12.028 5.91304 12.06 5.71304 12.06ZM9.96338 12.06C9.59538 12.06 9.27538 11.99 9.00338 11.85C8.73538 11.71 8.50538 11.506 8.31338 11.238L8.81738 10.662C9.01338 10.938 9.20338 11.128 9.38738 11.232C9.57538 11.332 9.78738 11.382 10.0234 11.382C10.1594 11.382 10.2834 11.362 10.3954 11.322C10.5074 11.282 10.5954 11.226 10.6594 11.154C10.7234 11.078 10.7554 10.99 10.7554 10.89C10.7554 10.822 10.7414 10.76 10.7134 10.704C10.6894 10.644 10.6514 10.592 10.5994 10.548C10.5514 10.5 10.4894 10.456 10.4134 10.416C10.3414 10.376 10.2554 10.342 10.1554 10.314C10.0594 10.282 9.95338 10.256 9.83738 10.236C9.61338 10.192 9.41938 10.134 9.25538 10.062C9.09538 9.986 8.95938 9.894 8.84738 9.786C8.73938 9.674 8.65738 9.55 8.60138 9.414C8.54938 9.274 8.52338 9.116 8.52338 8.94C8.52338 8.704 8.58938 8.496 8.72138 8.316C8.85738 8.132 9.03738 7.988 9.26138 7.884C9.48938 7.78 9.73938 7.728 10.0114 7.728C10.3634 7.728 10.6614 7.792 10.9054 7.92C11.1534 8.048 11.3474 8.23 11.4874 8.466L10.9714 8.97C10.8514 8.786 10.7094 8.646 10.5454 8.55C10.3814 8.454 10.2034 8.406 10.0114 8.406C9.86738 8.406 9.74138 8.428 9.63338 8.472C9.52938 8.512 9.44738 8.57 9.38738 8.646C9.32738 8.718 9.29738 8.806 9.29738 8.91C9.29738 8.986 9.31338 9.056 9.34538 9.12C9.38138 9.184 9.43338 9.24 9.50138 9.288C9.56938 9.336 9.65538 9.378 9.75938 9.414C9.86338 9.45 9.98338 9.482 10.1194 9.51C10.3394 9.558 10.5354 9.618 10.7074 9.69C10.8834 9.762 11.0314 9.85 11.1514 9.954C11.2754 10.054 11.3694 10.17 11.4334 10.302C11.4974 10.43 11.5294 10.574 11.5294 10.734C11.5294 11.006 11.4654 11.242 11.3374 11.442C11.2094 11.642 11.0274 11.796 10.7914 11.904C10.5554 12.008 10.2794 12.06 9.96338 12.06Z" fill="black"/>
</g>
<defs>
<filter id="filter0_d_134_29" x="7" y="-1" width="9" height="9" filterUnits="userSpaceOnUse" color-interpolation-filters="sRGB">
<feFlood flood-opacity="0" result="BackgroundImageFix"/>
<feColorMatrix in="SourceAlpha" type="matrix" values="0 0 0 0 0 0 0 0 0 0 0 0 0 0 0 0 0 0 127 0" result="hardAlpha"/>
<feOffset dy="1"/>
<feGaussianBlur stdDeviation="1"/>
<feComposite in2="hardAlpha" operator="out"/>
<feColorMatrix type="matrix" values="0 0 0 0 0 0 0 0 0 0 0 0 0 0 0 0 0 0 0.1 0"/>
<feBlend mode="normal" in2="BackgroundImageFix" result="effect1_dropShadow_134_29"/>
<feBlend mode="normal" in="SourceGraphic" in2="effect1_dropShadow_134_29" result="shape"/>
</filter>
<linearGradient id="paint0_linear_134_29" x1="8" y1="0" x2="8" y2="16" gradientUnits="userSpaceOnUse">
<stop stop-color="#FF6040"/>
<stop offset="1" stop-color="#FFC000"/>
</linearGradient>
<radialGradient id="paint1_radial_134_29" cx="0" cy="0" r="1" gradientUnits="userSpaceOnUse" gradientTransform="translate(14) rotate(135) scale(7.07107 4.24264)">
<stop stop-color="#FFC000" stop-opacity="0"/>
<stop offset="0.849468" stop-color="#FFC000"/>
</radialGradient>
<clipPath id="clip0_134_29">
<rect width="16" height="16" fill="white"/>
</clipPath>
</defs>
</svg>
