<svg width="16" height="16" viewBox="0 0 16 16" fill="none" xmlns="http://www.w3.org/2000/svg">
<g clip-path="url(#clip0_137_378)">
<path d="M2 1C2 0.447715 2.44772 0 3 0H9.25736C10.053 0 10.8161 0.316071 11.3787 0.87868L13.1213 2.62132C13.6839 3.18393 14 3.94699 14 4.74264V15C14 15.5523 13.5523 16 13 16H3C2.44772 16 2 15.5523 2 15V1Z" fill="url(#paint0_linear_137_378)"/>
<g filter="url(#filter0_d_137_378)">
<path d="M9 0H9.25736C10.053 0 10.8161 0.316071 11.3787 0.87868L13.1213 2.62132C13.6839 3.18393 14 3.94699 14 4.74264V5H10C9.44772 5 9 4.55228 9 4V0Z" fill="url(#paint1_radial_137_378)" shape-rendering="crispEdges"/>
</g>
<rect x="4" y="7" width="8" height="1" rx="0.5" fill="#0061E0"/>
<rect x="4" y="9" width="8" height="1" rx="0.5" fill="#333333" fill-opacity="0.5"/>
<rect x="8" y="11" width="4" height="1" rx="0.5" fill="#333333"/>
<rect x="8" y="13" width="3" height="1" rx="0.5" fill="#333333" fill-opacity="0.5"/>
<rect x="4" y="11" width="3" height="3" rx="1" fill="url(#paint2_linear_137_378)"/>
</g>
<defs>
<filter id="filter0_d_137_378" x="7" y="-1" width="9" height="9" filterUnits="userSpaceOnUse" color-interpolation-filters="sRGB">
<feFlood flood-opacity="0" result="BackgroundImageFix"/>
<feColorMatrix in="SourceAlpha" type="matrix" values="0 0 0 0 0 0 0 0 0 0 0 0 0 0 0 0 0 0 127 0" result="hardAlpha"/>
<feOffset dy="1"/>
<feGaussianBlur stdDeviation="1"/>
<feComposite in2="hardAlpha" operator="out"/>
<feColorMatrix type="matrix" values="0 0 0 0 0 0 0 0 0 0 0 0 0 0 0 0 0 0 0.1 0"/>
<feBlend mode="normal" in2="BackgroundImageFix" result="effect1_dropShadow_137_378"/>
<feBlend mode="normal" in="SourceGraphic" in2="effect1_dropShadow_137_378" result="shape"/>
</filter>
<linearGradient id="paint0_linear_137_378" x1="8" y1="0" x2="8" y2="16" gradientUnits="userSpaceOnUse">
<stop stop-color="#C0D9FF"/>
<stop offset="1" stop-color="white"/>
</linearGradient>
<radialGradient id="paint1_radial_137_378" cx="0" cy="0" r="1" gradientUnits="userSpaceOnUse" gradientTransform="translate(14) rotate(135) scale(7.07107 4.24264)">
<stop stop-color="white" stop-opacity="0"/>
<stop offset="0.849468" stop-color="white"/>
</radialGradient>
<linearGradient id="paint2_linear_137_378" x1="5.5" y1="11" x2="5.5" y2="14" gradientUnits="userSpaceOnUse">
<stop stop-color="#60FF80"/>
<stop offset="1" stop-color="#40A060"/>
</linearGradient>
<clipPath id="clip0_137_378">
<rect width="16" height="16" fill="white"/>
</clipPath>
</defs>
</svg>
