<svg width="16" height="16" viewBox="0 0 16 16" fill="none" xmlns="http://www.w3.org/2000/svg">
<g clip-path="url(#clip0_136_311)">
<path d="M2 1C2 0.447715 2.44772 0 3 0H9.25736C10.053 0 10.8161 0.316071 11.3787 0.87868L13.1213 2.62132C13.6839 3.18393 14 3.94699 14 4.74264V15C14 15.5523 13.5523 16 13 16H3C2.44772 16 2 15.5523 2 15V1Z" fill="url(#paint0_linear_136_311)"/>
<g filter="url(#filter0_d_136_311)">
<path d="M9 0H9.25736C10.053 0 10.8161 0.316071 11.3787 0.87868L13.1213 2.62132C13.6839 3.18393 14 3.94699 14 4.74264V5H10C9.44772 5 9 4.55228 9 4V0Z" fill="url(#paint1_radial_136_311)" shape-rendering="crispEdges"/>
</g>
<g filter="url(#filter1_d_136_311)">
<g filter="url(#filter2_bi_136_311)">
<path d="M8.25 7.875H10.75C11.5094 7.875 12.125 8.49061 12.125 9.25C12.125 10.0094 11.5094 10.625 10.75 10.625H8.25C7.49061 10.625 6.875 10.0094 6.875 9.25C6.875 8.49061 7.49061 7.875 8.25 7.875Z" stroke="url(#paint2_radial_136_311)" stroke-width="0.75"/>
</g>
<g filter="url(#filter3_ii_136_311)">
<path d="M5 8C5 7.72386 5.22386 7.5 5.5 7.5H10C10.5523 7.5 11 7.94772 11 8.5V9.6459C11 10.7822 10.358 11.821 9.34164 12.3292L9.21115 12.3944C9.07229 12.4639 8.91918 12.5 8.76393 12.5H7.23607C7.08082 12.5 6.92771 12.4639 6.78885 12.3944L6.65836 12.3292C5.64201 11.821 5 10.7822 5 9.6459V8Z" fill="url(#paint3_radial_136_311)"/>
</g>
<g filter="url(#filter4_i_136_311)">
<rect x="4.5" y="12.5" width="7" height="1" rx="0.5" fill="url(#paint4_radial_136_311)"/>
</g>
</g>
</g>
<defs>
<filter id="filter0_d_136_311" x="7" y="-1" width="9" height="9" filterUnits="userSpaceOnUse" color-interpolation-filters="sRGB">
<feFlood flood-opacity="0" result="BackgroundImageFix"/>
<feColorMatrix in="SourceAlpha" type="matrix" values="0 0 0 0 0 0 0 0 0 0 0 0 0 0 0 0 0 0 127 0" result="hardAlpha"/>
<feOffset dy="1"/>
<feGaussianBlur stdDeviation="1"/>
<feComposite in2="hardAlpha" operator="out"/>
<feColorMatrix type="matrix" values="0 0 0 0 0 0 0 0 0 0 0 0 0 0 0 0 0 0 0.1 0"/>
<feBlend mode="normal" in2="BackgroundImageFix" result="effect1_dropShadow_136_311"/>
<feBlend mode="normal" in="SourceGraphic" in2="effect1_dropShadow_136_311" result="shape"/>
</filter>
<filter id="filter1_d_136_311" x="3.5" y="7" width="10" height="8" filterUnits="userSpaceOnUse" color-interpolation-filters="sRGB">
<feFlood flood-opacity="0" result="BackgroundImageFix"/>
<feColorMatrix in="SourceAlpha" type="matrix" values="0 0 0 0 0 0 0 0 0 0 0 0 0 0 0 0 0 0 127 0" result="hardAlpha"/>
<feOffset dy="0.5"/>
<feGaussianBlur stdDeviation="0.5"/>
<feComposite in2="hardAlpha" operator="out"/>
<feColorMatrix type="matrix" values="0 0 0 0 0 0 0 0 0 0 0 0 0 0 0 0 0 0 0.1 0"/>
<feBlend mode="normal" in2="BackgroundImageFix" result="effect1_dropShadow_136_311"/>
<feBlend mode="normal" in="SourceGraphic" in2="effect1_dropShadow_136_311" result="shape"/>
</filter>
<filter id="filter2_bi_136_311" x="4" y="5" width="11" height="8.5" filterUnits="userSpaceOnUse" color-interpolation-filters="sRGB">
<feFlood flood-opacity="0" result="BackgroundImageFix"/>
<feGaussianBlur in="BackgroundImageFix" stdDeviation="1.25"/>
<feComposite in2="SourceAlpha" operator="in" result="effect1_backgroundBlur_136_311"/>
<feBlend mode="normal" in="SourceGraphic" in2="effect1_backgroundBlur_136_311" result="shape"/>
<feColorMatrix in="SourceAlpha" type="matrix" values="0 0 0 0 0 0 0 0 0 0 0 0 0 0 0 0 0 0 127 0" result="hardAlpha"/>
<feOffset dy="-0.5"/>
<feGaussianBlur stdDeviation="0.25"/>
<feComposite in2="hardAlpha" operator="arithmetic" k2="-1" k3="1"/>
<feColorMatrix type="matrix" values="0 0 0 0 0 0 0 0 0 0 0 0 0 0 0 0 0 0 0.25 0"/>
<feBlend mode="normal" in2="shape" result="effect2_innerShadow_136_311"/>
</filter>
<filter id="filter3_ii_136_311" x="5" y="5.5" width="6" height="7" filterUnits="userSpaceOnUse" color-interpolation-filters="sRGB">
<feFlood flood-opacity="0" result="BackgroundImageFix"/>
<feBlend mode="normal" in="SourceGraphic" in2="BackgroundImageFix" result="shape"/>
<feColorMatrix in="SourceAlpha" type="matrix" values="0 0 0 0 0 0 0 0 0 0 0 0 0 0 0 0 0 0 127 0" result="hardAlpha"/>
<feOffset dy="-2"/>
<feGaussianBlur stdDeviation="1"/>
<feComposite in2="hardAlpha" operator="arithmetic" k2="-1" k3="1"/>
<feColorMatrix type="matrix" values="0 0 0 0 0 0 0 0 0 0 0 0 0 0 0 0 0 0 0.2 0"/>
<feBlend mode="normal" in2="shape" result="effect1_innerShadow_136_311"/>
<feColorMatrix in="SourceAlpha" type="matrix" values="0 0 0 0 0 0 0 0 0 0 0 0 0 0 0 0 0 0 127 0" result="hardAlpha"/>
<feOffset dy="-1"/>
<feGaussianBlur stdDeviation="0.5"/>
<feComposite in2="hardAlpha" operator="arithmetic" k2="-1" k3="1"/>
<feColorMatrix type="matrix" values="0 0 0 0 1 0 0 0 0 0.376471 0 0 0 0 0.25098 0 0 0 0.3 0"/>
<feBlend mode="normal" in2="effect1_innerShadow_136_311" result="effect2_innerShadow_136_311"/>
</filter>
<filter id="filter4_i_136_311" x="4.5" y="12" width="7" height="1.5" filterUnits="userSpaceOnUse" color-interpolation-filters="sRGB">
<feFlood flood-opacity="0" result="BackgroundImageFix"/>
<feBlend mode="normal" in="SourceGraphic" in2="BackgroundImageFix" result="shape"/>
<feColorMatrix in="SourceAlpha" type="matrix" values="0 0 0 0 0 0 0 0 0 0 0 0 0 0 0 0 0 0 127 0" result="hardAlpha"/>
<feOffset dy="-0.5"/>
<feGaussianBlur stdDeviation="0.25"/>
<feComposite in2="hardAlpha" operator="arithmetic" k2="-1" k3="1"/>
<feColorMatrix type="matrix" values="0 0 0 0 0 0 0 0 0 0 0 0 0 0 0 0 0 0 0.25 0"/>
<feBlend mode="normal" in2="shape" result="effect1_innerShadow_136_311"/>
</filter>
<linearGradient id="paint0_linear_136_311" x1="8" y1="0" x2="8" y2="16" gradientUnits="userSpaceOnUse">
<stop stop-color="#C00040"/>
<stop offset="1" stop-color="#FF6040"/>
</linearGradient>
<radialGradient id="paint1_radial_136_311" cx="0" cy="0" r="1" gradientUnits="userSpaceOnUse" gradientTransform="translate(14) rotate(135) scale(7.07107 4.24264)">
<stop stop-color="#FF6040" stop-opacity="0"/>
<stop offset="0.849468" stop-color="#FF6040"/>
</radialGradient>
<radialGradient id="paint2_radial_136_311" cx="0" cy="0" r="1" gradientUnits="userSpaceOnUse" gradientTransform="translate(12.5 9) rotate(-180) scale(2.5 5)">
<stop stop-color="white"/>
<stop offset="1" stop-color="#B0DDFF"/>
</radialGradient>
<radialGradient id="paint3_radial_136_311" cx="0" cy="0" r="1" gradientUnits="userSpaceOnUse" gradientTransform="translate(8 7.5) rotate(90) scale(5 6)">
<stop stop-color="white"/>
<stop offset="1" stop-color="#B0DDFF"/>
</radialGradient>
<radialGradient id="paint4_radial_136_311" cx="0" cy="0" r="1" gradientUnits="userSpaceOnUse" gradientTransform="translate(7 13) rotate(90) scale(2.5 3.38257)">
<stop stop-color="white"/>
<stop offset="1" stop-color="#B0DDFF"/>
</radialGradient>
<clipPath id="clip0_136_311">
<rect width="16" height="16" fill="white"/>
</clipPath>
</defs>
</svg>
