<svg width="16" height="16" viewBox="0 0 16 16" fill="none" xmlns="http://www.w3.org/2000/svg">
<g clip-path="url(#clip0_134_43)">
<path d="M2 1C2 0.447715 2.44772 0 3 0H9.25736C10.053 0 10.8161 0.316071 11.3787 0.87868L13.1213 2.62132C13.6839 3.18393 14 3.94699 14 4.74264V15C14 15.5523 13.5523 16 13 16H3C2.44772 16 2 15.5523 2 15V1Z" fill="url(#paint0_linear_134_43)"/>
<path d="M2 1C2 0.447715 2.44772 0 3 0H9.25736C10.053 0 10.8161 0.316071 11.3787 0.87868L13.1213 2.62132C13.6839 3.18393 14 3.94699 14 4.74264V15C14 15.5523 13.5523 16 13 16H3C2.44772 16 2 15.5523 2 15V1Z" fill="url(#paint1_linear_134_43)"/>
<g filter="url(#filter0_di_134_43)">
<path d="M6.5 7.5V7.5C5.88713 7.80643 5.5 8.43283 5.5 9.11803V9.38405C5.5 9.45829 5.47051 9.52949 5.41801 9.58199L4.85355 10.1464C4.65829 10.3417 4.65829 10.6583 4.85355 10.8536L5.41801 11.418C5.47051 11.4705 5.5 11.5417 5.5 11.616V11.882C5.5 12.5672 5.88713 13.1936 6.5 13.5V13.5M9.5 13.5V13.5C10.1129 13.1936 10.5 12.5672 10.5 11.882V11.616C10.5 11.5417 10.5295 11.4705 10.582 11.418L11.1464 10.8536C11.3417 10.6583 11.3417 10.3417 11.1464 10.1464L10.582 9.58199C10.5295 9.52949 10.5 9.45829 10.5 9.38405V9.11803C10.5 8.43283 10.1129 7.80643 9.5 7.5V7.5" stroke="white" stroke-linecap="round" stroke-linejoin="round"/>
</g>
<g filter="url(#filter1_d_134_43)">
<path d="M9 0H9.25736C10.053 0 10.8161 0.316071 11.3787 0.87868L13.1213 2.62132C13.6839 3.18393 14 3.94699 14 4.74264V5H10C9.44772 5 9 4.55228 9 4V0Z" fill="url(#paint2_radial_134_43)" shape-rendering="crispEdges"/>
</g>
</g>
<defs>
<filter id="filter0_di_134_43" x="3.20715" y="6.49988" width="9.58569" height="9.00024" filterUnits="userSpaceOnUse" color-interpolation-filters="sRGB">
<feFlood flood-opacity="0" result="BackgroundImageFix"/>
<feColorMatrix in="SourceAlpha" type="matrix" values="0 0 0 0 0 0 0 0 0 0 0 0 0 0 0 0 0 0 127 0" result="hardAlpha"/>
<feOffset dy="0.5"/>
<feGaussianBlur stdDeviation="0.5"/>
<feComposite in2="hardAlpha" operator="out"/>
<feColorMatrix type="matrix" values="0 0 0 0 0 0 0 0 0 0 0 0 0 0 0 0 0 0 0.1 0"/>
<feBlend mode="normal" in2="BackgroundImageFix" result="effect1_dropShadow_134_43"/>
<feBlend mode="normal" in="SourceGraphic" in2="effect1_dropShadow_134_43" result="shape"/>
<feColorMatrix in="SourceAlpha" type="matrix" values="0 0 0 0 0 0 0 0 0 0 0 0 0 0 0 0 0 0 127 0" result="hardAlpha"/>
<feOffset dy="-0.5"/>
<feGaussianBlur stdDeviation="0.25"/>
<feComposite in2="hardAlpha" operator="arithmetic" k2="-1" k3="1"/>
<feColorMatrix type="matrix" values="0 0 0 0 0 0 0 0 0 0 0 0 0 0 0 0 0 0 0.25 0"/>
<feBlend mode="normal" in2="shape" result="effect2_innerShadow_134_43"/>
</filter>
<filter id="filter1_d_134_43" x="7" y="-1" width="9" height="9" filterUnits="userSpaceOnUse" color-interpolation-filters="sRGB">
<feFlood flood-opacity="0" result="BackgroundImageFix"/>
<feColorMatrix in="SourceAlpha" type="matrix" values="0 0 0 0 0 0 0 0 0 0 0 0 0 0 0 0 0 0 127 0" result="hardAlpha"/>
<feOffset dy="1"/>
<feGaussianBlur stdDeviation="1"/>
<feComposite in2="hardAlpha" operator="out"/>
<feColorMatrix type="matrix" values="0 0 0 0 0 0 0 0 0 0 0 0 0 0 0 0 0 0 0.1 0"/>
<feBlend mode="normal" in2="BackgroundImageFix" result="effect1_dropShadow_134_43"/>
<feBlend mode="normal" in="SourceGraphic" in2="effect1_dropShadow_134_43" result="shape"/>
</filter>
<linearGradient id="paint0_linear_134_43" x1="8" y1="0" x2="8" y2="16" gradientUnits="userSpaceOnUse">
<stop stop-color="#0061E0"/>
<stop offset="1" stop-color="#00A0E8"/>
</linearGradient>
<linearGradient id="paint1_linear_134_43" x1="8" y1="0" x2="8" y2="16" gradientUnits="userSpaceOnUse">
<stop stop-color="#0061E0"/>
<stop offset="1" stop-color="#00A0E8"/>
</linearGradient>
<radialGradient id="paint2_radial_134_43" cx="0" cy="0" r="1" gradientUnits="userSpaceOnUse" gradientTransform="translate(14) rotate(135) scale(7.07107 4.24264)">
<stop stop-color="#00A0E8" stop-opacity="0"/>
<stop offset="0.849468" stop-color="#00A0E8"/>
</radialGradient>
<clipPath id="clip0_134_43">
<rect width="16" height="16" fill="white"/>
</clipPath>
</defs>
</svg>
