<svg width="16" height="16" viewBox="0 0 16 16" fill="none" xmlns="http://www.w3.org/2000/svg">
<g clip-path="url(#clip0_137_370)">
<path d="M2 1C2 0.447715 2.44772 0 3 0H9.25736C10.053 0 10.8161 0.316071 11.3787 0.87868L13.1213 2.62132C13.6839 3.18393 14 3.94699 14 4.74264V15C14 15.5523 13.5523 16 13 16H3C2.44772 16 2 15.5523 2 15V1Z" fill="url(#paint0_linear_137_370)"/>
<g filter="url(#filter0_d_137_370)">
<path d="M9 0H9.25736C10.053 0 10.8161 0.316071 11.3787 0.87868L13.1213 2.62132C13.6839 3.18393 14 3.94699 14 4.74264V5H10C9.44772 5 9 4.55228 9 4V0Z" fill="url(#paint1_radial_137_370)" shape-rendering="crispEdges"/>
</g>
<g filter="url(#filter1_d_137_370)">
<path d="M8.5 6H7C6.44772 6 6 6.44772 6 7V7.5H8.25C8.38807 7.5 8.5 7.61193 8.5 7.75C8.5 7.88807 8.38807 8 8.25 8H5.5C4.67157 8 4 8.67157 4 9.5V10.5C4 11.3284 4.67157 12 5.5 12V11.25C5.5 10.4216 6.17157 9.75 7 9.75H9C9.55228 9.75 10 9.30228 10 8.75V7.5C10 6.67157 9.32843 6 8.5 6Z" fill="url(#paint2_linear_137_370)"/>
</g>
<rect x="7" y="6.375" width="0.75" height="0.75" rx="0.375" fill="white"/>
<g filter="url(#filter2_d_137_370)">
<path d="M7.5 14H9C9.55228 14 10 13.5523 10 13V12.5H7.75C7.61193 12.5 7.5 12.3881 7.5 12.25C7.5 12.1119 7.61193 12 7.75 12H10.5C11.3284 12 12 11.3284 12 10.5V9.5C12 8.67157 11.3284 8 10.5 8V8.75C10.5 9.57843 9.82843 10.25 9 10.25H7C6.44772 10.25 6 10.6977 6 11.25V12.5C6 13.3284 6.67157 14 7.5 14Z" fill="url(#paint3_linear_137_370)"/>
</g>
<rect x="8.25" y="12.85" width="0.75" height="0.75" rx="0.375" fill="white"/>
</g>
<defs>
<filter id="filter0_d_137_370" x="7" y="-1" width="9" height="9" filterUnits="userSpaceOnUse" color-interpolation-filters="sRGB">
<feFlood flood-opacity="0" result="BackgroundImageFix"/>
<feColorMatrix in="SourceAlpha" type="matrix" values="0 0 0 0 0 0 0 0 0 0 0 0 0 0 0 0 0 0 127 0" result="hardAlpha"/>
<feOffset dy="1"/>
<feGaussianBlur stdDeviation="1"/>
<feComposite in2="hardAlpha" operator="out"/>
<feColorMatrix type="matrix" values="0 0 0 0 0 0 0 0 0 0 0 0 0 0 0 0 0 0 0.1 0"/>
<feBlend mode="normal" in2="BackgroundImageFix" result="effect1_dropShadow_137_370"/>
<feBlend mode="normal" in="SourceGraphic" in2="effect1_dropShadow_137_370" result="shape"/>
</filter>
<filter id="filter1_d_137_370" x="3" y="5.5" width="8" height="8" filterUnits="userSpaceOnUse" color-interpolation-filters="sRGB">
<feFlood flood-opacity="0" result="BackgroundImageFix"/>
<feColorMatrix in="SourceAlpha" type="matrix" values="0 0 0 0 0 0 0 0 0 0 0 0 0 0 0 0 0 0 127 0" result="hardAlpha"/>
<feOffset dy="0.5"/>
<feGaussianBlur stdDeviation="0.5"/>
<feComposite in2="hardAlpha" operator="out"/>
<feColorMatrix type="matrix" values="0 0 0 0 0 0 0 0 0 0 0 0 0 0 0 0 0 0 0.1 0"/>
<feBlend mode="normal" in2="BackgroundImageFix" result="effect1_dropShadow_137_370"/>
<feBlend mode="normal" in="SourceGraphic" in2="effect1_dropShadow_137_370" result="shape"/>
</filter>
<filter id="filter2_d_137_370" x="5" y="7.5" width="8" height="8" filterUnits="userSpaceOnUse" color-interpolation-filters="sRGB">
<feFlood flood-opacity="0" result="BackgroundImageFix"/>
<feColorMatrix in="SourceAlpha" type="matrix" values="0 0 0 0 0 0 0 0 0 0 0 0 0 0 0 0 0 0 127 0" result="hardAlpha"/>
<feOffset dy="0.5"/>
<feGaussianBlur stdDeviation="0.5"/>
<feComposite in2="hardAlpha" operator="out"/>
<feColorMatrix type="matrix" values="0 0 0 0 0 0 0 0 0 0 0 0 0 0 0 0 0 0 0.1 0"/>
<feBlend mode="normal" in2="BackgroundImageFix" result="effect1_dropShadow_137_370"/>
<feBlend mode="normal" in="SourceGraphic" in2="effect1_dropShadow_137_370" result="shape"/>
</filter>
<linearGradient id="paint0_linear_137_370" x1="8" y1="0" x2="8" y2="16" gradientUnits="userSpaceOnUse">
<stop stop-color="#C0D9FF"/>
<stop offset="1" stop-color="white"/>
</linearGradient>
<radialGradient id="paint1_radial_137_370" cx="0" cy="0" r="1" gradientUnits="userSpaceOnUse" gradientTransform="translate(14) rotate(135) scale(7.07107 4.24264)">
<stop stop-color="white" stop-opacity="0"/>
<stop offset="0.849468" stop-color="white"/>
</radialGradient>
<linearGradient id="paint2_linear_137_370" x1="7" y1="6" x2="7" y2="12" gradientUnits="userSpaceOnUse">
<stop stop-color="#00A0E8"/>
<stop offset="0.947917" stop-color="#0061E0"/>
</linearGradient>
<linearGradient id="paint3_linear_137_370" x1="9" y1="14" x2="9" y2="8" gradientUnits="userSpaceOnUse">
<stop stop-color="#FF6040"/>
<stop offset="1" stop-color="#FFC000"/>
</linearGradient>
<clipPath id="clip0_137_370">
<rect width="16" height="16" fill="white"/>
</clipPath>
</defs>
</svg>
