<svg width="16" height="16" viewBox="0 0 16 16" fill="none" xmlns="http://www.w3.org/2000/svg">
<g clip-path="url(#clip0_137_366)">
<path d="M2 1C2 0.447715 2.44772 0 3 0H9.25736C10.053 0 10.8161 0.316071 11.3787 0.87868L13.1213 2.62132C13.6839 3.18393 14 3.94699 14 4.74264V15C14 15.5523 13.5523 16 13 16H3C2.44772 16 2 15.5523 2 15V1Z" fill="url(#paint0_linear_137_366)"/>
<g filter="url(#filter0_di_137_366)">
<path d="M6.5 10.5V10.5C6.5 9.94772 6.05228 9.5 5.5 9.5V9.5C4.94772 9.5 4.5 9.94772 4.5 10.5V10.5C4.5 11.0523 4.94772 11.5 5.5 11.5V11.5C6.05228 11.5 6.5 11.0523 6.5 10.5V10.5ZM6.5 10.5H8M8 10.5V10C8 9.17157 8.67157 8.5 9.5 8.5V8.5M8 10.5V11C8 11.8284 8.67157 12.5 9.5 12.5V12.5M9.5 8.5V8.5C9.5 9.05228 9.94772 9.5 10.5 9.5V9.5C11.0523 9.5 11.5 9.05228 11.5 8.5V8.5C11.5 7.94772 11.0523 7.5 10.5 7.5V7.5C9.94772 7.5 9.5 7.94772 9.5 8.5V8.5ZM9.5 12.5V12.5C9.5 11.9477 9.94772 11.5 10.5 11.5V11.5C11.0523 11.5 11.5 11.9477 11.5 12.5V12.5C11.5 13.0523 11.0523 13.5 10.5 13.5V13.5C9.94772 13.5 9.5 13.0523 9.5 12.5V12.5Z" stroke="white" stroke-linecap="round" stroke-linejoin="round" shape-rendering="crispEdges"/>
</g>
<g filter="url(#filter1_d_137_366)">
<path d="M9 0H9.25736C10.053 0 10.8161 0.316071 11.3787 0.87868L13.1213 2.62132C13.6839 3.18393 14 3.94699 14 4.74264V5H10C9.44772 5 9 4.55228 9 4V0Z" fill="url(#paint1_radial_137_366)" shape-rendering="crispEdges"/>
</g>
</g>
<defs>
<filter id="filter0_di_137_366" x="3" y="6.5" width="10" height="9" filterUnits="userSpaceOnUse" color-interpolation-filters="sRGB">
<feFlood flood-opacity="0" result="BackgroundImageFix"/>
<feColorMatrix in="SourceAlpha" type="matrix" values="0 0 0 0 0 0 0 0 0 0 0 0 0 0 0 0 0 0 127 0" result="hardAlpha"/>
<feOffset dy="0.5"/>
<feGaussianBlur stdDeviation="0.5"/>
<feComposite in2="hardAlpha" operator="out"/>
<feColorMatrix type="matrix" values="0 0 0 0 0 0 0 0 0 0 0 0 0 0 0 0 0 0 0.1 0"/>
<feBlend mode="normal" in2="BackgroundImageFix" result="effect1_dropShadow_137_366"/>
<feBlend mode="normal" in="SourceGraphic" in2="effect1_dropShadow_137_366" result="shape"/>
<feColorMatrix in="SourceAlpha" type="matrix" values="0 0 0 0 0 0 0 0 0 0 0 0 0 0 0 0 0 0 127 0" result="hardAlpha"/>
<feOffset dy="-0.5"/>
<feGaussianBlur stdDeviation="0.25"/>
<feComposite in2="hardAlpha" operator="arithmetic" k2="-1" k3="1"/>
<feColorMatrix type="matrix" values="0 0 0 0 0 0 0 0 0 0 0 0 0 0 0 0 0 0 0.15 0"/>
<feBlend mode="normal" in2="shape" result="effect2_innerShadow_137_366"/>
</filter>
<filter id="filter1_d_137_366" x="7" y="-1" width="9" height="9" filterUnits="userSpaceOnUse" color-interpolation-filters="sRGB">
<feFlood flood-opacity="0" result="BackgroundImageFix"/>
<feColorMatrix in="SourceAlpha" type="matrix" values="0 0 0 0 0 0 0 0 0 0 0 0 0 0 0 0 0 0 127 0" result="hardAlpha"/>
<feOffset dy="1"/>
<feGaussianBlur stdDeviation="1"/>
<feComposite in2="hardAlpha" operator="out"/>
<feColorMatrix type="matrix" values="0 0 0 0 0 0 0 0 0 0 0 0 0 0 0 0 0 0 0.1 0"/>
<feBlend mode="normal" in2="BackgroundImageFix" result="effect1_dropShadow_137_366"/>
<feBlend mode="normal" in="SourceGraphic" in2="effect1_dropShadow_137_366" result="shape"/>
</filter>
<linearGradient id="paint0_linear_137_366" x1="8" y1="0" x2="8" y2="16" gradientUnits="userSpaceOnUse">
<stop stop-color="#40A060"/>
<stop offset="1" stop-color="#60FF80"/>
</linearGradient>
<radialGradient id="paint1_radial_137_366" cx="0" cy="0" r="1" gradientUnits="userSpaceOnUse" gradientTransform="translate(14) rotate(135) scale(7.07107 4.24264)">
<stop stop-color="#60FF80" stop-opacity="0"/>
<stop offset="0.849468" stop-color="#60FF80"/>
</radialGradient>
<clipPath id="clip0_137_366">
<rect width="16" height="16" fill="white"/>
</clipPath>
</defs>
</svg>
