<svg width="16" height="16" viewBox="0 0 16 16" fill="none" xmlns="http://www.w3.org/2000/svg">
<g clip-path="url(#clip0_136_349)">
<path d="M2 1C2 0.447715 2.44772 0 3 0H9.25736C10.053 0 10.8161 0.316071 11.3787 0.87868L13.1213 2.62132C13.6839 3.18393 14 3.94699 14 4.74264V15C14 15.5523 13.5523 16 13 16H3C2.44772 16 2 15.5523 2 15V1Z" fill="url(#paint0_linear_136_349)"/>
<g filter="url(#filter0_i_136_349)">
<path fill-rule="evenodd" clip-rule="evenodd" d="M7.39647 6.41857C7.40545 6.37936 7.41189 6.3394 7.419 6.29981C7.44872 6.13423 7.59287 6 7.77728 6H7.92197H10.5455C10.7463 6 10.9091 6.16281 10.9091 6.36364V7.81818C10.9091 8.01901 10.7463 8.18182 10.5455 8.18182H9.2436C9.01413 8.18182 8.84202 8.39175 8.88702 8.61677L9.35648 10.9641C9.36479 11.0056 9.36832 11.0471 9.36742 11.088C9.36613 11.1462 9.368 11.2049 9.38281 11.2611C9.42964 11.4389 9.45458 11.6256 9.45458 11.8182C9.45458 13.0232 8.47775 14 7.27276 14C6.06778 14 5.09094 13.0232 5.09094 11.8182C5.09094 10.6132 6.06778 9.63636 7.27276 9.63636C7.30414 9.63636 7.33537 9.63703 7.36644 9.63834C7.64449 9.65008 7.91287 9.41393 7.86158 9.14039L7.3924 6.63809C7.37823 6.5625 7.38051 6.48821 7.39647 6.41857Z" fill="url(#paint1_linear_136_349)"/>
</g>
<g filter="url(#filter1_d_136_349)">
<path d="M9 0H9.25736C10.053 0 10.8161 0.316071 11.3787 0.87868L13.1213 2.62132C13.6839 3.18393 14 3.94699 14 4.74264V5H10C9.44772 5 9 4.55228 9 4V0Z" fill="url(#paint2_radial_136_349)" shape-rendering="crispEdges"/>
</g>
</g>
<defs>
<filter id="filter0_i_136_349" x="5.09094" y="6" width="5.81824" height="8.18182" filterUnits="userSpaceOnUse" color-interpolation-filters="sRGB">
<feFlood flood-opacity="0" result="BackgroundImageFix"/>
<feBlend mode="normal" in="SourceGraphic" in2="BackgroundImageFix" result="shape"/>
<feColorMatrix in="SourceAlpha" type="matrix" values="0 0 0 0 0 0 0 0 0 0 0 0 0 0 0 0 0 0 127 0" result="hardAlpha"/>
<feOffset dy="0.363636"/>
<feGaussianBlur stdDeviation="0.0909091"/>
<feComposite in2="hardAlpha" operator="arithmetic" k2="-1" k3="1"/>
<feColorMatrix type="matrix" values="0 0 0 0 1 0 0 0 0 0.501961 0 0 0 0 0.752941 0 0 0 0.25 0"/>
<feBlend mode="normal" in2="shape" result="effect1_innerShadow_136_349"/>
</filter>
<filter id="filter1_d_136_349" x="7" y="-1" width="9" height="9" filterUnits="userSpaceOnUse" color-interpolation-filters="sRGB">
<feFlood flood-opacity="0" result="BackgroundImageFix"/>
<feColorMatrix in="SourceAlpha" type="matrix" values="0 0 0 0 0 0 0 0 0 0 0 0 0 0 0 0 0 0 127 0" result="hardAlpha"/>
<feOffset dy="1"/>
<feGaussianBlur stdDeviation="1"/>
<feComposite in2="hardAlpha" operator="out"/>
<feColorMatrix type="matrix" values="0 0 0 0 0 0 0 0 0 0 0 0 0 0 0 0 0 0 0.1 0"/>
<feBlend mode="normal" in2="BackgroundImageFix" result="effect1_dropShadow_136_349"/>
<feBlend mode="normal" in="SourceGraphic" in2="effect1_dropShadow_136_349" result="shape"/>
</filter>
<linearGradient id="paint0_linear_136_349" x1="8" y1="0" x2="8" y2="16" gradientUnits="userSpaceOnUse">
<stop stop-color="#C040A0"/>
<stop offset="1" stop-color="#FF40A0"/>
</linearGradient>
<linearGradient id="paint1_linear_136_349" x1="8.00003" y1="6" x2="8.00003" y2="14" gradientUnits="userSpaceOnUse">
<stop stop-color="#FF85CF"/>
<stop offset="1" stop-color="white"/>
</linearGradient>
<radialGradient id="paint2_radial_136_349" cx="0" cy="0" r="1" gradientUnits="userSpaceOnUse" gradientTransform="translate(14) rotate(135) scale(7.07107 4.24264)">
<stop stop-color="#FF40A0" stop-opacity="0"/>
<stop offset="0.849468" stop-color="#FF40A0"/>
</radialGradient>
<clipPath id="clip0_136_349">
<rect width="16" height="16" fill="white"/>
</clipPath>
</defs>
</svg>
