<svg width="16" height="16" viewBox="0 0 16 16" fill="none" xmlns="http://www.w3.org/2000/svg">
<g clip-path="url(#clip0_136_361)">
<path d="M0 2C0 1.44772 0.447715 1 1 1H6.46482C6.79917 1 7.1114 1.1671 7.29687 1.4453L8.70313 3.5547C8.8886 3.8329 9.20083 4 9.53518 4H10C10.5523 4 11 4.44772 11 5V8C11 8.55228 10.5523 9 10 9H1C0.447715 9 0 8.55228 0 8V2Z" fill="url(#paint0_linear_136_361)"/>
<rect y="4" width="16" height="11" rx="1" fill="url(#paint1_linear_136_361)"/>
<g filter="url(#filter0_d_136_361)">
<path d="M16.5 12.5L15.5 11.5L14.5 12.5L13.5 11.5L12.5 12.5L11.5 11.5L10.5 12.5L9.5 11.5L8.5 12.5L7.5 11.5L6.5 12.5L5.5 11.5L4.5 12.5L3.5 11.5L2.5 12.5L1.5 11.5L0.5 12.5L-0.5 11.5" stroke="url(#paint2_linear_136_361)" stroke-linecap="round" stroke-linejoin="round"/>
</g>
<g filter="url(#filter1_i_136_361)">
<rect x="13" y="5" width="2" height="2" rx="1" fill="#C00040"/>
</g>
</g>
<defs>
<filter id="filter0_d_136_361" x="-2" y="10.5" width="20" height="4" filterUnits="userSpaceOnUse" color-interpolation-filters="sRGB">
<feFlood flood-opacity="0" result="BackgroundImageFix"/>
<feColorMatrix in="SourceAlpha" type="matrix" values="0 0 0 0 0 0 0 0 0 0 0 0 0 0 0 0 0 0 127 0" result="hardAlpha"/>
<feOffset dy="0.5"/>
<feGaussianBlur stdDeviation="0.5"/>
<feComposite in2="hardAlpha" operator="out"/>
<feColorMatrix type="matrix" values="0 0 0 0 0 0 0 0 0 0 0 0 0 0 0 0 0 0 0.1 0"/>
<feBlend mode="normal" in2="BackgroundImageFix" result="effect1_dropShadow_136_361"/>
<feBlend mode="normal" in="SourceGraphic" in2="effect1_dropShadow_136_361" result="shape"/>
</filter>
<filter id="filter1_i_136_361" x="13" y="5" width="2" height="2.5" filterUnits="userSpaceOnUse" color-interpolation-filters="sRGB">
<feFlood flood-opacity="0" result="BackgroundImageFix"/>
<feBlend mode="normal" in="SourceGraphic" in2="BackgroundImageFix" result="shape"/>
<feColorMatrix in="SourceAlpha" type="matrix" values="0 0 0 0 0 0 0 0 0 0 0 0 0 0 0 0 0 0 127 0" result="hardAlpha"/>
<feOffset dy="0.5"/>
<feGaussianBlur stdDeviation="0.5"/>
<feComposite in2="hardAlpha" operator="arithmetic" k2="-1" k3="1"/>
<feColorMatrix type="matrix" values="0 0 0 0 0 0 0 0 0 0 0 0 0 0 0 0 0 0 0.1 0"/>
<feBlend mode="normal" in2="shape" result="effect1_innerShadow_136_361"/>
</filter>
<linearGradient id="paint0_linear_136_361" x1="5.5" y1="1" x2="5.5" y2="4" gradientUnits="userSpaceOnUse">
<stop stop-color="#FF6040"/>
<stop offset="1" stop-color="#C00040"/>
</linearGradient>
<linearGradient id="paint1_linear_136_361" x1="8" y1="4" x2="8" y2="15" gradientUnits="userSpaceOnUse">
<stop stop-color="#FF6040"/>
<stop offset="1" stop-color="#C00040"/>
</linearGradient>
<linearGradient id="paint2_linear_136_361" x1="8.5" y1="11" x2="8.5" y2="13" gradientUnits="userSpaceOnUse">
<stop stop-color="#B9CCCF"/>
<stop offset="1" stop-color="#A49B8C"/>
</linearGradient>
<clipPath id="clip0_136_361">
<rect width="16" height="16" fill="white"/>
</clipPath>
</defs>
</svg>
