<svg width="16" height="16" viewBox="0 0 16 16" fill="none" xmlns="http://www.w3.org/2000/svg">
<path d="M0 2C0 1.44772 0.447715 1 1 1H6.46482C6.79917 1 7.1114 1.1671 7.29687 1.4453L8.70313 3.5547C8.8886 3.8329 9.20083 4 9.53518 4H10C10.5523 4 11 4.44772 11 5V8C11 8.55228 10.5523 9 10 9H1C0.447715 9 0 8.55228 0 8V2Z" fill="url(#paint0_linear_134_126)"/>
<rect y="4" width="16" height="11" rx="1" fill="url(#paint1_linear_134_126)"/>
<g filter="url(#filter0_i_134_126)">
<path fill-rule="evenodd" clip-rule="evenodd" d="M7.39647 5.91857C7.40545 5.87936 7.41189 5.8394 7.419 5.79981C7.44872 5.63423 7.59287 5.5 7.77728 5.5H7.92197H10.5455C10.7463 5.5 10.9091 5.66281 10.9091 5.86364V7.31818C10.9091 7.51901 10.7463 7.68182 10.5455 7.68182H9.2436C9.01413 7.68182 8.84202 7.89175 8.88702 8.11677L9.35648 10.4641C9.36479 10.5056 9.36832 10.5471 9.36742 10.588C9.36613 10.6462 9.368 10.7049 9.38281 10.7611C9.42964 10.9389 9.45458 11.1256 9.45458 11.3182C9.45458 12.5232 8.47775 13.5 7.27276 13.5C6.06778 13.5 5.09094 12.5232 5.09094 11.3182C5.09094 10.1132 6.06778 9.13636 7.27276 9.13636C7.30414 9.13636 7.33537 9.13703 7.36644 9.13834C7.64449 9.15008 7.91287 8.91393 7.86158 8.64039L7.3924 6.13809C7.37823 6.0625 7.38051 5.98821 7.39647 5.91857Z" fill="url(#paint2_linear_134_126)"/>
</g>
<defs>
<filter id="filter0_i_134_126" x="5.09094" y="5.5" width="5.81824" height="8.18182" filterUnits="userSpaceOnUse" color-interpolation-filters="sRGB">
<feFlood flood-opacity="0" result="BackgroundImageFix"/>
<feBlend mode="normal" in="SourceGraphic" in2="BackgroundImageFix" result="shape"/>
<feColorMatrix in="SourceAlpha" type="matrix" values="0 0 0 0 0 0 0 0 0 0 0 0 0 0 0 0 0 0 127 0" result="hardAlpha"/>
<feOffset dy="0.363636"/>
<feGaussianBlur stdDeviation="0.0909091"/>
<feComposite in2="hardAlpha" operator="arithmetic" k2="-1" k3="1"/>
<feColorMatrix type="matrix" values="0 0 0 0 1 0 0 0 0 0.501961 0 0 0 0 0.752941 0 0 0 0.25 0"/>
<feBlend mode="normal" in2="shape" result="effect1_innerShadow_134_126"/>
</filter>
<linearGradient id="paint0_linear_134_126" x1="5.5" y1="1" x2="5.5" y2="4" gradientUnits="userSpaceOnUse">
<stop stop-color="#C040A0"/>
<stop offset="1" stop-color="#A02070"/>
</linearGradient>
<linearGradient id="paint1_linear_134_126" x1="8" y1="4" x2="8" y2="15" gradientUnits="userSpaceOnUse">
<stop stop-color="#FF40A0"/>
<stop offset="1" stop-color="#C040A0"/>
</linearGradient>
<linearGradient id="paint2_linear_134_126" x1="8.00003" y1="5.5" x2="8.00003" y2="13.5" gradientUnits="userSpaceOnUse">
<stop stop-color="white"/>
<stop offset="1" stop-color="#FF85CF"/>
</linearGradient>
</defs>
</svg>
