<svg width="72" height="72" viewBox="0 0 72 72" fill="none" xmlns="http://www.w3.org/2000/svg">
<g clip-path="url(#clip0_1355_156)">
<g filter="url(#filter0_d_1355_156)">
<rect x="4" y="4" width="64" height="64" rx="16" fill="url(#paint0_linear_1355_156)"/>
</g>
<mask id="mask0_1355_156" style="mask-type:alpha" maskUnits="userSpaceOnUse" x="4" y="4" width="64" height="64">
<rect x="4" y="4" width="64" height="64" rx="16" fill="white"/>
</mask>
<g mask="url(#mask0_1355_156)">
<path d="M26 20.0829C29.7128 17.9393 34.2872 17.9393 38 20.0829L42.7846 22.8453C46.4974 24.9889 48.7846 28.9504 48.7846 33.2376V38.7624C48.7846 43.0496 46.4974 47.0111 42.7846 49.1547L38 51.9171C34.2872 54.0607 29.7128 54.0607 26 51.9171L21.2154 49.1547C17.5026 47.0111 15.2154 43.0496 15.2154 38.7624V33.2376C15.2154 28.9504 17.5026 24.9889 21.2154 22.8453L26 20.0829Z" stroke="url(#paint1_linear_1355_156)" stroke-width="8"/>
<path d="M34 20.0829C37.7128 17.9393 42.2872 17.9393 46 20.0829L50.7846 22.8453C54.4974 24.9889 56.7846 28.9504 56.7846 33.2376V38.7624C56.7846 43.0496 54.4974 47.0111 50.7846 49.1547L46 51.9171C42.2872 54.0607 37.7128 54.0607 34 51.9171L29.2154 49.1547C25.5026 47.0111 23.2154 43.0496 23.2154 38.7624V33.2376C23.2154 28.9504 25.5026 24.9889 29.2154 22.8453L34 20.0829Z" stroke="url(#paint2_linear_1355_156)" stroke-width="8"/>
<mask id="mask1_1355_156" style="mask-type:alpha" maskUnits="userSpaceOnUse" x="8" y="12" width="48" height="24">
<rect x="8" y="12" width="48" height="24" fill="#D9D9D9"/>
</mask>
<g mask="url(#mask1_1355_156)">
<path d="M26 20.0829C29.7128 17.9393 34.2872 17.9393 38 20.0829L42.7846 22.8453C46.4974 24.9889 48.7846 28.9504 48.7846 33.2376V38.7624C48.7846 43.0496 46.4974 47.0111 42.7846 49.1547L38 51.9171C34.2872 54.0607 29.7128 54.0607 26 51.9171L21.2154 49.1547C17.5026 47.0111 15.2154 43.0496 15.2154 38.7624V33.2376C15.2154 28.9504 17.5026 24.9889 21.2154 22.8453L26 20.0829Z" stroke="url(#paint3_linear_1355_156)" stroke-width="8"/>
</g>
</g>
</g>
<defs>
<filter id="filter0_d_1355_156" x="0" y="0" width="72" height="72" filterUnits="userSpaceOnUse" color-interpolation-filters="sRGB">
<feFlood flood-opacity="0" result="BackgroundImageFix"/>
<feColorMatrix in="SourceAlpha" type="matrix" values="0 0 0 0 0 0 0 0 0 0 0 0 0 0 0 0 0 0 127 0" result="hardAlpha"/>
<feOffset/>
<feGaussianBlur stdDeviation="2"/>
<feComposite in2="hardAlpha" operator="out"/>
<feColorMatrix type="matrix" values="0 0 0 0 0 0 0 0 0 0 0 0 0 0 0 0 0 0 0.1 0"/>
<feBlend mode="normal" in2="BackgroundImageFix" result="effect1_dropShadow_1355_156"/>
<feBlend mode="normal" in="SourceGraphic" in2="effect1_dropShadow_1355_156" result="shape"/>
</filter>
<linearGradient id="paint0_linear_1355_156" x1="36" y1="4" x2="36" y2="68" gradientUnits="userSpaceOnUse">
<stop stop-color="white"/>
<stop offset="1" stop-color="#F0F6FF"/>
</linearGradient>
<linearGradient id="paint1_linear_1355_156" x1="32" y1="12" x2="32" y2="60" gradientUnits="userSpaceOnUse">
<stop stop-color="#009AFF"/>
<stop offset="1" stop-color="#0061E0"/>
</linearGradient>
<linearGradient id="paint2_linear_1355_156" x1="40" y1="12" x2="40" y2="60" gradientUnits="userSpaceOnUse">
<stop stop-color="#FFE860"/>
<stop offset="1" stop-color="#FFC000"/>
</linearGradient>
<linearGradient id="paint3_linear_1355_156" x1="32" y1="12" x2="32" y2="60" gradientUnits="userSpaceOnUse">
<stop stop-color="#009AFF"/>
<stop offset="1" stop-color="#0061E0"/>
</linearGradient>
<clipPath id="clip0_1355_156">
<rect width="72" height="72" fill="white"/>
</clipPath>
</defs>
</svg>
