<svg width="72" height="72" viewBox="0 0 72 72" fill="none" xmlns="http://www.w3.org/2000/svg">
<g clip-path="url(#clip0_548_663)">
<g filter="url(#filter0_d_548_663)">
<rect x="4" y="4" width="64" height="64" rx="16" fill="url(#paint0_linear_548_663)"/>
</g>
<mask id="mask0_548_663" style="mask-type:alpha" maskUnits="userSpaceOnUse" x="4" y="4" width="64" height="64">
<rect x="4" y="4" width="64" height="64" rx="16" fill="white"/>
</mask>
<g mask="url(#mask0_548_663)">
<rect x="36" y="36" width="28" height="28" rx="12" fill="#D9D9D9"/>
<rect x="36" y="36" width="28" height="28" rx="12" fill="url(#paint1_linear_548_663)"/>
<rect x="42" y="44" width="16" height="4" rx="2" fill="white" fill-opacity="0.75"/>
<rect x="42" y="52" width="16" height="4" rx="2" fill="white" fill-opacity="0.75"/>
<g filter="url(#filter1_i_548_663)">
<path d="M16 22H28M22 16V28M44 22H56M16 44L28 56M28 44L16 56" stroke="#333333" stroke-width="4" stroke-linecap="round" stroke-linejoin="round"/>
</g>
</g>
</g>
<defs>
<filter id="filter0_d_548_663" x="0" y="0" width="72" height="72" filterUnits="userSpaceOnUse" color-interpolation-filters="sRGB">
<feFlood flood-opacity="0" result="BackgroundImageFix"/>
<feColorMatrix in="SourceAlpha" type="matrix" values="0 0 0 0 0 0 0 0 0 0 0 0 0 0 0 0 0 0 127 0" result="hardAlpha"/>
<feOffset/>
<feGaussianBlur stdDeviation="2"/>
<feComposite in2="hardAlpha" operator="out"/>
<feColorMatrix type="matrix" values="0 0 0 0 0 0 0 0 0 0 0 0 0 0 0 0 0 0 0.1 0"/>
<feBlend mode="normal" in2="BackgroundImageFix" result="effect1_dropShadow_548_663"/>
<feBlend mode="normal" in="SourceGraphic" in2="effect1_dropShadow_548_663" result="shape"/>
</filter>
<filter id="filter1_i_548_663" x="14" y="14" width="44" height="48" filterUnits="userSpaceOnUse" color-interpolation-filters="sRGB">
<feFlood flood-opacity="0" result="BackgroundImageFix"/>
<feBlend mode="normal" in="SourceGraphic" in2="BackgroundImageFix" result="shape"/>
<feColorMatrix in="SourceAlpha" type="matrix" values="0 0 0 0 0 0 0 0 0 0 0 0 0 0 0 0 0 0 127 0" result="hardAlpha"/>
<feOffset dy="4"/>
<feGaussianBlur stdDeviation="2"/>
<feComposite in2="hardAlpha" operator="arithmetic" k2="-1" k3="1"/>
<feColorMatrix type="matrix" values="0 0 0 0 0 0 0 0 0 0 0 0 0 0 0 0 0 0 0.25 0"/>
<feBlend mode="normal" in2="shape" result="effect1_innerShadow_548_663"/>
</filter>
<linearGradient id="paint0_linear_548_663" x1="36" y1="4" x2="36" y2="68" gradientUnits="userSpaceOnUse">
<stop stop-color="white"/>
<stop offset="1" stop-color="#F0F6FF"/>
</linearGradient>
<linearGradient id="paint1_linear_548_663" x1="50" y1="36" x2="50" y2="64" gradientUnits="userSpaceOnUse">
<stop stop-color="#00A0E8"/>
<stop offset="1" stop-color="#0061E0"/>
</linearGradient>
<clipPath id="clip0_548_663">
<rect width="72" height="72" fill="white"/>
</clipPath>
</defs>
</svg>
