<svg width="16" height="16" viewBox="0 0 16 16" fill="none" xmlns="http://www.w3.org/2000/svg">
<g clip-path="url(#clip0_91_1172)">
<path d="M10.5 3.5L4.75 9.25C4.05964 9.94036 4.05964 11.0596 4.75 11.75V11.75C5.44036 12.4404 6.55964 12.4404 7.25 11.75L13.5 5.5C14.6046 4.39543 14.6046 2.60457 13.5 1.5V1.5C12.3954 0.39543 10.6046 0.395431 9.5 1.5L2.25 8.75C0.731216 10.2688 0.731218 12.7312 2.25 14.25V14.25C3.76878 15.7688 6.23122 15.7688 7.75 14.25L11.9393 10.0607C12.6185 9.38153 13.5396 9 14.5 9V9" stroke="white" stroke-linecap="round" stroke-linejoin="round"/>
</g>
<defs>
<clipPath id="clip0_91_1172">
<rect width="16" height="16" fill="white"/>
</clipPath>
</defs>
</svg>
