<svg width="16" height="16" viewBox="0 0 16 16" fill="none" xmlns="http://www.w3.org/2000/svg">
<path fill-rule="evenodd" clip-rule="evenodd" d="M4.77297 3.63156C4.85972 3.31349 4.62028 3 4.29059 3H3C1.34315 3 0 4.34315 0 6V10C0 11.6569 1.34315 13 3 13H4.33395C4.42563 13 4.49905 12.9255 4.50917 12.8344C4.55863 12.3893 4.21022 12 3.76239 12H3C1.89543 12 1 11.1046 1 10V6C1 4.89543 1.89543 4 3 4H4.29059C4.51607 4 4.71364 3.84909 4.77297 3.63156ZM6.28416 12C6.18564 12 6.10288 12.0741 6.092 12.172C6.06938 12.3756 6.33731 12.4699 6.44727 12.2971C6.52918 12.1684 6.43672 12 6.28416 12ZM9.28063 3.65811C9.21257 3.86228 9.0215 4 8.80629 4H6.8819C6.55221 4 6.31277 3.68651 6.39952 3.36844C6.45884 3.15091 6.65642 3 6.8819 3H7.91886H8.80629C9.14757 3 9.38855 3.33435 9.28063 3.65811ZM8.26697 12.2316C8.35875 12.0873 8.51785 12 8.6888 12H11C12.1046 12 13 11.1046 13 10V6C13 4.89543 12.1046 4 11 4C10.8759 4 10.7883 3.87845 10.8276 3.76075L10.923 3.47434C11.0073 3.22148 11.2176 2.99593 11.4807 3.03831C12.9091 3.26836 14 4.50678 14 6V10C14 11.6569 12.6569 13 11 13H8.6888C8.29426 13 8.05515 12.5644 8.26697 12.2316ZM16 6.5C16 6.22386 15.7761 6 15.5 6C15.2239 6 15 6.22386 15 6.5V9.5C15 9.77614 15.2239 10 15.5 10C15.7761 10 16 9.77614 16 9.5V6.5Z" fill="white"/>
<path d="M9.5 3H6.5L5 8.5H6.5L6 13L9.5 7.5H8L9.5 3Z" fill="white" stroke="white" stroke-linecap="round" stroke-linejoin="round"/>
<rect x="2" y="5" width="1" height="6" rx="0.5" fill="white" fill-opacity="0.5"/>
</svg>
