<svg width="16" height="16" viewBox="0 0 16 16" fill="none" xmlns="http://www.w3.org/2000/svg">
<g clip-path="url(#clip0_91_772)">
<path d="M0.5 15.5L15.5 0.5" stroke="white" stroke-linecap="round" stroke-linejoin="round"/>
<mask id="mask0_91_772" style="mask-type:alpha" maskUnits="userSpaceOnUse" x="0" y="0" width="16" height="16">
<path d="M7.5 0.5H8.5M13.5 12.5L12.1864 5.93203C11.7873 3.93645 10.0351 2.5 8 2.5V2.5C5.9649 2.5 4.21271 3.93645 3.81359 5.93203L2.5 12.5M13.5 12.5H15M13.5 12.5H2.5M1 12.5H2.5M6.5 14.5H9.5V14.5C9.5 15.0523 9.05228 15.5 8.5 15.5H7.5C6.94772 15.5 6.5 15.0523 6.5 14.5V14.5Z" stroke="white" stroke-linecap="round" stroke-linejoin="round"/>
</mask>
<g mask="url(#mask0_91_772)">
<path fill-rule="evenodd" clip-rule="evenodd" d="M10.4866 3.39204C10.7042 3.17443 10.681 2.81283 10.4157 2.65684C9.70266 2.23755 8.87472 2 8 2C5.72656 2 3.76916 3.60468 3.3233 5.83398L2.46682 10.1164C2.3698 10.6015 2.96085 10.9178 3.31066 10.568C3.38046 10.4982 3.42804 10.4093 3.4474 10.3125L4.30388 6.03009C4.65626 4.26822 6.20324 3 8 3C8.65457 3 9.27599 3.16832 9.81858 3.4675C10.036 3.5874 10.3111 3.56762 10.4866 3.39204ZM5.97487 12.1464C6.06864 12.0527 6.19581 12 6.32842 12H11.6703C12.3013 12 12.7746 11.4227 12.6509 10.8039L11.8171 6.63523C11.7827 6.46287 11.8366 6.2847 11.9609 6.16041L12.3735 5.74778C12.4755 5.64582 12.6484 5.69258 12.6767 5.83397L13.7491 11.1961C13.8426 11.6635 14.253 12 14.7297 12H15C15.2761 12 15.5 12.2239 15.5 12.5C15.5 12.7761 15.2761 13 15 13H13.5H6.32842C5.88297 13 5.65989 12.4614 5.97487 12.1464ZM0.663426 12.8698C0.782697 12.9784 0.959769 12.9189 1.07384 12.8048L1.25736 12.6213C1.48664 12.392 1.32425 12 1 12C0.723858 12 0.5 12.2239 0.5 12.5C0.5 12.6465 0.563017 12.7783 0.663426 12.8698ZM7.5 0C7.22386 0 7 0.223858 7 0.5C7 0.776142 7.22386 1 7.5 1H8.5C8.77614 1 9 0.776142 9 0.5C9 0.223858 8.77614 0 8.5 0H7.5ZM6.5 14C6.22386 14 6 14.2239 6 14.5C6 15.3284 6.67157 16 7.5 16H8.5C9.24362 16 9.86085 15.4589 9.97944 14.749C10.0022 14.6128 9.88807 14.5 9.75 14.5C9.61193 14.5 9.5 14.3881 9.5 14.25C9.5 14.1119 9.38807 14 9.25 14H6.5Z" fill="white" fill-opacity="0.5"/>
</g>
</g>
<defs>
<clipPath id="clip0_91_772">
<rect width="16" height="16" fill="white"/>
</clipPath>
</defs>
</svg>
