<svg width="16" height="16" viewBox="0 0 16 16" fill="none" xmlns="http://www.w3.org/2000/svg">
<g clip-path="url(#clip0_91_960)">
<path d="M3.5 0.5H2C1.17157 0.5 0.5 1.17157 0.5 2V3.5M6.5 0.5H9.5M12.5 0.5H14C14.8284 0.5 15.5 1.17157 15.5 2V3.5M0.5 6.5V9.5M0.5 12.5V14C0.5 14.8284 1.17157 15.5 2 15.5H3.5M6.5 15.5H9.5M12.5 15.5H14C14.8284 15.5 15.5 14.8284 15.5 14V12.5M15.5 9.5V6.5M2.5 2.5L13.5 13.5M13.5 2.5L2.5 13.5" stroke="white" stroke-linecap="round" stroke-linejoin="round"/>
</g>
<defs>
<clipPath id="clip0_91_960">
<rect width="16" height="16" fill="white"/>
</clipPath>
</defs>
</svg>
