<svg width="16" height="16" viewBox="0 0 16 16" fill="none" xmlns="http://www.w3.org/2000/svg">
<path d="M14.5 10V4C14.5 3.17157 13.8284 2.5 13 2.5H3C2.17157 2.5 1.5 3.17157 1.5 4V10C1.5 10.8284 2.17157 11.5 3 11.5H13C13.8284 11.5 14.5 10.8284 14.5 10Z" stroke="white" stroke-linecap="round" stroke-linejoin="round"/>
<path d="M15 12.5H1C0.723858 12.5 0.5 12.7239 0.5 13C0.5 13.2761 0.723858 13.5 1 13.5H15C15.2761 13.5 15.5 13.2761 15.5 13C15.5 12.7239 15.2761 12.5 15 12.5Z" stroke="white" stroke-linecap="round" stroke-linejoin="round"/>
<path d="M12.25 9.5H3.75C3.61193 9.5 3.5 9.61193 3.5 9.75C3.5 9.88807 3.61193 10 3.75 10H12.25C12.3881 10 12.5 9.88807 12.5 9.75C12.5 9.61193 12.3881 9.5 12.25 9.5Z" stroke="white" stroke-opacity="0.5" stroke-linecap="round" stroke-linejoin="round"/>
</svg>
