<svg width="16" height="16" viewBox="0 0 16 16" fill="none" xmlns="http://www.w3.org/2000/svg">
<path d="M12.5 12.5H14C14.8284 12.5 15.5 11.8284 15.5 11V4C15.5 3.17157 14.8284 2.5 14 2.5H2C1.17157 2.5 0.5 3.17157 0.5 4V11C0.5 11.8284 1.17157 12.5 2 12.5H3.5M12.5 12.5V13C12.5 13.8284 11.8284 14.5 11 14.5H5C4.17157 14.5 3.5 13.8284 3.5 13V12.5M12.5 12.5H3.5M7.5 10.5H12.5M13.5 7V6C13.5 5.17157 12.8284 4.5 12 4.5H9C8.17157 4.5 7.5 5.17157 7.5 6V7C7.5 7.82843 8.17157 8.5 9 8.5H12C12.8284 8.5 13.5 7.82843 13.5 7Z" stroke="white" stroke-linecap="round" stroke-linejoin="round"/>
<path d="M2.5 7.5H5.5M2.5 9.5H4.5M3 5.5H5C5.27614 5.5 5.5 5.27614 5.5 5V5C5.5 4.72386 5.27614 4.5 5 4.5H3C2.72386 4.5 2.5 4.72386 2.5 5V5C2.5 5.27614 2.72386 5.5 3 5.5Z" stroke="white" stroke-opacity="0.5" stroke-linecap="round" stroke-linejoin="round"/>
</svg>
