<svg width="16" height="16" viewBox="0 0 16 16" fill="none" xmlns="http://www.w3.org/2000/svg">
<path d="M4.5 10.5V13.5C4.5 14.6046 5.39543 15.5 6.5 15.5H9.5C10.6046 15.5 11.5 14.6046 11.5 13.5V10.5M4.5 10.5V2C4.5 1.17157 5.17021 0.5 5.99864 0.5C7.12071 0.5 8.67419 0.5 10.0006 0.5C10.8291 0.5 11.5 1.17157 11.5 2V10.5M4.5 10.5H11.5M8 4.5V4.5C8.27614 4.5 8.5 4.27614 8.5 4V4C8.5 3.72386 8.27614 3.5 8 3.5V3.5C7.72386 3.5 7.5 3.72386 7.5 4V4C7.5 4.27614 7.72386 4.5 8 4.5Z" stroke="white" stroke-linecap="round" stroke-linejoin="round"/>
</svg>
