<svg width="16" height="16" viewBox="0 0 16 16" fill="none" xmlns="http://www.w3.org/2000/svg">
<path d="M0.5 6.5V13.5C0.5 14.0523 0.947715 14.5 1.5 14.5C2.05228 14.5 2.5 14.0523 2.5 13.5V6.5C2.5 5.94772 2.05228 5.5 1.5 5.5C0.947715 5.5 0.5 5.94772 0.5 6.5Z" fill="white"/>
<path d="M9.08579 0.914213L4.93934 5.06066C4.65804 5.34196 4.5 5.7235 4.5 6.12132V13C4.5 13.8284 5.17157 14.5 6 14.5H12.2967C12.9998 14.5 13.6085 14.0117 13.761 13.3254L15.0944 7.3254C15.3025 6.38863 14.5897 5.5 13.6301 5.5H10.4343C10.0349 5.5 9.79671 5.05493 10.0182 4.72265L11.2481 2.87789C11.4123 2.63149 11.5 2.34197 11.5 2.04584V1.91421C11.5 1.13317 10.8668 0.5 10.0858 0.5C9.71071 0.5 9.351 0.648996 9.08579 0.914213Z" fill="white"/>
<path d="M0.5 6.5V13.5C0.5 14.0523 0.947715 14.5 1.5 14.5C2.05228 14.5 2.5 14.0523 2.5 13.5V6.5C2.5 5.94772 2.05228 5.5 1.5 5.5C0.947715 5.5 0.5 5.94772 0.5 6.5Z" stroke="white" stroke-linejoin="round"/>
<path d="M9.08579 0.914213L4.93934 5.06066C4.65804 5.34196 4.5 5.7235 4.5 6.12132V13C4.5 13.8284 5.17157 14.5 6 14.5H12.2967C12.9998 14.5 13.6085 14.0117 13.761 13.3254L15.0944 7.3254C15.3025 6.38863 14.5897 5.5 13.6301 5.5H10.4343C10.0349 5.5 9.79671 5.05493 10.0182 4.72265L11.2481 2.87789C11.4123 2.63149 11.5 2.34197 11.5 2.04584V1.91421C11.5 1.13317 10.8668 0.5 10.0858 0.5C9.71071 0.5 9.351 0.648996 9.08579 0.914213Z" stroke="white" stroke-linejoin="round"/>
</svg>
