<svg width="16" height="16" viewBox="0 0 16 16" fill="none" xmlns="http://www.w3.org/2000/svg">
<path d="M8.5 3.5H14.5M8.5 5.5H13M3 7H5C5.82843 7 6.5 6.32843 6.5 5.5V3.5C6.5 2.67157 5.82843 2 5 2H3C2.17157 2 1.5 2.67157 1.5 3.5V5.5C1.5 6.32843 2.17157 7 3 7Z" stroke="white" stroke-linecap="round" stroke-linejoin="round"/>
<path d="M8.5 10.5H14.5M8.5 12.5H13M3 14H5C5.82843 14 6.5 13.3284 6.5 12.5V10.5C6.5 9.67157 5.82843 9 5 9H3C2.17157 9 1.5 9.67157 1.5 10.5V12.5C1.5 13.3284 2.17157 14 3 14Z" stroke="white" stroke-linecap="round" stroke-linejoin="round"/>
</svg>
