<svg width="16" height="16" viewBox="0 0 16 16" fill="none" xmlns="http://www.w3.org/2000/svg">
<g clip-path="url(#clip0_91_1244)">
<path d="M6.5 14V2C6.5 1.17157 5.82843 0.5 5 0.5H4C2.067 0.5 0.5 2.067 0.5 4V12C0.5 13.933 2.067 15.5 4 15.5H5C5.82843 15.5 6.5 14.8284 6.5 14Z" stroke="white" stroke-linecap="round" stroke-linejoin="round"/>
<path fill-rule="evenodd" clip-rule="evenodd" d="M11 0.5H12C13.933 0.5 15.5 2.067 15.5 4V12C15.5 13.933 13.933 15.5 12 15.5H11C10.1716 15.5 9.5 14.8284 9.5 14V2C9.5 1.17157 10.1716 0.5 11 0.5ZM3.5 6.5C2.94772 6.5 2.5 6.05228 2.5 5.5C2.5 4.94772 2.94772 4.5 3.5 4.5C4.05228 4.5 4.5 4.94772 4.5 5.5C4.5 6.05228 4.05228 6.5 3.5 6.5ZM12.5 11.5C11.3954 11.5 10.5 10.6046 10.5 9.5C10.5 8.39543 11.3954 7.5 12.5 7.5C13.6046 7.5 14.5 8.39543 14.5 9.5C14.5 10.6046 13.6046 11.5 12.5 11.5Z" fill="white"/>
<path d="M12 0H11V1H12V0ZM16 4C16 1.79086 14.2091 0 12 0V1C13.6569 1 15 2.34315 15 4H16ZM16 12V4H15V12H16ZM12 16C14.2091 16 16 14.2091 16 12H15C15 13.6569 13.6569 15 12 15V16ZM11 16H12V15H11V16ZM9 14C9 15.1046 9.89543 16 11 16V15C10.4477 15 10 14.5523 10 14H9ZM9 2V14H10V2H9ZM11 0C9.89543 0 9 0.895431 9 2H10C10 1.44772 10.4477 1 11 1V0ZM2 5.5C2 6.32843 2.67157 7 3.5 7V6C3.22386 6 3 5.77614 3 5.5H2ZM3.5 4C2.67157 4 2 4.67157 2 5.5H3C3 5.22386 3.22386 5 3.5 5V4ZM5 5.5C5 4.67157 4.32843 4 3.5 4V5C3.77614 5 4 5.22386 4 5.5H5ZM3.5 7C4.32843 7 5 6.32843 5 5.5H4C4 5.77614 3.77614 6 3.5 6V7ZM10 9.5C10 10.8807 11.1193 12 12.5 12V11C11.6716 11 11 10.3284 11 9.5H10ZM12.5 7C11.1193 7 10 8.11929 10 9.5H11C11 8.67157 11.6716 8 12.5 8V7ZM15 9.5C15 8.11929 13.8807 7 12.5 7V8C13.3284 8 14 8.67157 14 9.5H15ZM12.5 12C13.8807 12 15 10.8807 15 9.5H14C14 10.3284 13.3284 11 12.5 11V12Z" fill="white"/>
</g>
<defs>
<clipPath id="clip0_91_1244">
<rect width="16" height="16" fill="white"/>
</clipPath>
</defs>
</svg>
