<svg width="16" height="16" viewBox="0 0 16 16" fill="none" xmlns="http://www.w3.org/2000/svg">
<path d="M4.5 9.5V9C4.5 8.17157 5.17157 7.5 6 7.5H8M4.5 9.5H8M4.5 9.5V11.5M8 9.5V7.5M8 9.5V10C8 10.8284 7.32843 11.5 6.5 11.5H4.5M8 7.5H10C10.8284 7.5 11.5 8.17157 11.5 9V12C11.5 12.8284 10.8284 13.5 10 13.5H6C5.17157 13.5 4.5 12.8284 4.5 12V11.5M4 15.5H12C12.8284 15.5 13.5 14.8284 13.5 14V4.62132C13.5 4.2235 13.342 3.84197 13.0607 3.56066L10.4393 0.93934C10.158 0.658035 9.7765 0.5 9.37868 0.5H4C3.17157 0.5 2.5 1.17157 2.5 2V14C2.5 14.8284 3.17157 15.5 4 15.5Z" stroke="white" stroke-linecap="round" stroke-linejoin="round"/>
</svg>
