<svg width="16" height="16" viewBox="0 0 16 16" fill="none" xmlns="http://www.w3.org/2000/svg">
<path d="M5 3.5V4.5M8 3.5V4.5M4.5 7L4.67869 7.08935C5.21881 7.3594 5.81438 7.5 6.41825 7.5H6.69722C7.8235 7.5 8.87526 6.93712 9.5 6V6M14.5 10.5V2C14.5 1.17157 13.8284 0.5 13 0.5H3C2.17157 0.5 1.5 1.17157 1.5 2V14C1.5 14.8284 2.17157 15.5 3 15.5H9.5M14.5 10.5V11.5C14.5 13.7091 12.7091 15.5 10.5 15.5H9.5M14.5 10.5H11C10.1716 10.5 9.5 11.1716 9.5 12V15.5" stroke="white" stroke-linecap="round" stroke-linejoin="round"/>
</svg>
