<svg width="16" height="16" viewBox="0 0 16 16" fill="none" xmlns="http://www.w3.org/2000/svg">
<g clip-path="url(#clip0_91_1037)">
<path d="M2.90242 7.14637L7.08397 0.874038C7.35839 0.462419 8 0.656684 8 1.15139V4.83855C8 5.76192 9.14454 6.19196 9.75258 5.49706L11.0096 4.06049C11.2436 3.79303 11.6741 3.84826 11.8331 4.16614L13.4021 7.30426C13.7953 8.09061 14 8.95771 14 9.83688C14 12.9645 11.4645 15.5 8.33688 15.5H7.37314C4.40564 15.5 2 13.0944 2 10.1269C2 9.06606 2.314 8.02901 2.90242 7.14637Z" stroke="white"/>
<path d="M7.5 8.15685V7.96165C7.5 7.52379 6.93211 7.35184 6.68922 7.71617L5.88675 8.91987C5.63457 9.29815 5.5 9.7426 5.5 10.1972C5.5 11.469 6.53099 12.5 7.80278 12.5H8.37868C9.55025 12.5 10.5 11.5503 10.5 10.3787C10.5 9.81607 10.2765 9.2765 9.87868 8.87868L9.63111 8.63111C9.5587 8.5587 9.4413 8.5587 9.36889 8.63111L9.15685 8.84315C8.54543 9.45457 7.5 9.02153 7.5 8.15685Z" fill="white" stroke="white"/>
</g>
<defs>
<clipPath id="clip0_91_1037">
<rect width="16" height="16" fill="white"/>
</clipPath>
</defs>
</svg>
