<svg width="16" height="16" viewBox="0 0 16 16" fill="none" xmlns="http://www.w3.org/2000/svg">
<g clip-path="url(#clip0_91_605)">
<path d="M0.5 15.5L15.5 0.5" stroke="white" stroke-linecap="round" stroke-linejoin="round"/>
<path fill-rule="evenodd" clip-rule="evenodd" d="M9.91028 3.96837C10.1939 3.68471 10.0614 3.20473 9.66575 3.13834C9.12359 3.04736 8.56665 3 7.99864 3C4.99096 3 2.29342 4.32781 0.460221 6.42922C0.292311 6.62169 0.31143 6.91051 0.494378 7.08875C0.706681 7.29559 1.05091 7.27105 1.24699 7.04877C2.89615 5.17924 5.30968 4 7.99864 4C8.49045 4 8.97305 4.03945 9.44344 4.11535C9.6138 4.14284 9.78826 4.09039 9.91028 3.96837ZM6.86906 7.00959C7.2357 6.64295 6.96955 6.05563 6.46355 6.16884C4.92128 6.51391 3.57118 7.36792 2.59875 8.54535C2.44234 8.73473 2.46702 9.01066 2.64295 9.18206C2.86184 9.39532 3.21917 9.35947 3.41659 9.12619C4.2247 8.1713 5.32592 7.4724 6.58137 7.16836C6.68983 7.1421 6.79015 7.0885 6.86906 7.00959ZM11.16 7.89945C10.8738 7.72166 10.8034 7.31786 11.0417 7.07959C11.1933 6.92796 11.4273 6.89199 11.6109 7.0028C12.2908 7.4132 12.8952 7.93596 13.3985 8.54535C13.5549 8.73474 13.5303 9.01066 13.3543 9.18206C13.1354 9.39532 12.7781 9.35947 12.5807 9.1262C12.1751 8.64695 11.6957 8.23218 11.16 7.89945ZM9.08641 10.2033C8.7335 10.0659 8.55305 9.56824 8.82083 9.30046C8.92938 9.19191 9.08779 9.14699 9.23381 9.19435C10.0673 9.46467 10.7808 10.0012 11.2742 10.7036C11.3993 10.8817 11.3635 11.1217 11.2076 11.2735C10.9717 11.5034 10.5762 11.4293 10.3749 11.1685C10.0439 10.7397 9.59941 10.403 9.08641 10.2033ZM13.2753 5.7083C13.0179 5.52176 12.9747 5.14663 13.1994 4.92189C13.3651 4.75619 13.6252 4.7286 13.8157 4.86506C14.4486 5.31842 15.0264 5.8438 15.5371 6.42922C15.705 6.6217 15.6858 6.91051 15.5029 7.08876C15.2906 7.2956 14.9464 7.27105 14.7503 7.04877C14.31 6.54964 13.8152 6.09972 13.2753 5.7083ZM7.99864 14C8.55092 14 8.99864 13.5523 8.99864 13C8.99864 12.4477 8.55092 12 7.99864 12C7.44635 12 6.99864 12.4477 6.99864 13C6.99864 13.5523 7.44635 14 7.99864 14Z" fill="white" fill-opacity="0.5"/>
</g>
<defs>
<clipPath id="clip0_91_605">
<rect width="16" height="16" fill="white"/>
</clipPath>
</defs>
</svg>
