<svg width="72" height="72" viewBox="0 0 72 72" fill="none" xmlns="http://www.w3.org/2000/svg">
<g filter="url(#filter0_d_91_3121)">
<rect x="4" y="4" width="64" height="64" rx="16" fill="url(#paint0_linear_91_3121)"/>
<path fill-rule="evenodd" clip-rule="evenodd" d="M24 13C21.7909 13 20 14.7909 20 17C20 19.2091 21.7909 21 24 21C26.2091 21 28 19.2091 28 17C28 14.7909 26.2091 13 24 13ZM48 13C45.7909 13 44 14.7909 44 17C44 19.2091 45.7909 21 48 21C50.2091 21 52 19.2091 52 17C52 14.7909 50.2091 13 48 13Z" fill="#C00040"/>
<g filter="url(#filter1_di_91_3121)">
<path d="M24 17V18.2339C24 21.6774 26.2034 24.7345 29.4702 25.8234L29.6754 25.8918C33.7808 27.2603 38.2192 27.2603 42.3246 25.8918L42.5298 25.8234C45.7966 24.7345 48 21.6774 48 18.2339V17" stroke="white" stroke-width="4" stroke-linecap="round"/>
</g>
<g filter="url(#filter2_i_91_3121)">
<path d="M17.7693 52.14C17.0506 52.14 16.3833 52.014 15.7673 51.762C15.1606 51.51 14.6333 51.16 14.1853 50.712C13.7466 50.2547 13.4013 49.718 13.1493 49.102C12.9066 48.486 12.7853 47.8093 12.7853 47.072C12.7853 46.344 12.9066 45.672 13.1493 45.056C13.4013 44.44 13.7466 43.9033 14.1853 43.446C14.6333 42.9887 15.1606 42.634 15.7673 42.382C16.3833 42.13 17.0506 42.004 17.7693 42.004C18.4879 42.004 19.1459 42.13 19.7433 42.382C20.3499 42.634 20.8773 42.9887 21.3253 43.446C21.7733 43.9033 22.1186 44.44 22.3613 45.056C22.6133 45.672 22.7393 46.3487 22.7393 47.086C22.7393 47.8047 22.6133 48.472 22.3613 49.088C22.1186 49.704 21.7733 50.2407 21.3253 50.698C20.8773 51.1553 20.3499 51.51 19.7433 51.762C19.1459 52.014 18.4879 52.14 17.7693 52.14ZM17.7693 50.152C18.1799 50.152 18.5579 50.0773 18.9033 49.928C19.2486 49.7693 19.5473 49.5547 19.7993 49.284C20.0606 49.004 20.2613 48.6773 20.4013 48.304C20.5413 47.9307 20.6113 47.5247 20.6113 47.086C20.6113 46.638 20.5413 46.2273 20.4013 45.854C20.2613 45.4807 20.0606 45.154 19.7993 44.874C19.5473 44.594 19.2486 44.3793 18.9033 44.23C18.5579 44.0713 18.1799 43.992 17.7693 43.992C17.3586 43.992 16.9759 44.0713 16.6213 44.23C16.2759 44.3793 15.9726 44.594 15.7113 44.874C15.4593 45.1447 15.2633 45.4713 15.1233 45.854C14.9833 46.2273 14.9133 46.638 14.9133 47.086C14.9133 47.674 15.0346 48.2013 15.2773 48.668C15.5293 49.1253 15.8699 49.4893 16.2993 49.76C16.7286 50.0213 17.2186 50.152 17.7693 50.152ZM24.3602 52V44.594H26.2782L26.3482 46.974L26.0122 46.47C26.1335 46.0967 26.3155 45.756 26.5582 45.448C26.8102 45.14 27.1042 44.8973 27.4402 44.72C27.7855 44.5333 28.1449 44.44 28.5182 44.44C28.6862 44.44 28.8402 44.454 28.9802 44.482C29.1295 44.5007 29.2555 44.5333 29.3582 44.58L28.8262 46.75C28.7235 46.7033 28.5882 46.6613 28.4202 46.624C28.2615 46.5773 28.0982 46.554 27.9302 46.554C27.7155 46.554 27.5102 46.596 27.3142 46.68C27.1275 46.7547 26.9595 46.8667 26.8102 47.016C26.6702 47.156 26.5582 47.324 26.4742 47.52C26.3995 47.716 26.3622 47.9353 26.3622 48.178V52H24.3602ZM33.4044 52.14C32.6951 52.14 32.0604 51.972 31.5004 51.636C30.9404 51.3 30.4971 50.8427 30.1704 50.264C29.8531 49.676 29.6944 49.0227 29.6944 48.304C29.6944 47.5667 29.8531 46.9087 30.1704 46.33C30.4971 45.742 30.9404 45.28 31.5004 44.944C32.0604 44.608 32.6951 44.44 33.4044 44.44C34.0671 44.44 34.6691 44.566 35.2104 44.818C35.7611 45.0607 36.1904 45.3967 36.4984 45.826L35.4204 47.142C35.2898 46.9647 35.1264 46.8013 34.9304 46.652C34.7344 46.5027 34.5198 46.386 34.2864 46.302C34.0624 46.218 33.8291 46.176 33.5864 46.176C33.2038 46.176 32.8631 46.2693 32.5644 46.456C32.2658 46.6333 32.0324 46.8853 31.8644 47.212C31.6964 47.5293 31.6124 47.8887 31.6124 48.29C31.6124 48.682 31.7011 49.0367 31.8784 49.354C32.0558 49.6713 32.2938 49.9233 32.5924 50.11C32.8911 50.2967 33.2224 50.39 33.5864 50.39C33.8291 50.39 34.0578 50.3573 34.2724 50.292C34.4964 50.2173 34.7018 50.11 34.8884 49.97C35.0751 49.83 35.2524 49.6667 35.4204 49.48L36.4984 50.796C36.1904 51.1973 35.7518 51.524 35.1824 51.776C34.6224 52.0187 34.0298 52.14 33.4044 52.14ZM37.7723 52V41.64H39.7463V46.106L39.3543 46.274C39.4477 45.938 39.6297 45.6347 39.9003 45.364C40.171 45.084 40.493 44.86 40.8663 44.692C41.2397 44.524 41.627 44.44 42.0283 44.44C42.5883 44.44 43.055 44.552 43.4283 44.776C43.811 45 44.0957 45.3407 44.2823 45.798C44.4783 46.246 44.5763 46.806 44.5763 47.478V52H42.5883V47.618C42.5883 47.282 42.5417 47.002 42.4483 46.778C42.355 46.554 42.215 46.3907 42.0283 46.288C41.8417 46.1853 41.6037 46.1387 41.3143 46.148C41.0903 46.148 40.885 46.1853 40.6983 46.26C40.5117 46.3253 40.3437 46.4233 40.1943 46.554C40.0543 46.6847 39.947 46.834 39.8723 47.002C39.7977 47.17 39.7603 47.3567 39.7603 47.562V52H38.7663C38.561 52 38.3743 52 38.2063 52C38.0383 52 37.8937 52 37.7723 52ZM46.6493 52V44.594H48.6373V52H46.6493ZM47.6433 43.068C47.2513 43.068 46.948 42.9747 46.7333 42.788C46.5186 42.6013 46.4113 42.3353 46.4113 41.99C46.4113 41.6727 46.5186 41.416 46.7333 41.22C46.9573 41.0147 47.2606 40.912 47.6433 40.912C48.0166 40.912 48.3106 41.0053 48.5253 41.192C48.74 41.3787 48.8473 41.6447 48.8473 41.99C48.8473 42.3167 48.74 42.578 48.5253 42.774C48.3106 42.97 48.0166 43.068 47.6433 43.068ZM53.6863 52.14C53.0423 52.14 52.4589 51.9767 51.9363 51.65C51.4229 51.3233 51.0169 50.8707 50.7183 50.292C50.4289 49.704 50.2843 49.0413 50.2843 48.304C50.2843 47.5573 50.4289 46.8947 50.7183 46.316C51.0169 45.7373 51.4229 45.28 51.9363 44.944C52.4496 44.608 53.0329 44.44 53.6863 44.44C54.0316 44.44 54.3629 44.496 54.6803 44.608C55.0069 44.7107 55.2963 44.8553 55.5483 45.042C55.8003 45.2287 56.0056 45.4387 56.1643 45.672C56.3229 45.896 56.4163 46.1293 56.4443 46.372L55.9403 46.47V41.64H57.9143V52H56.0383L55.9543 50.292L56.3463 50.348C56.3369 50.572 56.2576 50.7913 56.1083 51.006C55.9589 51.2207 55.7583 51.4167 55.5063 51.594C55.2636 51.762 54.9836 51.8973 54.6663 52C54.3583 52.0933 54.0316 52.14 53.6863 52.14ZM54.1203 50.488C54.5029 50.488 54.8296 50.3947 55.1003 50.208C55.3803 50.0213 55.5996 49.7647 55.7583 49.438C55.9169 49.1113 55.9963 48.7333 55.9963 48.304C55.9963 47.8653 55.9169 47.4827 55.7583 47.156C55.5996 46.82 55.3803 46.5633 55.1003 46.386C54.8296 46.1993 54.5029 46.106 54.1203 46.106C53.7563 46.106 53.4343 46.1993 53.1543 46.386C52.8743 46.5633 52.6549 46.82 52.4963 47.156C52.3469 47.4827 52.2723 47.8653 52.2723 48.304C52.2723 48.7333 52.3469 49.1113 52.4963 49.438C52.6549 49.7647 52.8743 50.0213 53.1543 50.208C53.4343 50.3947 53.7563 50.488 54.1203 50.488Z" fill="url(#paint1_linear_91_3121)"/>
</g>
</g>
<defs>
<filter id="filter0_d_91_3121" x="0" y="0" width="72" height="72" filterUnits="userSpaceOnUse" color-interpolation-filters="sRGB">
<feFlood flood-opacity="0" result="BackgroundImageFix"/>
<feColorMatrix in="SourceAlpha" type="matrix" values="0 0 0 0 0 0 0 0 0 0 0 0 0 0 0 0 0 0 127 0" result="hardAlpha"/>
<feOffset/>
<feGaussianBlur stdDeviation="2"/>
<feComposite in2="hardAlpha" operator="out"/>
<feColorMatrix type="matrix" values="0 0 0 0 0 0 0 0 0 0 0 0 0 0 0 0 0 0 0.1 0"/>
<feBlend mode="normal" in2="BackgroundImageFix" result="effect1_dropShadow_91_3121"/>
<feBlend mode="normal" in="SourceGraphic" in2="effect1_dropShadow_91_3121" result="shape"/>
</filter>
<filter id="filter1_di_91_3121" x="20" y="13" width="32" height="21.9182" filterUnits="userSpaceOnUse" color-interpolation-filters="sRGB">
<feFlood flood-opacity="0" result="BackgroundImageFix"/>
<feColorMatrix in="SourceAlpha" type="matrix" values="0 0 0 0 0 0 0 0 0 0 0 0 0 0 0 0 0 0 127 0" result="hardAlpha"/>
<feOffset dy="4"/>
<feGaussianBlur stdDeviation="1"/>
<feComposite in2="hardAlpha" operator="out"/>
<feColorMatrix type="matrix" values="0 0 0 0 0 0 0 0 0 0 0 0 0 0 0 0 0 0 0.1 0"/>
<feBlend mode="normal" in2="BackgroundImageFix" result="effect1_dropShadow_91_3121"/>
<feBlend mode="normal" in="SourceGraphic" in2="effect1_dropShadow_91_3121" result="shape"/>
<feColorMatrix in="SourceAlpha" type="matrix" values="0 0 0 0 0 0 0 0 0 0 0 0 0 0 0 0 0 0 127 0" result="hardAlpha"/>
<feOffset dy="-2"/>
<feGaussianBlur stdDeviation="1"/>
<feComposite in2="hardAlpha" operator="arithmetic" k2="-1" k3="1"/>
<feColorMatrix type="matrix" values="0 0 0 0 0 0 0 0 0 0 0 0 0 0 0 0 0 0 0.25 0"/>
<feBlend mode="normal" in2="shape" result="effect2_innerShadow_91_3121"/>
</filter>
<filter id="filter2_i_91_3121" x="12.7853" y="40.912" width="45.129" height="12.228" filterUnits="userSpaceOnUse" color-interpolation-filters="sRGB">
<feFlood flood-opacity="0" result="BackgroundImageFix"/>
<feBlend mode="normal" in="SourceGraphic" in2="BackgroundImageFix" result="shape"/>
<feColorMatrix in="SourceAlpha" type="matrix" values="0 0 0 0 0 0 0 0 0 0 0 0 0 0 0 0 0 0 127 0" result="hardAlpha"/>
<feOffset dy="1"/>
<feGaussianBlur stdDeviation="0.5"/>
<feComposite in2="hardAlpha" operator="arithmetic" k2="-1" k3="1"/>
<feColorMatrix type="matrix" values="0 0 0 0 1 0 0 0 0 1 0 0 0 0 1 0 0 0 0.25 0"/>
<feBlend mode="normal" in2="shape" result="effect1_innerShadow_91_3121"/>
</filter>
<linearGradient id="paint0_linear_91_3121" x1="36" y1="4" x2="36" y2="68" gradientUnits="userSpaceOnUse">
<stop stop-color="#FF6040"/>
<stop offset="1" stop-color="#C00040"/>
</linearGradient>
<linearGradient id="paint1_linear_91_3121" x1="35.5" y1="40" x2="35.5" y2="54" gradientUnits="userSpaceOnUse">
<stop stop-color="white"/>
<stop offset="1" stop-color="white" stop-opacity="0.75"/>
</linearGradient>
</defs>
</svg>
