<svg width="16" height="16" viewBox="0 0 16 16" fill="none" xmlns="http://www.w3.org/2000/svg">
<g clip-path="url(#clip0_134_49)">
<path d="M2 1C2 0.447715 2.44772 0 3 0H9.25736C10.053 0 10.8161 0.316071 11.3787 0.87868L13.1213 2.62132C13.6839 3.18393 14 3.94699 14 4.74264V15C14 15.5523 13.5523 16 13 16H3C2.44772 16 2 15.5523 2 15V1Z" fill="url(#paint0_linear_134_49)"/>
<g filter="url(#filter0_di_134_49)">
<path d="M4.2911 8.7534L3.70896 12.2463C3.59957 12.9026 4.10568 13.5 4.77103 13.5C5.2113 13.5 5.60722 13.2319 5.77073 12.8232L6.12283 11.9429C6.35063 11.3734 6.90219 11 7.51555 11H8.48445C9.09781 11 9.64937 11.3734 9.87717 11.9429L10.2293 12.8232C10.3928 13.2319 10.7887 13.5 11.229 13.5C11.8943 13.5 12.4004 12.9026 12.291 12.2463L11.7089 8.7534C11.5884 8.03012 10.9626 7.5 10.2293 7.5H5.77069C5.03743 7.5 4.41165 8.03012 4.2911 8.7534Z" stroke="white" stroke-linecap="round" stroke-linejoin="round" shape-rendering="crispEdges"/>
</g>
<g filter="url(#filter1_d_134_49)">
<path d="M9 0H9.25736C10.053 0 10.8161 0.316071 11.3787 0.87868L13.1213 2.62132C13.6839 3.18393 14 3.94699 14 4.74264V5H10C9.44772 5 9 4.55228 9 4V0Z" fill="url(#paint1_radial_134_49)" shape-rendering="crispEdges"/>
</g>
</g>
<defs>
<filter id="filter0_di_134_49" x="2.19397" y="6.5" width="11.6121" height="9" filterUnits="userSpaceOnUse" color-interpolation-filters="sRGB">
<feFlood flood-opacity="0" result="BackgroundImageFix"/>
<feColorMatrix in="SourceAlpha" type="matrix" values="0 0 0 0 0 0 0 0 0 0 0 0 0 0 0 0 0 0 127 0" result="hardAlpha"/>
<feOffset dy="0.5"/>
<feGaussianBlur stdDeviation="0.5"/>
<feComposite in2="hardAlpha" operator="out"/>
<feColorMatrix type="matrix" values="0 0 0 0 0 0 0 0 0 0 0 0 0 0 0 0 0 0 0.1 0"/>
<feBlend mode="normal" in2="BackgroundImageFix" result="effect1_dropShadow_134_49"/>
<feBlend mode="normal" in="SourceGraphic" in2="effect1_dropShadow_134_49" result="shape"/>
<feColorMatrix in="SourceAlpha" type="matrix" values="0 0 0 0 0 0 0 0 0 0 0 0 0 0 0 0 0 0 127 0" result="hardAlpha"/>
<feOffset dy="-0.5"/>
<feGaussianBlur stdDeviation="0.25"/>
<feComposite in2="hardAlpha" operator="arithmetic" k2="-1" k3="1"/>
<feColorMatrix type="matrix" values="0 0 0 0 0 0 0 0 0 0 0 0 0 0 0 0 0 0 0.15 0"/>
<feBlend mode="normal" in2="shape" result="effect2_innerShadow_134_49"/>
</filter>
<filter id="filter1_d_134_49" x="7" y="-1" width="9" height="9" filterUnits="userSpaceOnUse" color-interpolation-filters="sRGB">
<feFlood flood-opacity="0" result="BackgroundImageFix"/>
<feColorMatrix in="SourceAlpha" type="matrix" values="0 0 0 0 0 0 0 0 0 0 0 0 0 0 0 0 0 0 127 0" result="hardAlpha"/>
<feOffset dy="1"/>
<feGaussianBlur stdDeviation="1"/>
<feComposite in2="hardAlpha" operator="out"/>
<feColorMatrix type="matrix" values="0 0 0 0 0 0 0 0 0 0 0 0 0 0 0 0 0 0 0.1 0"/>
<feBlend mode="normal" in2="BackgroundImageFix" result="effect1_dropShadow_134_49"/>
<feBlend mode="normal" in="SourceGraphic" in2="effect1_dropShadow_134_49" result="shape"/>
</filter>
<linearGradient id="paint0_linear_134_49" x1="8" y1="0" x2="8" y2="16" gradientUnits="userSpaceOnUse">
<stop stop-color="#40A060"/>
<stop offset="1" stop-color="#60FF80"/>
</linearGradient>
<radialGradient id="paint1_radial_134_49" cx="0" cy="0" r="1" gradientUnits="userSpaceOnUse" gradientTransform="translate(14) rotate(135) scale(7.07107 4.24264)">
<stop stop-color="#60FF80" stop-opacity="0"/>
<stop offset="0.849468" stop-color="#60FF80"/>
</radialGradient>
<clipPath id="clip0_134_49">
<rect width="16" height="16" fill="white"/>
</clipPath>
</defs>
</svg>
