<svg width="16" height="16" viewBox="0 0 16 16" fill="none" xmlns="http://www.w3.org/2000/svg">
<g clip-path="url(#clip0_136_300)">
<path d="M2 1C2 0.447715 2.44772 0 3 0H9.25736C10.053 0 10.8161 0.316071 11.3787 0.87868L13.1213 2.62132C13.6839 3.18393 14 3.94699 14 4.74264V15C14 15.5523 13.5523 16 13 16H3C2.44772 16 2 15.5523 2 15V1Z" fill="url(#paint0_linear_136_300)"/>
<g filter="url(#filter0_d_136_300)">
<path d="M9 0H9.25736C10.053 0 10.8161 0.316071 11.3787 0.87868L13.1213 2.62132C13.6839 3.18393 14 3.94699 14 4.74264V5H10C9.44772 5 9 4.55228 9 4V0Z" fill="url(#paint1_radial_136_300)" shape-rendering="crispEdges"/>
</g>
<g filter="url(#filter1_di_136_300)">
<path d="M4.5 7.5L7.1432 9.152C7.76987 9.54367 7.76987 10.4563 7.1432 10.848L4.5 12.5M8.5 12.5H11.5" stroke="white" stroke-linecap="round" stroke-linejoin="round"/>
</g>
</g>
<defs>
<filter id="filter0_d_136_300" x="7" y="-1" width="9" height="9" filterUnits="userSpaceOnUse" color-interpolation-filters="sRGB">
<feFlood flood-opacity="0" result="BackgroundImageFix"/>
<feColorMatrix in="SourceAlpha" type="matrix" values="0 0 0 0 0 0 0 0 0 0 0 0 0 0 0 0 0 0 127 0" result="hardAlpha"/>
<feOffset dy="1"/>
<feGaussianBlur stdDeviation="1"/>
<feComposite in2="hardAlpha" operator="out"/>
<feColorMatrix type="matrix" values="0 0 0 0 0 0 0 0 0 0 0 0 0 0 0 0 0 0 0.1 0"/>
<feBlend mode="normal" in2="BackgroundImageFix" result="effect1_dropShadow_136_300"/>
<feBlend mode="normal" in="SourceGraphic" in2="effect1_dropShadow_136_300" result="shape"/>
</filter>
<filter id="filter1_di_136_300" x="2.99988" y="6.49994" width="10.0001" height="8.00012" filterUnits="userSpaceOnUse" color-interpolation-filters="sRGB">
<feFlood flood-opacity="0" result="BackgroundImageFix"/>
<feColorMatrix in="SourceAlpha" type="matrix" values="0 0 0 0 0 0 0 0 0 0 0 0 0 0 0 0 0 0 127 0" result="hardAlpha"/>
<feOffset dy="0.5"/>
<feGaussianBlur stdDeviation="0.5"/>
<feComposite in2="hardAlpha" operator="out"/>
<feColorMatrix type="matrix" values="0 0 0 0 0 0 0 0 0 0 0 0 0 0 0 0 0 0 0.1 0"/>
<feBlend mode="normal" in2="BackgroundImageFix" result="effect1_dropShadow_136_300"/>
<feBlend mode="normal" in="SourceGraphic" in2="effect1_dropShadow_136_300" result="shape"/>
<feColorMatrix in="SourceAlpha" type="matrix" values="0 0 0 0 0 0 0 0 0 0 0 0 0 0 0 0 0 0 127 0" result="hardAlpha"/>
<feOffset dy="-0.5"/>
<feGaussianBlur stdDeviation="0.25"/>
<feComposite in2="hardAlpha" operator="arithmetic" k2="-1" k3="1"/>
<feColorMatrix type="matrix" values="0 0 0 0 0 0 0 0 0 0 0 0 0 0 0 0 0 0 0.25 0"/>
<feBlend mode="normal" in2="shape" result="effect2_innerShadow_136_300"/>
</filter>
<linearGradient id="paint0_linear_136_300" x1="8" y1="0" x2="8" y2="16" gradientUnits="userSpaceOnUse">
<stop stop-color="#101214"/>
<stop offset="1" stop-color="#333537"/>
</linearGradient>
<radialGradient id="paint1_radial_136_300" cx="0" cy="0" r="1" gradientUnits="userSpaceOnUse" gradientTransform="translate(14) rotate(135) scale(7.07107 4.24264)">
<stop stop-color="#333537" stop-opacity="0"/>
<stop offset="0.849468" stop-color="#333537"/>
</radialGradient>
<clipPath id="clip0_136_300">
<rect width="16" height="16" fill="white"/>
</clipPath>
</defs>
</svg>
