<svg width="16" height="16" viewBox="0 0 16 16" fill="none" xmlns="http://www.w3.org/2000/svg">
<path d="M0 2C0 1.44772 0.447715 1 1 1H6.46482C6.79917 1 7.1114 1.1671 7.29687 1.4453L8.70313 3.5547C8.8886 3.8329 9.20083 4 9.53518 4H10C10.5523 4 11 4.44772 11 5V8C11 8.55228 10.5523 9 10 9H1C0.447715 9 0 8.55228 0 8V2Z" fill="url(#paint0_linear_134_61)"/>
<rect y="4" width="16" height="11" rx="1" fill="url(#paint1_linear_134_61)"/>
<g filter="url(#filter0_d_134_61)">
<path fill-rule="evenodd" clip-rule="evenodd" d="M8.70705 6.20708C8.31652 5.81655 7.68336 5.81655 7.29283 6.20708L4.3535 9.14642C4.03852 9.4614 4.2616 9.99997 4.70706 9.99997H4.99995V12.5C4.99995 12.7761 5.22381 13 5.49995 13H6.49995C6.7761 13 6.99995 12.7761 6.99995 12.5V11.5C6.99995 11.2238 7.22381 11 7.49995 11H8.49995C8.7761 11 8.99995 11.2238 8.99995 11.5V12.5C8.99995 12.7761 9.22381 13 9.49995 13H10.5C10.7761 13 11 12.7761 11 12.5V9.99997H11.2928C11.7383 9.99997 11.9614 9.4614 11.6464 9.14642L11 8.49998V6.99997C11 6.72383 10.7761 6.49997 10.5 6.49997C10.2238 6.49997 9.99995 6.72383 9.99995 6.99997V7.49998L8.70705 6.20708Z" fill="url(#paint2_linear_134_61)"/>
<path d="M7.29283 6.20708L7.11606 6.0303L7.11606 6.0303L7.29283 6.20708ZM8.70705 6.20708L8.88382 6.0303L8.88382 6.0303L8.70705 6.20708ZM4.3535 9.14642L4.53028 9.32319L4.53028 9.32319L4.3535 9.14642ZM4.99995 9.99997H5.24995V9.74997H4.99995V9.99997ZM11 9.99997V9.74997H10.75V9.99997H11ZM11.6464 9.14642L11.4696 9.32319L11.4696 9.32319L11.6464 9.14642ZM11 8.49998H10.75V8.60353L10.8232 8.67675L11 8.49998ZM9.99995 7.49998L9.82318 7.67676L10.25 8.10353V7.49998H9.99995ZM7.46961 6.38386C7.7625 6.09096 8.23738 6.09096 8.53027 6.38385L8.88382 6.0303C8.39567 5.54215 7.60421 5.54215 7.11606 6.0303L7.46961 6.38386ZM4.53028 9.32319L7.46961 6.38386L7.11606 6.0303L4.17673 8.96964L4.53028 9.32319ZM4.70706 9.74997C4.48433 9.74997 4.37279 9.48069 4.53028 9.32319L4.17673 8.96964C3.70425 9.44212 4.03888 10.25 4.70706 10.25V9.74997ZM4.99995 9.74997H4.70706V10.25H4.99995V9.74997ZM4.74995 9.99997V12.5H5.24995V9.99997H4.74995ZM4.74995 12.5C4.74995 12.9142 5.08574 13.25 5.49995 13.25V12.75C5.36188 12.75 5.24995 12.638 5.24995 12.5H4.74995ZM5.49995 13.25H6.49995V12.75H5.49995V13.25ZM6.49995 13.25C6.91417 13.25 7.24995 12.9142 7.24995 12.5H6.74995C6.74995 12.638 6.63802 12.75 6.49995 12.75V13.25ZM7.24995 12.5V11.5H6.74995V12.5H7.24995ZM7.24995 11.5C7.24995 11.3619 7.36188 11.25 7.49995 11.25V10.75C7.08574 10.75 6.74995 11.0858 6.74995 11.5H7.24995ZM7.49995 11.25H8.49995V10.75H7.49995V11.25ZM8.49995 11.25C8.63802 11.25 8.74995 11.3619 8.74995 11.5H9.24995C9.24995 11.0858 8.91417 10.75 8.49995 10.75V11.25ZM8.74995 11.5V12.5H9.24995V11.5H8.74995ZM8.74995 12.5C8.74995 12.9142 9.08574 13.25 9.49995 13.25V12.75C9.36188 12.75 9.24995 12.638 9.24995 12.5H8.74995ZM9.49995 13.25H10.5V12.75H9.49995V13.25ZM10.5 13.25C10.9142 13.25 11.25 12.9142 11.25 12.5H10.75C10.75 12.638 10.638 12.75 10.5 12.75V13.25ZM11.25 12.5V9.99997H10.75V12.5H11.25ZM11.2928 9.74997H11V10.25H11.2928V9.74997ZM11.4696 9.32319C11.6271 9.48069 11.5156 9.74997 11.2928 9.74997V10.25C11.961 10.25 12.2956 9.44211 11.8232 8.96964L11.4696 9.32319ZM10.8232 8.67675L11.4696 9.32319L11.8232 8.96964L11.1767 8.3232L10.8232 8.67675ZM11.25 8.49998V6.99997H10.75V8.49998H11.25ZM11.25 6.99997C11.25 6.58576 10.9142 6.24997 10.5 6.24997V6.74997C10.638 6.74997 10.75 6.8619 10.75 6.99997H11.25ZM10.5 6.24997C10.0857 6.24997 9.74995 6.58576 9.74995 6.99997H10.25C10.25 6.8619 10.3619 6.74997 10.5 6.74997V6.24997ZM9.74995 6.99997V7.49998H10.25V6.99997H9.74995ZM8.53027 6.38385L9.82318 7.67676L10.1767 7.3232L8.88382 6.0303L8.53027 6.38385Z" fill="url(#paint3_linear_134_61)"/>
</g>
<defs>
<filter id="filter0_d_134_61" x="2.95557" y="5.16418" width="10.0887" height="9.58582" filterUnits="userSpaceOnUse" color-interpolation-filters="sRGB">
<feFlood flood-opacity="0" result="BackgroundImageFix"/>
<feColorMatrix in="SourceAlpha" type="matrix" values="0 0 0 0 0 0 0 0 0 0 0 0 0 0 0 0 0 0 127 0" result="hardAlpha"/>
<feOffset dy="0.5"/>
<feGaussianBlur stdDeviation="0.5"/>
<feComposite in2="hardAlpha" operator="out"/>
<feColorMatrix type="matrix" values="0 0 0 0 0 0 0 0 0 0 0 0 0 0 0 0 0 0 0.1 0"/>
<feBlend mode="normal" in2="BackgroundImageFix" result="effect1_dropShadow_134_61"/>
<feBlend mode="normal" in="SourceGraphic" in2="effect1_dropShadow_134_61" result="shape"/>
</filter>
<linearGradient id="paint0_linear_134_61" x1="4" y1="1" x2="4" y2="4" gradientUnits="userSpaceOnUse">
<stop stop-color="#00A8FF"/>
<stop offset="1" stop-color="#0061E0"/>
</linearGradient>
<linearGradient id="paint1_linear_134_61" x1="8" y1="4" x2="8" y2="15" gradientUnits="userSpaceOnUse">
<stop stop-color="#80C2FF"/>
<stop offset="1" stop-color="#0061E0"/>
</linearGradient>
<linearGradient id="paint2_linear_134_61" x1="7.99995" y1="5.91418" x2="7.99995" y2="13" gradientUnits="userSpaceOnUse">
<stop stop-color="#B0DDFF"/>
<stop offset="1" stop-color="white"/>
</linearGradient>
<linearGradient id="paint3_linear_134_61" x1="7.99995" y1="5.91418" x2="7.99995" y2="13" gradientUnits="userSpaceOnUse">
<stop stop-color="white"/>
<stop offset="1" stop-color="#B0DDFF"/>
</linearGradient>
</defs>
</svg>
