<svg width="16" height="16" viewBox="0 0 16 16" fill="none" xmlns="http://www.w3.org/2000/svg">
<g filter="url(#filter0_b_134_142)">
<rect y="4" width="16" height="11" rx="1" fill="url(#paint0_linear_134_142)"/>
</g>
<path d="M0 2C0 1.44772 0.447715 1 1 1H6.46482C6.79917 1 7.1114 1.1671 7.29687 1.4453L8.70313 3.5547C8.8886 3.8329 9.20083 4 9.53518 4H10C10.5523 4 11 4.44772 11 5V8C11 8.55228 10.5523 9 10 9H1C0.447715 9 0 8.55228 0 8V2Z" fill="url(#paint1_linear_134_142)"/>
<rect y="4" width="16" height="11" rx="1" fill="url(#paint2_linear_134_142)"/>
<g filter="url(#filter1_d_134_142)">
<path fill-rule="evenodd" clip-rule="evenodd" d="M5.25 6C4.69772 6 4.25 6.44772 4.25 7V12C4.25 12.5523 4.69772 13 5.25 13H5.75C6.30228 13 6.75 12.5523 6.75 12V7C6.75 6.44772 6.30228 6 5.75 6H5.25ZM9.25 6C8.69772 6 8.25 6.44772 8.25 7V12C8.25 12.5523 8.69772 13 9.25 13H9.75C10.3023 13 10.75 12.5523 10.75 12V7C10.75 6.44772 10.3023 6 9.75 6H9.25Z" fill="url(#paint3_linear_134_142)"/>
</g>
<g filter="url(#filter2_bd_134_142)">
<path d="M6.75 10.366C6.08333 9.98112 6.08333 9.01887 6.75 8.63397L10.5 6.46891C11.1667 6.08401 12 6.56514 12 7.33494V11.6651C12 12.4349 11.1667 12.916 10.5 12.5311L6.75 10.366Z" fill="url(#paint4_linear_134_142)" shape-rendering="crispEdges"/>
</g>
<defs>
<filter id="filter0_b_134_142" x="-4" y="0" width="24" height="19" filterUnits="userSpaceOnUse" color-interpolation-filters="sRGB">
<feFlood flood-opacity="0" result="BackgroundImageFix"/>
<feGaussianBlur in="BackgroundImageFix" stdDeviation="2"/>
<feComposite in2="SourceAlpha" operator="in" result="effect1_backgroundBlur_134_142"/>
<feBlend mode="normal" in="SourceGraphic" in2="effect1_backgroundBlur_134_142" result="shape"/>
</filter>
<filter id="filter1_d_134_142" x="2.25" y="5" width="10.5" height="11" filterUnits="userSpaceOnUse" color-interpolation-filters="sRGB">
<feFlood flood-opacity="0" result="BackgroundImageFix"/>
<feColorMatrix in="SourceAlpha" type="matrix" values="0 0 0 0 0 0 0 0 0 0 0 0 0 0 0 0 0 0 127 0" result="hardAlpha"/>
<feOffset dy="1"/>
<feGaussianBlur stdDeviation="1"/>
<feComposite in2="hardAlpha" operator="out"/>
<feColorMatrix type="matrix" values="0 0 0 0 0 0 0 0 0 0 0 0 0 0 0 0 0 0 0.1 0"/>
<feBlend mode="normal" in2="BackgroundImageFix" result="effect1_dropShadow_134_142"/>
<feBlend mode="normal" in="SourceGraphic" in2="effect1_dropShadow_134_142" result="shape"/>
</filter>
<filter id="filter2_bd_134_142" x="4.25" y="5.33344" width="9.75" height="10.3331" filterUnits="userSpaceOnUse" color-interpolation-filters="sRGB">
<feFlood flood-opacity="0" result="BackgroundImageFix"/>
<feGaussianBlur in="BackgroundImageFix" stdDeviation="0.25"/>
<feComposite in2="SourceAlpha" operator="in" result="effect1_backgroundBlur_134_142"/>
<feColorMatrix in="SourceAlpha" type="matrix" values="0 0 0 0 0 0 0 0 0 0 0 0 0 0 0 0 0 0 127 0" result="hardAlpha"/>
<feOffset dy="1"/>
<feGaussianBlur stdDeviation="1"/>
<feComposite in2="hardAlpha" operator="out"/>
<feColorMatrix type="matrix" values="0 0 0 0 0 0 0 0 0 0 0 0 0 0 0 0 0 0 0.1 0"/>
<feBlend mode="normal" in2="effect1_backgroundBlur_134_142" result="effect2_dropShadow_134_142"/>
<feBlend mode="normal" in="SourceGraphic" in2="effect2_dropShadow_134_142" result="shape"/>
</filter>
<linearGradient id="paint0_linear_134_142" x1="8" y1="4" x2="8" y2="15" gradientUnits="userSpaceOnUse">
<stop stop-color="#FFC000"/>
<stop offset="1" stop-color="#FF6040"/>
</linearGradient>
<linearGradient id="paint1_linear_134_142" x1="5.5" y1="1" x2="5.5" y2="4" gradientUnits="userSpaceOnUse">
<stop stop-color="#FF6040"/>
<stop offset="1" stop-color="#C00040"/>
</linearGradient>
<linearGradient id="paint2_linear_134_142" x1="8" y1="4" x2="8" y2="15" gradientUnits="userSpaceOnUse">
<stop stop-color="#FF6040"/>
<stop offset="1" stop-color="#8613C0"/>
</linearGradient>
<linearGradient id="paint3_linear_134_142" x1="9.9375" y1="6" x2="9.9375" y2="13" gradientUnits="userSpaceOnUse">
<stop stop-color="white"/>
<stop offset="1" stop-color="#B0DDFF"/>
</linearGradient>
<linearGradient id="paint4_linear_134_142" x1="9.75" y1="5" x2="9.75" y2="14" gradientUnits="userSpaceOnUse">
<stop offset="0.145345" stop-color="#FFC000"/>
<stop offset="0.853379" stop-color="#FF6040" stop-opacity="0.75"/>
</linearGradient>
</defs>
</svg>
