<svg width="72" height="72" viewBox="0 0 72 72" fill="none" xmlns="http://www.w3.org/2000/svg">
<g clip-path="url(#clip0_1448_49)">
<g filter="url(#filter0_d_1448_49)">
<rect x="4" y="4" width="64" height="64" rx="16" fill="url(#paint0_linear_1448_49)"/>
</g>
<mask id="mask0_1448_49" style="mask-type:alpha" maskUnits="userSpaceOnUse" x="4" y="4" width="64" height="64">
<rect x="4" y="4" width="64" height="64" rx="16" fill="white"/>
</mask>
<g mask="url(#mask0_1448_49)">
<path d="M36 12C22.744 12 12 22.744 12 36C12 42.627 14.6865 48.627 19.0292 52.9707L14.4579 57.5421C13.551 58.449 14.1932 60 15.4757 60H36C49.256 60 60 49.256 60 36C60 22.744 49.256 12 36 12Z" fill="#FF4500"/>
<g clip-path="url(#clip1_1448_49)">
<path d="M49.6053 41.375C52.7004 41.375 55.2095 38.8659 55.2095 35.7707C55.2095 32.6756 52.7004 30.1665 49.6053 30.1665C46.5102 30.1665 44.0011 32.6756 44.0011 35.7707C44.0011 38.8659 46.5102 41.375 49.6053 41.375Z" fill="url(#paint1_radial_1448_49)"/>
<path d="M22.3966 41.375C25.4917 41.375 28.0008 38.8659 28.0008 35.7707C28.0008 32.6756 25.4917 30.1665 22.3966 30.1665C19.3015 30.1665 16.7924 32.6756 16.7924 35.7707C16.7924 38.8659 19.3015 41.375 22.3966 41.375Z" fill="url(#paint2_radial_1448_49)"/>
<path d="M36.0147 52.5851C44.851 52.5851 52.0141 47.2127 52.0141 40.5856C52.0141 33.9584 44.851 28.5861 36.0147 28.5861C27.1785 28.5861 20.0154 33.9584 20.0154 40.5856C20.0154 47.2127 27.1785 52.5851 36.0147 52.5851Z" fill="url(#paint3_radial_1448_49)"/>
<path d="M31.2833 39.4186C31.19 41.4514 29.8416 42.1891 28.2692 42.1891C26.6969 42.1891 25.5005 41.1483 25.5947 39.1155C25.688 37.0827 27.0373 35.7369 28.6088 35.7369C30.1803 35.7369 31.3776 37.3849 31.2833 39.4186Z" fill="#842123"/>
<path d="M46.4339 39.1155C46.5272 41.1483 45.3299 42.1891 43.7593 42.1891C42.1887 42.1891 40.8394 41.4514 40.7452 39.4186C40.6519 37.3858 41.8492 35.7369 43.4198 35.7369C44.9904 35.7369 46.3397 37.0818 46.4339 39.1155Z" fill="#842123"/>
<path d="M31.2851 39.5964C31.1971 41.4994 29.9349 42.1891 28.4648 42.1891C26.9946 42.1891 25.8738 41.1554 25.9618 39.2533C26.0498 37.3502 27.3119 36.1058 28.7821 36.1058C30.2523 36.1058 31.3722 37.6933 31.2851 39.5964Z" fill="url(#paint4_radial_1448_49)"/>
<path d="M40.7443 39.5964C40.8315 41.4994 42.0945 42.1891 43.5647 42.1891C45.0348 42.1891 46.1557 41.1554 46.0677 39.2533C45.9797 37.3502 44.7175 36.1058 43.2474 36.1058C41.7772 36.1058 40.6564 37.6933 40.7443 39.5964Z" fill="url(#paint5_radial_1448_49)"/>
<path d="M29.6976 38.5377C30.0413 38.5377 30.3198 38.2337 30.3198 37.8586C30.3198 37.4836 30.0413 37.1796 29.6976 37.1796C29.354 37.1796 29.0754 37.4836 29.0754 37.8586C29.0754 38.2337 29.354 38.5377 29.6976 38.5377Z" fill="#FFC49C"/>
<path d="M44.4926 38.5377C44.8362 38.5377 45.1148 38.2337 45.1148 37.8586C45.1148 37.4836 44.8362 37.1796 44.4926 37.1796C44.1489 37.1796 43.8704 37.4836 43.8704 37.8586C43.8704 38.2337 44.1489 38.5377 44.4926 38.5377Z" fill="#FFC49C"/>
<path d="M36.0139 43.5455C34.0299 43.5455 32.1287 43.6415 30.3705 43.8157C30.0701 43.846 29.8799 44.1517 29.9963 44.4255C30.9812 46.7338 33.3046 48.3551 36.0139 48.3551C38.7231 48.3551 41.0465 46.7338 42.0314 44.4255C42.1478 44.1517 41.9576 43.846 41.6572 43.8157C39.899 43.6406 37.9978 43.5455 36.0139 43.5455Z" fill="#BBCFDA"/>
<path d="M36.0139 43.9863C34.0362 43.9863 32.1411 44.0832 30.3883 44.261C30.0888 44.2912 29.8986 44.6023 30.015 44.8805C30.9972 47.2253 33.3126 48.8724 36.0139 48.8724C38.7151 48.8724 41.0306 47.2253 42.0127 44.8805C42.1292 44.6032 41.939 44.2921 41.6394 44.261C39.8866 44.0832 37.9916 43.9863 36.0139 43.9863Z" fill="white"/>
<path d="M36.0138 43.7571C34.0672 43.7571 32.2015 43.8531 30.4762 44.0273C30.1811 44.0575 29.9945 44.3633 30.1091 44.637C31.0753 46.9454 33.3552 48.5667 36.0147 48.5667C38.6741 48.5667 40.9532 46.9454 41.9202 44.637C42.0349 44.3633 41.8482 44.0575 41.5531 44.0273C39.8279 43.8522 37.9622 43.7571 36.0138 43.7571Z" fill="url(#paint6_radial_1448_49)"/>
<path d="M44.7771 26.9542C46.9704 26.9542 48.7485 25.1761 48.7485 22.9828C48.7485 20.7894 46.9704 19.0114 44.7771 19.0114C42.5837 19.0114 40.8057 20.7894 40.8057 22.9828C40.8057 25.1761 42.5837 26.9542 44.7771 26.9542Z" fill="url(#paint7_radial_1448_49)"/>
<path d="M35.9569 29.0919C35.4813 29.0919 35.0956 28.8928 35.0956 28.5861C35.0956 25.028 37.9897 22.1339 41.5478 22.1339C42.0233 22.1339 42.4091 22.5197 42.4091 22.9952C42.4091 23.4707 42.0233 23.8565 41.5478 23.8565C38.9399 23.8565 36.8173 25.9782 36.8173 28.587C36.8173 28.8936 36.4315 29.0927 35.956 29.0927L35.9569 29.0919Z" fill="url(#paint8_radial_1448_49)"/>
<path d="M30.239 40.5376C30.239 41.2736 29.4559 41.6043 28.4888 41.6043C27.5217 41.6043 26.7386 41.2736 26.7386 40.5376C26.7386 39.8017 27.5217 39.2043 28.4888 39.2043C29.4559 39.2043 30.239 39.8017 30.239 40.5376Z" fill="#FF6101"/>
<path d="M45.289 40.5376C45.289 41.2736 44.5059 41.6043 43.5388 41.6043C42.5718 41.6043 41.7887 41.2736 41.7887 40.5376C41.7887 39.8017 42.5718 39.2043 43.5388 39.2043C44.5059 39.2043 45.289 39.8017 45.289 40.5376Z" fill="#FF6101"/>
</g>
</g>
</g>
<defs>
<filter id="filter0_d_1448_49" x="0" y="0" width="72" height="72" filterUnits="userSpaceOnUse" color-interpolation-filters="sRGB">
<feFlood flood-opacity="0" result="BackgroundImageFix"/>
<feColorMatrix in="SourceAlpha" type="matrix" values="0 0 0 0 0 0 0 0 0 0 0 0 0 0 0 0 0 0 127 0" result="hardAlpha"/>
<feOffset/>
<feGaussianBlur stdDeviation="2"/>
<feComposite in2="hardAlpha" operator="out"/>
<feColorMatrix type="matrix" values="0 0 0 0 0 0 0 0 0 0 0 0 0 0 0 0 0 0 0.1 0"/>
<feBlend mode="normal" in2="BackgroundImageFix" result="effect1_dropShadow_1448_49"/>
<feBlend mode="normal" in="SourceGraphic" in2="effect1_dropShadow_1448_49" result="shape"/>
</filter>
<linearGradient id="paint0_linear_1448_49" x1="36" y1="4" x2="36" y2="68" gradientUnits="userSpaceOnUse">
<stop stop-color="white"/>
<stop offset="1" stop-color="#F0F6FF"/>
</linearGradient>
<radialGradient id="paint1_radial_1448_49" cx="0" cy="0" r="1" gradientUnits="userSpaceOnUse" gradientTransform="translate(49.7231 32.4343) scale(11.3284 9.85574)">
<stop stop-color="#FEFFFF"/>
<stop offset="0.4" stop-color="#FEFFFF"/>
<stop offset="0.51" stop-color="#F9FCFC"/>
<stop offset="0.62" stop-color="#EDF3F5"/>
<stop offset="0.7" stop-color="#DEE9EC"/>
<stop offset="0.72" stop-color="#D8E4E8"/>
<stop offset="0.76" stop-color="#CCD8DF"/>
<stop offset="0.8" stop-color="#C8D5DD"/>
<stop offset="0.83" stop-color="#CCD6DE"/>
<stop offset="0.85" stop-color="#D8DBE2"/>
<stop offset="0.88" stop-color="#EDE3E9"/>
<stop offset="0.9" stop-color="#FFEBEF"/>
</radialGradient>
<radialGradient id="paint2_radial_1448_49" cx="0" cy="0" r="1" gradientUnits="userSpaceOnUse" gradientTransform="translate(22.5144 32.4855) scale(11.3284)">
<stop stop-color="#FEFFFF"/>
<stop offset="0.4" stop-color="#FEFFFF"/>
<stop offset="0.51" stop-color="#F9FCFC"/>
<stop offset="0.62" stop-color="#EDF3F5"/>
<stop offset="0.7" stop-color="#DEE9EC"/>
<stop offset="0.72" stop-color="#D8E4E8"/>
<stop offset="0.76" stop-color="#CCD8DF"/>
<stop offset="0.8" stop-color="#C8D5DD"/>
<stop offset="0.83" stop-color="#CCD6DE"/>
<stop offset="0.85" stop-color="#D8DBE2"/>
<stop offset="0.88" stop-color="#EDE3E9"/>
<stop offset="0.9" stop-color="#FFEBEF"/>
</radialGradient>
<radialGradient id="paint3_radial_1448_49" cx="0" cy="0" r="1" gradientUnits="userSpaceOnUse" gradientTransform="translate(36.3592 31.0025) scale(34.1711 23.9198)">
<stop stop-color="#FEFFFF"/>
<stop offset="0.4" stop-color="#FEFFFF"/>
<stop offset="0.51" stop-color="#F9FCFC"/>
<stop offset="0.62" stop-color="#EDF3F5"/>
<stop offset="0.7" stop-color="#DEE9EC"/>
<stop offset="0.72" stop-color="#D8E4E8"/>
<stop offset="0.76" stop-color="#CCD8DF"/>
<stop offset="0.8" stop-color="#C8D5DD"/>
<stop offset="0.83" stop-color="#CCD6DE"/>
<stop offset="0.85" stop-color="#D8DBE2"/>
<stop offset="0.88" stop-color="#EDE3E9"/>
<stop offset="0.9" stop-color="#FFEBEF"/>
</radialGradient>
<radialGradient id="paint4_radial_1448_49" cx="0" cy="0" r="1" gradientUnits="userSpaceOnUse" gradientTransform="translate(28.7648 40.4382) scale(2.855 4.1683)">
<stop stop-color="#FF6600"/>
<stop offset="0.5" stop-color="#FF4500"/>
<stop offset="0.7" stop-color="#FC4301"/>
<stop offset="0.82" stop-color="#F43F07"/>
<stop offset="0.92" stop-color="#E53812"/>
<stop offset="1" stop-color="#D4301F"/>
</radialGradient>
<radialGradient id="paint5_radial_1448_49" cx="0" cy="0" r="1" gradientUnits="userSpaceOnUse" gradientTransform="translate(43.2638 40.4382) rotate(180) scale(2.855 4.1683)">
<stop stop-color="#FF6600"/>
<stop offset="0.5" stop-color="#FF4500"/>
<stop offset="0.7" stop-color="#FC4301"/>
<stop offset="0.82" stop-color="#F43F07"/>
<stop offset="0.92" stop-color="#E53812"/>
<stop offset="1" stop-color="#D4301F"/>
</radialGradient>
<radialGradient id="paint6_radial_1448_49" cx="0" cy="0" r="1" gradientUnits="userSpaceOnUse" gradientTransform="translate(35.9849 49.2158) scale(10.0672 6.64432)">
<stop stop-color="#172E35"/>
<stop offset="0.29" stop-color="#0E1C21"/>
<stop offset="0.73" stop-color="#030708"/>
<stop offset="1"/>
</radialGradient>
<radialGradient id="paint7_radial_1448_49" cx="0" cy="0" r="1" gradientUnits="userSpaceOnUse" gradientTransform="translate(44.8628 19.3189) scale(8.83698 8.66025)">
<stop stop-color="#FEFFFF"/>
<stop offset="0.4" stop-color="#FEFFFF"/>
<stop offset="0.51" stop-color="#F9FCFC"/>
<stop offset="0.62" stop-color="#EDF3F5"/>
<stop offset="0.7" stop-color="#DEE9EC"/>
<stop offset="0.72" stop-color="#D8E4E8"/>
<stop offset="0.76" stop-color="#CCD8DF"/>
<stop offset="0.8" stop-color="#C8D5DD"/>
<stop offset="0.83" stop-color="#CCD6DE"/>
<stop offset="0.85" stop-color="#D8DBE2"/>
<stop offset="0.88" stop-color="#EDE3E9"/>
<stop offset="0.9" stop-color="#FFEBEF"/>
</radialGradient>
<radialGradient id="paint8_radial_1448_49" cx="0" cy="0" r="1" gradientUnits="userSpaceOnUse" gradientTransform="translate(41.1802 28.2394) scale(7.24327)">
<stop offset="0.48" stop-color="#7A9299"/>
<stop offset="0.67" stop-color="#172E35"/>
<stop offset="0.75"/>
<stop offset="0.82" stop-color="#172E35"/>
</radialGradient>
<clipPath id="clip0_1448_49">
<rect width="72" height="72" fill="white"/>
</clipPath>
<clipPath id="clip1_1448_49">
<rect width="38.4171" height="33.5738" fill="white" transform="translate(16.7924 19.0114)"/>
</clipPath>
</defs>
</svg>
