<svg width="72" height="72" viewBox="0 0 72 72" fill="none" xmlns="http://www.w3.org/2000/svg">
<g clip-path="url(#clip0_1343_49)">
<g filter="url(#filter0_d_1343_49)">
<rect x="4" y="4" width="64" height="64" rx="16" fill="url(#paint0_linear_1343_49)"/>
</g>
<mask id="mask0_1343_49" style="mask-type:alpha" maskUnits="userSpaceOnUse" x="4" y="4" width="64" height="64">
<rect x="4" y="4" width="64" height="64" rx="16" fill="white"/>
</mask>
<g mask="url(#mask0_1343_49)">
<g filter="url(#filter1_dii_1343_49)">
<circle cx="32" cy="32" r="17" fill="url(#paint1_radial_1343_49)" stroke="white" stroke-width="6" stroke-linecap="round"/>
<path fill-rule="evenodd" clip-rule="evenodd" d="M46 32C46 39.732 39.732 46 32 46C24.268 46 18 39.732 18 32C18 24.268 24.268 18 32 18C39.732 18 46 24.268 46 32ZM43.0296 48.6864C39.8678 50.7805 36.0763 52 32 52C20.9543 52 12 43.0457 12 32C12 20.9543 20.9543 12 32 12C43.0457 12 52 20.9543 52 32C52 36.0763 50.7805 39.8678 48.6864 43.0296L56.8284 51.1716C58.3905 52.7337 58.3905 55.2663 56.8284 56.8284C55.2663 58.3905 52.7337 58.3905 51.1716 56.8284L43.0296 48.6864Z" fill="white"/>
</g>
</g>
</g>
<defs>
<filter id="filter0_d_1343_49" x="0" y="0" width="72" height="72" filterUnits="userSpaceOnUse" color-interpolation-filters="sRGB">
<feFlood flood-opacity="0" result="BackgroundImageFix"/>
<feColorMatrix in="SourceAlpha" type="matrix" values="0 0 0 0 0 0 0 0 0 0 0 0 0 0 0 0 0 0 127 0" result="hardAlpha"/>
<feOffset/>
<feGaussianBlur stdDeviation="2"/>
<feComposite in2="hardAlpha" operator="out"/>
<feColorMatrix type="matrix" values="0 0 0 0 0 0 0 0 0 0 0 0 0 0 0 0 0 0 0.1 0"/>
<feBlend mode="normal" in2="BackgroundImageFix" result="effect1_dropShadow_1343_49"/>
<feBlend mode="normal" in="SourceGraphic" in2="effect1_dropShadow_1343_49" result="shape"/>
</filter>
<filter id="filter1_dii_1343_49" x="4" y="6" width="62" height="64" filterUnits="userSpaceOnUse" color-interpolation-filters="sRGB">
<feFlood flood-opacity="0" result="BackgroundImageFix"/>
<feColorMatrix in="SourceAlpha" type="matrix" values="0 0 0 0 0 0 0 0 0 0 0 0 0 0 0 0 0 0 127 0" result="hardAlpha"/>
<feOffset dy="4"/>
<feGaussianBlur stdDeviation="4"/>
<feComposite in2="hardAlpha" operator="out"/>
<feColorMatrix type="matrix" values="0 0 0 0 0 0 0 0 0 0 0 0 0 0 0 0 0 0 0.1 0"/>
<feBlend mode="normal" in2="BackgroundImageFix" result="effect1_dropShadow_1343_49"/>
<feBlend mode="normal" in="SourceGraphic" in2="effect1_dropShadow_1343_49" result="shape"/>
<feColorMatrix in="SourceAlpha" type="matrix" values="0 0 0 0 0 0 0 0 0 0 0 0 0 0 0 0 0 0 127 0" result="hardAlpha"/>
<feOffset dy="-6"/>
<feGaussianBlur stdDeviation="3"/>
<feComposite in2="hardAlpha" operator="arithmetic" k2="-1" k3="1"/>
<feColorMatrix type="matrix" values="0 0 0 0 0 0 0 0 0 0 0 0 0 0 0 0 0 0 0.15 0"/>
<feBlend mode="normal" in2="shape" result="effect2_innerShadow_1343_49"/>
<feColorMatrix in="SourceAlpha" type="matrix" values="0 0 0 0 0 0 0 0 0 0 0 0 0 0 0 0 0 0 127 0" result="hardAlpha"/>
<feOffset dy="-2"/>
<feGaussianBlur stdDeviation="1.5"/>
<feComposite in2="hardAlpha" operator="arithmetic" k2="-1" k3="1"/>
<feColorMatrix type="matrix" values="0 0 0 0 0 0 0 0 0 0.866667 0 0 0 0 1 0 0 0 0.25 0"/>
<feBlend mode="normal" in2="effect2_innerShadow_1343_49" result="effect3_innerShadow_1343_49"/>
</filter>
<linearGradient id="paint0_linear_1343_49" x1="36" y1="4" x2="36" y2="68" gradientUnits="userSpaceOnUse">
<stop stop-color="#00A0E8"/>
<stop offset="1" stop-color="#0061E0"/>
</linearGradient>
<radialGradient id="paint1_radial_1343_49" cx="0" cy="0" r="1" gradientUnits="userSpaceOnUse" gradientTransform="translate(32 46) rotate(-90) scale(28)">
<stop stop-color="#00F150"/>
<stop offset="1" stop-color="#006EFF"/>
</radialGradient>
<clipPath id="clip0_1343_49">
<rect width="72" height="72" fill="white"/>
</clipPath>
</defs>
</svg>
