<svg width="16" height="16" viewBox="0 0 16 16" fill="none" xmlns="http://www.w3.org/2000/svg">
<path fill-rule="evenodd" clip-rule="evenodd" d="M6.21701 4.27995C6.06375 4.45233 5.86809 4.60896 5.63743 4.60896V4.60896C5.3001 4.60896 5.04106 4.29875 5.2003 4.00137C5.53723 3.37215 6.20093 2.94414 6.9646 2.94414H11.0568C12.1614 2.94414 13.0568 3.83957 13.0568 4.94414V9.05032C13.0568 9.81112 12.632 10.4727 12.0066 10.8108C11.7089 10.9718 11.3972 10.7123 11.3972 10.3739V10.3739C11.3972 10.144 11.5526 9.94873 11.7238 9.79534C11.9282 9.61224 12.0568 9.3463 12.0568 9.05032V4.94414C12.0568 4.39185 11.6091 3.94414 11.0568 3.94414H6.9646C6.66723 3.94414 6.40019 4.07393 6.21701 4.27995Z" fill="white"/>
<path d="M9 5.5H5C4.17157 5.5 3.5 6.17157 3.5 7V11C3.5 11.8284 4.17157 12.5 5 12.5H9C9.82843 12.5 10.5 11.8284 10.5 11V7C10.5 6.17157 9.82843 5.5 9 5.5Z" stroke="white" stroke-linecap="round" stroke-linejoin="round"/>
</svg>
