<svg width="72" height="72" viewBox="0 0 72 72" fill="none" xmlns="http://www.w3.org/2000/svg">
<g clip-path="url(#clip0_1448_20)">
<g filter="url(#filter0_d_1448_20)">
<rect x="4" y="4" width="64" height="64" rx="16" fill="url(#paint0_linear_1448_20)"/>
</g>
<mask id="mask0_1448_20" style="mask-type:alpha" maskUnits="userSpaceOnUse" x="4" y="4" width="64" height="64">
<rect x="4" y="4" width="64" height="64" rx="16" fill="white"/>
</mask>
<g mask="url(#mask0_1448_20)">
<path d="M16.9005 18.4563L31.721 38.2728L16.8069 54.3844H20.1635L33.2208 40.2784L43.7707 54.3844H55.1932L39.5388 33.4533L53.4208 18.4563H50.0642L38.0391 31.4476L28.323 18.4563H16.9005ZM21.8366 20.9288H27.0841L50.2564 51.9115H45.0088L21.8366 20.9288Z" fill="url(#paint1_linear_1448_20)"/>
<mask id="mask1_1448_20" style="mask-type:alpha" maskUnits="userSpaceOnUse" x="4" y="4" width="64" height="64">
<rect x="4" y="4" width="64" height="64" fill="url(#paint2_linear_1448_20)"/>
</mask>
<g mask="url(#mask1_1448_20)">
<g filter="url(#filter1_f_1448_20)">
<path d="M16.9005 18.4563L31.721 38.2728L16.8069 54.3844H20.1635L33.2208 40.2784L43.7707 54.3844H55.1932L39.5388 33.4533L53.4208 18.4563H50.0642L38.0391 31.4476L28.323 18.4563H16.9005ZM21.8366 20.9288H27.0841L50.2564 51.9115H45.0088L21.8366 20.9288Z" fill="white"/>
</g>
</g>
</g>
</g>
<defs>
<filter id="filter0_d_1448_20" x="0" y="0" width="72" height="72" filterUnits="userSpaceOnUse" color-interpolation-filters="sRGB">
<feFlood flood-opacity="0" result="BackgroundImageFix"/>
<feColorMatrix in="SourceAlpha" type="matrix" values="0 0 0 0 0 0 0 0 0 0 0 0 0 0 0 0 0 0 127 0" result="hardAlpha"/>
<feOffset/>
<feGaussianBlur stdDeviation="2"/>
<feComposite in2="hardAlpha" operator="out"/>
<feColorMatrix type="matrix" values="0 0 0 0 0 0 0 0 0 0 0 0 0 0 0 0 0 0 0.1 0"/>
<feBlend mode="normal" in2="BackgroundImageFix" result="effect1_dropShadow_1448_20"/>
<feBlend mode="normal" in="SourceGraphic" in2="effect1_dropShadow_1448_20" result="shape"/>
</filter>
<filter id="filter1_f_1448_20" x="4.80688" y="6.4563" width="62.3864" height="59.9281" filterUnits="userSpaceOnUse" color-interpolation-filters="sRGB">
<feFlood flood-opacity="0" result="BackgroundImageFix"/>
<feBlend mode="normal" in="SourceGraphic" in2="BackgroundImageFix" result="shape"/>
<feGaussianBlur stdDeviation="6" result="effect1_foregroundBlur_1448_20"/>
</filter>
<linearGradient id="paint0_linear_1448_20" x1="36" y1="4" x2="36" y2="68" gradientUnits="userSpaceOnUse">
<stop stop-color="#101214"/>
<stop offset="1"/>
</linearGradient>
<linearGradient id="paint1_linear_1448_20" x1="36.0001" y1="18.4563" x2="36.0001" y2="54.3844" gradientUnits="userSpaceOnUse">
<stop stop-color="white"/>
<stop offset="1" stop-color="#E0E0E0"/>
</linearGradient>
<linearGradient id="paint2_linear_1448_20" x1="36" y1="18.5" x2="36" y2="54.5" gradientUnits="userSpaceOnUse">
<stop stop-color="#D9D9D9"/>
<stop offset="1" stop-color="#D9D9D9" stop-opacity="0"/>
</linearGradient>
<clipPath id="clip0_1448_20">
<rect width="72" height="72" fill="white"/>
</clipPath>
</defs>
</svg>
