<svg width="72" height="72" viewBox="0 0 72 72" fill="none" xmlns="http://www.w3.org/2000/svg">
<g clip-path="url(#clip0_547_520)">
<g filter="url(#filter0_d_547_520)">
<rect x="4" y="4" width="64" height="64" rx="16" fill="url(#paint0_linear_547_520)"/>
</g>
<mask id="mask0_547_520" style="mask-type:alpha" maskUnits="userSpaceOnUse" x="4" y="4" width="64" height="64">
<rect x="4" y="4" width="64" height="64" rx="16" fill="white"/>
</mask>
<g mask="url(#mask0_547_520)">
<rect x="11" y="47" width="4" height="4" rx="2" fill="#C00040"/>
<rect x="34" y="47" width="4" height="4" rx="2" fill="#C00040"/>
<rect x="57" y="47" width="4" height="4" rx="2" fill="#C00040"/>
<rect x="17.5" y="48" width="2" height="2" rx="1" fill="#C00040"/>
<rect x="21.5" y="48" width="2" height="2" rx="1" fill="#C00040"/>
<rect x="25.5" y="48" width="2" height="2" rx="1" fill="#C00040"/>
<rect x="29.5" y="48" width="2" height="2" rx="1" fill="#C00040"/>
<rect x="40.5" y="48" width="2" height="2" rx="1" fill="#C00040"/>
<rect x="44.5" y="48" width="2" height="2" rx="1" fill="#C00040"/>
<rect x="48.5" y="48" width="2" height="2" rx="1" fill="#C00040"/>
<rect x="52.5" y="48" width="2" height="2" rx="1" fill="#C00040"/>
<rect x="12" y="21" width="2" height="24" rx="1" fill="#0061E0" fill-opacity="0.25"/>
<rect x="17.5" y="30" width="2" height="15" rx="1" fill="#0061E0" fill-opacity="0.1"/>
<rect x="21.5" y="30" width="2" height="15" rx="1" fill="#0061E0" fill-opacity="0.1"/>
<rect x="25.5" y="30" width="2" height="15" rx="1" fill="#0061E0" fill-opacity="0.1"/>
<rect x="29.5" y="30" width="2" height="15" rx="1" fill="#0061E0" fill-opacity="0.1"/>
<rect x="58" y="21" width="2" height="24" rx="1" fill="#0061E0" fill-opacity="0.25"/>
<rect x="35" y="25" width="2" height="20" rx="1" fill="#0061E0" fill-opacity="0.25"/>
<rect x="40.5" y="30" width="2" height="15" rx="1" fill="#0061E0" fill-opacity="0.1"/>
<rect x="44.5" y="30" width="2" height="15" rx="1" fill="#0061E0" fill-opacity="0.1"/>
<rect x="48.5" y="30" width="2" height="15" rx="1" fill="#0061E0" fill-opacity="0.1"/>
<rect x="52.5" y="30" width="2" height="15" rx="1" fill="#0061E0" fill-opacity="0.1"/>
</g>
</g>
<defs>
<filter id="filter0_d_547_520" x="0" y="0" width="72" height="72" filterUnits="userSpaceOnUse" color-interpolation-filters="sRGB">
<feFlood flood-opacity="0" result="BackgroundImageFix"/>
<feColorMatrix in="SourceAlpha" type="matrix" values="0 0 0 0 0 0 0 0 0 0 0 0 0 0 0 0 0 0 127 0" result="hardAlpha"/>
<feOffset/>
<feGaussianBlur stdDeviation="2"/>
<feComposite in2="hardAlpha" operator="out"/>
<feColorMatrix type="matrix" values="0 0 0 0 0 0 0 0 0 0 0 0 0 0 0 0 0 0 0.1 0"/>
<feBlend mode="normal" in2="BackgroundImageFix" result="effect1_dropShadow_547_520"/>
<feBlend mode="normal" in="SourceGraphic" in2="effect1_dropShadow_547_520" result="shape"/>
</filter>
<linearGradient id="paint0_linear_547_520" x1="36" y1="4" x2="36" y2="68" gradientUnits="userSpaceOnUse">
<stop stop-color="white"/>
<stop offset="1" stop-color="#F0F6FF"/>
</linearGradient>
<clipPath id="clip0_547_520">
<rect width="72" height="72" fill="white"/>
</clipPath>
</defs>
</svg>
