<svg width="72" height="72" viewBox="0 0 72 72" fill="none" xmlns="http://www.w3.org/2000/svg">
<g clip-path="url(#clip0_1477_7)">
<g filter="url(#filter0_d_1477_7)">
<rect x="4" y="4" width="64" height="64" rx="16" fill="url(#paint0_linear_1477_7)"/>
</g>
<mask id="mask0_1477_7" style="mask-type:alpha" maskUnits="userSpaceOnUse" x="4" y="4" width="64" height="64">
<rect x="4" y="4" width="64" height="64" rx="16" fill="white"/>
</mask>
<g mask="url(#mask0_1477_7)">
<path d="M36.0104 4C22.6507 4 18.7435 4.01379 17.9841 4.07681C15.2424 4.30476 13.5364 4.73655 11.6778 5.66217C10.2454 6.37362 9.11581 7.1983 8.00094 8.35434C5.97056 10.4626 4.74002 13.0563 4.29456 16.1394C4.07799 17.6361 4.01499 17.9414 4.00219 25.5866C3.99727 28.135 4.00219 31.4889 4.00219 35.9874C4.00219 49.34 4.01695 53.2443 4.08094 54.0025C4.30244 56.671 4.72082 58.35 5.60681 60.1864C7.30003 63.7018 10.5339 66.3408 14.3436 67.3255C15.6628 67.6652 17.1197 67.8523 18.9901 67.9409C19.7826 67.9754 27.8599 68 35.942 68C44.0242 68 52.1064 67.9902 52.8791 67.9508C55.0449 67.8489 56.3025 67.68 57.693 67.3206C61.5274 66.3309 64.7022 63.7313 66.4298 60.1667C67.2986 58.3746 67.7391 56.6317 67.9385 54.1025C67.9818 53.551 68 44.7591 68 35.9791C68 27.1975 67.9803 18.4219 67.937 17.8705C67.7352 15.3004 67.2947 13.5723 66.3978 11.7456C65.662 10.2504 64.8449 9.13373 63.6587 7.99197C61.5416 5.9694 58.9526 4.73852 55.8674 4.29344C54.3725 4.0773 54.0747 4.01329 46.4257 4H36.0104Z" fill="url(#paint1_radial_1477_7)"/>
<path d="M36.0104 4C22.6507 4 18.7435 4.01379 17.9841 4.07681C15.2424 4.30476 13.5364 4.73655 11.6778 5.66217C10.2454 6.37362 9.11581 7.1983 8.00094 8.35434C5.97056 10.4626 4.74002 13.0563 4.29456 16.1394C4.07799 17.6361 4.01499 17.9414 4.00219 25.5866C3.99727 28.135 4.00219 31.4889 4.00219 35.9874C4.00219 49.34 4.01695 53.2443 4.08094 54.0025C4.30244 56.671 4.72082 58.35 5.60681 60.1864C7.30003 63.7018 10.5339 66.3408 14.3436 67.3255C15.6628 67.6652 17.1197 67.8523 18.9901 67.9409C19.7826 67.9754 27.8599 68 35.942 68C44.0242 68 52.1064 67.9902 52.8791 67.9508C55.0449 67.8489 56.3025 67.68 57.693 67.3206C61.5274 66.3309 64.7022 63.7313 66.4298 60.1667C67.2986 58.3746 67.7391 56.6317 67.9385 54.1025C67.9818 53.551 68 44.7591 68 35.9791C68 27.1975 67.9803 18.4219 67.937 17.8705C67.7352 15.3004 67.2947 13.5723 66.3978 11.7456C65.662 10.2504 64.8449 9.13373 63.6587 7.99197C61.5416 5.9694 58.9526 4.73852 55.8674 4.29344C54.3725 4.0773 54.0747 4.01329 46.4257 4H36.0104Z" fill="url(#paint2_radial_1477_7)"/>
<g filter="url(#filter1_di_1477_7)">
<path d="M36.0022 12C29.4842 12 28.6662 12.0285 26.1061 12.145C23.5511 12.262 21.8071 12.6665 20.2811 13.26C18.7026 13.873 17.3636 14.693 16.0295 16.0275C14.6945 17.3616 13.8745 18.7006 13.2595 20.2786C12.6645 21.8051 12.2595 23.5496 12.1445 26.1036C12.03 28.6637 12 29.4822 12 36.0002C12 42.5183 12.029 43.3338 12.145 45.8939C12.2625 48.4489 12.667 50.1929 13.26 51.7189C13.8735 53.2974 14.6935 54.6364 16.028 55.9705C17.3616 57.3055 18.7006 58.1275 20.2781 58.7405C21.8051 59.334 23.5496 59.7385 26.1041 59.8555C28.6642 59.972 29.4817 60.0005 35.9992 60.0005C42.5178 60.0005 43.3333 59.972 45.8934 59.8555C48.4484 59.7385 50.1944 59.334 51.7214 58.7405C53.2994 58.1275 54.6364 57.3055 55.97 55.9705C57.305 54.6364 58.125 53.2974 58.74 51.7194C59.33 50.1929 59.735 48.4484 59.855 45.8944C59.97 43.3343 60 42.5183 60 36.0002C60 29.4822 59.97 28.6642 59.855 26.1041C59.735 23.5491 59.33 21.8051 58.74 20.2791C58.125 18.7006 57.305 17.3616 55.97 16.0275C54.6349 14.6925 53.2999 13.8725 51.7199 13.26C50.1899 12.6665 48.4449 12.262 45.8899 12.145C43.3298 12.0285 42.5148 12 35.9947 12H36.0022ZM33.8492 16.325C34.4882 16.324 35.2012 16.325 36.0022 16.325C42.4103 16.325 43.1698 16.348 45.7004 16.463C48.0404 16.57 49.3104 16.9611 50.1564 17.2896C51.2764 17.7246 52.0749 18.2446 52.9144 19.0846C53.7544 19.9246 54.2744 20.7246 54.7104 21.8446C55.0389 22.6896 55.4304 23.9596 55.537 26.2996C55.652 28.8297 55.677 29.5897 55.677 35.9947C55.677 42.3998 55.652 43.1598 55.537 45.6898C55.4299 48.0299 55.0389 49.2999 54.7104 50.1449C54.2754 51.2649 53.7544 52.0624 52.9144 52.9019C52.0744 53.7419 51.2769 54.2619 50.1564 54.6969C49.3114 55.0269 48.0404 55.4169 45.7004 55.5239C43.1703 55.639 42.4103 55.664 36.0022 55.664C29.5937 55.664 28.8342 55.639 26.3041 55.5239C23.9641 55.4159 22.6941 55.0249 21.8476 54.6964C20.7276 54.2614 19.9276 53.7414 19.0876 52.9014C18.2476 52.0614 17.7276 51.2634 17.2916 50.1429C16.9631 49.2979 16.5715 48.0279 16.465 45.6878C16.35 43.1578 16.327 42.3978 16.327 35.9887C16.327 29.5797 16.35 28.8237 16.465 26.2936C16.572 23.9536 16.9631 22.6836 17.2916 21.8376C17.7266 20.7176 18.2476 19.9176 19.0876 19.0776C19.9276 18.2376 20.7276 17.7176 21.8476 17.2816C22.6936 16.9516 23.9641 16.5615 26.3041 16.454C28.5182 16.354 29.3762 16.324 33.8492 16.319V16.325ZM48.8134 20.3101C47.2234 20.3101 45.9334 21.5986 45.9334 23.1891C45.9334 24.7791 47.2234 26.0691 48.8134 26.0691C50.4034 26.0691 51.6934 24.7791 51.6934 23.1891C51.6934 21.5991 50.4034 20.3091 48.8134 20.3091V20.3101ZM36.0022 23.6751C29.1957 23.6751 23.6771 29.1937 23.6771 36.0002C23.6771 42.8068 29.1957 48.3229 36.0022 48.3229C42.8088 48.3229 48.3254 42.8068 48.3254 36.0002C48.3254 29.1937 42.8088 23.6751 36.0022 23.6751ZM36.0022 28.0002C40.4203 28.0002 44.0023 31.5817 44.0023 36.0002C44.0023 40.4183 40.4203 44.0003 36.0022 44.0003C31.5837 44.0003 28.0022 40.4183 28.0022 36.0002C28.0022 31.5817 31.5837 28.0002 36.0022 28.0002Z" fill="white"/>
</g>
</g>
</g>
<defs>
<filter id="filter0_d_1477_7" x="0" y="0" width="72" height="72" filterUnits="userSpaceOnUse" color-interpolation-filters="sRGB">
<feFlood flood-opacity="0" result="BackgroundImageFix"/>
<feColorMatrix in="SourceAlpha" type="matrix" values="0 0 0 0 0 0 0 0 0 0 0 0 0 0 0 0 0 0 127 0" result="hardAlpha"/>
<feOffset/>
<feGaussianBlur stdDeviation="2"/>
<feComposite in2="hardAlpha" operator="out"/>
<feColorMatrix type="matrix" values="0 0 0 0 0 0 0 0 0 0 0 0 0 0 0 0 0 0 0.1 0"/>
<feBlend mode="normal" in2="BackgroundImageFix" result="effect1_dropShadow_1477_7"/>
<feBlend mode="normal" in="SourceGraphic" in2="effect1_dropShadow_1477_7" result="shape"/>
</filter>
<filter id="filter1_di_1477_7" x="8" y="10" width="56" height="58.0005" filterUnits="userSpaceOnUse" color-interpolation-filters="sRGB">
<feFlood flood-opacity="0" result="BackgroundImageFix"/>
<feColorMatrix in="SourceAlpha" type="matrix" values="0 0 0 0 0 0 0 0 0 0 0 0 0 0 0 0 0 0 127 0" result="hardAlpha"/>
<feOffset dy="4"/>
<feGaussianBlur stdDeviation="2"/>
<feComposite in2="hardAlpha" operator="out"/>
<feColorMatrix type="matrix" values="0 0 0 0 0 0 0 0 0 0 0 0 0 0 0 0 0 0 0.1 0"/>
<feBlend mode="normal" in2="BackgroundImageFix" result="effect1_dropShadow_1477_7"/>
<feBlend mode="normal" in="SourceGraphic" in2="effect1_dropShadow_1477_7" result="shape"/>
<feColorMatrix in="SourceAlpha" type="matrix" values="0 0 0 0 0 0 0 0 0 0 0 0 0 0 0 0 0 0 127 0" result="hardAlpha"/>
<feOffset dy="-2"/>
<feGaussianBlur stdDeviation="1"/>
<feComposite in2="hardAlpha" operator="arithmetic" k2="-1" k3="1"/>
<feColorMatrix type="matrix" values="0 0 0 0 0 0 0 0 0 0 0 0 0 0 0 0 0 0 0.1 0"/>
<feBlend mode="normal" in2="shape" result="effect2_innerShadow_1477_7"/>
</filter>
<linearGradient id="paint0_linear_1477_7" x1="36" y1="4" x2="36" y2="68" gradientUnits="userSpaceOnUse">
<stop stop-color="white"/>
<stop offset="1" stop-color="#F0F6FF"/>
</linearGradient>
<radialGradient id="paint1_radial_1477_7" cx="0" cy="0" r="1" gradientUnits="userSpaceOnUse" gradientTransform="translate(21.0001 72.9293) rotate(-90) scale(63.4287 58.9937)">
<stop stop-color="#FFDD55"/>
<stop offset="0.1" stop-color="#FFDD55"/>
<stop offset="0.5" stop-color="#FF543E"/>
<stop offset="1" stop-color="#C837AB"/>
</radialGradient>
<radialGradient id="paint2_radial_1477_7" cx="0" cy="0" r="1" gradientUnits="userSpaceOnUse" gradientTransform="translate(-6.72034 8.61045) rotate(78.6806) scale(28.3529 116.872)">
<stop stop-color="#3771C8"/>
<stop offset="0.128" stop-color="#3771C8"/>
<stop offset="1" stop-color="#6600FF" stop-opacity="0"/>
</radialGradient>
<clipPath id="clip0_1477_7">
<rect width="72" height="72" fill="white"/>
</clipPath>
</defs>
</svg>
