<svg width="72" height="72" viewBox="0 0 72 72" fill="none" xmlns="http://www.w3.org/2000/svg">
<g filter="url(#filter0_d_91_3073)">
<rect x="4" y="4" width="64" height="64" rx="16" fill="url(#paint0_linear_91_3073)"/>
<path d="M28 36C28 29.3726 33.3726 24 40 24H48C54.6274 24 60 29.3726 60 36V52C60 54.2091 58.2091 56 56 56H40C33.3726 56 28 50.6274 28 44V36Z" fill="url(#paint1_linear_91_3073)"/>
<path d="M47.82 34.48L50.38 35.22C47.86 42.42 43.2 46.62 36.04 48.86C35.76 48.26 35 47.1 34.52 46.52C41.44 44.7 45.74 41 47.82 34.48ZM40.1 34.64C42.12 40.56 46.44 44.82 53.56 46.42C52.98 46.98 52.2 48.12 51.82 48.82C44.32 46.86 40.2 42.28 37.7 35.36L40.1 34.64ZM34.88 33.18H53.2V35.54H34.88V33.18ZM42.74 30.02H45.22V34.62H42.74V30.02Z" fill="#333333"/>
<mask id="mask0_91_3073" style="mask-type:alpha" maskUnits="userSpaceOnUse" x="28" y="24" width="32" height="32">
<path d="M28 36C28 29.3726 33.3726 24 40 24H48C54.6274 24 60 29.3726 60 36V52C60 54.2091 58.2091 56 56 56H40C33.3726 56 28 50.6274 28 44V36Z" fill="url(#paint2_linear_91_3073)"/>
</mask>
<g mask="url(#mask0_91_3073)">
<g filter="url(#filter1_d_91_3073)">
<path d="M12 28C12 21.3726 17.3726 16 24 16H32C38.6274 16 44 21.3726 44 28V36C44 42.6274 38.6274 48 32 48H16C13.7909 48 12 46.2091 12 44V28Z" fill="url(#paint3_linear_91_3073)"/>
</g>
</g>
<path d="M12 28C12 21.3726 17.3726 16 24 16H32C38.6274 16 44 21.3726 44 28V36C44 42.6274 38.6274 48 32 48H16C13.7909 48 12 46.2091 12 44V28Z" fill="url(#paint4_linear_91_3073)"/>
<path d="M23.2795 41H19.9045L26.0494 23.5455H29.9528L36.1062 41H32.7312L28.0692 27.125H27.9329L23.2795 41ZM23.3903 34.1562H32.5948V36.696H23.3903V34.1562Z" fill="white"/>
</g>
<defs>
<filter id="filter0_d_91_3073" x="0" y="0" width="72" height="72" filterUnits="userSpaceOnUse" color-interpolation-filters="sRGB">
<feFlood flood-opacity="0" result="BackgroundImageFix"/>
<feColorMatrix in="SourceAlpha" type="matrix" values="0 0 0 0 0 0 0 0 0 0 0 0 0 0 0 0 0 0 127 0" result="hardAlpha"/>
<feOffset/>
<feGaussianBlur stdDeviation="2"/>
<feComposite in2="hardAlpha" operator="out"/>
<feColorMatrix type="matrix" values="0 0 0 0 0 0 0 0 0 0 0 0 0 0 0 0 0 0 0.1 0"/>
<feBlend mode="normal" in2="BackgroundImageFix" result="effect1_dropShadow_91_3073"/>
<feBlend mode="normal" in="SourceGraphic" in2="effect1_dropShadow_91_3073" result="shape"/>
</filter>
<filter id="filter1_d_91_3073" x="4" y="12" width="48" height="48" filterUnits="userSpaceOnUse" color-interpolation-filters="sRGB">
<feFlood flood-opacity="0" result="BackgroundImageFix"/>
<feColorMatrix in="SourceAlpha" type="matrix" values="0 0 0 0 0 0 0 0 0 0 0 0 0 0 0 0 0 0 127 0" result="hardAlpha"/>
<feOffset dy="4"/>
<feGaussianBlur stdDeviation="4"/>
<feComposite in2="hardAlpha" operator="out"/>
<feColorMatrix type="matrix" values="0 0 0 0 0 0 0 0 0 0 0 0 0 0 0 0 0 0 0.1 0"/>
<feBlend mode="normal" in2="BackgroundImageFix" result="effect1_dropShadow_91_3073"/>
<feBlend mode="normal" in="SourceGraphic" in2="effect1_dropShadow_91_3073" result="shape"/>
</filter>
<linearGradient id="paint0_linear_91_3073" x1="36" y1="4" x2="36" y2="68" gradientUnits="userSpaceOnUse">
<stop stop-color="#333333"/>
<stop offset="1"/>
</linearGradient>
<linearGradient id="paint1_linear_91_3073" x1="44" y1="24" x2="44" y2="56" gradientUnits="userSpaceOnUse">
<stop stop-color="white"/>
<stop offset="0.969" stop-color="#F0F6FF"/>
<stop offset="1"/>
</linearGradient>
<linearGradient id="paint2_linear_91_3073" x1="44" y1="24" x2="44" y2="56" gradientUnits="userSpaceOnUse">
<stop stop-color="white"/>
<stop offset="1" stop-color="#B0DDFF"/>
</linearGradient>
<linearGradient id="paint3_linear_91_3073" x1="28" y1="16" x2="28" y2="48" gradientUnits="userSpaceOnUse">
<stop stop-color="#00DDFF"/>
<stop offset="1" stop-color="#0061E0"/>
</linearGradient>
<linearGradient id="paint4_linear_91_3073" x1="28" y1="16" x2="28" y2="48" gradientUnits="userSpaceOnUse">
<stop stop-color="#00DDFF"/>
<stop offset="1" stop-color="#0061E0"/>
</linearGradient>
</defs>
</svg>
